# Blender 5.0.1
# www.blender.org
mtllib blackchest.mtl
o Cube
v 1.000000 -1.000000 -1.000000
v 1.000000 2.236462 -1.000000
v 2.869510 -1.000000 -1.000000
v 2.869510 2.236462 -1.000000
v 1.934755 -1.000000 -1.000000
v 1.934755 2.236462 -1.000000
v 0.000000 -1.000000 -1.000000
v 0.000000 2.236462 -1.000000
v 3.804265 2.236462 -1.000000
v 3.804265 -1.000000 -1.000000
v 2.869510 -1.000000 0.798746
v 2.869510 -0.798746 1.000000
v 1.000000 -1.000000 0.798746
v 1.000000 -0.798746 1.000000
v -1.000000 -0.798746 -1.000000
v -0.798746 -1.000000 -1.000000
v -0.798746 -1.000000 0.798746
v 4.537766 -1.000000 -1.000000
v 4.739020 -0.798746 -1.000000
v 4.537766 -1.000000 0.798746
v 1.000000 -1.000000 -3.208902
v 1.000000 -0.798746 -3.410156
v -0.798746 -1.000000 -3.208902
v 4.537766 -1.000000 -3.208902
v 1.000000 2.236462 0.798746
v 1.000000 2.035208 1.000000
v -0.798746 2.236462 -1.000000
v -1.000000 2.035208 -1.000000
v -0.798746 2.236462 0.798746
v 4.739020 2.035208 -1.000000
v 4.537766 2.236462 -1.000000
v 4.537766 2.236462 0.798746
v 1.000000 2.236462 -3.208902
v 1.000000 2.035208 -3.410156
v -0.798746 2.236462 -3.208902
v 4.537766 2.236462 -3.208902
v 2.869510 -1.000000 -3.208902
v 2.869510 -0.798746 -3.410156
v 2.869510 2.236462 0.798746
v 2.869510 2.035208 1.000000
v 2.869510 2.236462 -3.208902
v 2.869510 2.035208 -3.410156
v 1.934755 -0.798746 -3.410156
v 1.934755 -1.000000 -3.208902
v 1.934755 2.035208 1.000000
v 1.934755 2.236462 0.798746
v 1.934755 -0.798746 1.000000
v 1.934755 -1.000000 0.798746
v 1.934755 2.035208 -3.410156
v 1.934755 2.236462 -3.208902
v 0.000000 -0.798746 1.000000
v 0.000000 -1.000000 0.798746
v 0.000000 -0.798746 -3.410156
v 0.000000 -1.000000 -3.208902
v 0.000000 2.035208 1.000000
v 0.000000 2.236462 0.798746
v 0.000000 2.035208 -3.410156
v 0.000000 2.236462 -3.208902
v 3.804265 -0.798746 1.000000
v 3.804265 -1.000000 0.798746
v 3.804265 2.035208 -3.410156
v 3.804265 2.236462 -3.208902
v 3.804265 -0.798746 -3.410156
v 3.804265 -1.000000 -3.208902
v 3.804265 2.035208 1.000000
v 3.804265 2.236462 0.798746
v -0.810125 -0.798746 1.000000
v -1.000000 -0.798746 0.810125
v -0.890375 -0.908370 0.890375
v 4.739020 -0.798746 0.810125
v 4.549145 -0.798746 1.000000
v 4.629395 -0.908370 0.890375
v -1.000000 -0.798746 -3.220281
v -0.810125 -0.798746 -3.410156
v -0.890375 -0.908370 -3.300532
v 4.549145 -0.798746 -3.410156
v 4.739020 -0.798746 -3.220281
v 4.629395 -0.908370 -3.300532
v -1.000000 2.035208 0.810125
v -0.810125 2.035208 1.000000
v -0.890375 2.144833 0.890375
v 4.549145 2.035208 1.000000
v 4.739020 2.035208 0.810125
v 4.629395 2.144833 0.890375
v -0.810125 2.035208 -3.410156
v -1.000000 2.035208 -3.220281
v -0.890375 2.144833 -3.300532
v 4.739020 2.035208 -3.220281
v 4.549145 2.035208 -3.410156
v 4.629395 2.144833 -3.300532
v 1.000000 1.336008 1.000000
v 0.894102 1.263233 1.142769
v 0.988836 1.263233 1.142769
v 0.894102 0.736767 1.142769
v 1.000000 0.663992 1.000000
v 0.988836 0.736767 1.142769
v -1.000000 1.336008 -1.000000
v -1.189237 1.263233 -1.035305
v -1.189237 1.263233 -0.940571
v -1.189237 0.736767 -1.035305
v -1.000000 0.663992 -1.000000
v -1.189237 0.736767 -0.940571
v 4.739020 0.663992 -1.000000
v 4.924846 0.736767 -1.035305
v 4.924846 0.736767 -0.940571
v 4.924846 1.263233 -1.035305
v 4.739020 1.336008 -1.000000
v 4.924846 1.263233 -0.940571
v 1.000000 1.336008 -3.410156
v 0.988836 1.263233 -3.555605
v 0.894102 1.263233 -3.555605
v 0.988836 0.736767 -3.555605
v 1.000000 0.663992 -3.410156
v 0.894102 0.736767 -3.555605
v 2.869510 1.336008 1.000000
v 2.885791 1.263233 1.142769
v 2.980525 1.263233 1.142769
v 2.885791 0.736767 1.142769
v 2.869510 0.663992 1.000000
v 2.980525 0.736767 1.142769
v 2.869510 1.336008 -3.410156
v 2.980525 1.263233 -3.555605
v 2.885791 1.263233 -3.555605
v 2.980525 0.736767 -3.555605
v 2.869510 0.663992 -3.410156
v 2.885791 0.736767 -3.555605
v 1.984680 0.736767 1.325504
v 1.889946 0.736767 1.325504
v 1.934755 0.663992 1.000000
v 1.984680 1.263233 1.325504
v 1.934755 1.336008 1.000000
v 1.889946 1.263233 1.325504
v 1.889946 0.736767 -3.555605
v 1.984680 0.736767 -3.555605
v 1.934755 0.663992 -3.410156
v 1.889946 1.263233 -3.555605
v 1.934755 1.336008 -3.410156
v 1.984680 1.263233 -3.555605
v 0.000000 1.336008 1.000000
v -0.171251 1.263233 1.142769
v -0.076517 1.263233 1.142769
v -0.171251 0.736767 1.142769
v 0.000000 0.663992 1.000000
v -0.076517 0.736767 1.142769
v -0.171251 0.736767 -3.555605
v -0.076517 0.736767 -3.555605
v 0.000000 0.663992 -3.410156
v -0.171251 1.263233 -3.555605
v 0.000000 1.336008 -3.410156
v -0.076517 1.263233 -3.555605
v 3.804265 1.336008 -3.410156
v 3.976369 1.263233 -3.555605
v 3.881635 1.263233 -3.555605
v 3.976369 0.736767 -3.555605
v 3.804265 0.663992 -3.410156
v 3.881635 0.736767 -3.555605
v 3.976369 0.736767 1.142769
v 3.881635 0.736767 1.142769
v 3.804265 0.663992 1.000000
v 3.976369 1.263233 1.142769
v 3.804265 1.336008 1.000000
v 3.881635 1.263233 1.142769
v -0.939586 0.736767 1.142769
v -1.020447 0.736767 1.109275
v -0.810125 0.663992 1.000000
v -0.939586 1.263233 1.142769
v -0.810125 1.336008 1.000000
v -1.020447 1.263233 1.109275
v -1.000000 1.336008 0.810125
v -1.189237 1.263233 0.893117
v -1.155744 1.263233 0.973978
v -1.189237 0.736767 0.893117
v -1.000000 0.663992 0.810125
v -1.155744 0.736767 0.973978
v 4.924846 0.736767 0.893117
v 4.891353 0.736767 0.973978
v 4.739020 0.663992 0.810125
v 4.924846 1.263233 0.893117
v 4.739020 1.336008 0.810125
v 4.891353 1.263233 0.973978
v 4.549145 1.336008 1.000000
v 4.675195 1.263233 1.142769
v 4.756056 1.263233 1.109275
v 4.675195 0.736767 1.142769
v 4.549145 0.663992 1.000000
v 4.756056 0.736767 1.109275
v -1.189237 0.736767 -3.305954
v -1.155744 0.736767 -3.386815
v -1.000000 0.663992 -3.220281
v -1.189237 1.263233 -3.305954
v -1.000000 1.336008 -3.220281
v -1.155744 1.263233 -3.386815
v -0.810125 1.336008 -3.410156
v -0.939586 1.263233 -3.555605
v -1.020447 1.263233 -3.522112
v -0.939586 0.736767 -3.555605
v -0.810125 0.663992 -3.410156
v -1.020447 0.736767 -3.522112
v 4.675195 0.736767 -3.555605
v 4.756056 0.736767 -3.522112
v 4.549145 0.663992 -3.410156
v 4.675195 1.263233 -3.555605
v 4.549145 1.336008 -3.410156
v 4.756056 1.263233 -3.522112
v 4.739020 1.336008 -3.220281
v 4.924846 1.263233 -3.305954
v 4.891353 1.263233 -3.386815
v 4.924846 0.736767 -3.305954
v 4.739020 0.663992 -3.220281
v 4.891353 0.736767 -3.386815
v 1.467377 -1.000000 -1.000000
v 1.467377 2.236462 -1.000000
v 1.467377 -1.000000 -3.208902
v 1.467377 -0.798746 -3.410156
v 1.467377 2.236462 0.798746
v 1.467377 2.035208 1.000000
v 1.467377 -1.000000 0.798746
v 1.467377 -0.798746 1.000000
v 1.467377 2.236462 -3.208902
v 1.467377 2.035208 -3.410156
v 1.467377 1.336008 1.000000
v 1.439391 1.263233 1.142769
v 1.467377 0.663992 1.000000
v 1.439391 0.736767 1.142769
v 1.467377 1.336008 -3.410156
v 1.439391 1.263233 -3.555605
v 1.467377 0.663992 -3.410156
v 1.439391 0.736767 -3.555605
v 2.402133 2.236462 -1.000000
v 2.402133 -1.000000 -1.000000
v 2.402133 -1.000000 0.798746
v 2.402133 -0.798746 1.000000
v 2.402133 2.236462 -3.208902
v 2.402133 2.035208 -3.410156
v 2.402133 -1.000000 -3.208902
v 2.402133 -0.798746 -3.410156
v 2.402133 2.236462 0.798746
v 2.402133 2.035208 1.000000
v 2.402133 1.336008 -3.410156
v 2.435236 1.263233 -3.555605
v 2.402133 0.663992 -3.410156
v 2.435236 0.736767 -3.555605
v 2.402133 1.336008 1.000000
v 2.435236 1.263233 1.142769
v 2.402133 0.663992 1.000000
v 2.435236 0.736767 1.142769
v 1.000000 -0.067377 1.000000
v 0.000000 -0.067377 1.000000
v 1.934755 -0.067377 1.000000
v -1.000000 -0.067377 -1.000000
v -1.000000 -0.067377 -3.220281
v -1.000000 -0.067377 0.810125
v 4.739020 -0.067377 -1.000000
v 4.739020 -0.067377 0.810125
v 4.739020 -0.067377 -3.220281
v 1.000000 -0.067377 -3.410156
v 1.934755 -0.067377 -3.410156
v 0.000000 -0.067377 -3.410156
v 2.869510 -0.067377 1.000000
v 3.804265 -0.067377 1.000000
v 2.869510 -0.067377 -3.410156
v 3.804265 -0.067377 -3.410156
v -0.810125 -0.067377 1.000000
v -0.810125 -0.067377 -3.410156
v 4.549145 -0.067377 -3.410156
v 4.549145 -0.067377 1.000000
v 1.467377 -0.067377 -3.410156
v 1.467377 -0.067377 1.000000
v 2.402133 -0.067377 -3.410156
v 2.402133 -0.067377 1.000000
v 1.984680 1.000000 1.325504
v 1.889946 1.000000 1.325504
v 0.894102 1.000000 1.142769
v 0.988836 1.000000 1.142769
v -0.171251 1.000000 -3.555605
v -0.076517 1.000000 -3.555605
v 0.988836 1.000000 -3.555605
v 0.894102 1.000000 -3.555605
v 3.976369 1.000000 1.142769
v 3.881635 1.000000 1.142769
v 2.885791 1.000000 1.142769
v 2.980525 1.000000 1.142769
v 1.889946 1.000000 -3.555605
v 1.984680 1.000000 -3.555605
v 2.980525 1.000000 -3.555605
v 2.885791 1.000000 -3.555605
v -0.171251 1.000000 1.142769
v -0.076517 1.000000 1.142769
v 3.976369 1.000000 -3.555605
v 3.881635 1.000000 -3.555605
v -1.189237 1.000000 -3.305954
v -1.155744 1.000000 -3.386815
v -0.939586 1.000000 -3.555605
v -1.020447 1.000000 -3.522112
v -0.939586 1.000000 1.142769
v -1.020447 1.000000 1.109275
v -1.189237 1.000000 0.893117
v -1.155744 1.000000 0.973978
v 4.675195 1.000000 -3.555605
v 4.756056 1.000000 -3.522112
v 4.924846 1.000000 -3.305954
v 4.891353 1.000000 -3.386815
v 4.924846 1.000000 0.893117
v 4.891353 1.000000 0.973978
v 4.675195 1.000000 1.142769
v 4.756056 1.000000 1.109275
v -1.189237 1.000000 -1.035305
v -1.189237 1.000000 -0.940571
v 4.924846 1.000000 -1.035305
v 4.924846 1.000000 -0.940571
v 1.439391 1.000000 -3.555605
v 1.439391 1.000000 1.142769
v 2.435236 1.000000 -3.555605
v 2.435236 1.000000 1.142769
v 1.000000 0.298308 1.000000
v 1.934755 0.298308 1.000000
v -1.000000 0.298308 -1.000000
v -1.000000 0.298308 0.810125
v 4.739020 0.298308 -1.000000
v 4.739020 0.298308 -3.220281
v 1.000000 0.298308 -3.410156
v 0.000000 0.298308 -3.410156
v 2.869510 0.298308 1.000000
v 3.804265 0.298308 1.000000
v 2.869510 0.298308 -3.410156
v -0.810125 0.298308 -3.410156
v 4.549145 0.298308 1.000000
v 1.467377 0.298308 1.000000
v 2.402133 0.298308 1.000000
v 0.000000 0.298308 1.000000
v -1.000000 0.298308 -3.220281
v 4.739020 0.298308 0.810125
v 1.934755 0.298308 -3.410156
v 3.804265 0.298308 -3.410156
v -0.810125 0.298308 1.000000
v 4.549145 0.298308 -3.410156
v 1.467377 0.298308 -3.410156
v 2.402133 0.298308 -3.410156
v 1.000000 1.685608 1.000000
v 1.934755 1.685608 1.000000
v 0.000000 1.685608 1.000000
v -1.000000 1.685608 -1.000000
v -1.000000 1.685608 0.810125
v -1.000000 1.685608 -3.220281
v 4.739020 1.685608 -1.000000
v 4.739020 1.685608 -3.220281
v 4.739020 1.685608 0.810125
v 1.000000 1.685608 -3.410156
v 0.000000 1.685608 -3.410156
v 1.934755 1.685608 -3.410156
v 2.869510 1.685608 1.000000
v 3.804265 1.685608 1.000000
v 2.869510 1.685608 -3.410156
v 3.804265 1.685608 -3.410156
v -0.810125 1.685608 1.000000
v -0.810125 1.685608 -3.410156
v 4.549145 1.685608 -3.410156
v 4.549145 1.685608 1.000000
v 1.467377 1.685608 -3.410156
v 1.467377 1.685608 1.000000
v 2.402133 1.685608 -3.410156
v 2.402133 1.685608 1.000000
v 2.168444 -1.000000 -1.000000
v 2.168444 -0.798746 1.000000
v 2.168444 2.035208 -3.410156
v 2.168444 -1.000000 -3.208902
v 2.168444 2.236462 0.798746
v 2.209958 1.263233 -3.555605
v 2.168444 0.663992 -3.410156
v 2.168444 1.336008 1.000000
v 2.209958 0.736767 1.325504
v 2.168444 2.236462 -1.000000
v 2.168444 -1.000000 0.798746
v 2.168444 2.236462 -3.208902
v 2.168444 -0.798746 -3.410156
v 2.168444 2.035208 1.000000
v 2.168444 1.336008 -3.410156
v 2.209958 0.736767 -3.555605
v 2.209958 1.263233 1.325504
v 2.168444 0.663992 1.000000
v 2.168444 -0.067377 1.000000
v 2.168444 -0.067377 -3.410156
v 2.209958 1.000000 -3.555605
v 2.209958 1.000000 1.325504
v 2.168444 0.298308 1.000000
v 2.168444 0.298308 -3.410156
v 2.168444 1.685608 1.000000
v 2.168444 1.685608 -3.410156
v 1.701066 2.236462 -1.000000
v 1.701066 -0.798746 -3.410156
v 1.701066 2.035208 1.000000
v 1.701066 -1.000000 0.798746
v 1.701066 2.236462 -3.208902
v 1.664669 1.263233 1.325504
v 1.701066 0.663992 1.000000
v 1.701066 1.336008 -3.410156
v 1.664669 0.736767 -3.555605
v 1.701066 -1.000000 -1.000000
v 1.701066 -1.000000 -3.208902
v 1.701066 2.236462 0.798746
v 1.701066 -0.798746 1.000000
v 1.701066 2.035208 -3.410156
v 1.701066 1.336008 1.000000
v 1.664669 0.736767 1.325504
v 1.664669 1.263233 -3.555605
v 1.701066 0.663992 -3.410156
v 1.701066 -0.067377 -3.410156
v 1.701066 -0.067377 1.000000
v 1.664669 1.000000 1.325504
v 1.664669 1.000000 -3.555605
v 1.701066 0.298308 1.000000
v 1.701066 0.298308 -3.410156
v 1.701066 1.685608 -3.410156
v 1.701066 1.685608 1.000000
v 1.889946 0.868384 1.325504
v 0.894102 0.868384 1.142769
v -0.076517 0.868384 -3.555605
v 0.988836 0.868384 -3.555605
v 3.881635 0.868384 1.142769
v 2.885791 0.868384 1.142769
v 1.984680 0.868384 -3.555605
v 2.980525 0.868384 -3.555605
v -0.171251 0.868384 1.142769
v 3.976369 0.868384 -3.555605
v -1.155744 0.868384 -3.386815
v -0.939586 0.868384 -3.555605
v -1.020447 0.868384 1.109275
v -1.189237 0.868384 0.893117
v 4.756056 0.868384 -3.522112
v 4.924846 0.868384 -3.305954
v 4.891353 0.868384 0.973978
v 4.675195 0.868384 1.142769
v -1.189237 0.868384 -1.035305
v 4.924846 0.868384 -0.940571
v 1.439391 0.868384 -3.555605
v 1.439391 0.868384 1.142769
v 2.435236 0.868384 -3.555605
v 2.435236 0.868384 1.142769
v 1.984680 0.868384 1.325504
v 0.988836 0.868384 1.142769
v -0.171251 0.868384 -3.555605
v 0.894102 0.868384 -3.555605
v 3.976369 0.868384 1.142769
v 2.980525 0.868384 1.142769
v 1.889946 0.868384 -3.555605
v 2.885791 0.868384 -3.555605
v -0.076517 0.868384 1.142769
v 3.881635 0.868384 -3.555605
v -1.189237 0.868384 -3.305954
v -1.020447 0.868384 -3.522112
v -0.939586 0.868384 1.142769
v -1.155744 0.868384 0.973978
v 4.675195 0.868384 -3.555605
v 4.891353 0.868384 -3.386815
v 4.924846 0.868384 0.893117
v 4.756056 0.868384 1.109275
v -1.189237 0.868384 -0.940571
v 4.924846 0.868384 -1.035305
v 2.209958 0.868384 -3.555605
v 2.209958 0.868384 1.325504
v 1.664669 0.868384 1.325504
v 1.664669 0.868384 -3.555605
v 1.984680 1.131616 1.325504
v 0.988836 1.131616 1.142769
v -0.171251 1.131616 -3.555605
v 0.894102 1.131616 -3.555605
v 3.976369 1.131616 1.142769
v 2.980525 1.131616 1.142769
v 1.889946 1.131616 -3.555605
v 2.885791 1.131616 -3.555605
v -0.076517 1.131616 1.142769
v 3.881635 1.131616 -3.555605
v -1.189237 1.131616 -3.305954
v -1.020447 1.131616 -3.522112
v -0.939586 1.131616 1.142769
v -1.155744 1.131616 0.973978
v 4.675195 1.131616 -3.555605
v 4.891353 1.131616 -3.386815
v 4.924846 1.131616 0.893117
v 4.756056 1.131616 1.109275
v -1.189237 1.131616 -0.940571
v 4.924846 1.131616 -1.035305
v 1.889946 1.131616 1.325504
v 0.894102 1.131616 1.142769
v -0.076517 1.131616 -3.555605
v 0.988836 1.131616 -3.555605
v 3.881635 1.131616 1.142769
v 2.885791 1.131616 1.142769
v 1.984680 1.131616 -3.555605
v 2.980525 1.131616 -3.555605
v -0.171251 1.131616 1.142769
v 3.976369 1.131616 -3.555605
v -1.155744 1.131616 -3.386815
v -0.939586 1.131616 -3.555605
v -1.020447 1.131616 1.109275
v -1.189237 1.131616 0.893117
v 4.756056 1.131616 -3.522112
v 4.924846 1.131616 -3.305954
v 4.891353 1.131616 0.973978
v 4.675195 1.131616 1.142769
v -1.189237 1.131616 -1.035305
v 4.924846 1.131616 -0.940571
v 1.439391 1.131616 -3.555605
v 1.439391 1.131616 1.142769
v 2.435236 1.131616 -3.555605
v 2.435236 1.131616 1.142769
v 2.209958 1.131616 1.325504
v 2.209958 1.131616 -3.555605
v 1.664669 1.131616 -3.555605
v 1.664669 1.131616 1.325504
vn -0.0000 -0.7071 0.7071
vn -0.0000 -0.7071 -0.7071
vn -0.0000 0.7071 0.7071
vn -0.0000 0.7071 -0.7071
vn -0.0000 -1.0000 -0.0000
vn -0.0000 1.0000 -0.0000
vn -0.6947 -0.1862 0.6947
vn 0.6947 -0.1862 0.6947
vn -0.6947 -0.1862 -0.6947
vn 0.6947 -0.1862 -0.6947
vn -0.6947 0.1862 0.6947
vn 0.6947 0.1862 0.6947
vn -0.6947 0.1862 -0.6947
vn 0.6947 0.1862 -0.6947
vn -0.7071 -0.7071 -0.0000
vn 0.7071 -0.7071 -0.0000
vn -0.7071 0.7071 -0.0000
vn 0.7071 0.7071 -0.0000
vn -0.0000 0.8909 0.4541
vn -0.0000 -0.8909 0.4541
vn -0.3589 0.9334 -0.0000
vn -0.3589 -0.9334 -0.0000
vn 0.3647 -0.9311 -0.0000
vn 0.3647 0.9311 -0.0000
vn -0.0000 0.8943 -0.4475
vn -0.0000 -0.8943 -0.4475
vn -0.0000 -0.9759 0.2182
vn -0.0000 0.9759 0.2182
vn -0.1425 -0.9281 0.3439
vn -0.1425 0.9281 0.3439
vn -0.3070 0.9432 0.1271
vn -0.3070 -0.9432 0.1271
vn 0.3112 -0.9416 0.1289
vn 0.3112 0.9416 0.1289
vn 0.1433 0.9272 0.3461
vn 0.1433 -0.9272 0.3461
vn -0.3056 -0.9437 -0.1266
vn -0.3056 0.9437 -0.1266
vn -0.1408 0.9299 -0.3399
vn -0.1408 -0.9299 -0.3399
vn 0.1417 -0.9290 -0.3420
vn 0.1417 0.9290 -0.3420
vn 0.3098 0.9421 -0.1283
vn 0.3098 -0.9421 -0.1283
vn -0.0000 -0.0000 1.0000
vn -0.0000 -0.0000 -1.0000
vn -0.9239 -0.0000 -0.3827
vn -0.2151 0.9526 -0.2151
vn -0.3827 -0.0000 -0.9239
vn -0.2151 -0.9526 -0.2151
vn -0.3827 -0.0000 0.9239
vn -0.2167 0.9519 0.2167
vn -0.9239 -0.0000 0.3827
vn -0.2167 -0.9519 0.2167
vn 0.3827 -0.0000 -0.9239
vn 0.2172 0.9517 -0.2172
vn 0.9239 -0.0000 -0.3827
vn 0.2172 -0.9517 -0.2172
vn 0.9239 -0.0000 0.3827
vn 0.2189 0.9509 0.2189
vn 0.3827 -0.0000 0.9239
vn 0.2189 -0.9509 0.2189
vn -1.0000 -0.0000 -0.0000
vn 1.0000 -0.0000 -0.0000
vn -0.7071 -0.0000 0.7071
vn 0.7071 -0.0000 0.7071
vn -0.7071 -0.0000 -0.7071
vn 0.7071 -0.0000 -0.7071
vn -0.6300 -0.0000 0.7766
vn -0.1118 0.9532 0.2809
vn 0.1110 -0.9539 0.2788
vn 0.6300 -0.0000 0.7766
vn 0.1110 0.9539 0.2788
vn -0.1118 -0.9532 0.2809
vt 0.250000 0.724843
vt 0.375000 0.724843
vt 0.393868 0.750000
vt 0.250000 0.750000
vt 0.375000 0.500000
vt 0.393868 0.500000
vt 0.397012 0.500000
vt 0.625000 0.727988
vt 0.625000 0.731132
vt 0.625000 0.750000
vt 0.625000 0.375000
vt 0.625000 0.500000
vt 0.400157 0.750000
vt 0.400157 0.500000
vt 0.625000 0.724843
vt 0.398584 0.750000
vt 0.250000 0.500000
vt 0.625000 0.875000
vt 0.150157 0.500000
vt 0.150157 0.724843
vt 0.375000 0.500000
vt 0.375000 0.724843
vt 0.750000 0.500000
vt 0.750000 0.724843
vt 0.625000 0.726416
vt 0.849843 0.500000
vt 0.849843 0.724843
vt 0.140823 0.746044
vt 0.125000 0.726266
vt 0.138703 0.736297
vt 0.400157 0.726266
vt 0.386454 0.736297
vt 0.125000 0.500000
vt 0.140823 0.500000
vt 0.138703 0.500000
vt 0.386454 0.500000
vt 0.625000 0.023734
vt 0.625000 0.003956
vt 0.625000 0.013703
vt 0.625000 0.732199
vt 0.625000 0.736297
vt 0.625000 0.273734
vt 0.625000 0.250000
vt 0.625000 0.256852
vt 0.625000 0.025157
vt 0.625000 0.974843
vt 0.625000 0.986297
vt 0.625000 0.976266
vt 0.625000 0.262578
vt 0.622154 0.755558
vt 0.622155 0.750000
vt 0.590428 0.755558
vt 0.581824 0.750000
vt 0.590431 0.750000
vt 0.622221 0.250000
vt 0.622221 0.244442
vt 0.591335 0.250000
vt 0.582999 0.250000
vt 0.591336 0.244442
vt 0.582999 0.500000
vt 0.591336 0.500000
vt 0.591336 0.505569
vt 0.622221 0.500000
vt 0.622221 0.505588
vt 0.622155 0.500000
vt 0.622154 0.494442
vt 0.590431 0.500000
vt 0.581824 0.500000
vt 0.590428 0.494442
vt 0.622221 0.750000
vt 0.591336 0.750000
vt 0.582999 0.750000
vt 0.591335 0.500000
vt 0.591298 0.750000
vt 0.622210 0.750000
vt 0.591298 0.500000
vt 0.622210 0.500000
vt 0.622221 0.880558
vt 0.622210 0.869442
vt 0.591336 0.880558
vt 0.582999 0.875000
vt 0.591301 0.869442
vt 0.591336 0.369442
vt 0.591301 0.380558
vt 0.582999 0.375000
vt 0.622221 0.369442
vt 0.622210 0.380558
vt 0.622221 0.500000
vt 0.591336 0.750000
vt 0.591335 0.750000
vt 0.622221 0.750000
vt 0.591336 0.000085
vt 0.591336 0.003990
vt 0.584852 0.000000
vt 0.622221 0.001029
vt 0.625000 0.001227
vt 0.622221 0.004799
vt 0.622221 0.029292
vt 0.622221 0.019964
vt 0.591336 0.029292
vt 0.582999 0.023734
vt 0.591336 0.019829
vt 0.591336 0.720824
vt 0.591336 0.730286
vt 0.582999 0.726266
vt 0.622221 0.722222
vt 0.625000 0.728192
vt 0.622221 0.731500
vt 0.622221 0.746310
vt 0.591336 0.746107
vt 0.591336 0.250000
vt 0.591336 0.253930
vt 0.622221 0.253930
vt 0.625000 0.273734
vt 0.622221 0.279292
vt 0.622221 0.269805
vt 0.591336 0.279292
vt 0.582999 0.273734
vt 0.591336 0.269805
vt 0.622221 0.500000
vt 0.622221 0.500000
vt 0.614500 0.750000
vt 0.614482 0.750000
vt 0.622182 0.750000
vt 0.598360 0.755558
vt 0.598362 0.750000
vt 0.582705 0.750000
vt 0.591082 0.750000
vt 0.614500 0.369442
vt 0.614483 0.380558
vt 0.598362 0.500000
vt 0.598360 0.494442
vt 0.614500 0.750000
vt 0.614500 0.750000
vt 0.599057 0.750000
vt 0.614482 0.500000
vt 0.614500 0.500000
vt 0.622221 0.500000
vt 0.599057 0.500000
vt 0.599057 0.500000
vt 0.582999 0.500000
vt 0.622221 0.750000
vt 0.582999 0.750000
vt 0.622196 0.500000
vt 0.582412 0.500000
vt 0.590865 0.500000
vt 0.599057 0.880558
vt 0.599028 0.869442
vt 0.614500 0.250000
vt 0.614500 0.253930
vt 0.599057 0.279292
vt 0.599057 0.269805
vt 0.614500 0.000793
vt 0.614500 0.004597
vt 0.599057 0.029292
vt 0.599057 0.019863
vt 0.614500 0.721872
vt 0.614500 0.731196
vt 0.599057 0.746158
vt 0.582999 0.976266
vt 0.591336 0.970708
vt 0.622221 0.970708
vt 0.599057 0.250000
vt 0.599057 0.244442
vt 0.614500 0.505583
vt 0.598694 0.750000
vt 0.590865 0.750000
vt 0.534835 0.750000
vt 0.537288 0.875000
vt 0.490645 0.750000
vt 0.491578 0.750000
vt 0.614500 0.250000
vt 0.537288 0.250000
vt 0.537288 0.023734
vt 0.537288 0.500000
vt 0.537288 0.726266
vt 0.491578 0.500000
vt 0.625000 0.730195
vt 0.599028 0.380558
vt 0.598860 0.500000
vt 0.599026 0.500000
vt 0.591082 0.500000
vt 0.536675 0.500000
vt 0.582705 0.500000
vt 0.537288 0.375000
vt 0.534835 0.500000
vt 0.599057 0.750000
vt 0.537288 0.500000
vt 0.614500 0.970708
vt 0.614500 0.880558
vt 0.537288 0.976266
vt 0.599057 0.369442
vt 0.537288 0.273734
vt 0.599057 0.750000
vt 0.599057 0.004192
vt 0.538678 0.000000
vt 0.625000 0.002592
vt 0.599057 0.730589
vt 0.491578 0.726266
vt 0.599057 0.253930
vt 0.491578 0.273734
vt 0.400157 0.273734
vt 0.400157 0.250000
vt 0.491578 0.250000
vt 0.536062 0.500000
vt 0.598694 0.500000
vt 0.487846 0.750000
vt 0.397012 0.750000
vt 0.489712 0.750000
vt 0.598860 0.750000
vt 0.622182 0.500000
vt 0.582412 0.750000
vt 0.622196 0.750000
vt 0.398584 0.500000
vt 0.582999 0.750000
vt 0.537288 0.750000
vt 0.491578 0.500000
vt 0.536062 0.750000
vt 0.487846 0.500000
vt 0.489712 0.500000
vt 0.400157 0.000000
vt 0.492504 0.000000
vt 0.491578 0.023734
vt 0.400157 0.023734
vt 0.491578 0.375000
vt 0.400157 0.375000
vt 0.400157 0.875000
vt 0.491578 0.875000
vt 0.491578 0.976266
vt 0.400157 0.976266
vt 0.490645 0.500000
vt 0.536675 0.750000
vt 0.614500 0.750000
vt 0.606778 0.750000
vt 0.606778 0.750000
vt 0.614500 0.500000
vt 0.614500 0.500000
vt 0.606778 0.500000
vt 0.606778 0.500000
vt 0.614417 0.750000
vt 0.614353 0.750000
vt 0.606524 0.750000
vt 0.606639 0.750000
vt 0.614224 0.500000
vt 0.614353 0.500000
vt 0.606524 0.500000
vt 0.606293 0.500000
vt 0.614500 0.269805
vt 0.606778 0.269805
vt 0.606778 0.253930
vt 0.614500 0.746259
vt 0.606778 0.746208
vt 0.606778 0.730893
vt 0.614500 0.019931
vt 0.606778 0.019897
vt 0.606778 0.004395
vt 0.606778 0.750000
vt 0.614500 0.279292
vt 0.606778 0.369442
vt 0.606778 0.279292
vt 0.599057 0.970708
vt 0.606778 0.880558
vt 0.606778 0.970708
vt 0.614417 0.500000
vt 0.606754 0.500000
vt 0.606639 0.500000
vt 0.614223 0.494442
vt 0.606291 0.494442
vt 0.606756 0.380558
vt 0.599057 0.721174
vt 0.599057 0.505573
vt 0.606778 0.505578
vt 0.606778 0.721523
vt 0.599057 0.250000
vt 0.606778 0.250000
vt 0.606778 0.250000
vt 0.614500 0.029292
vt 0.614500 0.244442
vt 0.606778 0.244442
vt 0.606778 0.029292
vt 0.614223 0.755558
vt 0.614483 0.869442
vt 0.606756 0.869442
vt 0.606291 0.755558
vt 0.614224 0.750000
vt 0.606293 0.750000
vt 0.599057 0.000321
vt 0.606778 0.000557
vt 0.606754 0.750000
vt 0.599026 0.750000
s 0
usemtl Material
f 52/1/1 13/2/1 14/3/1 51/4/1
f 213/5/2 21/5/2 22/6/2 214/7/2
f 215/8/3 25/9/3 26/10/3 216/10/3
f 58/11/4 33/12/4 34/12/4 57/11/4
f 231/2/1 11/2/1 12/13/1 232/13/1
f 64/5/2 37/5/2 38/14/2 63/14/2
f 66/15/3 39/15/3 40/10/3 65/10/3
f 233/12/4 41/12/4 42/12/4 234/12/4
f 366/5/2 44/5/2 43/14/2 375/14/2
f 367/15/3 46/15/3 45/10/3 376/10/3
f 392/2/1 48/2/1 47/13/1 401/16/1
f 393/12/4 50/12/4 49/12/4 402/12/4
f 21/5/2 54/17/2 53/17/2 22/6/2
f 25/9/3 56/18/3 55/18/3 26/10/3
f 11/2/1 60/2/1 59/13/1 12/13/1
f 41/12/4 62/12/4 61/12/4 42/12/4
f 231/2/5 230/5/5 3/5/5 11/2/5
f 11/2/5 3/5/5 10/5/5 60/2/5
f 7/17/5 1/5/5 13/2/5 52/1/5
f 392/2/5 398/5/5 5/5/5 48/2/5
f 16/19/5 7/17/5 52/1/5 17/20/5
f 7/17/5 16/19/5 23/19/5 54/17/5
f 18/5/5 10/5/5 64/5/5 24/21/5
f 60/2/5 10/5/5 18/5/5 20/22/5
f 211/5/5 1/5/5 21/5/5 213/5/5
f 1/5/5 7/17/5 54/17/5 21/5/5
f 2/12/6 8/23/6 56/24/6 25/9/6
f 389/12/6 400/25/6 46/15/6 6/12/6
f 8/23/6 27/26/6 29/27/6 56/24/6
f 27/26/6 8/23/6 58/23/6 35/26/6
f 9/12/6 66/15/6 32/15/6 31/12/6
f 9/12/6 31/12/6 36/12/6 62/12/6
f 389/12/6 6/12/6 50/12/6 393/12/6
f 8/23/6 2/12/6 33/12/6 58/23/6
f 363/5/5 5/5/5 44/5/5 366/5/5
f 10/5/5 3/5/5 37/5/5 64/5/5
f 4/12/6 39/15/6 66/15/6 9/12/6
f 229/12/6 237/15/6 39/15/6 4/12/6
f 4/12/6 9/12/6 62/12/6 41/12/6
f 229/12/6 4/12/6 41/12/6 233/12/6
f 67/28/7 68/29/7 69/30/7
f 70/31/8 71/13/8 72/32/8
f 73/33/9 74/34/9 75/35/9
f 76/14/10 77/14/10 78/36/10
f 79/37/11 80/38/11 81/39/11
f 82/10/12 83/40/12 84/41/12
f 85/42/13 86/43/13 87/44/13
f 88/12/14 89/12/14 90/12/14
f 17/20/1 52/1/1 51/4/1 67/28/1 69/30/1
f 16/19/15 17/20/15 69/30/15 68/29/15 15/33/15
f 60/2/1 20/22/1 72/32/1 71/13/1 59/13/1
f 20/22/16 18/5/16 19/14/16 70/31/16 72/32/16
f 23/19/15 16/19/15 15/33/15 73/33/15 75/35/15
f 54/17/2 23/19/2 75/35/2 74/34/2 53/17/2
f 24/21/2 64/5/2 63/14/2 76/14/2 78/36/2
f 78/36/16 77/14/16 19/14/16 18/5/16 24/21/16
f 29/45/17 27/43/17 28/43/17 79/37/17 81/39/17
f 56/18/3 29/46/3 81/47/3 80/48/3 55/18/3
f 32/15/3 66/15/3 65/10/3 82/10/3 84/41/3
f 31/12/18 32/15/18 84/41/18 83/40/18 30/12/18
f 35/49/4 58/11/4 57/11/4 85/42/4 87/44/4
f 87/44/17 86/43/17 28/43/17 27/43/17 35/49/17
f 30/12/18 88/12/18 90/12/18 36/12/18 31/12/18
f 62/12/4 36/12/4 90/12/4 89/12/4 61/12/4
f 414/10/45 340/10/45 45/10/45 391/10/45
f 341/18/45 339/10/45 26/10/45 55/18/45
f 315/168/45 95/53/45 143/81/45 330/169/45
f 408/170/45 401/16/45 47/13/45 249/171/45
f 342/43/63 343/37/63 79/37/63 28/43/63
f 344/43/63 342/43/63 28/43/63 86/43/63
f 317/173/63 101/58/63 189/58/63 331/173/63
f 318/174/63 173/101/63 101/58/63 317/173/63
f 319/175/64 103/60/64 177/105/64 332/176/64
f 253/177/64 19/14/64 77/14/64 255/177/64
f 345/12/64 346/12/64 88/12/64 30/12/64
f 347/178/64 345/12/64 30/12/64 83/40/64
f 348/12/46 349/11/46 57/11/46 34/12/46
f 359/12/46 348/12/46 34/12/46 220/12/46
f 412/183/46 406/184/46 135/60/46 333/175/46
f 322/185/46 147/85/46 113/68/46 321/186/46
f 351/10/45 352/10/45 65/10/45 40/10/45
f 362/10/45 351/10/45 40/10/45 238/10/45
f 270/171/45 232/13/45 12/13/45 259/171/45
f 259/171/45 12/13/45 59/13/45 260/171/45
f 388/12/46 350/12/46 49/12/46 365/12/46
f 354/12/46 353/12/46 42/12/46 61/12/46
f 325/175/46 125/60/46 155/60/46 334/175/46
f 338/188/46 241/141/46 125/60/46 325/175/46
f 355/48/45 341/18/45 55/18/45 80/48/45
f 330/169/45 143/81/45 165/160/45 335/191/45
f 326/193/46 197/118/46 147/85/46 322/185/46
f 349/11/46 356/114/46 85/42/46 57/11/46
f 357/12/46 354/12/46 61/12/46 89/12/46
f 334/175/46 155/60/46 201/60/46 336/175/46
f 260/171/45 59/13/45 71/13/45 266/171/45
f 352/10/45 358/10/45 82/10/45 65/10/45
f 335/196/65 165/94/65 173/101/65 318/174/65
f 355/197/65 80/38/65 79/37/65 343/37/65
f 266/171/66 71/13/66 70/31/66 254/199/66
f 358/10/66 181/10/66 179/107/66 347/178/66
f 264/201/67 74/202/67 73/203/67 251/204/67
f 356/114/67 193/114/67 191/43/67 344/43/67
f 336/175/68 201/60/68 209/60/68 320/175/68
f 357/12/68 89/12/68 88/12/68 346/12/68
f 321/186/46 113/68/46 227/145/46 337/205/46
f 413/12/46 359/12/46 220/12/46 402/12/46
f 247/207/45 14/3/45 218/208/45 268/209/45
f 339/10/45 360/10/45 216/10/45 26/10/45
f 2/12/6 212/12/6 219/12/6 33/12/6
f 2/12/6 25/9/6 215/8/6 212/12/6
f 398/5/5 211/5/5 213/5/5 399/5/5
f 13/2/5 1/5/5 211/5/5 217/2/5
f 33/12/4 219/12/4 220/12/4 34/12/4
f 13/2/1 217/2/1 218/208/1 14/3/1
f 400/25/3 215/8/3 216/10/3 391/10/3
f 399/5/2 213/5/2 214/7/2 390/214/2
f 386/188/46 369/141/46 241/141/46 338/188/46
f 353/12/46 361/12/46 234/12/46 42/12/46
f 381/171/45 364/13/45 232/13/45 270/171/45
f 387/10/45 362/10/45 238/10/45 376/10/45
f 372/12/6 229/12/6 233/12/6 374/12/6
f 372/12/6 367/15/6 237/15/6 229/12/6
f 3/5/5 230/5/5 235/5/5 37/5/5
f 373/2/5 363/5/5 230/5/5 231/2/5
f 39/15/3 237/15/3 238/10/3 40/10/3
f 37/5/2 235/5/2 236/14/2 38/14/2
f 374/12/4 233/12/4 234/12/4 365/12/4
f 373/2/1 231/2/1 232/13/1 364/13/1
f 385/216/45 381/171/45 270/171/45 329/216/45
f 375/14/46 382/217/46 269/217/46 236/14/46
f 315/168/45 247/207/45 268/209/45 328/218/45
f 22/6/46 256/219/46 267/220/46 214/7/46
f 76/14/68 265/177/68 255/177/68 77/14/68
f 326/193/67 264/201/67 251/204/67 331/173/67
f 327/216/66 266/171/66 254/199/66 332/176/66
f 67/221/65 263/222/65 252/223/65 68/224/65
f 324/216/45 260/171/45 266/171/45 327/216/45
f 63/14/46 262/177/46 265/177/46 76/14/46
f 74/202/46 264/201/46 258/225/46 53/226/46
f 51/227/45 248/228/45 263/229/45 67/230/45
f 236/14/46 269/217/46 261/177/46 38/14/46
f 38/14/46 261/177/46 262/177/46 63/14/46
f 323/216/45 259/171/45 260/171/45 324/216/45
f 329/216/45 270/171/45 259/171/45 323/216/45
f 53/226/46 258/225/46 256/219/46 22/6/46
f 390/214/46 407/231/46 257/177/46 43/14/46
f 319/175/64 253/177/64 255/177/64 320/175/64
f 19/14/64 253/177/64 254/199/64 70/31/64
f 68/224/63 252/223/63 250/204/63 15/203/63
f 15/203/63 250/204/63 251/204/63 73/203/63
f 411/232/45 408/170/45 249/171/45 316/216/45
f 14/3/45 247/207/45 248/228/45 51/227/45
f 395/127/45 411/232/45 316/216/45 129/72/45
f 103/60/64 319/175/64 320/175/64 209/60/64
f 245/143/45 329/216/45 323/216/45 119/72/45
f 119/72/45 323/216/45 324/216/45 159/72/45
f 159/72/45 324/216/45 327/216/45 185/72/45
f 185/72/66 327/216/66 332/176/66 177/105/66
f 197/118/67 326/193/67 331/173/67 189/58/67
f 95/53/45 315/168/45 328/218/45 223/212/45
f 380/215/45 385/216/45 329/216/45 245/143/45
f 382/217/46 386/188/46 338/188/46 269/217/46
f 256/219/46 321/186/46 337/205/46 267/220/46
f 265/177/68 336/175/68 320/175/68 255/177/68
f 263/222/65 335/196/65 318/174/65 252/223/65
f 262/177/46 334/175/46 336/175/46 265/177/46
f 264/201/46 326/193/46 322/185/46 258/225/46
f 248/228/45 330/169/45 335/191/45 263/229/45
f 269/217/46 338/188/46 325/175/46 261/177/46
f 261/177/46 325/175/46 334/175/46 262/177/46
f 258/225/46 322/185/46 321/186/46 256/219/46
f 407/231/46 412/183/46 333/175/46 257/177/46
f 253/177/64 319/175/64 332/176/64 254/199/64
f 252/223/63 318/174/63 317/173/63 250/204/63
f 250/204/63 317/173/63 331/173/63 251/204/63
f 247/207/45 315/168/45 330/169/45 248/228/45
f 370/10/45 243/10/45 362/10/45 387/10/45
f 121/12/46 239/12/46 361/12/46 353/12/46
f 91/10/45 221/10/45 360/10/45 339/10/45
f 396/12/46 225/12/46 359/12/46 413/12/46
f 203/12/68 357/12/68 346/12/68 205/12/68
f 85/42/67 356/114/67 344/43/67 86/43/67
f 82/10/66 358/10/66 347/178/66 83/40/66
f 167/96/65 355/197/65 343/37/65 169/37/65
f 161/10/45 181/10/45 358/10/45 352/10/45
f 203/12/46 151/12/46 354/12/46 357/12/46
f 149/11/46 193/114/46 356/114/46 349/11/46
f 167/48/45 139/18/45 341/18/45 355/48/45
f 151/12/46 121/12/46 353/12/46 354/12/46
f 377/12/46 137/12/46 350/12/46 388/12/46
f 243/10/45 115/10/45 351/10/45 362/10/45
f 115/10/45 161/10/45 352/10/45 351/10/45
f 225/12/46 109/12/46 348/12/46 359/12/46
f 109/12/46 149/11/46 349/11/46 348/12/46
f 179/107/64 107/12/64 345/12/64 347/178/64
f 107/12/64 205/12/64 346/12/64 345/12/64
f 191/43/63 97/43/63 342/43/63 344/43/63
f 97/43/63 169/37/63 343/37/63 342/43/63
f 139/18/45 91/10/45 339/10/45 341/18/45
f 403/10/45 131/10/45 340/10/45 414/10/45
f 239/12/46 377/12/46 388/12/46 361/12/46
f 131/10/45 370/10/45 387/10/45 340/10/45
f 257/177/46 333/175/46 386/188/46 382/217/46
f 129/72/45 316/216/45 385/216/45 380/215/45
f 43/14/46 257/177/46 382/217/46 375/14/46
f 316/216/45 249/171/45 381/171/45 385/216/45
f 48/2/1 373/2/1 364/13/1 47/13/1
f 50/12/4 374/12/4 365/12/4 49/12/4
f 48/2/5 5/5/5 363/5/5 373/2/5
f 6/12/6 46/15/6 367/15/6 372/12/6
f 6/12/6 372/12/6 374/12/6 50/12/6
f 340/10/45 387/10/45 376/10/45 45/10/45
f 249/171/45 47/13/45 364/13/45 381/171/45
f 333/175/46 135/60/46 369/141/46 386/188/46
f 361/12/46 388/12/46 365/12/46 234/12/46
f 230/5/5 363/5/5 366/5/5 235/5/5
f 237/15/3 367/15/3 376/10/3 238/10/3
f 235/5/2 366/5/2 375/14/2 236/14/2
f 221/10/45 403/10/45 414/10/45 360/10/45
f 137/12/46 396/12/46 413/12/46 350/12/46
f 267/220/46 337/205/46 412/183/46 407/231/46
f 223/212/45 328/218/45 411/232/45 395/127/45
f 328/218/45 268/209/45 408/170/45 411/232/45
f 214/7/46 267/220/46 407/231/46 390/214/46
f 44/5/2 399/5/2 390/214/2 43/14/2
f 46/15/3 400/25/3 391/10/3 45/10/3
f 5/5/5 398/5/5 399/5/5 44/5/5
f 350/12/46 413/12/46 402/12/46 49/12/46
f 337/205/46 227/145/46 406/184/46 412/183/46
f 268/209/45 218/208/45 401/16/45 408/170/45
f 360/10/45 414/10/45 391/10/45 216/10/45
f 212/12/6 389/12/6 393/12/6 219/12/6
f 212/12/6 215/8/6 400/25/6 389/12/6
f 217/2/5 211/5/5 398/5/5 392/2/5
f 219/12/4 393/12/4 402/12/4 220/12/4
f 217/2/1 392/2/1 401/16/1 218/208/1
usemtl Material.001
f 91/10/19 92/50/19 93/51/19
f 94/52/20 95/53/20 96/54/20
f 97/43/21 98/55/21 99/56/21
f 100/57/22 101/58/22 102/59/22
f 103/60/23 104/61/23 105/62/23
f 106/63/24 107/12/24 108/64/24
f 109/12/25 110/65/25 111/66/25
f 112/67/26 113/68/26 114/69/26
f 115/10/19 116/70/19 117/70/19
f 118/71/20 119/72/20 120/71/20
f 121/12/25 122/63/25 123/63/25
f 124/73/26 125/60/26 126/61/26
f 127/71/27 128/74/27 129/72/27
f 130/70/28 131/10/28 132/75/28
f 133/76/26 134/61/26 135/60/26
f 136/77/25 137/12/25 138/63/25
f 139/18/19 140/78/19 141/79/19
f 142/80/20 143/81/20 144/82/20
f 145/83/26 146/84/26 147/85/26
f 148/86/25 149/11/25 150/87/25
f 151/12/25 152/88/25 153/63/25
f 154/61/26 155/60/26 156/61/26
f 157/89/20 158/90/20 159/72/20
f 160/91/19 161/10/19 162/70/19
f 163/92/29 164/93/29 165/94/29
f 166/95/30 167/96/30 168/97/30
f 169/37/31 170/98/31 171/99/31
f 172/100/32 173/101/32 174/102/32
f 175/103/33 176/104/33 177/105/33
f 178/106/34 179/107/34 180/108/34
f 181/10/35 182/91/35 183/109/35
f 184/71/36 185/72/36 186/110/36
f 187/111/37 188/112/37 189/58/37
f 190/55/38 191/43/38 192/113/38
f 193/114/39 194/115/39 195/116/39
f 196/117/40 197/118/40 198/119/40
f 199/61/41 200/61/41 201/60/41
f 202/88/42 203/12/42 204/120/42
f 205/12/43 206/121/43 207/121/43
f 208/61/44 209/60/44 210/61/44
f 463/122/45 130/70/45 132/75/45 483/123/45
f 221/10/19 91/10/19 93/51/19 222/124/19
f 416/125/45 94/52/45 96/54/45 440/126/45
f 395/127/27 129/72/27 128/74/27 404/128/27
f 465/129/46 148/86/46 150/87/46 485/130/46
f 149/11/25 109/12/25 111/66/25 150/87/25
f 418/131/46 112/67/46 114/69/46 442/132/46
f 113/68/26 147/85/26 146/84/26 114/69/26
f 467/133/45 160/91/45 162/70/45 487/134/45
f 161/10/19 115/10/19 117/70/19 162/70/19
f 420/135/45 118/71/45 120/71/45 444/135/45
f 119/72/20 159/72/20 158/90/20 120/71/20
f 469/136/46 136/77/46 138/63/46 489/137/46
f 239/12/25 121/12/25 123/63/25 240/138/25
f 422/139/46 124/73/46 126/61/46 446/140/46
f 369/141/26 135/60/26 134/61/26 378/73/26
f 370/10/28 131/10/28 130/70/28 379/142/28
f 245/143/20 119/72/20 118/71/20 246/89/20
f 396/12/25 137/12/25 136/77/25 405/144/25
f 227/145/26 113/68/26 112/67/26 228/146/26
f 91/10/19 139/18/19 141/79/19 92/50/19
f 423/147/45 142/80/45 144/82/45 447/148/45
f 143/81/20 95/53/20 94/52/20 144/82/20
f 121/12/25 151/12/25 153/63/25 122/63/25
f 424/140/46 154/61/46 156/61/46 448/140/46
f 155/60/26 125/60/26 124/73/26 156/61/26
f 473/149/47 190/55/47 192/113/47 493/150/47
f 191/43/48 193/114/48 195/116/48 192/113/48
f 426/151/49 196/117/49 198/119/49 450/152/49
f 197/118/50 189/58/50 188/112/50 198/119/50
f 475/153/51 166/95/51 168/97/51 495/154/51
f 167/96/52 169/37/52 171/99/52 168/97/52
f 428/155/53 172/100/53 174/102/53 452/156/53
f 173/101/54 165/94/54 164/93/54 174/102/54
f 477/137/55 202/88/55 204/120/55 497/137/55
f 203/12/56 205/12/56 207/121/56 204/120/56
f 430/140/57 208/61/57 210/61/57 454/140/57
f 209/60/58 201/60/58 200/61/58 210/61/58
f 479/157/59 178/106/59 180/108/59 499/158/59
f 179/107/60 181/10/60 183/109/60 180/108/60
f 432/135/61 184/71/61 186/110/61 456/159/61
f 185/72/62 177/105/62 176/104/62 186/110/62
f 165/160/20 143/81/20 142/80/20 163/161/20
f 139/18/19 167/48/19 166/162/19 140/78/19
f 169/37/21 97/43/21 99/56/21 170/98/21
f 433/163/63 100/57/63 102/59/63 457/164/63
f 101/58/22 173/101/22 172/100/22 102/59/22
f 177/105/23 103/60/23 105/62/23 175/103/23
f 482/137/64 106/63/64 108/64/64 502/165/64
f 107/12/24 179/107/24 178/106/24 108/64/24
f 181/10/19 161/10/19 160/91/19 182/91/19
f 159/72/20 185/72/20 184/71/20 157/89/20
f 189/58/22 101/58/22 100/57/22 187/111/22
f 97/43/21 191/43/21 190/55/21 98/55/21
f 193/114/25 149/11/25 148/86/25 194/115/25
f 147/85/26 197/118/26 196/117/26 145/83/26
f 201/60/26 155/60/26 154/61/26 199/61/26
f 151/12/25 203/12/25 202/88/25 152/88/25
f 205/12/24 107/12/24 106/63/24 206/121/24
f 103/60/23 209/60/23 208/61/23 104/61/23
f 436/166/45 440/126/45 96/54/45 224/167/45
f 416/125/45 447/148/45 144/82/45 94/52/45
f 428/155/63 457/164/63 102/59/63 172/100/63
f 473/149/63 501/172/63 98/55/63 190/55/63
f 479/157/64 502/165/64 108/64/64 178/106/64
f 430/140/64 458/140/64 104/61/64 208/61/64
f 417/179/46 442/132/46 114/69/46 146/84/46
f 462/180/46 445/181/46 133/76/46 397/182/46
f 419/187/45 444/135/45 120/71/45 158/90/45
f 460/135/45 439/135/45 127/71/45 371/71/45
f 437/140/46 446/140/46 126/61/46 242/61/46
f 422/139/46 448/140/46 156/61/46 124/73/46
f 475/189/45 491/190/45 140/78/45 166/162/45
f 426/151/46 441/192/46 145/83/46 196/117/46
f 477/137/46 492/137/46 152/88/46 202/88/46
f 432/135/45 443/194/45 157/89/45 184/71/45
f 427/195/65 452/156/65 174/102/65 164/93/65
f 431/198/66 456/159/66 186/110/66 176/104/66
f 425/200/67 450/152/67 198/119/67 188/112/67
f 429/140/68 454/140/68 210/61/68 200/61/68
f 418/131/46 435/206/46 228/146/46 112/67/46
f 461/210/69 436/166/69 224/167/69 404/128/69
f 406/184/26 227/145/26 228/146/26 397/182/26
f 109/12/25 225/12/25 226/211/25 110/65/25
f 95/53/20 223/212/20 224/167/20 96/54/20
f 403/10/70 221/10/70 222/124/70 394/213/70
f 459/140/46 437/140/46 242/61/46 378/73/46
f 420/135/45 438/135/45 246/89/45 118/71/45
f 380/215/71 245/143/71 246/89/71 371/71/71
f 115/10/19 243/10/19 244/142/19 116/70/19
f 125/60/26 241/141/26 242/61/26 126/61/26
f 377/12/25 239/12/25 240/138/25 368/138/25
f 488/122/45 506/233/45 314/234/45 281/235/45
f 508/236/46 505/237/46 313/238/46 383/239/46
f 510/240/69 504/241/69 312/242/69 409/243/69
f 486/244/46 503/245/46 311/246/46 277/247/46
f 497/137/68 478/137/68 302/239/68 300/239/68
f 493/150/67 474/248/67 294/249/67 292/250/67
f 499/158/66 480/251/66 306/252/66 304/253/66
f 495/154/65 476/254/65 298/255/65 296/256/65
f 500/122/45 467/133/45 279/257/45 305/235/45
f 453/140/46 424/140/46 289/239/46 299/239/46
f 494/258/46 465/129/46 275/259/46 293/260/46
f 451/261/45 423/147/45 287/262/45 295/263/45
f 490/236/46 472/137/46 290/239/46 285/238/46
f 505/237/46 470/137/46 286/239/46 313/238/46
f 507/134/45 463/122/45 271/235/45 384/235/45
f 487/134/45 468/122/45 282/235/45 280/234/45
f 509/264/46 469/136/46 283/265/46 410/266/46
f 485/130/46 466/267/46 278/268/46 276/269/46
f 498/137/64 482/137/64 309/239/64 301/239/64
f 455/270/64 434/271/64 310/272/64 303/273/64
f 449/274/63 433/163/63 307/275/63 291/276/63
f 496/277/63 481/278/63 308/279/63 297/280/63
f 484/281/45 471/282/45 288/283/45 273/284/45
f 504/241/45 464/285/45 274/286/45 312/242/45
f 458/140/64 309/239/64 310/272/64 434/271/64
f 501/172/63 307/275/63 308/279/63 481/278/63
f 500/122/61 305/235/61 306/252/61 480/251/61
f 455/270/59 303/273/59 304/253/59 431/198/59
f 498/137/57 301/239/57 302/239/57 478/137/57
f 453/140/55 299/239/55 300/239/55 429/140/55
f 496/277/53 297/280/53 298/255/53 476/254/53
f 451/287/51 295/288/51 296/256/51 427/195/51
f 494/258/49 293/260/49 294/249/49 474/248/49
f 449/274/47 291/276/47 292/250/47 425/200/47
f 492/137/46 289/239/46 290/239/46 472/137/46
f 491/190/45 287/262/45 288/283/45 471/282/45
f 490/236/46 285/238/46 286/239/46 470/137/46
f 445/181/46 283/265/46 284/239/46 421/140/46
f 488/122/45 281/235/45 282/235/45 468/122/45
f 443/194/45 279/257/45 280/234/45 419/187/45
f 486/244/46 277/247/46 278/268/46 466/267/46
f 441/192/46 275/259/46 276/269/46 417/179/46
f 484/281/45 273/284/45 274/286/45 464/285/45
f 439/135/45 271/235/45 272/289/45 415/290/45
f 506/233/72 507/134/72 384/235/72 314/234/72
f 489/137/46 508/236/46 383/239/46 284/239/46
f 137/12/25 377/12/25 368/138/25 138/63/25
f 129/72/27 380/215/27 371/71/27 127/71/27
f 421/140/46 459/140/46 378/73/46 134/61/46
f 438/135/72 460/135/72 371/71/72 246/89/72
f 243/10/73 370/10/73 379/142/73 244/142/73
f 241/141/26 369/141/26 378/73/26 242/61/26
f 503/245/46 509/264/46 410/266/46 311/246/46
f 483/123/45 510/240/45 409/243/45 272/289/45
f 131/10/28 403/10/28 394/213/28 132/75/28
f 135/60/26 406/184/26 397/182/26 133/76/26
f 415/290/45 461/210/45 404/128/45 128/74/45
f 435/206/46 462/180/46 397/182/46 228/146/46
f 225/12/25 396/12/25 405/144/25 226/211/25
f 223/212/74 395/127/74 404/128/74 224/167/74
f 311/246/46 410/266/46 462/180/46 435/206/46
f 272/289/45 409/243/45 461/210/45 415/290/45
f 314/234/72 384/235/72 460/135/72 438/135/72
f 284/239/46 383/239/46 459/140/46 421/140/46
f 127/71/45 439/135/45 415/290/45 128/74/45
f 145/83/46 441/192/46 417/179/46 146/84/46
f 157/89/45 443/194/45 419/187/45 158/90/45
f 133/76/46 445/181/46 421/140/46 134/61/46
f 187/111/47 449/274/47 425/200/47 188/112/47
f 163/92/51 451/287/51 427/195/51 164/93/51
f 199/61/55 453/140/55 429/140/55 200/61/55
f 175/103/59 455/270/59 431/198/59 176/104/59
f 104/61/64 458/140/64 434/271/64 105/62/64
f 187/111/63 100/57/63 433/163/63 449/274/63
f 175/103/64 105/62/64 434/271/64 455/270/64
f 163/161/45 142/80/45 423/147/45 451/261/45
f 199/61/46 154/61/46 424/140/46 453/140/46
f 281/235/45 314/234/45 438/135/45 420/135/45
f 383/239/46 313/238/46 437/140/46 459/140/46
f 409/243/69 312/242/69 436/166/69 461/210/69
f 277/247/46 311/246/46 435/206/46 418/131/46
f 300/239/68 302/239/68 454/140/68 429/140/68
f 292/250/67 294/249/67 450/152/67 425/200/67
f 304/253/66 306/252/66 456/159/66 431/198/66
f 296/256/65 298/255/65 452/156/65 427/195/65
f 305/235/45 279/257/45 443/194/45 432/135/45
f 293/260/46 275/259/46 441/192/46 426/151/46
f 285/238/46 290/239/46 448/140/46 422/139/46
f 313/238/46 286/239/46 446/140/46 437/140/46
f 384/235/45 271/235/45 439/135/45 460/135/45
f 280/234/45 282/235/45 444/135/45 419/187/45
f 410/266/46 283/265/46 445/181/46 462/180/46
f 276/269/46 278/268/46 442/132/46 417/179/46
f 301/239/64 309/239/64 458/140/64 430/140/64
f 297/280/63 308/279/63 457/164/63 428/155/63
f 273/284/45 288/283/45 447/148/45 416/125/45
f 312/242/45 274/286/45 440/126/45 436/166/45
f 307/275/63 433/163/63 457/164/63 308/279/63
f 305/235/61 432/135/61 456/159/61 306/252/61
f 301/239/57 430/140/57 454/140/57 302/239/57
f 297/280/53 428/155/53 452/156/53 298/255/53
f 293/260/49 426/151/49 450/152/49 294/249/49
f 289/239/46 424/140/46 448/140/46 290/239/46
f 287/262/45 423/147/45 447/148/45 288/283/45
f 285/238/46 422/139/46 446/140/46 286/239/46
f 281/235/45 420/135/45 444/135/45 282/235/45
f 277/247/46 418/131/46 442/132/46 278/268/46
f 273/284/45 416/125/45 440/126/45 274/286/45
f 132/75/45 394/213/45 510/240/45 483/123/45
f 226/211/46 405/144/46 509/264/46 503/245/46
f 138/63/46 368/138/46 508/236/46 489/137/46
f 244/142/72 379/142/72 507/134/72 506/233/72
f 92/50/45 484/281/45 464/285/45 93/51/45
f 110/65/46 486/244/46 466/267/46 111/66/46
f 116/70/45 488/122/45 468/122/45 117/70/45
f 122/63/46 490/236/46 470/137/46 123/63/46
f 140/78/45 491/190/45 471/282/45 141/79/45
f 152/88/46 492/137/46 472/137/46 153/63/46
f 194/115/49 494/258/49 474/248/49 195/116/49
f 170/98/53 496/277/53 476/254/53 171/99/53
f 206/121/57 498/137/57 478/137/57 207/121/57
f 182/91/61 500/122/61 480/251/61 183/109/61
f 98/55/63 501/172/63 481/278/63 99/56/63
f 222/124/45 93/51/45 464/285/45 504/241/45
f 92/50/45 141/79/45 471/282/45 484/281/45
f 170/98/63 99/56/63 481/278/63 496/277/63
f 206/121/64 106/63/64 482/137/64 498/137/64
f 150/87/46 111/66/46 466/267/46 485/130/46
f 405/144/46 136/77/46 469/136/46 509/264/46
f 162/70/45 117/70/45 468/122/45 487/134/45
f 379/142/45 130/70/45 463/122/45 507/134/45
f 240/138/46 123/63/46 470/137/46 505/237/46
f 122/63/46 153/63/46 472/137/46 490/236/46
f 194/115/46 148/86/46 465/129/46 494/258/46
f 182/91/45 160/91/45 467/133/45 500/122/45
f 168/97/65 171/99/65 476/254/65 495/154/65
f 180/108/66 183/109/66 480/251/66 499/158/66
f 192/113/67 195/116/67 474/248/67 493/150/67
f 204/120/68 207/121/68 478/137/68 497/137/68
f 110/65/46 226/211/46 503/245/46 486/244/46
f 394/213/69 222/124/69 504/241/69 510/240/69
f 368/138/46 240/138/46 505/237/46 508/236/46
f 116/70/45 244/142/45 506/233/45 488/122/45
f 299/239/46 289/239/46 492/137/46 477/137/46
f 295/263/45 287/262/45 491/190/45 475/189/45
f 303/273/64 310/272/64 502/165/64 479/157/64
f 291/276/63 307/275/63 501/172/63 473/149/63
f 309/239/64 482/137/64 502/165/64 310/272/64
f 303/273/59 479/157/59 499/158/59 304/253/59
f 299/239/55 477/137/55 497/137/55 300/239/55
f 295/288/51 475/153/51 495/154/51 296/256/51
f 291/276/47 473/149/47 493/150/47 292/250/47
f 283/265/46 469/136/46 489/137/46 284/239/46
f 279/257/45 467/133/45 487/134/45 280/234/45
f 275/259/46 465/129/46 485/130/46 276/269/46
f 271/235/45 463/122/45 483/123/45 272/289/45
