# Blender 5.0.1
# www.blender.org
mtllib House2.mtl.mtl
o Cube.001
v 1.000000 14.114932 15.325752
v 1.000000 14.114932 17.325752
v -1.000000 14.114932 15.325752
v -1.000000 14.114932 17.325752
v 6.854616 1.000000 15.325752
v 6.854616 -1.000000 15.325752
v 6.854616 1.000000 17.325752
v 6.854616 -1.000000 17.325752
v 9.847127 1.000000 15.325752
v 9.847127 -1.000000 15.325752
v 9.847127 1.000000 17.325752
v 9.847127 -1.000000 17.325752
v 11.357416 1.000000 15.325752
v 11.357416 -1.000000 15.325752
v 11.357416 1.000000 17.325752
v 11.357416 -1.000000 17.325752
v 9.847127 1.000000 0.000000
v 9.847127 -1.000000 0.000000
v 11.357416 -0.937195 0.000000
v 1.000000 15.156099 15.325752
v 1.000000 15.156099 17.325752
v -1.000000 15.156099 15.325752
v -1.000000 15.156099 17.325752
v 6.854616 8.537947 15.325752
v 6.854616 8.537947 17.325752
v 9.847127 8.537947 15.325752
v 9.847127 8.537947 17.325752
v 11.357416 8.537947 15.325752
v 11.357416 8.537947 17.325752
v 9.847127 8.537947 0.000000
v 11.357416 8.537947 0.000000
v 1.000000 15.942684 15.325752
v 1.000000 15.942684 17.325752
v -1.000000 15.942684 15.325752
v -1.000000 15.942684 17.325752
v 6.854616 15.942684 15.325752
v 6.854616 15.942684 17.325752
v 9.847127 15.942684 15.325752
v 9.847127 15.942684 17.325752
v 11.357416 15.942684 15.325752
v 11.357416 15.942684 17.325752
v 9.847127 15.942684 0.000000
v 11.357416 15.942684 0.000000
v 1.000000 18.051462 15.325752
v 1.000000 18.051462 17.325752
v -1.000000 18.051462 15.325752
v -1.000000 18.051462 17.325752
v 6.854616 18.051462 15.325752
v 6.854616 18.051462 17.325752
v 9.847127 18.051462 15.325752
v 9.847127 18.051462 17.325752
v 11.357416 18.051462 15.325752
v 11.357416 18.051462 17.325752
v 9.847127 18.051462 0.000000
v 11.357416 18.051462 0.000000
v 1.000000 26.357491 15.325752
v 1.000000 26.357491 17.325752
v -1.000000 26.357491 15.325752
v -1.000000 26.357491 17.325752
v 6.854616 26.357491 15.325752
v 6.854616 26.357491 17.325752
v 9.847127 26.357491 15.325752
v 9.847127 26.357491 17.325752
v 11.357416 26.357491 15.325752
v 11.357416 26.357491 17.325752
v 9.847127 26.357491 0.000000
v 11.357416 26.357491 0.000000
v 1.000000 27.939157 15.325752
v 1.000000 27.939157 17.325752
v -1.000000 27.939157 15.325752
v -1.000000 27.939157 17.325752
v 6.854616 27.939157 15.325752
v 6.854616 27.939157 17.325752
v 9.847127 27.939157 15.325752
v 9.847127 27.939157 17.325752
v 11.357416 27.939157 15.325752
v 11.357416 27.939157 17.325752
v 9.847127 27.939157 0.000000
v 11.357416 27.939157 0.000000
v 1.000000 33.834660 15.325752
v 1.000000 33.834660 17.325752
v -1.000000 33.834660 15.325752
v -1.000000 33.834660 17.325752
v 1.318655 33.834660 15.325752
v 1.318655 33.834660 17.325752
v 4.311166 33.834660 15.325752
v 4.311166 33.834660 17.325752
v 5.821455 33.834660 15.325752
v 5.821455 33.834660 17.325752
v 4.311166 33.834660 0.000000
v 5.821455 33.834660 0.000000
v 1.000000 34.651325 15.325752
v 1.000000 34.651325 17.325752
v -1.000000 34.651325 15.325752
v -1.000000 34.651325 17.325752
v 1.318655 34.651325 15.325752
v 1.318655 34.651325 17.325752
v 4.311166 34.651325 15.325752
v 4.311166 34.651325 17.325752
v 5.821455 34.651325 15.325752
v 5.821455 34.651325 17.325752
v 1.000000 33.834660 0.000000
v -1.000000 33.834660 0.000000
v 1.318655 33.834660 0.000000
v 1.000000 34.651325 0.000000
v -1.000000 34.651325 0.000000
v 1.318655 34.651325 0.000000
v 4.311166 34.651325 0.000000
v 5.821455 34.651325 0.000000
v 16.252359 20.698299 15.325752
v 16.252359 20.698299 17.325752
v 16.252359 20.698299 0.000000
v 16.252359 22.279966 15.325752
v 16.252359 22.279966 17.325752
v 16.252359 22.279966 0.000000
v -1.000000 30.886909 17.325752
v 7.079146 30.886909 15.325752
v 4.086636 30.886909 15.325752
v 8.589436 30.886909 15.325752
v 8.589436 30.886909 17.325752
v 1.000000 30.886909 15.325752
v 7.079146 30.886909 17.325752
v 4.086636 30.886909 17.325752
v 1.000000 30.886909 17.325752
v 7.079146 30.886909 0.000000
v 8.589436 30.886909 0.000000
v 9.847127 27.939157 20.348566
v 11.357416 27.939157 20.348566
v 1.000000 33.834660 20.348566
v -1.000000 33.834660 18.348566
v -1.000000 33.834660 20.348566
v 1.318655 33.834660 20.348566
v 4.311166 33.834660 20.348566
v 5.821455 33.834660 20.348566
v 1.000000 34.651325 20.348566
v -1.000000 34.651325 20.348566
v 1.318655 34.651325 20.348566
v 4.311166 34.651325 20.348566
v 5.821455 34.651325 20.348566
v -1.000000 33.834660 2.997294
v 8.589436 30.886909 20.348566
v 7.079146 30.886909 20.348566
v 9.847127 26.357491 19.671564
v 11.357416 26.357491 19.671564
v 9.847127 27.939157 19.671564
v 11.357416 27.939157 19.671564
v 1.459391 15.942684 18.014839
v 7.314007 15.942684 18.014839
v 10.306518 15.942684 18.014839
v 11.816807 15.942684 16.014839
v 11.816807 15.942684 18.014839
v 11.816807 15.942684 0.613839
v 1.459391 18.051462 18.014839
v 7.314007 18.051462 18.014839
v 10.306518 18.051462 18.014839
v 11.816807 18.051462 16.014839
v 11.816807 18.051462 18.014839
v 11.816807 18.051462 0.613839
v 1.000000 26.357491 17.783134
v -1.000000 26.357491 15.783134
v 6.854616 26.357491 17.783134
v 9.847127 26.357491 17.783134
v 1.000000 27.939157 17.783134
v -1.000000 27.939157 15.783134
v 6.854616 27.939157 17.783134
v 9.847127 27.939157 17.783134
v -6.854616 1.000000 15.325752
v -6.854616 -1.000000 15.325752
v -6.854616 1.000000 17.325752
v -6.854616 -1.000000 17.325752
v -9.847127 1.000000 15.325752
v -9.847127 -1.000000 15.325752
v -9.847127 1.000000 17.325752
v -9.847127 -1.000000 17.325752
v -11.357416 1.000000 15.325752
v -11.357416 -1.000000 15.325752
v -11.357416 1.000000 17.325752
v -11.357416 -1.000000 17.325752
v -9.847127 1.000000 0.000000
v -9.847127 -1.000000 0.000000
v -11.357416 1.000000 0.000000
v -11.357416 -1.000000 0.000000
v -6.854616 8.537947 15.325752
v -6.854616 8.537947 17.325752
v -9.847127 8.537947 15.325752
v -9.847127 8.537947 17.325752
v -11.357416 8.537947 15.325752
v -11.357416 8.537947 17.325752
v -9.847127 8.537947 0.000000
v -11.357416 8.537947 0.000000
v -6.854616 15.942684 15.325752
v -6.854616 15.942684 17.325752
v -9.847127 15.942684 15.325752
v -9.847127 15.942684 17.325752
v -11.357416 15.942684 15.325752
v -11.357416 15.942684 17.325752
v -9.847127 15.942684 0.000000
v -11.357416 15.942684 0.000000
v -6.854616 18.051462 15.325752
v -6.854616 18.051462 17.325752
v -9.847127 18.051462 15.325752
v -9.847127 18.051462 17.325752
v -11.357416 18.051462 15.325752
v -11.357416 18.051462 17.325752
v -9.847127 18.051462 0.000000
v -11.357416 18.051462 0.000000
v -6.854616 26.357491 15.325752
v -6.854616 26.357491 17.325752
v -9.847127 26.357491 15.325752
v -9.847127 26.357491 17.325752
v -11.357416 26.357491 15.325752
v -11.357416 26.357491 17.325752
v -9.847127 26.357491 0.000000
v -11.357416 26.357491 0.000000
v -6.854616 27.939157 15.325752
v -6.854616 27.939157 17.325752
v -9.847127 27.939157 15.325752
v -9.847127 27.939157 17.325752
v -11.357416 27.939157 15.325752
v -11.357416 27.939157 17.325752
v -9.847127 27.939157 0.000000
v -11.357416 27.939157 0.000000
v -1.318655 33.834660 15.325752
v -1.318655 33.834660 17.325752
v -4.311166 33.834660 15.325752
v -4.311166 33.834660 17.325752
v -5.821455 33.834660 15.325752
v -5.821455 33.834660 17.325752
v -4.311166 33.834660 0.000000
v -5.821455 33.834660 0.000000
v -1.318655 34.651325 15.325752
v -1.318655 34.651325 17.325752
v -4.311166 34.651325 15.325752
v -4.311166 34.651325 17.325752
v -5.821455 34.651325 15.325752
v -5.821455 34.651325 17.325752
v -1.318655 33.834660 0.000000
v -1.318655 34.651325 0.000000
v -4.311166 34.651325 0.000000
v -5.821455 34.651325 0.000000
v -16.252359 20.698299 15.325752
v -16.252359 20.698299 17.325752
v -16.252359 20.698299 0.000000
v -16.252359 22.279966 15.325752
v -16.252359 22.279966 17.325752
v -16.252359 22.279966 0.000000
v -7.079146 30.886909 15.325752
v -4.086636 30.886909 15.325752
v -8.589436 30.886909 15.325752
v -8.589436 30.886909 17.325752
v -1.000000 30.886909 15.325752
v -7.079146 30.886909 17.325752
v -4.086636 30.886909 17.325752
v -7.079146 30.886909 0.000000
v -8.589436 30.886909 0.000000
v -9.847127 27.939157 20.348566
v -11.357416 27.939157 20.348566
v 1.000000 33.834660 18.348566
v -1.318655 33.834660 20.348566
v -4.311166 33.834660 20.348566
v -5.821455 33.834660 20.348566
v -1.318655 34.651325 20.348566
v -4.311166 34.651325 20.348566
v -5.821455 34.651325 20.348566
v 1.000000 33.834660 2.997294
v -8.589436 30.886909 20.348566
v -7.079146 30.886909 20.348566
v -9.847127 26.357491 19.671564
v -11.357416 26.357491 19.671564
v -9.847127 27.939157 19.671564
v -11.357416 27.939157 19.671564
v -1.459391 15.942684 18.014839
v -7.314007 15.942684 18.014839
v -10.306518 15.942684 18.014839
v -11.816807 15.942684 16.014839
v -11.816807 15.942684 18.014839
v -11.816807 15.942684 0.613839
v -1.459391 18.051462 18.014839
v -7.314007 18.051462 18.014839
v -10.306518 18.051462 18.014839
v -11.816807 18.051462 16.014839
v -11.816807 18.051462 18.014839
v -11.816807 18.051462 0.613839
v -1.000000 26.357491 17.783134
v 1.000000 26.357491 15.783134
v -6.854616 26.357491 17.783134
v -9.847127 26.357491 17.783134
v -1.000000 27.939157 17.783134
v 1.000000 27.939157 15.783134
v -6.854616 27.939157 17.783134
v -9.847127 27.939157 17.783134
v 1.000000 1.000000 -15.325752
v 1.000000 -1.000000 -15.325752
v 1.000000 1.000000 -17.325752
v 1.000000 -1.000000 -17.325752
v -1.000000 1.000000 -15.325752
v -1.000000 -1.000000 -15.325752
v -1.000000 1.000000 -17.325752
v -1.000000 -1.000000 -17.325752
v 6.854616 1.000000 -15.325752
v 6.854616 -1.000000 -15.325752
v 6.854616 1.000000 -17.325752
v 6.854616 -1.000000 -17.325752
v 9.847127 1.000000 -15.325752
v 9.847127 -1.000000 -15.325752
v 9.847127 1.000000 -17.325752
v 9.847127 -1.000000 -17.325752
v 11.357416 1.000000 -15.325752
v 11.357416 -1.000000 -15.325752
v 11.357416 1.000000 -17.325752
v 11.357416 -1.000000 -17.325752
v 1.000000 8.537947 -15.325752
v 1.000000 8.537947 -17.325752
v -1.000000 8.537947 -15.325752
v -1.000000 8.537947 -17.325752
v 6.854616 8.537947 -15.325752
v 6.854616 8.537947 -17.325752
v 9.847127 8.537947 -15.325752
v 9.847127 8.537947 -17.325752
v 11.357416 8.537947 -15.325752
v 11.357416 8.537947 -17.325752
v 1.000000 15.942684 -15.325752
v 1.000000 15.942684 -17.325752
v -1.000000 15.942684 -15.325752
v -1.000000 15.942684 -17.325752
v 6.854616 15.942684 -15.325752
v 6.854616 15.942684 -17.325752
v 9.847127 15.942684 -15.325752
v 9.847127 15.942684 -17.325752
v 11.357416 15.942684 -15.325752
v 11.357416 15.942684 -17.325752
v 2.383108 18.051462 -15.325752
v 2.383108 18.051462 -17.325752
v -2.246540 18.051462 -15.325752
v -2.246540 18.051462 -17.325752
v 6.854616 18.051462 -15.325752
v 6.854616 18.051462 -17.325752
v 9.847127 18.051462 -15.325752
v 9.847127 18.051462 -17.325752
v 11.357416 18.051462 -15.325752
v 11.357416 18.051462 -17.325752
v 2.383108 26.357491 -15.325752
v 2.383108 26.357491 -17.325752
v -2.246540 26.357491 -15.325752
v -2.246540 26.357491 -17.325752
v 6.854616 26.357491 -15.325752
v 6.854616 26.357491 -17.325752
v 9.847127 26.357491 -15.325752
v 9.847127 26.357491 -17.325752
v 11.357416 26.357491 -15.325752
v 11.357416 26.357491 -17.325752
v 1.000000 27.939157 -15.325752
v 1.000000 27.939157 -17.325752
v -1.000000 27.939157 -15.325752
v -1.000000 27.939157 -17.325752
v 6.854616 27.939157 -15.325752
v 6.854616 27.939157 -17.325752
v 9.847127 27.939157 -15.325752
v 9.847127 27.939157 -17.325752
v 11.357416 27.939157 -15.325752
v 11.357416 27.939157 -17.325752
v 1.000000 33.834660 -15.325752
v 1.000000 33.834660 -17.325752
v -1.000000 33.834660 -15.325752
v -1.000000 33.834660 -17.325752
v 1.318655 33.834660 -15.325752
v 1.318655 33.834660 -17.325752
v 4.311166 33.834660 -15.325752
v 4.311166 33.834660 -17.325752
v 5.821455 33.834660 -15.325752
v 5.821455 33.834660 -17.325752
v 1.000000 34.651325 -15.325752
v 1.000000 34.651325 -17.325752
v -1.000000 34.651325 -15.325752
v -1.000000 34.651325 -17.325752
v 1.318655 34.651325 -15.325752
v 1.318655 34.651325 -17.325752
v 4.311166 34.651325 -15.325752
v 4.311166 34.651325 -17.325752
v 5.821455 34.651325 -15.325752
v 5.821455 34.651325 -17.325752
v 16.252359 20.698299 -15.325752
v 16.252359 20.698299 -17.325752
v 16.252359 22.279966 -15.325752
v 16.252359 22.279966 -17.325752
v -1.000000 30.886909 -17.325752
v 7.079146 30.886909 -15.325752
v 4.086636 30.886909 -15.325752
v 8.589436 30.886909 -15.325752
v 8.589436 30.886909 -17.325752
v 1.000000 30.886909 -15.325752
v 7.079146 30.886909 -17.325752
v 4.086636 30.886909 -17.325752
v 1.000000 30.886909 -17.325752
v 9.847127 27.939157 -20.348566
v 11.357416 27.939157 -20.348566
v 1.000000 33.834660 -20.348566
v -1.000000 33.834660 -18.348566
v -1.000000 33.834660 -20.348566
v 1.318655 33.834660 -20.348566
v 4.311166 33.834660 -20.348566
v 5.821455 33.834660 -20.348566
v 1.000000 34.651325 -20.348566
v -1.000000 34.651325 -20.348566
v 1.318655 34.651325 -20.348566
v 4.311166 34.651325 -20.348566
v 5.821455 34.651325 -20.348566
v -1.000000 33.834660 -2.997294
v 8.589436 30.886909 -20.348566
v 7.079146 30.886909 -20.348566
v 9.847127 26.357491 -19.671564
v 11.357416 26.357491 -19.671564
v 9.847127 27.939157 -19.671564
v 11.357416 27.939157 -19.671564
v 1.459391 15.942684 -18.014839
v 7.314007 15.942684 -18.014839
v 10.306518 15.942684 -18.014839
v 11.816807 15.942684 -16.014839
v 11.816807 15.942684 -18.014839
v 11.816807 15.942684 -0.613839
v 2.722330 18.051462 -18.014839
v 7.314007 18.051462 -18.014839
v 10.306518 18.051462 -18.014839
v 11.816807 18.051462 -16.014839
v 11.816807 18.051462 -18.014839
v 11.816807 18.051462 -0.613839
v 2.262939 26.357491 -17.783134
v 6.854616 26.357491 -17.783134
v 9.847127 26.357491 -17.783134
v 1.000000 27.939157 -17.783134
v 6.854616 27.939157 -17.783134
v 9.847127 27.939157 -17.783134
v -6.854616 1.000000 -15.325752
v -6.854616 -1.000000 -15.325752
v -6.854616 1.000000 -17.325752
v -6.854616 -1.000000 -17.325752
v -9.847127 1.000000 -15.325752
v -9.847127 -1.000000 -15.325752
v -9.847127 1.000000 -17.325752
v -9.847127 -1.000000 -17.325752
v -11.357416 1.000000 -15.325752
v -11.357416 -1.000000 -15.325752
v -11.357416 1.000000 -17.325752
v -11.357416 -1.000000 -17.325752
v -6.854616 8.537947 -15.325752
v -6.854616 8.537947 -17.325752
v -9.847127 8.537947 -15.325752
v -9.847127 8.537947 -17.325752
v -11.357416 8.537947 -15.325752
v -11.357416 8.537947 -17.325752
v -6.854616 15.942684 -15.325752
v -6.854616 15.942684 -17.325752
v -9.847127 15.942684 -15.325752
v -9.847127 15.942684 -17.325752
v -11.357416 15.942684 -15.325752
v -11.357416 15.942684 -17.325752
v -6.854616 18.051462 -15.325752
v -6.854616 18.051462 -17.325752
v -9.847127 18.051462 -15.325752
v -9.847127 18.051462 -17.325752
v -11.357416 18.051462 -15.325752
v -11.357416 18.051462 -17.325752
v -6.854616 26.357491 -15.325752
v -6.854616 26.357491 -17.325752
v -9.847127 26.357491 -15.325752
v -9.847127 26.357491 -17.325752
v -11.357416 26.357491 -15.325752
v -11.357416 26.357491 -17.325752
v -6.854616 27.939157 -15.325752
v -6.854616 27.939157 -17.325752
v -9.847127 27.939157 -15.325752
v -9.847127 27.939157 -17.325752
v -11.357416 27.939157 -15.325752
v -11.357416 27.939157 -17.325752
v 9.847127 22.204475 17.325752
v 11.357416 22.204475 17.325752
v -1.318655 33.834660 -15.325752
v -1.318655 33.834660 -17.325752
v -4.311166 33.834660 -15.325752
v -4.311166 33.834660 -17.325752
v -5.821455 33.834660 -15.325752
v -5.821455 33.834660 -17.325752
v 11.357416 22.204475 15.325752
v 11.357416 22.204475 -0.075247
v 9.847127 22.204475 -0.075247
v 9.847127 22.204475 15.325752
v -1.318655 34.651325 -15.325752
v -1.318655 34.651325 -17.325752
v -4.311166 34.651325 -15.325752
v -4.311166 34.651325 -17.325752
v -5.821455 34.651325 -15.325752
v -5.821455 34.651325 -17.325752
v 6.854616 22.204475 15.325752
v 6.854616 22.204475 17.325752
v -9.847127 22.204475 17.325752
v -11.357416 22.204475 17.325752
v -16.252359 20.698299 -15.325752
v -16.252359 20.698299 -17.325752
v -16.252359 22.279966 -15.325752
v -16.252359 22.279966 -17.325752
v -11.357416 22.204475 15.325752
v -7.079146 30.886909 -15.325752
v -4.086636 30.886909 -15.325752
v -8.589436 30.886909 -15.325752
v -8.589436 30.886909 -17.325752
v -1.000000 30.886909 -15.325752
v -7.079146 30.886909 -17.325752
v -4.086636 30.886909 -17.325752
v -11.357416 22.204475 -0.075247
v -9.847127 27.939157 -20.348566
v -11.357416 27.939157 -20.348566
v -9.847127 22.204475 -0.075247
v 1.000000 33.834660 -18.348566
v -9.847127 22.204475 15.325752
v -1.318655 33.834660 -20.348566
v -4.311166 33.834660 -20.348566
v -5.821455 33.834660 -20.348566
v -6.854616 22.204475 15.325752
v -6.854616 22.204475 17.325752
v -1.318655 34.651325 -20.348566
v -4.311166 34.651325 -20.348566
v -5.821455 34.651325 -20.348566
v 1.000000 33.834660 -2.997294
v -8.589436 30.886909 -20.348566
v -7.079146 30.886909 -20.348566
v -9.847127 26.357491 -19.671564
v -11.357416 26.357491 -19.671564
v -9.847127 27.939157 -19.671564
v -11.357416 27.939157 -19.671564
v -1.459391 15.942684 -18.014839
v -7.314007 15.942684 -18.014839
v -10.306518 15.942684 -18.014839
v -11.816807 15.942684 -16.014839
v -11.816807 15.942684 -18.014839
v -11.816807 15.942684 -0.613839
v -2.508446 18.051462 -18.014839
v -7.314007 18.051462 -18.014839
v -10.306518 18.051462 -18.014839
v -11.816807 18.051462 -16.014839
v -11.816807 18.051462 -18.014839
v -11.816807 18.051462 -0.613839
v -2.049055 26.357491 -17.783134
v -6.854616 26.357491 -17.783134
v -9.847127 26.357491 -17.783134
v -1.000000 27.939157 -17.783134
v -6.854616 27.939157 -17.783134
v -9.847127 27.939157 -17.783134
v -2.468992 26.310547 -17.325752
v -2.468992 26.310547 -15.325752
v -3.182994 25.728546 -17.325752
v -3.182994 25.728548 -15.325752
v 3.336879 25.728546 -17.325752
v 3.336879 25.728544 -15.325752
v 2.622877 26.310545 -17.325752
v 2.622877 26.310545 -15.325752
v -3.621096 23.600197 -17.325752
v -3.621096 23.600197 -15.325752
v 3.774981 23.600197 -17.325752
v 3.774981 23.600197 -15.325752
v -3.621096 20.732069 -17.325752
v -3.621096 20.732069 -15.325752
v 3.774981 20.732069 -17.325752
v 3.774981 20.732069 -15.325752
v -3.195825 18.874855 -17.325752
v -3.195824 18.874855 -15.325752
v 3.349710 18.874855 -17.325752
v 3.349710 18.874855 -15.325752
v 2.622877 18.295643 -17.325752
v 2.622877 18.295643 -15.325752
v -2.468992 18.295643 -17.325752
v -2.468992 18.295643 -15.325752
v 1.668956 12.114932 15.744655
v 1.528842 12.533834 15.325752
v 1.822987 11.725376 15.325752
v 1.528842 12.533834 17.325752
v 1.668956 12.114932 16.906851
v 1.822987 11.725376 17.325752
v -1.541954 12.533834 15.325752
v -1.685541 12.114932 15.744655
v -1.839146 11.725208 15.325752
v -1.685541 12.114932 16.906851
v -1.541954 12.533834 17.325752
v -1.839146 11.725208 17.325752
vn -0.0000 -0.0000 -1.0000
vn 1.0000 -0.0000 -0.0000
vn -0.0000 -0.0000 1.0000
vn -0.0000 -1.0000 -0.0000
vn -1.0000 -0.0000 -0.0000
vn 0.0208 -0.9998 -0.0020
vn -0.0000 0.0181 -0.9998
vn -0.8321 -0.0000 0.5547
vn -0.0000 1.0000 -0.0000
vn 0.7290 0.6845 -0.0000
vn -0.7563 -0.6542 -0.0000
vn 0.7563 0.6542 -0.0000
vn -0.7290 -0.6845 -0.0000
vn 0.8006 -0.0000 -0.5992
vn 0.8321 -0.0000 0.5547
vn -0.7290 0.6845 -0.0000
vn 0.7563 -0.6542 -0.0000
vn -0.7563 0.6542 -0.0000
vn 0.7290 -0.6845 -0.0000
vn -0.8006 -0.0000 -0.5992
vn 0.0208 -0.9998 0.0020
vn -0.8608 -0.5089 -0.0000
vn -0.7604 0.4771 -0.4406
vn -0.7854 0.6190 -0.0000
vn 0.8006 -0.0000 0.5992
vn -0.7632 -0.6384 0.1003
vn 0.8362 -0.5484 -0.0000
vn 0.7980 0.4344 -0.4177
vn -0.0000 -0.0181 -0.9998
vn 0.7528 0.6583 -0.0000
vn -0.8006 -0.0000 0.5992
vn 0.7973 -0.5786 0.1721
vn -0.6232 0.7821 -0.0000
vn -0.6318 -0.7751 -0.0000
vn 0.9795 -0.2016 -0.0000
vn 0.9748 0.2232 -0.0000
vn -0.9748 0.2232 -0.0000
vn 0.7392 0.6734 -0.0000
vn 0.2065 -0.9785 -0.0000
vn -0.7135 0.7006 -0.0000
vn 0.6232 0.7821 -0.0000
vn -0.1921 -0.9814 -0.0000
vn -0.9795 -0.2016 -0.0000
vn 0.6318 -0.7751 -0.0000
vn -0.9394 -0.3418 -0.0276
vn -0.9394 -0.3418 0.0276
vn 0.9384 -0.3449 -0.0232
vn 0.9384 -0.3449 0.0232
vn -0.0000 -0.7071 -0.7071
vn -0.0000 -0.7071 0.7071
vn 0.9477 0.3192 -0.0000
vn -0.9299 -0.3677 -0.0000
vn 0.9303 -0.3667 -0.0000
vn -0.9454 0.3260 -0.0000
vt 0.708126 0.144646
vt 0.693456 0.144646
vt 0.693456 0.137009
vt 0.708126 0.137009
vt 0.572861 0.554033
vt 0.572861 0.568703
vt 0.517570 0.568703
vt 0.517570 0.554033
vt 0.553899 0.443163
vt 0.539229 0.443163
vt 0.539229 0.435526
vt 0.553899 0.435526
vt 0.393962 0.765599
vt 0.393962 0.750929
vt 0.405040 0.750929
vt 0.405040 0.765599
vt 0.751070 0.255515
vt 0.751070 0.240845
vt 0.773020 0.240845
vt 0.773020 0.255515
vt 0.372012 0.765599
vt 0.372012 0.750929
vt 0.496285 0.539362
vt 0.496285 0.554033
vt 0.474335 0.554033
vt 0.474335 0.539362
vt 0.587531 0.568703
vt 0.587531 0.554033
vt 0.463257 0.554033
vt 0.463257 0.539362
vt 0.613891 0.261674
vt 0.613891 0.276345
vt 0.606254 0.276345
vt 0.606254 0.261674
vt 0.393962 0.638513
vt 0.405041 0.638513
vt 0.191442 0.261506
vt 0.191442 0.246836
vt 0.202520 0.261045
vt 0.587071 0.681119
vt 0.350841 0.241044
vt 0.238425 0.241044
vt 0.238425 0.185753
vt 0.350841 0.185753
vt 0.238425 0.255714
vt 0.350841 0.255714
vt 0.693456 0.131239
vt 0.708126 0.131239
vt 0.202520 0.191544
vt 0.191442 0.191544
vt 0.191442 0.137230
vt 0.202520 0.137230
vt 0.751070 0.185554
vt 0.751070 0.131239
vt 0.773020 0.185554
vt 0.773020 0.131239
vt 0.600485 0.276345
vt 0.600485 0.261674
vt 0.496285 0.484071
vt 0.463257 0.484071
vt 0.474335 0.484071
vt 0.517570 0.681119
vt 0.693456 0.115771
vt 0.708126 0.115771
vt 0.191442 0.121762
vt 0.202520 0.121762
vt 0.751070 0.115771
vt 0.773020 0.115771
vt 0.585017 0.276345
vt 0.585017 0.261674
vt 0.463257 0.568703
vt 0.463257 0.554033
vt 0.539229 0.429756
vt 0.553899 0.429756
vt 0.463257 0.681119
vt 0.463257 0.429756
vt 0.474335 0.429756
vt 0.496285 0.429756
vt 0.238425 0.131439
vt 0.350841 0.131439
vt 0.202520 0.091299
vt 0.191442 0.091299
vt 0.191442 0.060836
vt 0.202520 0.060836
vt 0.708126 0.054846
vt 0.751070 0.054846
vt 0.751070 0.085308
vt 0.773020 0.085308
vt 0.773020 0.054846
vt 0.524092 0.276345
vt 0.524092 0.261674
vt 0.539229 0.414288
vt 0.496285 0.414288
vt 0.496285 0.383826
vt 0.496285 0.353363
vt 0.539229 0.353363
vt 0.724334 0.255515
vt 0.724334 0.270983
vt 0.719280 0.271000
vt 0.719280 0.255532
vt 0.553899 0.414288
vt 0.393740 0.897740
vt 0.393740 0.785324
vt 0.397110 0.780269
vt 0.397110 0.893237
vt 0.863103 0.318242
vt 0.863103 0.430658
vt 0.859733 0.426155
vt 0.859733 0.313187
vt 0.393740 0.770654
vt 0.397110 0.765599
vt 0.238425 0.115971
vt 0.350841 0.115971
vt 0.863103 0.303572
vt 0.859733 0.298517
vt 0.708126 0.043244
vt 0.751070 0.043244
vt 0.773020 0.043244
vt 0.512490 0.276345
vt 0.512490 0.261674
vt 0.234488 0.914643
vt 0.234488 0.871699
vt 0.237842 0.871699
vt 0.237842 0.914643
vt 0.350841 0.055046
vt 0.238425 0.055046
vt 0.238425 0.043445
vt 0.350841 0.043445
vt 0.693456 0.054846
vt 0.944538 0.597034
vt 0.944538 0.611705
vt 0.914075 0.611705
vt 0.914075 0.597034
vt 0.553899 0.353363
vt 0.944538 0.724672
vt 0.914075 0.724120
vt 0.474335 0.383826
vt 0.463257 0.383826
vt 0.463257 0.353363
vt 0.474335 0.353363
vt 0.351393 0.085509
vt 0.238425 0.085509
vt 0.693456 0.043244
vt 0.693456 0.000000
vt 0.708126 0.000000
vt 0.708126 0.021622
vt 0.151786 0.582195
vt 0.151786 0.596866
vt 0.130265 0.596866
vt 0.130265 0.582195
vt 0.228550 0.261506
vt 0.490869 0.276345
vt 0.469247 0.276345
vt 0.469247 0.261674
vt 0.752717 0.021622
vt 0.730767 0.021622
vt 0.710463 0.000000
vt 0.732414 0.000000
vt 0.191442 0.049234
vt 0.202520 0.049234
vt 0.405041 0.765599
vt 0.405041 0.750929
vt 0.446729 0.750929
vt 0.446729 0.765599
vt 0.539229 0.341761
vt 0.553899 0.341761
vt 0.173307 0.596866
vt 0.173307 0.582195
vt 0.214639 0.582195
vt 0.214639 0.596866
vt 0.697124 0.272722
vt 0.686045 0.272722
vt 0.686045 0.255515
vt 0.697124 0.255515
vt 0.772971 0.784801
vt 0.772971 0.827745
vt 0.769616 0.827745
vt 0.769616 0.784801
vt 0.176383 0.552855
vt 0.165305 0.552855
vt 0.165305 0.530683
vt 0.176383 0.530683
vt 0.382449 0.897740
vt 0.382449 0.919462
vt 0.360276 0.919462
vt 0.360276 0.897740
vt 0.463257 0.276345
vt 0.469247 0.298517
vt 0.463257 0.298517
vt 0.124275 0.596866
vt 0.124275 0.582195
vt 0.226241 0.560023
vt 0.237319 0.560023
vt 0.237319 0.672439
vt 0.226241 0.672439
vt 0.185199 0.880490
vt 0.185199 0.858540
vt 0.207372 0.858540
vt 0.207372 0.880490
vt 0.539229 0.320139
vt 0.516589 0.320139
vt 0.536892 0.298517
vt 0.539229 0.298517
vt 0.182217 0.027612
vt 0.171139 0.027612
vt 0.150835 0.005990
vt 0.161913 0.005990
vt 0.151786 0.709281
vt 0.130265 0.709281
vt 0.553899 0.320139
vt 0.553899 0.298517
vt 0.350841 0.021722
vt 0.238425 0.021722
vt 0.238425 0.000000
vt 0.350841 0.000000
vt 0.494638 0.320139
vt 0.514942 0.298517
vt 0.824367 0.335360
vt 0.809697 0.335360
vt 0.809697 0.320690
vt 0.824367 0.320690
vt 0.826705 0.335360
vt 0.826705 0.320690
vt 0.848655 0.320690
vt 0.848655 0.335360
vt 0.859733 0.320690
vt 0.859733 0.335360
vt 0.824367 0.298517
vt 0.826705 0.298517
vt 0.187255 0.283678
vt 0.189592 0.283678
vt 0.189592 0.396094
vt 0.187255 0.396094
vt 0.463257 0.261674
vt 0.165305 0.283678
vt 0.165305 0.396094
vt 0.463257 0.149259
vt 0.469247 0.149259
vt 0.150835 0.000000
vt 0.161913 0.000000
vt 0.128885 0.005990
vt 0.128885 0.000000
vt 0.126548 0.005990
vt 0.126548 0.000000
vt 0.111877 0.005990
vt 0.111877 0.000000
vt 0.859733 0.447776
vt 0.848655 0.447776
vt 0.204262 0.283678
vt 0.204262 0.396094
vt 0.826705 0.447776
vt 0.124275 0.709281
vt 0.824367 0.447776
vt 0.809697 0.447776
vt 0.226241 0.582195
vt 0.226241 0.596866
vt 0.226241 0.709281
vt 0.214639 0.709281
vt 0.228550 0.261506
vt 0.236140 0.270280
vt 0.236140 0.325165
vt 0.228550 0.316390
vt 0.238425 0.090745
vt 0.238425 0.102347
vt 0.173307 0.709281
vt 0.446729 0.638513
vt 0.496285 0.341761
vt 0.474335 0.341761
vt 0.185199 0.897498
vt 0.185199 0.882828
vt 0.207372 0.882828
vt 0.207372 0.897498
vt 0.403100 0.858579
vt 0.403100 0.880530
vt 0.397110 0.880530
vt 0.397110 0.858579
vt 0.403100 0.891608
vt 0.397110 0.891608
vt 0.403100 0.841572
vt 0.403100 0.856242
vt 0.397110 0.856242
vt 0.397110 0.841572
vt 0.424722 0.900833
vt 0.424722 0.911911
vt 0.446344 0.921136
vt 0.446344 0.932214
vt 0.809697 0.298517
vt 0.151786 0.560023
vt 0.173307 0.560023
vt 0.848655 0.298517
vt 0.124275 0.560023
vt 0.130265 0.560023
vt 0.382449 0.941185
vt 0.360276 0.941185
vt 0.204262 0.261506
vt 0.204262 0.374109
vt 0.859733 0.298517
vt 0.220695 0.556954
vt 0.209617 0.556954
vt 0.209617 0.545353
vt 0.220695 0.545353
vt 0.235889 0.547889
vt 0.224287 0.547889
vt 0.224287 0.530683
vt 0.235889 0.530683
vt 0.674444 0.289929
vt 0.663366 0.289929
vt 0.663366 0.272722
vt 0.674444 0.272722
vt 0.628561 0.255515
vt 0.640163 0.255515
vt 0.640163 0.272722
vt 0.628561 0.272722
vt 0.462197 0.511427
vt 0.462197 0.526097
vt 0.446729 0.526097
vt 0.446729 0.511427
vt 0.462197 0.639065
vt 0.446729 0.639065
vt 0.969213 0.490498
vt 0.969213 0.501576
vt 0.953745 0.501576
vt 0.953745 0.490498
vt 0.969213 0.468547
vt 0.953745 0.468547
vt 0.969213 0.425603
vt 0.953745 0.425603
vt 0.874181 0.303572
vt 0.870811 0.298517
vt 0.382662 0.770654
vt 0.386032 0.765599
vt 0.462214 0.643568
vt 0.446746 0.643568
vt 0.896131 0.303572
vt 0.892761 0.298517
vt 0.360711 0.770654
vt 0.364081 0.765599
vt 0.939075 0.303572
vt 0.935706 0.298517
vt 0.317767 0.770654
vt 0.321137 0.765599
vt 0.237842 0.784854
vt 0.237842 0.827799
vt 0.226241 0.827799
vt 0.226241 0.784854
vt 0.237842 0.849749
vt 0.226241 0.849749
vt 0.228550 0.527744
vt 0.228550 0.516142
vt 0.231905 0.516142
vt 0.231905 0.527744
vt 0.235260 0.516142
vt 0.235260 0.527744
vt 0.231905 0.527744
vt 0.231905 0.516142
vt 0.772971 0.762850
vt 0.769616 0.762850
vt 0.524092 0.265029
vt 0.512490 0.265029
vt 0.234488 0.849749
vt 0.109605 0.814195
vt 0.054314 0.814195
vt 0.054314 0.799525
vt 0.109605 0.799525
vt 0.249503 0.765599
vt 0.238425 0.765599
vt 0.238425 0.750929
vt 0.249503 0.750929
vt 0.650512 0.255515
vt 0.628561 0.255515
vt 0.628561 0.240845
vt 0.650512 0.240845
vt 0.271454 0.765599
vt 0.271454 0.750929
vt 0.596844 0.539362
vt 0.618794 0.539362
vt 0.618794 0.554033
vt 0.596844 0.554033
vt 0.124275 0.799525
vt 0.124275 0.814195
vt 0.629872 0.539362
vt 0.629872 0.554033
vt 0.150634 0.298349
vt 0.142998 0.298349
vt 0.142998 0.283678
vt 0.150634 0.283678
vt 0.238425 0.638513
vt 0.249503 0.638513
vt 0.046983 0.261506
vt 0.035905 0.261506
vt 0.035905 0.246836
vt 0.046983 0.246836
vt 0.109605 0.687109
vt 0.124275 0.687109
vt 0.350841 0.496757
vt 0.350841 0.441466
vt 0.463257 0.441466
vt 0.463257 0.496757
vt 0.463257 0.511427
vt 0.350841 0.511427
vt 0.035905 0.191544
vt 0.035905 0.137230
vt 0.046983 0.137230
vt 0.046983 0.191544
vt 0.650512 0.185554
vt 0.650512 0.131239
vt 0.628561 0.185554
vt 0.628561 0.131239
vt 0.137228 0.298349
vt 0.137228 0.283678
vt 0.596844 0.484071
vt 0.618794 0.484071
vt 0.629872 0.484071
vt 0.054314 0.687109
vt 0.035905 0.121762
vt 0.046983 0.121762
vt 0.650512 0.115771
vt 0.628561 0.115771
vt 0.121760 0.298349
vt 0.121760 0.283678
vt -0.000000 0.814195
vt -0.000000 0.799525
vt 0.000000 0.687109
vt 0.618794 0.429756
vt 0.629872 0.429756
vt 0.596844 0.429756
vt 0.350841 0.387153
vt 0.463257 0.387153
vt 0.035905 0.091299
vt 0.035905 0.060836
vt 0.046983 0.060836
vt 0.046983 0.091299
vt 0.650512 0.085308
vt 0.650512 0.054846
vt 0.628561 0.085308
vt 0.628561 0.054846
vt 0.060835 0.298349
vt 0.060835 0.283678
vt 0.596844 0.353363
vt 0.596844 0.383826
vt 0.596844 0.414288
vt 0.729389 0.255532
vt 0.729389 0.271000
vt 0.863103 0.562798
vt 0.859733 0.558296
vt 0.859733 0.445328
vt 0.863103 0.450382
vt 0.466626 0.920620
vt 0.463257 0.925675
vt 0.463257 0.812707
vt 0.466626 0.808205
vt 0.859733 0.430658
vt 0.863103 0.435712
vt 0.350841 0.371685
vt 0.463257 0.371685
vt 0.466626 0.935291
vt 0.463257 0.940345
vt 0.650512 0.043244
vt 0.628561 0.043244
vt 0.049234 0.298349
vt 0.049234 0.283678
vt 0.621941 0.873099
vt 0.625296 0.873099
vt 0.625296 0.916043
vt 0.621941 0.916043
vt 0.350841 0.310760
vt 0.350841 0.299158
vt 0.463257 0.299158
vt 0.463257 0.310760
vt 0.154737 0.986178
vt 0.124275 0.986178
vt 0.124275 0.971508
vt 0.154737 0.971508
vt 0.124275 0.859092
vt 0.154737 0.858540
vt 0.618794 0.383826
vt 0.618794 0.353363
vt 0.629872 0.353363
vt 0.629872 0.383826
vt 0.350289 0.341222
vt 0.463257 0.341222
vt 0.693456 0.021622
vt 0.800532 0.276345
vt 0.779010 0.276345
vt 0.779010 0.261674
vt 0.800532 0.261674
vt 0.005990 0.298349
vt 0.005990 0.283678
vt 0.027612 0.283678
vt 0.648865 0.021622
vt 0.669168 0.000000
vt 0.691118 0.000000
vt 0.670815 0.021622
vt 0.035905 0.049234
vt 0.046983 0.049234
vt 0.629220 0.554033
vt 0.629220 0.568703
vt 0.822053 0.261674
vt 0.863385 0.261674
vt 0.863385 0.276345
vt 0.822053 0.276345
vt 0.696600 0.289929
vt 0.696600 0.272722
vt 0.707678 0.272722
vt 0.707678 0.289929
vt 0.625296 0.851149
vt 0.621941 0.851149
vt 0.621941 0.808205
vt 0.625296 0.808205
vt 0.176383 0.552855
vt 0.176383 0.530683
vt 0.187461 0.530683
vt 0.187461 0.552855
vt 0.629872 0.907310
vt 0.652045 0.907310
vt 0.652045 0.929032
vt 0.629872 0.929032
vt 0.000000 0.283678
vt 0.000000 0.261506
vt 0.005990 0.261506
vt 0.773020 0.276345
vt 0.773020 0.261674
vt 0.975000 0.724672
vt 0.975000 0.837088
vt 0.963922 0.837088
vt 0.963922 0.724672
vt 0.185199 0.899835
vt 0.207372 0.899835
vt 0.207372 0.921786
vt 0.185199 0.921786
vt 0.556237 0.298517
vt 0.576540 0.320139
vt 0.056208 0.027612
vt 0.076512 0.005990
vt 0.087590 0.005990
vt 0.067286 0.027612
vt 0.779010 0.149259
vt 0.800532 0.149259
vt 0.350841 0.277436
vt 0.463257 0.255714
vt 0.463257 0.277436
vt 0.578187 0.298517
vt 0.598491 0.320139
vt 0.807360 0.335360
vt 0.785409 0.335360
vt 0.785409 0.320690
vt 0.807360 0.320690
vt 0.774331 0.335360
vt 0.774331 0.320690
vt 0.807360 0.298517
vt 0.206600 0.283678
vt 0.206600 0.396094
vt 0.000000 0.298349
vt 0.228550 0.283678
vt 0.228550 0.396094
vt 0.005990 0.410764
vt -0.000000 0.410764
vt 0.076512 0.000000
vt 0.087590 0.000000
vt 0.109540 0.000000
vt 0.109540 0.005990
vt 0.785409 0.447776
vt 0.774331 0.447776
vt 0.807360 0.447776
vt 0.773020 0.149259
vt 0.874986 0.276345
vt 0.874986 0.261674
vt 0.863385 0.149259
vt 0.874986 0.149259
vt 0.236140 0.325165
vt 0.236140 0.380049
vt 0.228550 0.388824
vt 0.228550 0.333939
vt 0.000000 0.102347
vt 0.000000 0.090745
vt 0.822053 0.149259
vt 0.629220 0.681119
vt 0.587531 0.681119
vt 0.596844 0.341761
vt 0.618794 0.341761
vt 0.403100 0.839234
vt 0.397110 0.839234
vt 0.397110 0.817284
vt 0.403100 0.817284
vt 0.397110 0.806206
vt 0.403100 0.806206
vt 0.424722 0.796981
vt 0.424722 0.785903
vt 0.446344 0.776677
vt 0.446344 0.765599
vt 0.822053 0.298517
vt 0.800532 0.298517
vt 0.785409 0.298517
vt 0.779010 0.298517
vt 0.773020 0.298517
vt 0.652045 0.950755
vt 0.629872 0.950755
vt 0.189592 0.374109
vt 0.189592 0.261506
vt 0.774331 0.298517
vt 0.224287 0.559491
vt 0.224287 0.547889
vt 0.235365 0.547889
vt 0.235365 0.559491
vt 0.640163 0.289929
vt 0.628561 0.289929
vt 0.685522 0.272722
vt 0.685522 0.289929
vt 0.640163 0.272722
vt 0.640163 0.255515
vt 0.651764 0.255515
vt 0.651764 0.272722
vt 0.990468 0.861315
vt 0.975000 0.861315
vt 0.975000 0.846645
vt 0.990468 0.846645
vt 0.975000 0.733677
vt 0.990468 0.733677
vt 0.124151 0.825273
vt 0.108683 0.825273
vt 0.108683 0.814195
vt 0.124151 0.814195
vt 0.124151 0.847223
vt 0.108683 0.847223
vt 0.124151 0.890167
vt 0.108683 0.890167
vt 0.477704 0.935291
vt 0.474335 0.940345
vt 0.870811 0.430658
vt 0.874181 0.435712
vt 0.990485 0.729175
vt 0.975017 0.729175
vt 0.499655 0.935291
vt 0.496285 0.940345
vt 0.892761 0.430658
vt 0.896131 0.435712
vt 0.542599 0.935291
vt 0.539229 0.940345
vt 0.935706 0.430658
vt 0.939075 0.435712
vt 0.394050 0.962634
vt 0.382449 0.962634
vt 0.382449 0.919690
vt 0.394050 0.919690
vt 0.382449 0.897740
vt 0.394050 0.897740
vt 0.224050 0.556954
vt 0.220695 0.556954
vt 0.220695 0.545353
vt 0.224050 0.545353
vt 0.718756 0.284324
vt 0.722111 0.284324
vt 0.722111 0.295925
vt 0.718756 0.295925
vt 0.049234 0.294994
vt 0.060835 0.294994
vt 0.625296 0.937994
vt 0.621941 0.937994
vt 0.739478 0.842415
vt 0.684187 0.842415
vt 0.684187 0.827745
vt 0.739478 0.827745
vt 0.914075 0.673007
vt 0.914075 0.687677
vt 0.899405 0.687677
vt 0.899405 0.673007
vt 0.461399 0.915451
vt 0.446729 0.915451
vt 0.446729 0.900781
vt 0.461399 0.900781
vt 0.314398 0.526097
vt 0.314398 0.511427
vt 0.329068 0.511427
vt 0.329068 0.526097
vt 0.899405 0.630063
vt 0.914075 0.630063
vt 0.754148 0.827745
vt 0.754148 0.842415
vt 0.572861 0.808205
vt 0.517570 0.808205
vt 0.517570 0.793534
vt 0.572861 0.793534
vt 0.754148 0.885359
vt 0.739478 0.885359
vt 0.372012 0.511427
vt 0.372012 0.526097
vt 0.844114 0.687677
vt 0.844114 0.673007
vt 0.393962 0.511427
vt 0.405040 0.511427
vt 0.405040 0.526097
vt 0.393962 0.526097
vt 0.754148 0.907310
vt 0.739478 0.907310
vt 0.899405 0.608112
vt 0.914075 0.608112
vt 0.587531 0.793534
vt 0.587531 0.808205
vt 0.899405 0.597034
vt 0.914075 0.597034
vt 0.446729 0.845490
vt 0.461399 0.845490
vt 0.463257 0.185753
vt 0.463257 0.241044
vt 0.629872 0.842415
vt 0.629872 0.827745
vt 0.684187 0.885359
vt 0.629872 0.885359
vt 0.684187 0.907310
vt 0.629872 0.907310
vt 0.446729 0.791176
vt 0.461399 0.791176
vt 0.844114 0.630063
vt 0.844114 0.608112
vt 0.844114 0.597034
vt 0.774331 0.762851
vt 0.752381 0.762851
vt 0.752381 0.538019
vt 0.774331 0.538019
vt 0.694767 0.523349
vt 0.651822 0.523349
vt 0.651822 0.298517
vt 0.694767 0.298517
vt 0.629872 0.523349
vt 0.629872 0.298517
vt 0.446729 0.775708
vt 0.461399 0.775708
vt 0.463257 0.808205
vt 0.463257 0.793534
vt 0.789799 0.687677
vt 0.789799 0.673007
vt 0.789799 0.608112
vt 0.789799 0.597034
vt 0.789799 0.630063
vt 0.463257 0.131439
vt 0.740400 0.968235
vt 0.740400 0.907310
vt 0.751478 0.907310
vt 0.751478 0.968235
vt 0.890102 0.886159
vt 0.829177 0.886159
vt 0.829177 0.843214
vt 0.829521 0.855118
vt 0.833790 0.860356
vt 0.849402 0.863569
vt 0.870440 0.863569
vt 0.884063 0.860450
vt 0.888311 0.855118
vt 0.890102 0.843214
vt 0.890102 0.908109
vt 0.829177 0.908109
vt 0.299351 0.973712
vt 0.297559 0.961808
vt 0.293311 0.956477
vt 0.279688 0.953358
vt 0.258650 0.953358
vt 0.243038 0.956571
vt 0.238769 0.961808
vt 0.238425 0.973712
vt 0.238425 0.930768
vt 0.299351 0.930768
vt 0.729389 0.255515
vt 0.734443 0.255532
vt 0.734443 0.271000
vt 0.729389 0.270983
vt 0.774331 0.687677
vt 0.774331 0.673007
vt 0.618572 0.808205
vt 0.621941 0.812707
vt 0.621941 0.925675
vt 0.618572 0.920620
vt 0.003370 0.926611
vt -0.000000 0.931665
vt 0.000000 0.818698
vt 0.003370 0.814195
vt 0.621941 0.940345
vt 0.618572 0.935291
vt 0.463257 0.115971
vt 0.003370 0.941281
vt -0.000000 0.946335
vt 0.817575 0.886159
vt 0.817575 0.843214
vt 0.817575 0.908109
vt 0.524092 0.036843
vt 0.512490 0.036843
vt 0.512490 0.022173
vt 0.524092 0.022173
vt 0.231133 0.914643
vt 0.231133 0.871699
vt 0.463257 0.043445
vt 0.463257 0.055046
vt 0.990757 0.259226
vt 0.929832 0.259226
vt 0.929832 0.244556
vt 0.990757 0.244556
vt 0.929832 0.132140
vt 0.990757 0.132141
vt 0.299351 0.908818
vt 0.238425 0.908818
vt 0.238425 0.897740
vt 0.299351 0.897740
vt 0.795953 0.843214
vt 0.774331 0.843214
vt 0.774331 0.828544
vt 0.817575 0.828544
vt 0.151786 0.836367
vt 0.130265 0.836367
vt 0.130265 0.821697
vt 0.151786 0.821697
vt 0.469247 0.036843
vt 0.469247 0.022173
vt 0.490869 0.022173
vt 0.795953 0.887806
vt 0.774331 0.867502
vt 0.774331 0.845552
vt 0.795953 0.865855
vt 0.829177 0.828544
vt 0.405041 0.511427
vt 0.405041 0.526097
vt 0.929832 0.211705
vt 0.918230 0.211705
vt 0.918230 0.197035
vt 0.929832 0.197035
vt 0.173307 0.821697
vt 0.214639 0.821697
vt 0.214639 0.836367
vt 0.173307 0.836367
vt 0.708202 0.255515
vt 0.708202 0.272722
vt 0.697124 0.255515
vt 0.625296 0.830155
vt 0.628651 0.830155
vt 0.628651 0.873099
vt 0.625296 0.873099
vt 0.198539 0.530683
vt 0.198539 0.552855
vt 0.187461 0.552855
vt 0.187461 0.530683
vt 0.674217 0.907310
vt 0.674217 0.929032
vt 0.463257 0.022173
vt 0.463257 -0.000000
vt 0.469247 -0.000000
vt 0.124275 0.836367
vt 0.124275 0.821697
vt 0.226241 0.784855
vt 0.237319 0.784855
vt 0.229545 0.880490
vt 0.229545 0.858540
vt 0.896608 0.197035
vt 0.874986 0.197035
vt 0.874986 0.194698
vt 0.896608 0.174394
vt 0.896608 0.211705
vt 0.874986 0.211705
vt 0.463257 0.000000
vt 0.463257 0.021722
vt 0.874986 0.172747
vt 0.896608 0.152444
vt 0.824367 0.560192
vt 0.824367 0.574862
vt 0.809697 0.574862
vt 0.809697 0.560192
vt 0.826705 0.560192
vt 0.848655 0.560192
vt 0.848655 0.574862
vt 0.826705 0.574862
vt 0.859733 0.560192
vt 0.859733 0.574862
vt 0.826705 0.597034
vt 0.824367 0.597034
vt 0.187255 0.508510
vt 0.189592 0.508510
vt 0.463257 0.036843
vt 0.165305 0.508510
vt 0.204262 0.508510
vt 0.226241 0.836367
vt 0.226241 0.821697
vt 0.236140 0.388824
vt 0.236140 0.443708
vt 0.228550 0.452483
vt 0.228550 0.397599
vt 0.918230 0.154091
vt 0.918230 0.132140
vt 0.229545 0.897498
vt 0.229545 0.882828
vt 0.896093 0.837285
vt 0.890102 0.837285
vt 0.890102 0.815335
vt 0.896093 0.815335
vt 0.890102 0.804256
vt 0.896093 0.804256
vt 0.896093 0.854293
vt 0.890102 0.854293
vt 0.890102 0.839622
vt 0.896093 0.839622
vt 0.917715 0.795031
vt 0.917715 0.783953
vt 0.939337 0.774728
vt 0.939337 0.763650
vt 0.809697 0.597034
vt 0.173307 0.858540
vt 0.151786 0.858540
vt 0.848655 0.597034
vt 0.130265 0.858540
vt 0.124275 0.858540
vt 0.674217 0.950755
vt 0.204262 0.418080
vt 0.204262 0.530683
vt 0.859733 0.597034
vt 0.708202 0.267117
vt 0.708202 0.255515
vt 0.719280 0.255515
vt 0.719280 0.267117
vt 0.651764 0.272722
vt 0.651764 0.289929
vt 0.674967 0.272722
vt 0.674967 0.255515
vt 0.663366 0.255515
vt 0.462197 0.775708
vt 0.446729 0.761038
vt 0.462197 0.761038
vt 0.446729 0.648070
vt 0.462197 0.648070
vt 0.124151 0.901246
vt 0.108683 0.901246
vt 0.108683 0.890168
vt 0.124151 0.890168
vt 0.124151 0.923196
vt 0.108683 0.923196
vt 0.124151 0.966140
vt 0.108683 0.966140
vt 0.014448 0.941281
vt 0.011078 0.946335
vt 0.610863 0.940345
vt 0.607493 0.935291
vt 0.036398 0.941281
vt 0.033028 0.946335
vt 0.588913 0.940345
vt 0.585543 0.935291
vt 0.079342 0.941281
vt 0.075973 0.946335
vt 0.545969 0.940345
vt 0.542599 0.935291
vt 0.965930 0.064894
vt 0.954329 0.064894
vt 0.954329 0.021950
vt 0.965930 0.021950
vt 0.954329 -0.000000
vt 0.965930 -0.000000
vt 0.725466 0.295925
vt 0.722111 0.295925
vt 0.722111 0.284324
vt 0.725466 0.284324
vt 0.725466 0.284324
vt 0.728821 0.284324
vt 0.728821 0.295925
vt 0.725466 0.295925
vt 0.628651 0.808205
vt 0.231133 0.849749
vt 0.939075 0.565346
vt 0.939075 0.550676
vt 0.953745 0.550676
vt 0.953745 0.565346
vt 0.914075 0.730621
vt 0.899405 0.730621
vt 0.109605 0.560023
vt 0.109605 0.574693
vt 0.054314 0.574693
vt 0.054314 0.560023
vt 0.739478 0.784801
vt 0.754148 0.784801
vt 0.271454 0.526097
vt 0.271454 0.511427
vt 0.249503 0.511427
vt 0.249503 0.526097
vt 0.238425 0.526097
vt 0.238425 0.511427
vt 0.739478 0.762851
vt 0.754148 0.762851
vt 0.914075 0.752572
vt 0.899405 0.752572
vt 0.124275 0.574693
vt 0.124275 0.560023
vt 0.914075 0.763650
vt 0.899405 0.763650
vt 0.939075 0.495385
vt 0.953745 0.495385
vt 0.238425 0.496757
vt 0.238425 0.441466
vt 0.238425 0.511427
vt 0.684187 0.784801
vt 0.629872 0.784801
vt 0.684187 0.762851
vt 0.629872 0.762851
vt 0.939075 0.441071
vt 0.953745 0.441071
vt 0.844114 0.730621
vt 0.844114 0.763650
vt 0.844114 0.752572
vt 0.769616 0.987682
vt 0.754148 0.987682
vt 0.769616 0.762851
vt 0.709437 0.523349
vt 0.709437 0.298517
vt 0.939075 0.425603
vt 0.953745 0.425603
vt 0.000000 0.574693
vt 0.000000 0.560023
vt 0.789799 0.763650
vt 0.789799 0.752572
vt 0.789799 0.730621
vt 0.238425 0.387153
vt 0.785409 0.969034
vt 0.774331 0.969034
vt 0.774331 0.908109
vt 0.785409 0.908109
vt 0.890102 0.785600
vt 0.890102 0.828544
vt 0.888311 0.817769
vt 0.884063 0.812438
vt 0.870440 0.809318
vt 0.849402 0.809318
vt 0.833790 0.812532
vt 0.829521 0.817769
vt 0.829177 0.785600
vt 0.890102 0.763650
vt 0.829177 0.763650
vt 0.709437 0.538019
vt 0.694767 0.538019
vt 0.360276 0.897740
vt 0.360276 0.940684
vt 0.299351 0.940684
vt 0.299351 0.897740
vt 0.299695 0.908515
vt 0.303964 0.913752
vt 0.319576 0.916966
vt 0.340614 0.916966
vt 0.354236 0.913846
vt 0.358485 0.908515
vt 0.734889 0.272722
vt 0.734889 0.288190
vt 0.729835 0.288207
vt 0.729835 0.272739
vt 0.241795 0.765599
vt 0.241795 0.878015
vt 0.238425 0.883069
vt 0.238425 0.770102
vt 0.878356 0.019725
vt 0.878356 0.132141
vt 0.874987 0.127638
vt 0.874986 0.014670
vt 0.241795 0.892685
vt 0.238425 0.371685
vt 0.878356 0.005055
vt 0.874986 0.000000
vt 0.817575 0.785600
vt 0.817575 0.763650
vt 0.060835 0.523180
vt 0.060835 0.537850
vt 0.049234 0.537850
vt 0.049234 0.523180
vt 0.628651 0.873099
vt 0.628651 0.916043
vt 0.238425 0.310760
vt 0.238425 0.299158
vt 1.000000 0.298517
vt 1.000000 0.313187
vt 0.939075 0.313187
vt 0.939075 0.298517
vt 0.975000 0.597034
vt 0.975000 0.611705
vt 1.000000 0.425603
vt 0.939075 0.425603
vt 0.360276 0.962634
vt 0.360276 0.973712
vt 0.299351 0.973712
vt 0.299351 0.962634
vt 0.795953 0.828544
vt 0.800532 0.022173
vt 0.800532 0.036843
vt 0.779010 0.036843
vt 0.779010 0.022173
vt 0.027612 0.537850
vt 0.005990 0.537850
vt 0.005990 0.523180
vt 0.795953 0.783953
vt 0.795953 0.805904
vt 0.774331 0.826207
vt 0.774331 0.804257
vt 0.975000 0.724120
vt 0.629220 0.793534
vt 0.629220 0.808205
vt 0.474335 0.414288
vt 0.463257 0.414288
vt 0.822053 0.036843
vt 0.822053 0.022173
vt 0.863385 0.022173
vt 0.863385 0.036843
vt 0.707678 0.272722
vt 0.718756 0.272722
vt 0.718756 0.289929
vt 0.769616 0.870689
vt 0.769616 0.827745
vt 0.772971 0.827745
vt 0.772971 0.870689
vt 0.198539 0.530683
vt 0.209617 0.530683
vt 0.209617 0.552855
vt 0.198539 0.552855
vt 0.696390 0.907310
vt 0.696390 0.929032
vt 0.674217 0.929032
vt 0.674217 0.907310
vt -0.000000 0.537850
vt 0.005990 0.560023
vt -0.000000 0.560023
vt 0.773020 0.036843
vt 0.773020 0.022173
vt 0.975000 0.949504
vt 0.963922 0.949504
vt 0.229545 0.899835
vt 0.229545 0.921786
vt 0.896608 0.234346
vt 0.874986 0.214043
vt 0.238425 0.277436
vt 0.896608 0.256296
vt 0.874986 0.235993
vt 0.807360 0.560192
vt 0.807360 0.574862
vt 0.785409 0.574862
vt 0.785409 0.560192
vt 0.774331 0.574862
vt 0.774331 0.560192
vt 0.807360 0.597034
vt 0.206600 0.508510
vt -0.000000 0.523180
vt 0.228550 0.508510
vt 0.185199 0.986178
vt 0.185199 0.971508
vt 0.874986 0.022173
vt 0.874986 0.036843
vt 0.228550 0.452483
vt 0.236140 0.461258
vt 0.236140 0.516142
vt 0.228550 0.507367
vt 0.918230 0.254649
vt 0.918230 0.276600
vt 0.185199 0.859092
vt 0.618794 0.414288
vt 0.629872 0.414288
vt 0.896093 0.856630
vt 0.896093 0.878580
vt 0.890102 0.878580
vt 0.890102 0.856630
vt 0.896093 0.889658
vt 0.890102 0.889658
vt 0.917715 0.898884
vt 0.917715 0.909962
vt 0.939337 0.919187
vt 0.939337 0.930265
vt 0.800532 -0.000000
vt 0.822053 -0.000000
vt 0.785409 0.597034
vt 0.773020 -0.000000
vt 0.779010 -0.000000
vt 0.696390 0.950755
vt 0.674217 0.950755
vt 0.189592 0.530683
vt 0.189592 0.418080
vt 0.774331 0.597034
vt 0.729834 0.284324
vt 0.718756 0.284324
vt 0.718756 0.272722
vt 0.729834 0.272722
vt 0.663366 0.289929
vt 0.651764 0.289929
vt 0.651764 0.272722
vt 0.663366 0.272722
vt 0.685522 0.272722
vt 0.696600 0.272722
vt 0.696600 0.289929
vt 0.663366 0.255515
vt 0.663366 0.272722
vt 0.990468 0.597034
vt 0.990468 0.611705
vt 0.990468 0.724672
vt 0.975000 0.724672
vt 0.969213 0.566470
vt 0.969213 0.577548
vt 0.953745 0.577548
vt 0.953745 0.566470
vt 0.969213 0.544520
vt 0.953745 0.544520
vt 0.969213 0.501576
vt 0.953745 0.501576
vt 0.889434 0.005055
vt 0.886065 0.000000
vt 0.252873 0.892685
vt 0.249503 0.897740
vt 0.911385 0.005055
vt 0.908015 0.000000
vt 0.274823 0.892685
vt 0.271454 0.897740
vt 0.954329 0.005055
vt 0.950959 -0.000000
vt 0.317767 0.892685
vt 0.314398 0.897740
vt 0.965930 0.064894
vt 0.965930 0.107839
vt 0.954329 0.107839
vt 0.954329 0.064894
vt 0.965930 0.129789
vt 0.954329 0.129789
vt 0.734443 0.267117
vt 0.734443 0.255515
vt 0.737798 0.255515
vt 0.737798 0.267117
vt 0.738244 0.272722
vt 0.738244 0.284324
vt 0.734889 0.284324
vt 0.769616 0.892640
vt 0.772971 0.892640
vt 0.725730 0.924448
vt 0.740400 0.924448
vt 0.740400 0.939119
vt 0.725730 0.939119
vt 0.628651 0.937994
vt 0.709437 0.762851
vt 0.709437 0.538019
vt 0.939337 0.763650
vt 0.954805 0.763650
vt 0.954805 0.988481
vt 0.939337 0.988481
vt 0.651822 0.762851
vt 0.629872 0.538019
vt 0.651822 0.538019
vt 0.774331 0.523349
vt 0.752381 0.523349
vt 0.752381 0.298517
vt 0.694767 0.762851
vt 0.726672 0.523349
vt 0.726672 0.538019
vt 0.721341 0.538019
vt 0.721341 0.523349
vt 0.725730 0.943975
vt 0.711060 0.943975
vt 0.711060 0.922937
vt 0.725730 0.922937
vt 0.725730 0.907310
vt 0.740400 0.907310
vt 0.740400 0.912545
vt 0.725730 0.912545
vt 0.696390 0.922937
vt 0.696390 0.907310
vt 0.711060 0.907310
vt 0.696390 0.943975
vt 0.711060 0.957582
vt 0.696390 0.957582
vt 0.725730 0.957582
vt 0.683991 0.538019
vt 0.683991 0.523349
vt 0.740400 0.949894
vt 0.725730 0.949894
vt 0.678660 0.538019
vt 0.678660 0.523349
vt 0.711060 0.907310
vt 0.740400 0.955134
vt 0.725730 0.955134
vt 0.209617 0.542280
vt 0.210230 0.545353
vt 0.209617 0.545353
vt 0.210230 0.530683
vt 0.209617 0.533755
vt 0.209617 0.530683
vt 0.223659 0.545353
vt 0.224287 0.542280
vt 0.224287 0.545353
vt 0.224287 0.533755
vt 0.223659 0.530683
vt 0.224287 0.530683
vt 0.693456 0.156244
vt 0.708126 0.156244
vt 0.162232 0.283678
vt 0.168214 0.283678
vt 0.165304 0.286751
vt 0.165304 0.295276
vt 0.168214 0.298349
vt 0.162232 0.298349
vt 0.709401 0.162174
vt 0.079342 0.817059
vt 0.082415 0.814195
vt 0.090940 0.814195
vt 0.094012 0.817059
vt 0.094012 0.910606
vt 0.079342 0.910606
vt 0.539229 0.454761
vt 0.537954 0.460691
vt 0.553899 0.454761
vt 0.105610 0.814195
vt 0.108683 0.817060
vt 0.108683 0.910606
vt 0.094012 0.817060
vt 0.097085 0.814195
vt 0.628561 0.273272
vt 0.631465 0.276345
vt 0.625489 0.276345
vt 0.625489 0.261674
vt 0.631465 0.261674
vt 0.628561 0.264747
vt 0.692180 0.162175
vt 0.555176 0.460692
s 0
usemtl Material.003
f 1/1/1 3/2/1 22/3/1 20/4/1
f 15/5/2 13/6/2 28/7/2 29/8/2
f 4/9/3 2/10/3 21/11/3 23/12/3
f 12/13/4 10/14/4 14/15/4 16/16/4
f 6/17/1 5/18/1 9/19/1 10/20/1
f 8/21/4 6/22/4 10/14/4 12/13/4
f 7/23/3 8/24/3 12/25/3 11/26/3
f 14/27/2 13/6/2 15/5/2 16/28/2
f 11/26/3 12/25/3 16/29/3 15/30/3
f 3/31/5 4/32/5 23/33/5 22/34/5
f 14/15/6 10/14/6 18/35/6 19/36/6
f 18/37/1 17/38/1 19/39/1
f 13/6/2 14/27/2 19/40/2
f 17/41/5 9/42/5 26/43/5 30/44/5
f 10/45/5 9/42/5 17/41/5 18/46/5
f 20/4/1 22/3/1 34/47/1 32/48/1
f 31/49/1 30/50/1 42/51/1 43/52/1
f 24/53/1 20/4/1 32/48/1 36/54/1
f 26/55/1 24/53/1 36/54/1 38/56/1
f 22/34/5 23/33/5 35/57/5 34/58/5
f 2/10/3 7/23/3 25/59/3 21/11/3
f 11/26/3 15/30/3 29/60/3 27/61/3
f 7/23/3 11/26/3 27/61/3 25/59/3
f 5/18/1 1/1/1 20/4/1 24/53/1
f 13/6/2 19/40/2 31/62/2 28/7/2
f 9/19/1 5/18/1 24/53/1 26/55/1
f 19/39/1 17/38/1 30/50/1 31/49/1
f 32/48/1 34/47/1 46/63/1 44/64/1
f 43/52/1 42/51/1 54/65/1 55/66/1
f 36/54/1 32/48/1 44/64/1 48/67/1
f 38/56/1 36/54/1 48/67/1 50/68/1
f 34/58/5 35/57/5 47/69/5 46/70/5
f 29/8/2 28/7/2 40/71/2 41/72/2
f 23/12/3 21/11/3 33/73/3 35/74/3
f 28/7/2 31/62/2 43/75/2 40/71/2
f 27/61/3 29/60/3 41/76/3 39/77/3
f 25/59/3 27/61/3 39/77/3 37/78/3
f 30/44/5 26/43/5 38/79/5 42/80/5
f 21/11/3 25/59/3 37/78/3 33/73/3
f 484/81/7 485/82/7 66/83/7 67/84/7
f 48/67/1 44/64/1 56/85/1 60/86/1 493/87/1
f 486/88/1 493/87/1 60/86/1 62/89/1
f 46/70/5 47/69/5 59/90/5 58/91/5
f 45/92/3 49/93/3 494/94/3 61/95/3 57/96/3
f 45/97/8 33/98/8 147/99/8 153/100/8
f 35/74/3 33/73/3 45/92/3 47/101/3
f 55/102/9 52/103/9 156/104/9 158/105/9
f 40/106/4 43/107/4 152/108/4 150/109/4
f 52/103/9 53/110/9 157/111/9 156/104/9
f 42/80/5 38/79/5 50/112/5 54/113/5
f 41/114/4 40/106/4 150/109/4 151/115/4
f 60/86/1 56/85/1 68/116/1 72/117/1
f 62/89/1 60/86/1 72/117/1 74/118/1
f 58/91/5 59/90/5 71/119/5 70/120/5
f 57/121/4 61/122/4 161/123/4 159/124/4
f 66/125/5 62/126/5 74/127/5 78/128/5
f 44/64/1 46/63/1 58/129/1 56/85/1
f 476/130/2 483/131/2 64/132/2 65/133/2
f 47/101/3 45/92/3 57/96/3 59/134/3
f 483/131/2 484/135/2 67/136/2 64/132/2
f 475/137/3 476/138/3 65/139/3 63/140/3
f 494/94/3 475/137/3 63/140/3 61/95/3
f 485/141/5 486/142/5 62/126/5 66/125/5
f 68/116/1 70/143/1 82/144/1 80/145/1 121/146/1
f 120/147/10 119/148/10 88/149/10 89/150/10
f 70/151/9 58/151/9 82/151/9
f 70/120/5 71/119/5 116/152/5 83/153/5 82/154/5
f 117/155/1 118/156/1 84/157/1 86/158/1
f 67/84/1 66/83/1 78/159/1 79/160/1
f 56/85/1 58/129/1 70/143/1 68/116/1
f 65/161/11 64/162/11 110/163/11 111/164/11
f 59/134/3 57/96/3 69/165/3 71/166/3
f 76/167/12 77/168/12 114/169/12 113/170/12
f 77/171/9 75/172/9 145/173/9 146/174/9
f 73/175/9 69/176/9 163/177/9 165/178/9
f 75/179/4 77/180/4 128/181/4 127/182/4
f 87/183/13 122/184/13 142/185/13 133/186/13
f 95/187/5 83/153/5 131/188/5 136/189/5
f 89/150/2 88/149/2 100/190/2 101/191/2
f 86/192/9 88/193/9 91/194/9 90/195/9
f 85/196/4 87/197/4 133/198/4 132/199/4
f 124/200/3 123/201/3 85/202/3 81/203/3
f 126/204/1 125/205/1 90/206/1 91/207/1
f 118/156/1 121/146/1 80/145/1 84/157/1
f 119/148/10 126/208/10 91/209/10 88/149/10
f 116/210/3 124/200/3 81/203/3 83/211/3
f 125/212/13 117/213/13 86/214/13 90/215/13
f 123/201/3 122/216/3 87/217/3 85/202/3
f 92/218/9 94/219/9 95/220/9 93/221/9
f 96/222/9 97/223/9 99/224/9 98/225/9
f 92/218/9 93/221/9 97/223/9 96/222/9
f 98/225/9 99/224/9 101/226/9 100/227/9
f 97/223/9 93/221/9 135/228/9 137/229/9
f 84/230/4 80/231/4 102/232/4 104/233/4
f 82/154/5 83/153/5 95/187/5 94/234/5
f 86/235/4 84/230/4 104/233/4 90/236/4
f 82/154/5 94/234/5 106/237/5 103/238/5
f 91/207/1 90/206/1 108/239/1 109/240/1
f 90/206/1 104/241/1 107/242/1 108/239/1
f 104/241/1 102/243/1 105/244/1 107/242/1
f 102/243/1 103/245/1 106/246/1 105/244/1
f 98/225/9 100/227/9 109/247/9 108/248/9
f 80/231/4 82/249/4 103/250/4 102/232/4
f 96/222/9 98/225/9 108/248/9 107/251/9
f 100/190/2 88/149/2 91/209/2 109/252/2
f 92/218/9 96/222/9 107/251/9 105/253/9
f 94/219/9 92/218/9 105/253/9 106/254/9
f 111/255/2 110/256/2 113/170/2 114/169/2
f 110/256/2 112/257/2 115/258/2 113/170/2
f 77/259/3 65/260/3 111/261/3 114/262/3
f 67/84/1 79/160/1 115/263/1 112/264/1
f 79/265/12 76/167/12 113/170/12 115/258/12
f 64/162/11 67/36/11 112/266/11 110/163/11
f 73/267/3 75/268/3 122/216/3 123/201/3
f 78/128/13 74/127/13 117/213/13 125/212/13
f 71/166/3 69/165/3 124/200/3 116/210/3
f 76/167/10 79/265/10 126/208/10 119/148/10
f 72/117/1 68/116/1 121/146/1 118/156/1
f 79/160/1 78/159/1 125/205/1 126/204/1
f 69/165/3 73/267/3 123/201/3 124/200/3
f 83/269/4 81/270/4 129/271/4 131/272/4
f 74/118/1 72/117/1 118/156/1 117/155/1
f 77/168/10 76/167/10 119/148/10 120/147/10
f 132/273/3 133/274/3 138/275/3 137/276/3
f 133/274/3 134/277/3 139/278/3 138/275/3
f 131/279/3 129/280/3 135/281/3 136/282/3
f 142/283/3 141/284/3 134/277/3 133/274/3
f 129/280/3 132/273/3 137/276/3 135/281/3
f 127/285/3 128/286/3 141/284/3 142/283/3
f 83/151/2 82/151/2 130/151/2 131/151/2
f 93/221/9 95/220/9 136/287/9 135/228/9
f 77/168/10 120/147/10 141/288/10 128/289/10
f 99/224/9 97/223/9 137/229/9 138/290/9
f 89/150/2 101/191/2 139/291/2 134/292/2
f 81/270/4 85/196/4 132/199/4 129/271/4
f 122/184/13 75/293/13 127/294/13 142/185/13
f 103/250/9 82/249/9 130/295/9 140/296/9
f 101/226/9 99/224/9 138/290/9 139/297/9
f 120/147/10 89/150/10 134/292/10 141/288/10
f 143/298/3 144/299/3 146/300/3 145/301/3
f 65/302/2 77/303/2 146/304/2 144/305/2
f 63/306/4 65/307/4 144/308/4 143/309/4
f 75/310/5 63/311/5 143/312/5 145/313/5
f 151/314/2 150/315/2 156/316/2 157/317/2
f 150/315/2 152/318/2 158/319/2 156/316/2
f 149/320/3 151/321/3 157/322/3 155/323/3
f 148/324/3 149/320/3 155/323/3 154/325/3
f 147/326/3 148/324/3 154/325/3 153/327/3
f 39/328/4 41/114/4 151/115/4 149/329/4
f 53/110/9 51/330/9 155/331/9 157/111/9
f 43/332/14 55/333/14 158/319/14 152/318/14
f 37/334/4 39/328/4 149/329/4 148/335/4
f 51/330/9 49/336/9 154/337/9 155/331/9
f 33/338/4 37/334/4 148/335/4 147/339/4
f 49/336/9 45/340/9 153/341/9 154/337/9
f 159/342/3 161/343/3 165/344/3 163/345/3
f 161/343/3 162/346/3 166/347/3 165/344/3
f 63/348/2 75/349/2 166/350/2 162/351/2
f 69/352/5 57/353/5 159/354/5 163/355/5
f 75/356/9 73/175/9 165/178/9 166/357/9
f 70/120/5 58/91/5 160/358/5 164/359/5
f 61/122/4 63/360/4 162/346/4 161/123/4
f 177/361/5 188/362/5 187/363/5 175/364/5
f 174/365/4 178/366/4 176/367/4 172/368/4
f 168/369/1 172/370/1 171/371/1 167/372/1
f 170/373/4 174/365/4 172/368/4 168/374/4
f 169/375/3 173/376/3 174/377/3 170/378/3
f 176/379/5 178/380/5 177/361/5 175/364/5
f 173/376/3 177/381/3 178/382/3 174/377/3
f 1/383/2 20/384/2 21/385/2 2/386/2
f 176/367/4 182/387/4 180/388/4 172/368/4
f 180/389/1 182/390/1 181/391/1 179/392/1
f 175/364/5 181/393/5 182/394/5 176/379/5
f 179/395/2 189/396/2 185/397/2 171/398/2
f 172/399/2 180/400/2 179/395/2 171/398/2
f 190/401/1 198/402/1 197/403/1 189/404/1
f 183/405/1 191/406/1 34/47/1 22/3/1
f 185/407/1 193/408/1 191/406/1 183/405/1
f 20/384/2 32/409/2 33/410/2 21/385/2
f 4/9/3 23/12/3 184/411/3 169/375/3
f 173/376/3 186/412/3 188/413/3 177/381/3
f 169/375/3 184/411/3 186/412/3 173/376/3
f 167/372/1 183/405/1 22/3/1 3/2/1
f 175/364/5 187/363/5 190/414/5 181/393/5
f 171/371/1 185/407/1 183/405/1 167/372/1
f 181/391/1 190/401/1 189/404/1 179/392/1
f 198/402/1 206/415/1 205/416/1 197/403/1
f 191/406/1 199/417/1 46/63/1 34/47/1
f 193/408/1 201/418/1 199/417/1 191/406/1
f 32/409/2 44/419/2 45/420/2 33/410/2
f 188/362/5 196/421/5 195/422/5 187/363/5
f 187/363/5 195/422/5 198/423/5 190/414/5
f 186/412/3 194/424/3 196/425/3 188/413/3
f 184/411/3 192/426/3 194/424/3 186/412/3
f 189/396/2 197/427/2 193/428/2 185/397/2
f 23/12/3 35/74/3 192/426/3 184/411/3
f 509/429/7 214/430/7 213/431/7 512/432/7
f 199/417/1 518/433/1 207/434/1 58/129/1 46/63/1
f 514/435/1 209/436/1 207/434/1 518/433/1
f 44/419/2 56/437/2 57/438/2 45/420/2
f 47/101/3 59/134/3 208/439/3 519/440/3 200/441/3
f 47/97/15 278/442/15 272/443/15 35/98/15
f 206/444/9 283/445/9 281/446/9 203/447/9
f 195/448/4 275/449/4 277/450/4 198/451/4
f 203/447/9 281/446/9 282/452/9 204/453/9
f 197/427/2 205/454/2 201/455/2 193/428/2
f 196/456/4 276/457/4 275/449/4 195/448/4
f 207/434/1 215/458/1 70/143/1 58/129/1
f 209/436/1 217/459/1 215/458/1 207/434/1
f 56/437/2 68/460/2 69/461/2 57/438/2
f 59/462/4 284/463/4 286/464/4 208/465/4
f 213/466/2 221/467/2 217/468/2 209/469/2
f 496/470/5 212/471/5 211/472/5 501/473/5
f 501/473/5 211/472/5 214/474/5 509/475/5
f 495/476/3 210/477/3 212/478/3 496/479/3
f 519/440/3 208/439/3 210/477/3 495/476/3
f 512/480/2 213/466/2 209/469/2 514/481/2
f 70/143/1 251/482/1 82/144/1 80/145/1 68/116/1
f 250/483/16 228/484/16 227/485/16 249/486/16
f 68/151/9 80/151/9 56/151/9
f 68/460/2 80/487/2 81/488/2 124/489/2 69/461/2
f 247/490/1 225/491/1 223/492/1 248/493/1
f 214/430/1 222/494/1 221/495/1 213/431/1
f 212/28/17 242/496/17 241/497/17 211/27/17
f 219/498/18 244/499/18 245/500/18 220/501/18
f 220/502/9 271/503/9 270/504/9 218/505/9
f 216/506/9 290/507/9 288/508/9 71/509/9
f 218/510/4 256/511/4 257/512/4 220/513/4
f 226/514/19 260/515/19 267/516/19 252/517/19
f 93/518/2 135/519/2 129/520/2 81/488/2
f 228/484/5 236/521/5 235/522/5 227/485/5
f 225/523/9 229/524/9 230/525/9 227/526/9
f 224/527/4 259/528/4 260/529/4 226/530/4
f 116/210/3 83/211/3 224/531/3 253/532/3
f 255/533/1 230/534/1 229/535/1 254/536/1
f 248/493/1 223/492/1 82/144/1 251/482/1
f 249/486/16 227/485/16 230/537/16 255/538/16
f 254/539/19 229/46/19 225/540/19 247/541/19
f 253/532/3 224/531/3 226/542/3 252/543/3
f 231/544/9 233/545/9 234/546/9 232/547/9
f 94/219/9 231/544/9 232/547/9 95/220/9
f 233/545/9 235/548/9 236/549/9 234/546/9
f 232/547/9 262/550/9 136/287/9 95/220/9
f 223/551/4 237/552/4 103/250/4 82/249/4
f 80/487/2 92/553/2 93/518/2 81/488/2
f 225/554/4 229/555/4 237/552/4 223/551/4
f 80/487/2 102/556/2 105/557/2 92/553/2
f 230/534/1 240/558/1 239/559/1 229/535/1
f 229/535/1 239/559/1 238/560/1 237/561/1
f 237/561/1 238/560/1 106/246/1 103/245/1
f 233/545/9 239/562/9 240/563/9 235/548/9
f 231/544/9 238/564/9 239/562/9 233/545/9
f 235/522/5 240/565/5 230/537/5 227/485/5
f 94/219/9 106/254/9 238/564/9 231/544/9
f 242/566/5 245/500/5 244/499/5 241/567/5
f 241/567/5 244/499/5 246/568/5 243/569/5
f 220/570/3 245/571/3 242/572/3 212/573/3
f 214/430/1 243/574/1 246/575/1 222/494/1
f 222/576/18 246/568/18 244/499/18 219/498/18
f 211/27/17 241/497/17 243/577/17 214/578/17
f 216/579/3 253/532/3 252/543/3 218/580/3
f 221/467/19 254/539/19 247/541/19 217/468/19
f 219/498/16 249/486/16 255/538/16 222/576/16
f 215/458/1 248/493/1 251/482/1 70/143/1
f 222/494/1 255/533/1 254/536/1 221/495/1
f 71/166/3 116/210/3 253/532/3 216/579/3
f 217/459/1 247/490/1 248/493/1 215/458/1
f 220/501/16 250/483/16 249/486/16 219/498/16
f 259/581/3 262/582/3 263/583/3 260/584/3
f 260/584/3 263/583/3 264/585/3 261/586/3
f 267/587/3 260/584/3 261/586/3 266/588/3
f 131/279/3 136/282/3 262/582/3 259/581/3
f 256/589/3 267/587/3 266/588/3 257/590/3
f 81/151/5 129/151/5 258/151/5 80/151/5
f 220/501/16 257/591/16 266/592/16 250/483/16
f 234/546/9 263/593/9 262/550/9 232/547/9
f 228/484/5 261/594/5 264/595/5 236/521/5
f 83/269/4 131/272/4 259/528/4 224/527/4
f 252/517/19 267/516/19 256/596/19 218/597/19
f 102/232/5 265/598/5 258/599/5 80/231/5
f 236/549/9 264/600/9 263/593/9 234/546/9
f 250/483/16 266/592/16 261/594/16 228/484/16
f 268/601/3 270/602/3 271/603/3 269/604/3
f 212/312/5 269/605/5 271/606/5 220/313/5
f 210/306/4 268/309/4 269/607/4 212/608/4
f 218/609/2 270/610/2 268/611/2 210/612/2
f 276/613/5 282/614/5 281/615/5 275/616/5
f 275/616/5 281/615/5 283/617/5 277/618/5
f 274/619/3 280/620/3 282/621/3 276/622/3
f 273/623/3 279/624/3 280/620/3 274/619/3
f 272/625/3 278/626/3 279/624/3 273/623/3
f 194/627/4 274/628/4 276/457/4 196/456/4
f 204/453/9 282/452/9 280/629/9 202/630/9
f 198/631/20 277/618/20 283/617/20 206/632/20
f 192/633/4 273/634/4 274/628/4 194/627/4
f 202/630/9 280/629/9 279/635/9 200/636/9
f 35/637/4 272/638/4 273/634/4 192/633/4
f 200/636/9 279/635/9 278/639/9 47/640/9
f 284/641/3 288/642/3 290/643/3 286/644/3
f 286/644/3 290/643/3 291/645/3 287/646/3
f 210/647/5 287/648/5 291/649/5 218/650/5
f 71/651/2 288/652/2 284/653/2 59/654/2
f 218/463/9 291/462/9 290/507/9 216/506/9
f 68/460/2 289/655/2 285/656/2 56/437/2
f 208/465/4 286/464/4 287/657/4 210/658/4
f 292/659/3 312/660/3 314/661/3 296/662/3
f 295/663/1 299/664/1 298/665/1 294/666/1
f 299/667/5 297/668/5 296/669/5 298/670/5
f 297/671/4 299/672/4 295/673/4 293/674/4
f 294/666/1 302/675/1 303/676/1 295/663/1
f 297/677/3 293/678/3 292/659/3 296/662/3
f 310/679/2 321/680/2 320/681/2 308/682/2
f 293/678/3 301/683/3 300/684/3 292/659/3
f 295/673/4 303/685/4 301/686/4 293/674/4
f 298/665/1 315/687/1 313/688/1 294/666/1
f 307/689/4 311/690/4 309/691/4 305/692/4
f 301/683/3 305/693/3 304/694/3 300/684/3
f 303/685/4 307/689/4 305/692/4 301/686/4
f 302/675/1 306/695/1 307/696/1 303/676/1
f 309/697/2 311/698/2 310/679/2 308/682/2
f 306/695/1 310/699/1 311/700/1 307/696/1
f 296/669/5 314/701/5 315/702/5 298/670/5
f 309/691/21 19/36/21 18/35/21 305/692/21
f 308/682/2 19/40/2 309/697/2
f 17/41/5 30/44/5 318/703/5 304/704/5
f 305/540/5 18/46/5 17/41/5 304/704/5
f 312/660/3 322/705/3 324/706/3 314/661/3
f 316/707/3 326/708/3 322/705/3 312/660/3
f 318/709/3 328/710/3 326/708/3 316/707/3
f 314/701/5 324/711/5 325/712/5 315/702/5
f 294/666/1 313/688/1 317/713/1 302/675/1
f 306/695/1 319/714/1 321/715/1 310/699/1
f 302/675/1 317/713/1 319/714/1 306/695/1
f 300/684/3 316/707/3 312/660/3 292/659/3
f 308/682/2 320/681/2 31/62/2 19/40/2
f 304/694/3 318/709/3 316/707/3 300/684/3
f 453/716/4 451/717/4 191/718/4 193/719/4
f 334/720/9 457/721/9 199/722/9 46/723/9
f 457/721/9 459/724/9 201/725/9 199/722/9
f 324/711/22 334/726/22 335/727/22 325/712/22
f 321/680/2 331/728/2 330/729/2 320/681/2
f 315/687/1 325/730/1 323/731/1 313/688/1
f 320/681/2 330/729/2 43/75/2 31/62/2
f 319/714/1 329/732/1 331/733/1 321/715/1
f 317/713/1 327/734/1 329/732/1 319/714/1
f 30/44/5 42/80/5 328/735/5 318/703/5
f 313/688/1 323/731/1 327/734/1 317/713/1
f 55/736/3 67/737/3 66/738/3 54/739/3
f 336/740/3 346/741/3 342/742/3 555/743/3 553/744/3 559/745/3 563/746/3 567/747/3 569/748/3 332/749/3
f 338/750/3 348/751/3 346/741/3 336/740/3
f 333/752/1 568/753/1 566/754/1 562/755/1 558/756/1 552/757/1 554/758/1 343/759/1 347/760/1 337/761/1
f 333/762/23 421/763/23 415/764/23 323/765/23
f 325/730/1 335/766/1 333/767/1 323/731/1
f 55/768/9 426/769/9 424/770/9 340/771/9
f 330/772/4 418/773/4 420/774/4 43/775/4
f 340/771/9 424/770/9 425/776/9 341/777/9
f 42/80/5 54/113/5 338/778/5 328/735/5
f 331/779/4 419/780/4 418/773/4 330/772/4
f 346/741/3 356/781/3 352/782/3 342/742/3
f 348/751/3 358/783/3 356/781/3 346/741/3
f 344/784/24 354/785/24 355/786/24 345/787/24
f 343/121/4 427/788/4 428/789/4 347/122/4
f 66/125/5 78/128/5 358/790/5 348/791/5
f 341/792/2 351/793/2 350/794/2 340/795/2
f 340/795/2 350/794/2 67/796/2 55/797/2
f 339/798/1 349/799/1 351/800/1 341/801/1
f 337/761/1 347/760/1 349/799/1 339/798/1
f 54/113/5 66/125/5 348/791/5 338/778/5
f 352/782/3 391/802/3 362/803/3 364/804/3 354/805/3
f 390/806/10 371/807/10 370/808/10 389/809/10
f 354/151/3 364/151/3 344/151/3
f 354/785/5 364/810/5 365/811/5 386/812/5 355/786/5
f 387/813/3 368/814/3 366/815/3 388/816/3
f 342/742/3 352/782/3 354/805/3 344/817/3
f 351/818/11 383/317/11 382/316/11 350/819/11
f 345/820/1 355/821/1 353/822/1 343/823/1
f 360/824/12 384/825/12 385/826/12 361/827/12
f 361/828/9 414/829/9 413/171/9 359/830/9
f 357/831/9 431/832/9 430/833/9 353/834/9
f 359/835/4 395/836/4 396/837/4 361/838/4
f 369/515/13 401/839/13 410/840/13 392/516/13
f 375/841/5 404/842/5 399/843/5 365/811/5
f 371/807/2 381/844/2 380/845/2 370/808/2
f 368/846/9 90/195/9 91/194/9 370/847/9
f 367/848/4 400/199/4 401/198/4 369/849/4
f 394/850/1 363/851/1 367/852/1 393/853/1
f 388/816/3 366/815/3 362/803/3 391/802/3
f 389/809/10 370/808/10 91/209/10 126/208/10
f 386/854/1 365/855/1 363/851/1 394/850/1
f 125/212/13 90/215/13 368/856/13 387/857/13
f 393/853/1 367/852/1 369/858/1 392/859/1
f 372/860/9 373/861/9 375/862/9 374/863/9
f 376/864/9 378/865/9 379/866/9 377/867/9
f 372/860/9 376/864/9 377/867/9 373/861/9
f 378/865/9 380/868/9 381/869/9 379/866/9
f 377/867/9 405/870/9 403/871/9 373/861/9
f 366/872/4 104/233/4 102/232/4 362/873/4
f 364/810/5 374/874/5 375/841/5 365/811/5
f 368/875/4 90/236/4 104/233/4 366/872/4
f 364/810/5 103/238/5 106/237/5 374/874/5
f 378/865/9 108/248/9 109/247/9 380/868/9
f 362/873/4 102/232/4 103/250/4 364/876/4
f 376/864/9 107/251/9 108/248/9 378/865/9
f 380/845/2 109/252/2 91/209/2 370/808/2
f 372/860/9 105/253/9 107/251/9 376/864/9
f 374/863/9 106/254/9 105/253/9 372/860/9
f 383/877/2 385/826/2 384/825/2 382/878/2
f 382/878/2 384/825/2 115/258/2 112/257/2
f 361/879/1 385/880/1 383/881/1 351/882/1
f 79/265/12 115/258/12 384/825/12 360/824/12
f 350/819/11 382/316/11 112/266/11 67/36/11
f 357/883/1 393/853/1 392/859/1 359/884/1
f 78/128/13 125/212/13 387/857/13 358/790/13
f 355/821/1 386/854/1 394/850/1 353/822/1
f 360/824/10 389/809/10 126/208/10 79/265/10
f 356/781/3 388/816/3 391/802/3 352/782/3
f 353/822/1 394/850/1 393/853/1 357/883/1
f 365/885/4 399/272/4 397/271/4 363/886/4
f 358/783/3 387/813/3 388/816/3 356/781/3
f 361/827/10 390/806/10 389/809/10 360/824/10
f 400/887/1 405/888/1 406/889/1 401/890/1
f 401/890/1 406/889/1 407/891/1 402/892/1
f 399/893/1 404/894/1 403/895/1 397/896/1
f 410/897/1 401/890/1 402/892/1 409/898/1
f 397/896/1 403/895/1 405/888/1 400/887/1
f 395/899/1 410/897/1 409/898/1 396/900/1
f 365/151/2 399/151/2 398/151/2 364/151/2
f 373/861/9 403/871/9 404/901/9 375/862/9
f 361/827/10 396/902/10 409/903/10 390/806/10
f 379/866/9 406/904/9 405/870/9 377/867/9
f 371/807/2 402/905/2 407/906/2 381/844/2
f 363/886/4 397/271/4 400/199/4 367/848/4
f 392/516/13 410/840/13 395/907/13 359/596/13
f 103/250/2 408/908/2 398/909/2 364/876/2
f 381/869/9 407/910/9 406/904/9 379/866/9
f 390/806/10 409/903/10 402/905/10 371/807/10
f 411/911/1 413/912/1 414/913/1 412/914/1
f 351/915/2 412/916/2 414/605/2 361/312/2
f 349/173/4 411/172/4 412/917/4 351/918/4
f 359/612/5 413/611/5 411/919/5 349/308/5
f 419/920/2 425/726/2 424/921/2 418/922/2
f 418/922/2 424/921/2 426/923/2 420/924/2
f 417/925/1 423/926/1 425/927/1 419/928/1
f 416/929/1 422/930/1 423/926/1 417/925/1
f 415/931/1 421/932/1 422/930/1 416/929/1
f 329/933/4 417/934/4 419/780/4 331/779/4
f 341/777/9 425/776/9 423/935/9 339/936/9
f 43/332/25 420/924/25 426/923/25 55/333/25
f 327/937/4 416/938/4 417/934/4 329/933/4
f 339/936/9 423/935/9 422/939/9 337/940/9
f 323/941/4 415/942/4 416/938/4 327/937/4
f 337/940/9 422/939/9 421/943/9 333/944/9
f 427/945/1 430/946/1 431/947/1 428/948/1
f 428/948/1 431/947/1 432/949/1 429/950/1
f 349/951/2 429/952/2 432/953/2 359/954/2
f 353/955/26 430/956/26 427/957/26 343/958/26
f 359/509/9 432/959/9 431/832/9 357/831/9
f 347/122/4 428/789/4 429/960/4 349/360/4
f 295/961/2 294/962/2 292/963/2 293/964/2
f 298/665/1 299/664/1 436/965/1 435/966/1
f 443/967/5 441/968/5 449/969/5 450/970/5
f 297/677/3 296/662/3 433/971/3 434/972/3
f 299/672/4 297/671/4 434/973/4 436/974/4
f 440/975/4 438/976/4 442/977/4 444/978/4
f 434/972/3 433/971/3 437/979/3 438/980/3
f 436/974/4 434/973/4 438/976/4 440/975/4
f 435/966/1 436/965/1 440/981/1 439/982/1
f 442/983/5 441/968/5 443/967/5 444/984/5
f 439/982/1 440/981/1 444/985/1 443/986/1
f 292/963/2 294/962/2 313/987/2 312/988/2
f 442/977/4 438/976/4 180/388/4 182/387/4
f 441/968/5 442/983/5 182/394/5 181/393/5
f 179/395/2 437/989/2 447/990/2 189/396/2
f 438/991/2 437/989/2 179/395/2 180/400/2
f 445/992/3 314/661/3 324/706/3 451/993/3
f 447/994/3 445/992/3 451/993/3 453/995/3
f 312/988/2 313/987/2 323/996/2 322/997/2
f 298/665/1 435/966/1 446/998/1 315/687/1
f 439/982/1 443/986/1 450/999/1 448/1000/1
f 435/966/1 439/982/1 448/1000/1 446/998/1
f 433/971/3 296/662/3 314/661/3 445/992/3
f 441/968/5 181/393/5 190/414/5 449/969/5
f 437/979/3 433/971/3 445/992/3 447/994/3
f 328/1001/2 338/1002/2 50/980/2 38/1003/2
f 332/1004/9 334/720/9 46/723/9 44/1005/9
f 322/997/27 323/996/27 333/1006/27 332/1007/27
f 450/970/5 449/969/5 455/1008/5 456/1009/5
f 449/969/5 190/414/5 198/423/5 455/1008/5
f 448/1000/1 450/999/1 456/1010/1 454/1011/1
f 446/998/1 448/1000/1 454/1011/1 452/1012/1
f 189/396/2 447/990/2 453/1013/2 197/427/2
f 315/687/1 446/998/1 452/1012/1 325/730/1
f 206/1014/3 205/1015/3 213/1016/3 214/1017/3
f 457/1018/3 334/1019/3 571/1020/3 565/1021/3 561/1022/3 557/1023/3 551/1024/3 549/1025/3 344/817/3 463/1026/3
f 459/1027/3 457/1018/3 463/1026/3 465/1028/3
f 332/1004/9 333/1029/9 335/1030/9 334/720/9
f 335/1031/1 458/1032/1 464/1033/1 345/1034/1 548/1035/1 550/1036/1 556/1037/1 560/1038/1 564/1039/1 570/1040/1
f 335/1041/28 325/1042/28 530/1043/28 536/1044/28
f 55/66/29 54/65/29 485/82/29 484/81/29
f 206/1045/9 461/1046/9 539/1047/9 541/1048/9
f 455/1049/4 198/1050/4 535/1051/4 533/1052/4
f 461/1046/9 462/1053/9 540/800/9 539/1047/9
f 197/427/2 453/1013/2 459/1054/2 205/454/2
f 456/1055/4 455/1049/4 533/1052/4 534/1056/4
f 463/1026/3 344/817/3 354/805/3 469/1057/3
f 465/1028/3 463/1026/3 469/1057/3 471/1058/3
f 342/1059/30 343/1060/30 353/1061/30 352/1062/30
f 345/1063/4 464/1064/4 543/464/4 542/463/4
f 213/466/2 465/1065/2 471/1066/2 221/467/2
f 50/68/1 48/67/1 493/87/1 486/88/1
f 462/1067/5 461/1068/5 467/1069/5 468/1070/5
f 53/1071/2 52/1072/2 483/131/2 476/130/2
f 461/1068/5 206/1073/5 214/1074/5 467/1069/5
f 460/1075/1 462/1076/1 468/1077/1 466/1078/1
f 458/1032/1 460/1075/1 466/1078/1 464/1033/1
f 205/454/2 459/1054/2 465/1065/2 213/466/2
f 354/805/3 352/782/3 362/803/3 364/804/3 506/1079/3
f 505/1080/16 504/1081/16 481/1082/16 482/1083/16
f 352/151/3 342/151/3 362/151/3
f 352/1062/2 353/1061/2 394/1084/2 363/1085/2 362/1086/2
f 502/1087/3 503/1088/3 477/1089/3 479/1090/3
f 52/1072/2 55/1091/2 484/135/2 483/131/2
f 468/698/17 467/697/17 497/1092/17 498/1093/17
f 51/1094/3 53/1095/3 476/138/3 475/137/3
f 473/1096/18 474/1097/18 500/1098/18 499/1099/18
f 474/1100/9 472/1101/9 528/1102/9 529/505/9
f 470/1103/9 355/1104/9 545/1105/9 546/1106/9
f 472/1107/4 474/1108/4 511/1109/4 510/1110/4
f 480/1111/19 507/1112/19 525/1113/19 516/1114/19
f 373/1115/2 363/1085/2 397/1116/2 403/1117/2
f 482/1083/5 481/1082/5 491/1118/5 492/1119/5
f 479/1120/9 481/1121/9 230/525/9 229/524/9
f 478/1122/4 480/1123/4 516/529/4 515/528/4
f 386/854/1 508/1124/1 478/1125/1 365/855/1
f 503/1088/3 506/1079/3 364/804/3 477/1089/3
f 504/1081/16 255/538/16 230/537/16 481/1082/16
f 49/93/3 51/1094/3 475/137/3 494/94/3
f 254/539/19 502/1126/19 479/45/19 229/46/19
f 508/1124/1 507/1127/1 480/1128/1 478/1125/1
f 54/113/5 50/112/5 486/142/5 485/141/5
f 487/1129/9 488/1130/9 490/1131/9 489/1132/9
f 374/863/9 375/862/9 488/1130/9 487/1129/9
f 489/1132/9 490/1131/9 492/1133/9 491/1134/9
f 488/1130/9 375/862/9 404/901/9 520/1135/9
f 477/1136/4 364/876/4 103/250/4 237/552/4
f 362/1086/2 363/1085/2 373/1115/2 372/1137/2
f 479/1138/4 477/1136/4 237/552/4 229/555/4
f 362/1086/2 372/1137/2 105/557/2 102/556/2
f 206/415/29 509/429/29 512/432/29 205/416/29
f 489/1132/9 491/1134/9 240/563/9 239/562/9
f 201/418/1 514/435/1 518/433/1 199/417/1
f 487/1129/9 489/1132/9 239/562/9 238/564/9
f 491/1118/5 481/1082/5 230/537/5 240/565/5
f 374/863/9 487/1129/9 238/564/9 106/254/9
f 204/1139/5 496/470/5 501/473/5 203/1140/5
f 498/1141/5 497/1142/5 499/1099/5 500/1098/5
f 497/1142/5 243/569/5 246/568/5 499/1099/5
f 474/1143/1 468/1144/1 498/1145/1 500/1146/1
f 222/576/18 473/1096/18 499/1099/18 246/568/18
f 467/697/17 214/578/17 243/577/17 497/1092/17
f 470/1147/1 472/1148/1 507/1127/1 508/1124/1
f 221/467/19 471/1066/19 502/1126/19 254/539/19
f 203/1140/5 501/473/5 509/475/5 206/1149/5
f 473/1096/16 222/576/16 255/538/16 504/1081/16
f 469/1057/3 354/805/3 506/1079/3 503/1088/3
f 355/821/1 470/1147/1 508/1124/1 386/854/1
f 202/1150/3 495/476/3 496/479/3 204/1151/3
f 471/1058/3 469/1057/3 503/1088/3 502/1087/3
f 474/1097/16 473/1096/16 504/1081/16 505/1080/16
f 515/1152/1 516/1153/1 521/1154/1 520/1155/1
f 516/1153/1 517/1156/1 522/1157/1 521/1154/1
f 200/441/3 519/440/3 495/476/3 202/1150/3
f 525/1158/1 524/1159/1 517/1156/1 516/1153/1
f 399/893/1 515/1152/1 520/1155/1 404/894/1
f 510/1160/1 511/1161/1 524/1159/1 525/1158/1
f 363/151/5 362/151/5 513/151/5 397/151/5
f 205/454/2 512/480/2 514/481/2 201/455/2
f 474/1097/16 505/1080/16 524/1162/16 511/1163/16
f 490/1131/9 488/1130/9 520/1135/9 521/1164/9
f 482/1083/5 492/1119/5 522/1165/5 517/1166/5
f 365/885/4 478/1122/4 515/528/4 399/272/4
f 507/1112/19 472/1167/19 510/1168/19 525/1113/19
f 102/232/9 362/873/9 513/1169/9 523/1170/9
f 492/1133/9 490/1131/9 521/1164/9 522/1171/9
f 505/1080/16 482/1083/16 517/1166/16 524/1162/16
f 526/1172/1 527/1173/1 529/1174/1 528/1175/1
f 468/1176/5 474/1177/5 529/1178/5 527/1179/5
f 466/1180/4 468/1181/4 527/1182/4 526/608/4
f 472/1183/2 466/918/2 526/917/2 528/1184/2
f 534/1185/5 533/1186/5 539/1072/5 540/1071/5
f 533/1186/5 535/1187/5 541/1188/5 539/1072/5
f 532/1189/1 534/1190/1 540/1191/1 538/1192/1
f 531/1193/1 532/1189/1 538/1192/1 537/1194/1
f 530/1195/1 531/1193/1 537/1194/1 536/1196/1
f 454/1197/4 456/1055/4 534/1056/4 532/1198/4
f 462/1053/9 460/1199/9 538/1200/9 540/800/9
f 198/631/31 206/632/31 541/1188/31 535/1187/31
f 452/1201/4 454/1197/4 532/1198/4 531/1202/4
f 460/1199/9 458/1203/9 537/1204/9 538/1200/9
f 325/1205/4 452/1201/4 531/1202/4 530/1206/4
f 458/1203/9 335/1207/9 536/1208/9 537/1204/9
f 542/1209/1 543/1210/1 546/1211/1 545/1212/1
f 543/1210/1 544/1213/1 547/1214/1 546/1211/1
f 466/1215/5 472/1216/5 547/1217/5 544/1218/5
f 355/1219/32 345/1220/32 542/1221/32 545/1041/32
f 472/1222/9 470/1103/9 546/1106/9 547/1223/9
f 343/1224/4 342/1225/4 344/1226/4 345/1227/4
f 464/1064/4 466/1228/4 544/657/4 543/464/4
f 451/717/4 324/1229/4 34/1230/4 191/718/4
f 459/1231/5 453/1232/5 193/1233/5 201/1234/5
f 326/1235/4 328/995/4 38/1236/4 36/1237/4
f 338/1238/9 336/1239/9 48/1240/9 50/600/9
f 322/1241/4 326/1235/4 36/1237/4 32/1030/4
f 336/1239/9 332/1004/9 44/1005/9 48/1240/9
f 324/1229/4 322/1241/4 32/1030/4 34/1230/4
f 567/1242/33 566/1243/33 568/1244/33 569/1245/33
f 562/1246/5 563/1247/5 559/1248/5 558/1249/5
f 552/1250/34 553/1251/34 555/1252/34 554/1253/34
f 557/1248/35 556/1254/35 550/1255/35 551/1256/35
f 560/1257/36 561/1247/36 565/1258/36 564/1259/36
f 566/1260/37 567/1258/37 563/1247/37 562/1246/37
f 570/1261/38 571/1262/38 334/720/38 335/1030/38
f 549/1263/39 548/1264/39 345/1227/39 344/1226/39
f 569/1245/40 568/1244/40 333/1029/40 332/1004/40
f 571/1262/41 570/1261/41 564/1265/41 565/1266/41
f 556/1254/2 557/1248/2 561/1247/2 560/1257/2
f 554/1253/42 555/1252/42 342/1225/42 343/1224/42
f 553/1267/43 552/1250/43 558/1249/43 559/1248/43
f 548/1264/44 549/1263/44 551/1268/44 550/1269/44
f 572/1270/45 573/1271/45 574/1272/45
f 575/1273/46 576/1274/46 577/1275/46
f 578/1276/47 579/1277/47 580/1278/47
f 581/1279/48 582/1280/48 583/1281/48
f 572/1270/49 579/1277/49 578/1276/49 573/1271/49
f 581/1279/50 576/1274/50 575/1273/50 582/1280/50
f 578/1282/1 3/2/1 1/1/1 573/1283/1
f 575/1284/51 577/1285/51 576/1286/51 572/1287/51 574/1288/51 573/1289/51 1/383/51 2/386/51
f 574/1290/1 573/1283/1 1/1/1 5/18/1 6/17/1
f 579/1277/4 572/1270/4 576/1274/4 581/1279/4
f 577/1291/52 576/1292/52 572/1293/52 574/1294/52 6/1295/52 8/1296/52
f 2/10/3 575/1297/3 577/1298/3 8/24/3 7/23/3
f 575/1297/3 2/10/3 4/9/3 582/1299/3
f 581/1300/53 583/1301/53 170/1302/53 168/1295/53 580/1303/53 579/1304/53
f 581/1305/54 583/1306/54 582/1307/54 4/32/54 3/31/54 578/1308/54 580/1309/54 579/1310/54
f 578/1282/1 580/1311/1 168/369/1 167/372/1 3/2/1
f 4/9/3 169/375/3 170/378/3 583/1312/3 582/1299/3
