# Blender 5.0.1
# www.blender.org
mtllib house.mtl
o Cube
v 1.000000 1.000000 -1.000000
v 1.000000 -1.000000 -1.000000
v 1.000000 1.000000 1.000000
v 1.000000 -1.000000 1.000000
v -1.000000 1.000000 -1.000000
v -1.000000 -1.000000 -1.000000
v -1.000000 1.000000 1.000000
v -1.000000 -1.000000 1.000000
v 1.000000 1.000000 7.723441
v 1.000000 -1.000000 7.723441
v -1.000000 1.000000 7.723441
v -1.000000 -1.000000 7.723441
v 1.000000 6.033567 -1.000000
v 1.000000 6.033567 1.000000
v -1.000000 6.033567 -1.000000
v -1.000000 6.033567 1.000000
v 1.000000 6.033567 7.723441
v -1.000000 6.033567 7.723441
v 1.000000 1.000000 10.174012
v 1.000000 -1.000000 10.174012
v -1.000000 1.000000 10.174012
v -1.000000 -1.000000 10.174012
v 1.000000 6.033567 10.174012
v -1.000000 6.033567 10.174012
v 1.000000 12.885340 -1.000000
v 1.000000 12.885340 1.000000
v -1.000000 12.885340 -1.000000
v -1.000000 12.885340 1.000000
v 1.000000 12.885340 7.723441
v -1.000000 12.885340 7.723441
v 1.000000 12.885340 10.174012
v -1.000000 12.885340 10.174012
v 1.000000 14.480124 -1.000000
v 1.000000 14.480124 1.000000
v -1.000000 14.480124 -1.000000
v -1.000000 14.480124 1.000000
v 1.000000 14.480124 7.723441
v -1.000000 14.480124 7.723441
v 1.000000 14.480124 10.174012
v -1.000000 14.480124 10.174012
v -23.695528 1.000000 7.723441
v -23.695528 -1.000000 7.723441
v -23.695528 6.033567 7.723441
v -23.695528 1.000000 10.174012
v -23.695528 -1.000000 10.174012
v -23.695528 6.033567 10.174012
v -23.695528 12.885340 -1.000000
v -23.695528 12.885340 1.000000
v -23.695528 12.885340 7.723441
v -23.695528 12.885340 10.174012
v -23.695528 14.480124 -1.000000
v -23.695528 14.480124 1.000000
v -23.695528 14.480124 7.723441
v -23.695528 14.480124 10.174012
v -25.852095 1.000000 7.723441
v -25.852095 -1.000000 7.723441
v -25.852095 6.033567 7.723441
v -25.852095 1.000000 10.174012
v -25.852095 -1.000000 10.174012
v -25.852095 6.033567 10.174012
v -25.852095 12.885340 -1.000000
v -25.852095 12.885340 1.000000
v -25.852095 12.885340 7.723441
v -25.852095 12.885340 10.174012
v -25.852095 14.480124 -1.000000
v -25.852095 14.480124 1.000000
v -25.852095 14.480124 7.723441
v -25.852095 14.480124 10.174012
v -23.695528 -1.000000 4.114103
v -23.695528 6.033567 4.114103
v -25.852095 -1.000000 4.114103
v -25.852095 6.033567 4.114103
v -25.852095 12.885340 4.114103
v -1.000000 9.459454 10.174012
v 1.000000 9.459454 10.174012
v 1.000000 9.459454 1.000000
v 1.000000 9.459454 7.723441
v -1.000000 9.459454 1.000000
v -1.000000 9.459454 -1.000000
v -1.000000 9.459454 7.723441
v 1.000000 9.459454 -1.000000
v -23.695528 9.459454 10.174012
v -23.695528 9.459454 7.723441
v -25.852095 9.459454 10.174012
v -25.852095 9.459454 7.723441
v -23.695528 -1.000000 3.246155
v 1.000000 11.172397 10.174012
v 1.000000 11.172397 1.000000
v -1.000000 11.172397 1.000000
v -1.000000 11.172397 10.174012
v 1.000000 11.172397 7.723441
v -1.000000 11.172397 -1.000000
v -1.000000 11.172397 7.723441
v 1.000000 11.172397 -1.000000
v -23.695528 11.172397 10.174012
v -23.695528 11.172397 7.723441
v -25.852095 11.172397 10.174012
v -25.852095 11.172397 7.723441
v -25.852095 12.885340 -0.036466
v -23.695528 9.459454 -0.036466
v -25.852095 9.459454 -0.036466
v -23.695528 11.172397 -0.036466
v -25.852095 11.172397 -0.036466
v -23.695528 6.143744 4.114103
v -23.695528 9.459454 0.798393
v -23.695528 11.172371 4.114103
v -23.695528 9.459454 7.429813
v -25.852095 9.459454 0.798393
v -25.852095 6.143744 4.114103
v -25.852095 9.459454 7.429813
v -25.852095 11.172371 4.114103
v -25.852095 -1.000000 3.246155
v -24.079592 1.000000 3.730039
v -23.695528 1.000000 4.114103
v -25.468031 1.000000 3.730039
v -25.852095 1.000000 4.114103
v -24.079592 1.000000 3.630219
v -23.695528 0.615937 3.246155
v -25.468031 1.000000 3.630219
v -25.852095 0.615937 3.246155
v -12.349369 -1.000000 7.723441
v -12.349369 12.885340 1.000000
v -12.349369 12.885340 7.723441
v -12.349369 14.480124 -1.000000
v -12.349369 12.885340 -1.000000
v -12.349369 1.000000 7.723441
v -12.349369 6.033567 7.723441
v -12.349369 12.885340 10.174012
v -12.349369 6.033567 10.174012
v -12.349369 14.480124 1.000000
v -12.349369 14.480124 7.723441
v -12.349369 14.480124 10.174012
v -12.349369 1.000000 10.174012
v -12.349369 -1.000000 10.174012
v -12.349369 9.459454 7.723441
v -12.349369 9.459454 10.174012
v -12.349369 11.172397 7.723441
v -12.349369 11.172397 10.174012
v -1.000000 -1.000000 4.361721
v -1.000000 1.000000 4.361721
v 1.000000 -1.000000 4.361721
v 1.000000 1.000000 4.361721
v -1.000000 6.033567 4.361721
v 1.000000 6.033567 4.361721
v -1.000000 12.885340 4.361721
v 1.000000 12.885340 4.361721
v -1.000000 14.480124 4.361721
v 1.000000 14.480124 4.361721
v -23.695528 12.885340 4.361721
v -23.695528 14.480124 4.361721
v -25.852095 12.885340 4.361721
v -25.852095 14.480124 4.361721
v -1.000000 9.459454 4.361721
v 1.000000 9.459454 4.361721
v -1.000000 11.172397 4.361721
v 1.000000 11.172397 4.361721
v -12.349369 12.885340 4.361721
v -12.349369 14.480124 4.361721
v -1.000000 -1.000000 6.042581
v 1.000000 -1.000000 6.042581
v 1.000000 9.459454 6.042581
v 1.000000 11.172397 6.042581
v -12.349369 14.480124 6.042581
v -1.000000 1.000000 6.042581
v 1.000000 1.000000 6.042581
v -1.000000 6.033567 6.042581
v 1.000000 6.033567 6.042581
v -1.000000 12.885340 6.042581
v 1.000000 12.885340 6.042581
v -1.000000 14.480124 6.042581
v 1.000000 14.480124 6.042581
v -23.695528 12.885340 6.042581
v -23.695528 14.480124 6.042581
v -25.852095 12.885340 6.042581
v -25.852095 14.480124 6.042581
v -1.000000 9.459454 6.042581
v -1.000000 11.172397 6.042581
v -12.349369 12.885340 6.042581
v -1.000000 1.000000 2.680860
v 1.000000 1.000000 2.680860
v -1.000000 6.033567 2.680860
v 1.000000 6.033567 2.680860
v -1.000000 12.885340 2.680860
v 1.000000 12.885340 2.680860
v -1.000000 14.480124 2.680860
v 1.000000 14.480124 2.680860
v -23.695528 12.885340 2.680860
v -23.695528 14.480124 2.680860
v -25.852095 12.885340 2.680860
v -25.852095 14.480124 2.680860
v -1.000000 9.459454 2.680860
v -1.000000 11.172397 2.680860
v -12.349369 12.885340 2.680860
v -1.000000 -1.000000 2.680860
v 1.000000 -1.000000 2.680860
v 1.000000 9.459454 2.680860
v 1.000000 11.172397 2.680860
v -12.349369 14.480124 2.680860
v -6.674685 12.885340 1.000000
v -6.674685 14.480124 -1.000000
v -6.674685 1.000000 7.723441
v -6.674685 6.033567 7.723441
v -6.674685 6.033567 10.174012
v -6.674685 14.480124 7.723441
v -6.674685 1.000000 10.174012
v -6.674685 -1.000000 7.723441
v -6.674685 12.885340 7.723441
v -6.674685 12.885340 -1.000000
v -6.674685 12.885340 10.174012
v -6.674685 14.480124 1.000000
v -6.674685 14.480124 10.174012
v -6.674685 -1.000000 10.174012
v -6.674685 9.459454 7.723441
v -6.674685 9.459454 10.174012
v -6.674685 11.172397 7.723441
v -6.674685 11.172397 10.174012
v -6.674685 14.480124 4.361721
v -6.674685 12.885340 4.361721
v -6.674685 14.480124 6.042581
v -6.674685 12.885340 6.042581
v -6.674685 12.885340 2.680860
v -6.674685 14.480124 2.680860
v -3.837342 12.885340 1.000000
v -3.837342 14.480124 -1.000000
v -3.837342 1.000000 7.723441
v -3.837342 6.033567 7.723441
v -3.837342 6.033567 10.174012
v -3.837342 14.480124 7.723441
v -3.837342 1.000000 10.174012
v -3.837342 -1.000000 7.723441
v -3.837342 12.885340 7.723441
v -3.837342 12.885340 -1.000000
v -3.837342 12.885340 10.174012
v -3.837342 14.480124 1.000000
v -3.837342 14.480124 10.174012
v -3.837342 -1.000000 10.174012
v -3.837342 9.459454 7.723441
v -3.837342 9.459454 10.174012
v -3.837342 11.172397 7.723441
v -3.837342 11.172397 10.174012
v -3.837342 14.480124 4.361721
v -3.837342 12.885340 4.361721
v -3.837342 14.480124 6.042581
v -3.837342 12.885340 6.042581
v -3.837342 12.885340 2.680860
v -3.837342 14.480124 2.680860
v -18.022449 -1.000000 7.723441
v -18.022449 12.885340 7.723441
v -18.022449 12.885340 -1.000000
v -18.022449 12.885340 10.174012
v -18.022449 14.480124 1.000000
v -18.022449 14.480124 10.174012
v -18.022449 -1.000000 10.174012
v -18.022449 9.459454 7.723441
v -18.022449 9.459454 10.174012
v -18.022449 11.172397 7.723441
v -18.022449 11.172397 10.174012
v -18.022449 12.885340 1.000000
v -18.022449 14.480124 -1.000000
v -18.022449 1.000000 7.723441
v -18.022449 6.033567 7.723441
v -18.022449 6.033567 10.174012
v -18.022449 14.480124 7.723441
v -18.022449 1.000000 10.174012
v -18.022449 12.885340 4.361721
v -18.022449 14.480124 4.361721
v -18.022449 14.480124 6.042581
v -18.022449 12.885340 6.042581
v -18.022449 12.885340 2.680860
v -18.022449 14.480124 2.680860
v -20.858990 -1.000000 7.723441
v -20.858990 12.885340 7.723441
v -20.858990 12.885340 -1.000000
v -20.858990 12.885340 10.174012
v -20.858990 14.480124 1.000000
v -20.858990 14.480124 10.174012
v -20.858990 -1.000000 10.174012
v -20.858990 9.459454 7.723441
v -20.858990 9.459454 10.174012
v -20.858990 11.172397 7.723441
v -20.858990 11.172397 10.174012
v -20.858990 12.885340 4.361721
v -20.858990 14.480124 4.361721
v -20.858990 14.480124 6.042581
v -20.858990 12.885340 6.042581
v -20.858990 12.885340 2.680860
v -20.858990 14.480124 2.680860
v -20.858990 12.885340 1.000000
v -20.858990 14.480124 -1.000000
v -20.858990 1.000000 7.723441
v -20.858990 6.033567 7.723441
v -20.858990 6.033567 10.174012
v -20.858990 14.480124 7.723441
v -20.858990 1.000000 10.174012
v -22.277260 -1.000000 7.723441
v -22.277260 12.885340 7.723441
v -22.277260 12.885340 -1.000000
v -22.277260 12.885340 10.174012
v -22.277260 14.480124 1.000000
v -22.277260 14.480124 10.174012
v -22.277260 -1.000000 10.174012
v -22.277260 9.459454 7.723441
v -22.277260 9.459454 10.174012
v -22.277260 11.172397 7.723441
v -22.277260 11.172397 10.174012
v -22.277260 12.885340 4.361721
v -22.277260 14.480124 4.361721
v -22.277260 14.480124 6.042581
v -22.277260 12.885340 6.042581
v -22.277260 12.885340 2.680860
v -22.277260 14.480124 2.680860
v -22.277260 12.885340 1.000000
v -22.277260 14.480124 -1.000000
v -22.277260 1.000000 7.723441
v -22.277260 6.033567 7.723441
v -22.277260 6.033567 10.174012
v -22.277260 14.480124 7.723441
v -22.277260 1.000000 10.174012
v -2.418671 12.885340 1.000000
v -2.418671 14.480124 -1.000000
v -2.418671 1.000000 7.723441
v -2.418671 6.033567 7.723441
v -2.418671 6.033567 10.174012
v -2.418671 14.480124 7.723441
v -2.418671 1.000000 10.174012
v -2.418671 -1.000000 7.723441
v -2.418671 12.885340 7.723441
v -2.418671 12.885340 -1.000000
v -2.418671 12.885340 10.174012
v -2.418671 14.480124 1.000000
v -2.418671 14.480124 10.174012
v -2.418671 -1.000000 10.174012
v -2.418671 9.459454 7.723441
v -2.418671 9.459454 10.174012
v -2.418671 11.172397 7.723441
v -2.418671 11.172397 10.174012
v -2.418671 14.480124 4.361721
v -2.418671 12.885340 4.361721
v -2.418671 14.480124 6.042581
v -2.418671 12.885340 6.042581
v -2.418671 12.885340 2.680860
v -2.418671 14.480124 2.680860
v -1.000000 25.707209 -1.000000
v -1.000000 25.707209 1.000000
v -1.000000 25.707209 7.723441
v -23.695528 25.707209 -1.000000
v -23.695528 25.707209 1.000000
v -23.695528 25.707209 7.723441
v -12.349369 25.707209 7.723441
v -1.000000 25.707209 4.361721
v -23.695528 25.707209 4.361721
v -1.000000 25.707209 6.042581
v -23.695528 25.707209 6.042581
v -1.000000 25.707209 2.680860
v -23.695528 25.707209 2.680860
v -6.674685 25.707209 7.723441
v -3.837342 25.707209 7.723441
v -18.022449 25.707209 7.723441
v -20.858990 25.707209 7.723441
v -22.277260 25.707209 7.723441
v -2.418671 25.707209 7.723441
v -12.363581 25.707209 -1.000000
v -12.363581 25.707209 1.000000
v -12.363581 25.707209 7.723441
v -12.363581 25.707209 4.361721
v -12.363581 25.707209 6.042581
v -12.363581 25.707209 2.680860
v -7.427353 25.707209 -1.000000
v -7.427353 25.707209 1.000000
v -7.427353 25.707209 7.723441
v -7.427353 25.707209 4.361721
v -7.427353 25.707209 6.042581
v -7.427353 25.707209 2.680860
v -23.695528 20.121181 6.042581
v -1.000000 20.121181 7.723441
v -2.418671 20.121181 7.723441
v -25.852095 20.121181 2.680860
v -25.852095 20.121181 4.361721
v -2.418671 20.121181 10.174012
v -1.000000 20.121181 10.174012
v -25.852095 20.121181 10.174012
v -23.695528 20.121181 10.174012
v -23.695528 20.121181 -1.000000
v -25.852095 20.121181 -1.000000
v 1.000000 20.121181 6.042581
v 1.000000 20.121181 4.361721
v -22.277260 20.121181 10.174012
v -20.858990 20.121181 10.174012
v -23.695528 20.121181 4.361721
v -23.695528 20.121181 2.680860
v -1.000000 20.121181 4.361721
v -1.000000 20.121181 6.042581
v -3.837342 20.121181 10.174012
v -6.674685 20.121181 10.174012
v 1.000000 20.121181 7.723441
v 1.000000 20.121181 2.345101
v -23.695528 20.121181 1.000000
v -6.674685 20.121181 7.723441
v -3.837342 20.121181 7.723441
v -23.695528 20.121181 7.723441
v -22.277260 20.121181 7.723441
v -1.000000 20.121181 2.345101
v -25.852095 20.121181 6.042581
v -25.852095 20.121181 1.000000
v -18.022449 20.121181 7.723441
v -12.349369 20.121181 7.723441
v -18.022449 20.121181 10.174012
v -25.852095 20.121181 7.723441
v -12.349369 20.121181 10.174012
v -1.000000 20.121181 2.680860
v 1.000000 20.121181 2.680860
v -20.858990 20.121181 7.723441
v 1.000000 20.121181 10.174012
v -2.418671 22.914196 7.723441
v -25.852095 22.914196 4.361721
v -1.000000 22.914196 10.174012
v -23.695528 22.914196 10.174012
v -25.852095 22.914196 -1.000000
v 1.000000 22.914196 4.361721
v -20.858990 22.914196 10.174012
v -23.695528 22.914196 2.680860
v -1.000000 22.914196 6.042581
v -3.837342 22.914196 10.174012
v 1.000000 22.914196 -1.000000
v -6.674685 22.914196 7.723441
v -23.695528 22.914196 7.723441
v -12.943628 25.707209 4.361721
v -25.852095 22.914196 6.042581
v -25.852095 22.914196 1.000000
v -18.022449 22.914196 7.723441
v -18.022449 22.914196 10.174012
v -20.858990 22.914196 7.723441
v 1.000000 22.914196 10.174012
v -23.695528 22.914196 6.042581
v -1.000000 22.914196 7.723441
v -25.852095 22.914196 2.680860
v -2.418671 22.914196 10.174012
v -25.852095 22.914196 10.174012
v -23.695528 22.914196 -1.000000
v 1.000000 22.914196 6.042581
v -22.277260 22.914196 10.174012
v -23.695528 22.914196 4.361721
v -1.000000 22.914196 4.361721
v -6.674685 22.914196 10.174012
v 1.000000 22.914196 7.723441
v -12.943628 25.707209 7.723441
v -23.695528 22.914196 1.000000
v -3.837342 22.914196 7.723441
v -22.277260 22.914196 7.723441
v -1.000000 22.914196 -1.000000
v -12.349369 22.914196 7.723441
v -25.852095 22.914196 7.723441
v -12.349369 22.914196 10.174012
v 1.000000 22.914196 2.680835
v -23.695528 17.300653 6.042581
v -1.000000 17.300653 7.723441
v -25.852095 17.300653 2.680860
v -2.418671 17.300653 10.174012
v -25.852095 17.300653 10.174012
v -23.695528 17.300653 -1.000000
v 1.000000 17.300653 6.042581
v -22.277260 17.300653 10.174012
v -23.695528 17.300653 4.361721
v -1.000000 17.300653 4.361721
v -6.674685 17.300653 10.174012
v 1.000000 17.300653 7.723441
v -12.943628 25.707209 1.000000
v -23.695528 17.300653 1.000000
v -3.837342 17.300653 7.723441
v -22.277260 17.300653 7.723441
v -1.000000 17.300653 -1.000000
v -12.349369 17.300653 7.723441
v -25.852095 17.300653 7.723441
v -12.349369 17.300653 10.174012
v -2.418671 17.300653 7.723441
v -25.852095 17.300653 4.361721
v -1.000000 17.300653 10.174012
v -23.695528 17.300653 10.174012
v -25.852095 17.300653 -1.000000
v 1.000000 17.300653 4.361721
v -20.858990 17.300653 10.174012
v -23.695528 17.300653 2.680860
v -1.000000 17.300653 6.042581
v -3.837342 17.300653 10.174012
v 1.000000 17.300653 -1.000000
v -6.674685 17.300653 7.723441
v -23.695528 17.300653 7.723441
v -12.943628 25.707209 -1.000000
v -25.852095 17.300653 6.042581
v -25.852095 17.300653 1.000000
v -18.022449 17.300653 7.723441
v -18.022449 17.300653 10.174012
v -1.000000 17.300653 2.680835
v -20.858990 17.300653 7.723441
v 1.000000 17.300653 10.174012
v -1.000000 22.914196 1.808270
v -1.000000 22.377365 2.345101
v -1.000000 22.914196 2.680835
v -1.000000 23.397860 2.112171
v 1.000000 22.377365 2.345101
v 1.000000 22.914196 1.808270
v 1.000000 23.397860 2.112171
v 1.000000 17.300653 1.808270
v 1.000000 17.837484 2.345101
v 1.000000 17.300653 2.680835
v 1.000000 16.816103 2.114020
v -1.000000 17.837484 2.345101
v -1.000000 17.300653 1.808270
v -1.000000 16.816103 2.114020
v -12.943628 25.707209 6.042581
v -12.943628 25.707209 2.680860
v 1.000000 1.000000 -7.723441
v 1.000000 -1.000000 -7.723441
v -1.000000 1.000000 -7.723441
v -1.000000 -1.000000 -7.723441
v 1.000000 6.033567 -7.723441
v -1.000000 6.033567 -7.723441
v 1.000000 1.000000 -10.174012
v 1.000000 -1.000000 -10.174012
v -1.000000 1.000000 -10.174012
v -1.000000 -1.000000 -10.174012
v 1.000000 6.033567 -10.174012
v -1.000000 6.033567 -10.174012
v 1.000000 12.885340 -7.723441
v -1.000000 12.885340 -7.723441
v 1.000000 12.885340 -10.174012
v -1.000000 12.885340 -10.174012
v 1.000000 14.480124 -7.723441
v -1.000000 14.480124 -7.723441
v 1.000000 14.480124 -10.174012
v -1.000000 14.480124 -10.174012
v -23.695528 1.000000 -7.723441
v -23.695528 -1.000000 -7.723441
v -23.695528 6.033567 -7.723441
v -23.695528 1.000000 -10.174012
v -23.695528 -1.000000 -10.174012
v -23.695528 6.033567 -10.174012
v -23.695528 12.885340 -7.723441
v -23.695528 12.885340 -10.174012
v -23.695528 14.480124 -7.723441
v -23.695528 14.480124 -10.174012
v -25.852095 1.000000 -7.723441
v -25.852095 -1.000000 -7.723441
v -25.852095 6.033567 -7.723441
v -25.852095 1.000000 -10.174012
v -25.852095 -1.000000 -10.174012
v -25.852095 6.033567 -10.174012
v -25.852095 12.885340 -7.723441
v -25.852095 12.885340 -10.174012
v -25.852095 14.480124 -7.723441
v -25.852095 14.480124 -10.174012
v -23.695528 -1.000000 -4.114103
v -23.695528 6.033567 -4.114103
v -25.852095 -1.000000 -4.114103
v -25.852095 6.033567 -4.114103
v -25.852095 12.885340 -4.114103
v -1.000000 9.459454 -10.174012
v 1.000000 9.459454 -10.174012
v 1.000000 9.459454 -7.723441
v -1.000000 9.459454 -7.723441
v -23.695528 9.459454 -10.174012
v -23.695528 9.459454 -7.723441
v -25.852095 9.459454 -10.174012
v -25.852095 9.459454 -7.723441
v -23.695528 -1.000000 -3.246155
v 1.000000 11.172397 -10.174012
v -1.000000 11.172397 -10.174012
v 1.000000 11.172397 -7.723441
v -1.000000 11.172397 -7.723441
v -23.695528 11.172397 -10.174012
v -23.695528 11.172397 -7.723441
v -25.852095 11.172397 -10.174012
v -25.852095 11.172397 -7.723441
v -25.852095 11.172371 -4.114103
v -25.852095 12.885340 0.036466
v -23.695528 9.459454 0.036466
v -25.852095 9.459454 0.036466
v -23.695528 11.172397 0.036466
v -25.852095 11.172397 0.036466
v -23.695528 6.143744 -4.114103
v -23.695528 9.459454 -0.798393
v -23.695528 11.172371 -4.114103
v -23.695528 9.459454 -7.429813
v -25.852095 9.459454 -0.798393
v -25.852095 6.143744 -4.114103
v -25.852095 9.459454 -7.429813
v -25.852095 -1.000000 -3.246155
v -24.079592 1.000000 -3.730039
v -23.695528 1.000000 -4.114103
v -25.468031 1.000000 -3.730039
v -25.852095 1.000000 -4.114103
v -24.079592 1.000000 -3.630219
v -23.695528 0.615937 -3.246155
v -25.468031 1.000000 -3.630219
v -25.852095 0.615937 -3.246155
v -12.349369 -1.000000 -7.723441
v -12.349369 12.885340 -7.723441
v -12.349369 1.000000 -7.723441
v -12.349369 6.033567 -7.723441
v -12.349369 12.885340 -10.174012
v -12.349369 6.033567 -10.174012
v -12.349369 14.480124 -7.723441
v -12.349369 14.480124 -10.174012
v -12.349369 1.000000 -10.174012
v -12.349369 -1.000000 -10.174012
v -12.349369 9.459454 -7.723441
v -12.349369 9.459454 -10.174012
v -12.349369 11.172397 -7.723441
v -12.349369 11.172397 -10.174012
v -1.000000 -1.000000 -4.361721
v -1.000000 1.000000 -4.361721
v 1.000000 -1.000000 -4.361721
v 1.000000 1.000000 -4.361721
v -1.000000 6.033567 -4.361721
v 1.000000 6.033567 -4.361721
v -1.000000 12.885340 -4.361721
v 1.000000 12.885340 -4.361721
v -1.000000 14.480124 -4.361721
v 1.000000 14.480124 -4.361721
v -23.695528 12.885340 -4.361721
v -23.695528 14.480124 -4.361721
v -25.852095 12.885340 -4.361721
v -25.852095 14.480124 -4.361721
v -1.000000 9.459454 -4.361721
v 1.000000 9.459454 -4.361721
v -1.000000 11.172397 -4.361721
v 1.000000 11.172397 -4.361721
v -12.349369 12.885340 -4.361721
v -12.349369 14.480124 -4.361721
v -1.000000 -1.000000 -6.042581
v 1.000000 -1.000000 -6.042581
v 1.000000 9.459454 -6.042581
v 1.000000 11.172397 -6.042581
v -12.349369 14.480124 -6.042581
v -1.000000 1.000000 -6.042581
v 1.000000 1.000000 -6.042581
v -1.000000 6.033567 -6.042581
v 1.000000 6.033567 -6.042581
v -1.000000 12.885340 -6.042581
v 1.000000 12.885340 -6.042581
v -1.000000 14.480124 -6.042581
v 1.000000 14.480124 -6.042581
v -23.695528 12.885340 -6.042581
v -23.695528 14.480124 -6.042581
v -25.852095 12.885340 -6.042581
v -25.852095 14.480124 -6.042581
v -1.000000 9.459454 -6.042581
v -1.000000 11.172397 -6.042581
v -12.349369 12.885340 -6.042581
v -1.000000 1.000000 -2.680860
v 1.000000 1.000000 -2.680860
v -1.000000 6.033567 -2.680860
v 1.000000 6.033567 -2.680860
v -1.000000 12.885340 -2.680860
v 1.000000 12.885340 -2.680860
v -1.000000 14.480124 -2.680860
v 1.000000 14.480124 -2.680860
v -23.695528 12.885340 -2.680860
v -23.695528 14.480124 -2.680860
v -25.852095 12.885340 -2.680860
v -25.852095 14.480124 -2.680860
v -1.000000 9.459454 -2.680860
v -1.000000 11.172397 -2.680860
v -12.349369 12.885340 -2.680860
v -1.000000 -1.000000 -2.680860
v 1.000000 -1.000000 -2.680860
v 1.000000 9.459454 -2.680860
v 1.000000 11.172397 -2.680860
v -12.349369 14.480124 -2.680860
v -6.674685 1.000000 -7.723441
v -6.674685 6.033567 -7.723441
v -6.674685 6.033567 -10.174012
v -6.674685 14.480124 -7.723441
v -6.674685 1.000000 -10.174012
v -6.674685 -1.000000 -7.723441
v -6.674685 12.885340 -7.723441
v -6.674685 12.885340 -10.174012
v -6.674685 14.480124 -10.174012
v -6.674685 -1.000000 -10.174012
v -6.674685 9.459454 -7.723441
v -6.674685 9.459454 -10.174012
v -6.674685 11.172397 -7.723441
v -6.674685 11.172397 -10.174012
v -6.674685 14.480124 -4.361721
v -6.674685 12.885340 -4.361721
v -6.674685 14.480124 -6.042581
v -6.674685 12.885340 -6.042581
v -6.674685 12.885340 -2.680860
v -6.674685 14.480124 -2.680860
v -3.837342 1.000000 -7.723441
v -3.837342 6.033567 -7.723441
v -3.837342 6.033567 -10.174012
v -3.837342 14.480124 -7.723441
v -3.837342 1.000000 -10.174012
v -3.837342 -1.000000 -7.723441
v -3.837342 12.885340 -7.723441
v -3.837342 12.885340 -10.174012
v -3.837342 14.480124 -10.174012
v -3.837342 -1.000000 -10.174012
v -3.837342 9.459454 -7.723441
v -3.837342 9.459454 -10.174012
v -3.837342 11.172397 -7.723441
v -3.837342 11.172397 -10.174012
v -3.837342 14.480124 -4.361721
v -3.837342 12.885340 -4.361721
v -3.837342 14.480124 -6.042581
v -3.837342 12.885340 -6.042581
v -3.837342 12.885340 -2.680860
v -3.837342 14.480124 -2.680860
v -18.022449 -1.000000 -7.723441
v -18.022449 12.885340 -7.723441
v -18.022449 12.885340 -10.174012
v -18.022449 14.480124 -10.174012
v -18.022449 -1.000000 -10.174012
v -18.022449 9.459454 -7.723441
v -18.022449 9.459454 -10.174012
v -18.022449 11.172397 -7.723441
v -18.022449 11.172397 -10.174012
v -18.022449 1.000000 -7.723441
v -18.022449 6.033567 -7.723441
v -18.022449 6.033567 -10.174012
v -18.022449 14.480124 -7.723441
v -18.022449 1.000000 -10.174012
v -18.022449 12.885340 -4.361721
v -18.022449 14.480124 -4.361721
v -18.022449 14.480124 -6.042581
v -18.022449 12.885340 -6.042581
v -18.022449 12.885340 -2.680860
v -18.022449 14.480124 -2.680860
v -20.858990 -1.000000 -7.723441
v -20.858990 12.885340 -7.723441
v -20.858990 12.885340 -10.174012
v -20.858990 14.480124 -10.174012
v -20.858990 -1.000000 -10.174012
v -20.858990 9.459454 -7.723441
v -20.858990 9.459454 -10.174012
v -20.858990 11.172397 -7.723441
v -20.858990 11.172397 -10.174012
v -20.858990 12.885340 -4.361721
v -20.858990 14.480124 -4.361721
v -20.858990 14.480124 -6.042581
v -20.858990 12.885340 -6.042581
v -20.858990 12.885340 -2.680860
v -20.858990 14.480124 -2.680860
v -20.858990 1.000000 -7.723441
v -20.858990 6.033567 -7.723441
v -20.858990 6.033567 -10.174012
v -20.858990 14.480124 -7.723441
v -20.858990 1.000000 -10.174012
v -22.277260 -1.000000 -7.723441
v -22.277260 12.885340 -7.723441
v -22.277260 12.885340 -10.174012
v -22.277260 14.480124 -10.174012
v -22.277260 -1.000000 -10.174012
v -22.277260 9.459454 -7.723441
v -22.277260 9.459454 -10.174012
v -22.277260 11.172397 -7.723441
v -22.277260 11.172397 -10.174012
v -22.277260 12.885340 -4.361721
v -22.277260 14.480124 -4.361721
v -22.277260 14.480124 -6.042581
v -22.277260 12.885340 -6.042581
v -22.277260 12.885340 -2.680860
v -22.277260 14.480124 -2.680860
v -22.277260 1.000000 -7.723441
v -22.277260 6.033567 -7.723441
v -22.277260 6.033567 -10.174012
v -22.277260 14.480124 -7.723441
v -22.277260 1.000000 -10.174012
v -2.418671 1.000000 -7.723441
v -2.418671 6.033567 -7.723441
v -2.418671 6.033567 -10.174012
v -2.418671 14.480124 -7.723441
v -2.418671 1.000000 -10.174012
v -2.418671 -1.000000 -7.723441
v -2.418671 12.885340 -7.723441
v -2.418671 12.885340 -10.174012
v -2.418671 14.480124 -10.174012
v -2.418671 -1.000000 -10.174012
v -2.418671 9.459454 -7.723441
v -2.418671 9.459454 -10.174012
v -2.418671 11.172397 -7.723441
v -2.418671 11.172397 -10.174012
v -2.418671 14.480124 -4.361721
v -2.418671 12.885340 -4.361721
v -2.418671 14.480124 -6.042581
v -2.418671 12.885340 -6.042581
v -2.418671 12.885340 -2.680860
v -2.418671 14.480124 -2.680860
v -1.000000 25.707209 -7.723441
v -23.695528 25.707209 -7.723441
v -12.349369 25.707209 -7.723441
v -1.000000 25.707209 -4.361721
v -23.695528 25.707209 -4.361721
v -1.000000 25.707209 -6.042581
v -23.695528 25.707209 -6.042581
v -1.000000 25.707209 -2.680860
v -23.695528 25.707209 -2.680860
v -6.674685 25.707209 -7.723441
v -3.837342 25.707209 -7.723441
v -18.022449 25.707209 -7.723441
v -20.858990 25.707209 -7.723441
v -22.277260 25.707209 -7.723441
v -2.418671 25.707209 -7.723441
v -12.363581 25.707209 -7.723441
v -12.363581 25.707209 -4.361721
v -12.363581 25.707209 -6.042581
v -12.363581 25.707209 -2.680860
v -7.427353 25.707209 -7.723441
v -7.427353 25.707209 -4.361721
v -7.427353 25.707209 -6.042581
v -7.427353 25.707209 -2.680860
v -23.695528 20.121181 -6.042581
v -1.000000 20.121181 -7.723441
v -2.418671 20.121181 -7.723441
v -25.852095 20.121181 -2.680860
v -25.852095 20.121181 -4.361721
v -2.418671 20.121181 -10.174012
v -1.000000 20.121181 -10.174012
v -25.852095 20.121181 -10.174012
v -23.695528 20.121181 -10.174012
v 1.000000 20.121181 -6.042581
v 1.000000 20.121181 -4.361721
v -22.277260 20.121181 -10.174012
v -20.858990 20.121181 -10.174012
v -23.695528 20.121181 -4.361721
v -23.695528 20.121181 -2.680860
v -1.000000 20.121181 -4.361721
v -1.000000 20.121181 -6.042581
v -3.837342 20.121181 -10.174012
v -6.674685 20.121181 -10.174012
v 1.000000 20.121181 -7.723441
v 1.000000 20.121181 -2.345101
v -6.674685 20.121181 -7.723441
v -3.837342 20.121181 -7.723441
v -23.695528 20.121181 -7.723441
v -22.277260 20.121181 -7.723441
v -1.000000 20.121181 -2.345101
v -25.852095 20.121181 -6.042581
v -18.022449 20.121181 -7.723441
v -12.349369 20.121181 -7.723441
v -18.022449 20.121181 -10.174012
v -25.852095 20.121181 -7.723441
v -12.349369 20.121181 -10.174012
v -1.000000 20.121181 -2.680860
v 1.000000 20.121181 -2.680860
v -20.858990 20.121181 -7.723441
v 1.000000 20.121181 -10.174012
v -2.418671 22.914196 -7.723441
v -25.852095 22.914196 -4.361721
v -1.000000 22.914196 -10.174012
v -23.695528 22.914196 -10.174012
v 1.000000 22.914196 -4.361721
v -20.858990 22.914196 -10.174012
v -23.695528 22.914196 -2.680860
v -1.000000 22.914196 -6.042581
v -3.837342 22.914196 -10.174012
v 1.000000 22.914196 1.000000
v -6.674685 22.914196 -7.723441
v -23.695528 22.914196 -7.723441
v -12.943628 25.707209 -4.361721
v -25.852095 22.914196 -6.042581
v -18.022449 22.914196 -7.723441
v -18.022449 22.914196 -10.174012
v -20.858990 22.914196 -7.723441
v 1.000000 22.914196 -10.174012
v -23.695528 22.914196 -6.042581
v -1.000000 22.914196 -7.723441
v -25.852095 22.914196 -2.680860
v -2.418671 22.914196 -10.174012
v -25.852095 22.914196 -10.174012
v 1.000000 22.914196 -6.042581
v -22.277260 22.914196 -10.174012
v -23.695528 22.914196 -4.361721
v -1.000000 22.914196 -4.361721
v -6.674685 22.914196 -10.174012
v 1.000000 22.914196 -7.723441
v -12.943628 25.707209 -7.723441
v -3.837342 22.914196 -7.723441
v -22.277260 22.914196 -7.723441
v -1.000000 22.914196 1.000000
v -12.349369 22.914196 -7.723441
v -25.852095 22.914196 -7.723441
v -12.349369 22.914196 -10.174012
v 1.000000 22.914196 -2.680835
v -23.695528 17.300653 -6.042581
v -1.000000 17.300653 -7.723441
v -25.852095 17.300653 -2.680860
v -2.418671 17.300653 -10.174012
v -25.852095 17.300653 -10.174012
v 1.000000 17.300653 -6.042581
v -22.277260 17.300653 -10.174012
v -23.695528 17.300653 -4.361721
v -1.000000 17.300653 -4.361721
v -6.674685 17.300653 -10.174012
v 1.000000 17.300653 -7.723441
v -3.837342 17.300653 -7.723441
v -22.277260 17.300653 -7.723441
v -1.000000 17.300653 1.000000
v -12.349369 17.300653 -7.723441
v -25.852095 17.300653 -7.723441
v -12.349369 17.300653 -10.174012
v 1.000000 17.300653 -2.680835
v -2.418671 17.300653 -7.723441
v -25.852095 17.300653 -4.361721
v -1.000000 17.300653 -10.174012
v -23.695528 17.300653 -10.174012
v 1.000000 17.300653 -4.361721
v -20.858990 17.300653 -10.174012
v -23.695528 17.300653 -2.680860
v -1.000000 17.300653 -6.042581
v -3.837342 17.300653 -10.174012
v 1.000000 17.300653 1.000000
v -6.674685 17.300653 -7.723441
v -23.695528 17.300653 -7.723441
v -25.852095 17.300653 -6.042581
v -18.022449 17.300653 -7.723441
v -18.022449 17.300653 -10.174012
v -1.000000 17.300653 -2.680835
v -20.858990 17.300653 -7.723441
v 1.000000 17.300653 -10.174012
v -1.000000 22.914196 -1.808270
v -1.000000 22.377365 -2.345101
v -1.000000 22.914196 -2.680835
v -1.000000 23.397860 -2.112171
v 1.000000 22.377365 -2.345101
v 1.000000 22.914196 -1.808270
v 1.000000 23.397860 -2.112171
v 1.000000 17.300653 -1.808270
v 1.000000 17.837484 -2.345101
v 1.000000 16.816103 -2.114020
v -1.000000 17.837484 -2.345101
v -1.000000 17.300653 -1.808270
v -1.000000 16.816103 -2.114020
v -12.943628 25.707209 -6.042581
v -12.943628 25.707209 -2.680860
vn -0.0000 -0.0000 -1.0000
vn -1.0000 -0.0000 -0.0000
vn -0.0000 -1.0000 -0.0000
vn 1.0000 -0.0000 -0.0000
vn -0.0000 -0.0000 1.0000
vn -0.0000 1.0000 -0.0000
vn -0.0000 -0.7071 -0.7071
vn -0.4215 0.8429 -0.3345
vn -0.0000 0.7071 -0.7071
vn 0.4215 0.8429 -0.3345
vn -0.0000 -0.7071 0.7071
vn -0.4215 0.8429 0.3345
vn -0.0000 0.7071 0.7071
vn 0.4215 0.8429 0.3345
vt 0.625000 0.500000
vt 0.625000 0.250000
vt 0.625000 0.000000
vt 0.375000 0.000000
vt 0.375000 0.250000
vt 0.125000 0.500000
vt 0.375000 0.500000
vt 0.375000 0.750000
vt 0.125000 0.750000
vt 0.625000 0.750000
vt 0.625000 1.000000
vt 0.375000 1.000000
vt 0.875000 0.750000
vt 0.875000 0.500000
vt 0.576992 0.000000
vt 0.625000 0.750000
vt 0.625000 0.750000
vt 0.875000 0.709879
vt 0.625000 0.719910
vt 0.625000 0.709879
vt 0.854940 0.699849
s 1
usemtl Material
f 1/1/1 5/2/1 15/2/1 13/1/1
f 164/3/2 159/4/2 12/4/2 11/3/2
f 8/4/2 7/3/2 5/2/2 6/5/2
f 6/6/3 2/7/3 4/8/3 8/9/3
f 2/7/4 1/1/4 3/10/4 4/8/4
f 6/5/1 5/2/1 1/1/1 2/7/1
f 92/2/2 89/3/2 28/3/2 27/2/2
f 159/9/3 160/8/3 10/8/3 12/9/3
f 12/9/3 10/8/3 20/8/3 22/9/3
f 160/8/4 165/10/4 9/10/4 10/8/4
f 197/10/4 88/10/4 26/10/4 184/10/4
f 90/11/5 87/10/5 31/10/5 32/11/5
f 180/10/4 3/10/4 14/10/4 182/10/4
f 164/3/2 11/3/2 18/3/2 166/3/2
f 5/2/2 7/3/2 16/3/2 15/2/2
f 3/10/4 1/1/4 13/1/4 14/10/4
f 20/8/5 19/10/5 21/11/5 22/12/5
f 21/11/5 19/10/5 23/10/5 24/11/5
f 10/8/4 9/10/4 19/10/4 20/8/4
f 311/13/6 299/13/6 52/13/6 188/13/6
f 305/11/5 298/11/5 50/11/5 95/11/5
f 9/10/4 17/10/4 23/10/4 19/10/4
f 31/10/4 29/10/4 37/10/4 39/10/4
f 315/3/1 314/3/1 41/3/1 43/3/1
f 184/10/4 26/10/4 34/10/4 186/10/4
f 314/3/1 295/4/1 42/4/1 41/3/1
f 177/3/2 93/3/2 30/3/2 168/3/2
f 94/1/1 92/2/1 27/2/1 25/1/1
f 88/10/4 94/1/4 25/1/4 26/10/4
f 87/10/4 91/10/4 29/10/4 31/10/4
f 373/13/3 371/13/3 427/13/3 511/13/3
f 449/13/1 426/13/1 348/13/1 360/13/1
f 32/11/5 31/10/5 39/10/5 40/11/5
f 309/3/3 296/3/3 49/3/3 172/3/3
f 25/1/1 27/2/1 35/2/1 33/1/1
f 26/10/4 25/1/4 33/1/4 34/10/4
f 313/2/1 297/2/1 47/2/1 51/2/1
f 448/13/1 425/13/1 356/13/1 357/13/1
f 44/11/5 46/11/5 60/11/5 58/11/5
f 98/3/2 63/3/2 73/3/2 111/3/2
f 45/12/5 44/11/5 58/11/5 59/12/5
f 50/11/5 54/11/5 68/11/5 64/11/5
f 302/3/1 315/3/1 43/3/1 83/3/1
f 298/11/5 300/11/5 54/11/5 50/11/5
f 318/11/5 316/11/5 46/11/5 44/11/5
f 447/13/4 439/14/4 346/14/4 347/13/4
f 297/2/3 312/3/3 48/3/3 47/2/3
f 295/9/3 301/9/3 45/9/3 42/9/3
f 299/13/6 313/14/6 51/14/6 52/13/6
f 301/12/5 318/11/5 44/11/5 45/12/5
f 57/3/2 55/3/2 58/3/2 60/3/2
f 55/3/2 56/4/2 59/4/2 58/3/2
f 61/2/2 62/3/2 66/3/2 65/2/2
f 98/3/2 97/3/2 64/3/2 63/3/2
f 174/3/2 63/3/2 67/3/2 175/3/2
f 63/3/2 64/3/2 68/3/2 67/3/2
f 42/9/3 45/9/3 59/9/3 56/9/3
f 371/13/3 372/13/3 510/13/3 427/13/3
f 42/9/3 56/9/3 71/9/3 69/9/3
f 47/2/3 48/3/3 62/3/3 61/2/3
f 95/11/5 50/11/5 64/11/5 97/11/5
f 51/2/1 47/2/1 61/2/1 65/2/1
f 172/3/3 49/3/3 63/3/3 174/3/3
f 69/9/3 71/9/3 112/9/3 86/9/3
f 111/3/2 73/3/2 99/3/2 103/3/2
f 46/11/5 82/11/5 84/11/5 60/11/5
f 57/3/2 60/3/2 84/3/2 85/3/2
f 304/3/1 302/3/1 83/3/1 96/3/1
f 23/10/4 17/10/4 77/10/4 75/10/4
f 14/10/4 13/1/4 81/1/4 76/10/4
f 13/1/1 15/2/1 79/2/1 81/1/1
f 166/3/2 18/3/2 80/3/2 176/3/2
f 316/11/5 303/11/5 82/11/5 46/11/5
f 24/11/5 23/10/5 75/10/5 74/11/5
f 182/10/4 14/10/4 76/10/4 196/10/4
f 15/2/2 16/3/2 78/3/2 79/2/2
f 296/3/1 304/3/1 96/3/1 49/3/1
f 82/11/5 95/11/5 97/11/5 84/11/5
f 85/3/2 84/3/2 97/3/2 98/3/2
f 75/10/4 77/10/4 91/10/4 87/10/4
f 76/10/4 81/1/4 94/1/4 88/10/4
f 81/1/1 79/2/1 92/2/1 94/1/1
f 176/3/2 80/3/2 93/3/2 177/3/2
f 303/11/5 305/11/5 95/11/5 82/11/5
f 74/11/5 75/10/5 87/10/5 90/11/5
f 196/10/4 76/10/4 88/10/4 197/10/4
f 79/2/2 78/3/2 89/3/2 92/2/2
f 102/3/1 100/3/1 101/3/1 103/3/1
f 104/3/4 105/3/4 106/3/4 107/3/4
f 108/3/2 109/3/2 110/3/2 111/3/2
f 104/3/7 109/3/7 108/3/7 105/3/7
f 83/3/4 43/3/4 70/3/4 104/3/4 107/3/4
f 105/3/3 108/3/3 101/3/3 100/3/3
f 106/3/4 105/3/4 100/3/4 102/3/4
f 104/3/1 70/3/1 72/3/1 109/3/1
f 96/3/4 83/3/4 107/3/4 106/3/4
f 57/3/2 85/3/2 110/3/2 109/3/2 72/3/2
f 108/3/2 111/3/2 103/3/2 101/3/2
f 85/3/2 98/3/2 111/3/2 110/3/2
f 113/3/6 115/3/6 116/3/6 114/3/6
f 120/15/8 116/3/8 115/3/8 119/3/8
f 118/15/9 120/15/9 119/3/9 117/3/9
f 114/3/10 118/15/10 117/3/10 113/3/10
f 114/3/4 69/4/4 86/4/4 118/15/4
f 43/3/4 41/3/4 114/3/4 70/3/4
f 70/3/1 114/3/1 116/3/1 72/3/1
f 41/3/4 42/4/4 69/4/4 114/3/4
f 115/3/6 113/3/6 117/3/6 119/3/6
f 56/4/2 55/3/2 116/3/2 71/4/2
f 55/3/2 57/3/2 72/3/2 116/3/2
f 71/4/2 116/3/2 120/15/2 112/4/2
f 118/15/1 86/4/1 112/4/1 120/15/1
f 214/11/5 216/11/5 138/11/5 136/11/5
f 207/3/1 215/3/1 137/3/1 123/3/1
f 203/11/5 214/11/5 136/11/5 129/11/5
f 215/3/1 213/3/1 135/3/1 137/3/1
f 212/12/5 205/11/5 133/11/5 134/12/5
f 210/13/6 200/14/6 124/14/6 130/13/6
f 206/9/3 212/9/3 134/9/3 121/9/3
f 208/2/3 199/3/3 122/3/3 125/2/3
f 205/11/5 203/11/5 129/11/5 133/11/5
f 209/11/5 211/11/5 132/11/5 128/11/5
f 213/3/1 202/3/1 127/3/1 135/3/1
f 200/2/1 208/2/1 125/2/1 124/2/1
f 220/3/3 207/3/3 123/3/3 178/3/3
f 201/3/1 206/4/1 121/4/1 126/3/1
f 202/3/1 201/3/1 126/3/1 127/3/1
f 216/11/5 209/11/5 128/11/5 138/11/5
f 222/13/6 210/13/6 130/13/6 198/13/6
f 219/13/6 217/13/6 158/13/6 163/13/6
f 221/3/3 218/3/3 157/3/3 193/3/3
f 161/10/4 154/10/4 156/10/4 162/16/4
f 191/3/2 153/3/2 155/3/2 192/3/2
f 167/10/4 144/10/4 154/10/4 161/10/4
f 181/3/2 143/3/2 153/3/2 191/3/2
f 187/3/3 149/3/3 151/3/3 189/3/3
f 189/3/2 151/3/2 152/3/2 190/3/2
f 310/3/3 306/3/3 149/3/3 187/3/3
f 434/13/4 442/13/4 351/13/4 353/13/4
f 192/3/2 155/3/2 145/3/2 183/3/2
f 169/10/4 146/10/4 148/10/4 171/10/4
f 308/13/6 307/13/6 150/13/6 173/13/6
f 179/3/2 140/3/2 143/3/2 181/3/2
f 165/10/4 142/10/4 144/10/4 167/10/4
f 162/16/4 156/10/4 146/10/4 169/10/4
f 195/8/4 180/10/4 142/10/4 141/8/4
f 194/9/3 195/8/3 141/8/3 139/9/3
f 179/3/2 194/4/2 139/4/2 140/3/2
f 91/10/4 162/16/4 169/10/4 29/10/4
f 9/10/4 165/10/4 167/10/4 17/10/4
f 317/13/6 308/13/6 173/13/6 53/13/6
f 29/10/4 169/10/4 171/10/4 37/10/4
f 422/13/2 435/13/2 345/13/2 352/13/2
f 17/10/4 167/10/4 161/10/4 77/10/4
f 77/10/4 161/10/4 162/16/4 91/10/4
f 204/13/6 219/13/6 163/13/6 131/13/6
f 218/3/3 220/3/3 178/3/3 157/3/3
f 153/3/2 176/3/2 177/3/2 155/3/2
f 143/3/2 166/3/2 176/3/2 153/3/2
f 149/3/3 172/3/3 174/3/3 151/3/3
f 151/3/2 174/3/2 175/3/2 152/3/2
f 306/3/3 309/3/3 172/3/3 149/3/3
f 435/13/1 414/13/1 361/13/1 345/13/1
f 155/3/2 177/3/2 168/3/2 145/3/2
f 140/3/2 164/3/2 166/3/2 143/3/2
f 141/8/4 142/10/4 165/10/4 160/8/4
f 139/9/3 141/8/3 160/8/3 159/9/3
f 140/3/2 139/4/2 159/4/2 164/3/2
f 7/3/2 8/4/2 194/4/2 179/3/2
f 8/9/3 4/8/3 195/8/3 194/9/3
f 4/8/4 3/10/4 180/10/4 195/8/4
f 7/3/2 179/3/2 181/3/2 16/3/2
f 89/3/2 192/3/2 183/3/2 28/3/2
f 312/3/3 310/3/3 187/3/3 48/3/3
f 62/3/2 189/3/2 190/3/2 66/3/2
f 48/3/3 187/3/3 189/3/3 62/3/3
f 16/3/2 181/3/2 191/3/2 78/3/2
f 78/3/2 191/3/2 192/3/2 89/3/2
f 199/3/3 221/3/3 193/3/3 122/3/3
f 217/13/6 222/13/6 198/13/6 158/13/6
f 154/10/4 196/10/4 197/10/4 156/10/4
f 144/10/4 182/10/4 196/10/4 154/10/4
f 146/10/4 184/10/4 186/10/4 148/10/4
f 307/13/6 311/13/6 188/13/6 150/13/6
f 142/10/4 180/10/4 182/10/4 144/10/4
f 156/10/4 197/10/4 184/10/4 146/10/4
f 241/13/6 246/13/6 222/13/6 217/13/6
f 223/3/3 245/3/3 221/3/3 199/3/3
f 242/3/3 244/3/3 220/3/3 218/3/3
f 228/13/6 243/13/6 219/13/6 204/13/6
f 245/3/3 242/3/3 218/3/3 221/3/3
f 243/13/6 241/13/6 217/13/6 219/13/6
f 246/13/6 234/13/6 210/13/6 222/13/6
f 240/11/5 233/11/5 209/11/5 216/11/5
f 226/3/1 225/3/1 201/3/1 202/3/1
f 225/3/1 230/4/1 206/4/1 201/3/1
f 244/3/3 231/3/3 207/3/3 220/3/3
f 224/2/1 232/2/1 208/2/1 200/2/1
f 237/3/1 226/3/1 202/3/1 213/3/1
f 233/11/5 235/11/5 211/11/5 209/11/5
f 229/11/5 227/11/5 203/11/5 205/11/5
f 232/2/3 223/3/3 199/3/3 208/2/3
f 230/9/3 236/9/3 212/9/3 206/9/3
f 234/13/6 224/14/6 200/14/6 210/13/6
f 236/12/5 229/11/5 205/11/5 212/12/5
f 239/3/1 237/3/1 213/3/1 215/3/1
f 227/11/5 238/11/5 214/11/5 203/11/5
f 231/3/1 239/3/1 215/3/1 207/3/1
f 238/11/5 240/11/5 216/11/5 214/11/5
f 334/11/5 336/11/5 240/11/5 238/11/5
f 327/3/1 335/3/1 239/3/1 231/3/1
f 323/11/5 334/11/5 238/11/5 227/11/5
f 335/3/1 333/3/1 237/3/1 239/3/1
f 332/12/5 325/11/5 229/11/5 236/12/5
f 330/13/6 320/14/6 224/14/6 234/13/6
f 326/9/3 332/9/3 236/9/3 230/9/3
f 328/2/3 319/3/3 223/3/3 232/2/3
f 325/11/5 323/11/5 227/11/5 229/11/5
f 329/11/5 331/11/5 235/11/5 233/11/5
f 333/3/1 322/3/1 226/3/1 237/3/1
f 320/2/1 328/2/1 232/2/1 224/2/1
f 340/3/3 327/3/3 231/3/3 244/3/3
f 321/3/1 326/4/1 230/4/1 225/3/1
f 322/3/1 321/3/1 225/3/1 226/3/1
f 336/11/5 329/11/5 233/11/5 240/11/5
f 342/13/6 330/13/6 234/13/6 246/13/6
f 339/13/6 337/13/6 241/13/6 243/13/6
f 341/3/3 338/3/3 242/3/3 245/3/3
f 324/13/6 339/13/6 243/13/6 228/13/6
f 338/3/3 340/3/3 244/3/3 242/3/3
f 319/3/3 341/3/3 245/3/3 223/3/3
f 337/13/6 342/13/6 246/13/6 241/13/6
f 158/13/6 198/13/6 270/13/6 266/13/6
f 122/3/3 193/3/3 269/3/3 258/3/3
f 157/3/3 178/3/3 268/3/3 265/3/3
f 131/13/6 163/13/6 267/13/6 263/13/6
f 163/13/6 158/13/6 266/13/6 267/13/6
f 193/3/3 157/3/3 265/3/3 269/3/3
f 136/11/5 138/11/5 257/11/5 255/11/5
f 123/3/1 137/3/1 256/3/1 248/3/1
f 129/11/5 136/11/5 255/11/5 262/11/5
f 137/3/1 135/3/1 254/3/1 256/3/1
f 134/12/5 133/11/5 264/11/5 253/12/5
f 130/13/6 124/14/6 259/14/6 251/13/6
f 121/9/3 134/9/3 253/9/3 247/9/3
f 125/2/3 122/3/3 258/3/3 249/2/3
f 133/11/5 129/11/5 262/11/5 264/11/5
f 128/11/5 132/11/5 252/11/5 250/11/5
f 135/3/1 127/3/1 261/3/1 254/3/1
f 124/2/1 125/2/1 249/2/1 259/2/1
f 178/3/3 123/3/3 248/3/3 268/3/3
f 126/3/1 121/4/1 247/4/1 260/3/1
f 127/3/1 126/3/1 260/3/1 261/3/1
f 138/11/5 128/11/5 250/11/5 257/11/5
f 198/13/6 130/13/6 251/13/6 270/13/6
f 266/13/6 270/13/6 287/13/6 283/13/6
f 258/3/3 269/3/3 286/3/3 288/3/3
f 265/3/3 268/3/3 285/3/3 282/3/3
f 263/13/6 267/13/6 284/13/6 293/13/6
f 267/13/6 266/13/6 283/13/6 284/13/6
f 269/3/3 265/3/3 282/3/3 286/3/3
f 255/11/5 257/11/5 281/11/5 279/11/5
f 248/3/1 256/3/1 280/3/1 272/3/1
f 262/11/5 255/11/5 279/11/5 292/11/5
f 256/3/1 254/3/1 278/3/1 280/3/1
f 253/12/5 264/11/5 294/11/5 277/12/5
f 251/13/6 259/14/6 289/14/6 275/13/6
f 247/9/3 253/9/3 277/9/3 271/9/3
f 249/2/3 258/3/3 288/3/3 273/2/3
f 264/11/5 262/11/5 292/11/5 294/11/5
f 250/11/5 252/11/5 276/11/5 274/11/5
f 254/3/1 261/3/1 291/3/1 278/3/1
f 259/2/1 249/2/1 273/2/1 289/2/1
f 268/3/3 248/3/3 272/3/3 285/3/3
f 260/3/1 247/4/1 271/4/1 290/3/1
f 261/3/1 260/3/1 290/3/1 291/3/1
f 257/11/5 250/11/5 274/11/5 281/11/5
f 270/13/6 251/13/6 275/13/6 287/13/6
f 283/13/6 287/13/6 311/13/6 307/13/6
f 288/3/3 286/3/3 310/3/3 312/3/3
f 282/3/3 285/3/3 309/3/3 306/3/3
f 293/13/6 284/13/6 308/13/6 317/13/6
f 284/13/6 283/13/6 307/13/6 308/13/6
f 286/3/3 282/3/3 306/3/3 310/3/3
f 279/11/5 281/11/5 305/11/5 303/11/5
f 272/3/1 280/3/1 304/3/1 296/3/1
f 292/11/5 279/11/5 303/11/5 316/11/5
f 280/3/1 278/3/1 302/3/1 304/3/1
f 277/12/5 294/11/5 318/11/5 301/12/5
f 275/13/6 289/14/6 313/14/6 299/13/6
f 271/9/3 277/9/3 301/9/3 295/9/3
f 273/2/3 288/3/3 312/3/3 297/2/3
f 442/13/4 421/13/4 355/13/4 351/13/4
f 294/11/5 292/11/5 316/11/5 318/11/5
f 274/11/5 276/11/5 300/11/5 298/11/5
f 278/3/1 291/3/1 315/3/1 302/3/1
f 289/2/1 273/2/1 297/2/1 313/2/1
f 285/3/3 272/3/3 296/3/3 309/3/3
f 290/3/1 271/4/1 295/4/1 314/3/1
f 291/3/1 290/3/1 314/3/1 315/3/1
f 281/11/5 274/11/5 298/11/5 305/11/5
f 287/13/6 275/13/6 299/13/6 311/13/6
f 147/13/6 185/13/6 342/13/6 337/13/6
f 28/3/3 183/3/3 341/3/3 319/3/3
f 145/3/3 168/3/3 340/3/3 338/3/3
f 38/13/6 170/13/6 339/13/6 324/13/6
f 183/3/3 145/3/3 338/3/3 341/3/3
f 170/13/6 147/13/6 337/13/6 339/13/6
f 185/13/6 36/13/6 330/13/6 342/13/6
f 90/11/5 32/11/5 329/11/5 336/11/5
f 18/3/1 11/3/1 321/3/1 322/3/1
f 11/3/1 12/4/1 326/4/1 321/3/1
f 168/3/3 30/3/3 327/3/3 340/3/3
f 35/2/1 27/2/1 328/2/1 320/2/1
f 80/3/1 18/3/1 322/3/1 333/3/1
f 32/11/5 40/11/5 331/11/5 329/11/5
f 21/11/5 24/11/5 323/11/5 325/11/5
f 443/13/2 422/13/2 352/13/2 350/13/2
f 27/2/3 28/3/3 319/3/3 328/2/3
f 12/9/3 22/9/3 332/9/3 326/9/3
f 36/13/6 35/14/6 320/14/6 330/13/6
f 22/12/5 21/11/5 325/11/5 332/12/5
f 93/3/1 80/3/1 333/3/1 335/3/1
f 24/11/5 74/11/5 334/11/5 323/11/5
f 30/3/1 93/3/1 335/3/1 327/3/1
f 74/11/5 90/11/5 336/11/5 334/11/5
f 352/13/3 345/13/3 370/13/3 372/13/3
f 421/13/4 447/13/4 347/13/4 355/13/4
f 426/13/4 434/13/4 353/13/4 348/13/4
f 451/13/1 430/13/1 358/13/1 349/13/1
f 414/13/1 448/13/1 357/13/1 361/13/1
f 430/13/1 432/13/1 359/13/1 358/13/1
f 425/13/1 451/13/1 349/13/1 356/13/1
f 432/13/1 449/13/1 360/13/1 359/13/1
f 498/13/2 443/13/2 350/13/2 354/13/2
f 354/13/3 350/13/3 371/13/3 373/13/3
f 351/13/3 355/13/3 367/13/3 365/13/3
f 348/13/3 353/13/3 366/13/3 364/13/3
f 347/13/3 346/14/3 362/14/3 363/13/3
f 355/13/3 347/13/3 363/13/3 367/13/3
f 353/13/3 351/13/3 365/13/3 366/13/3
f 369/13/3 373/13/3 511/13/3 467/13/3
f 368/14/3 369/13/3 467/13/3 488/14/3
f 350/13/3 352/13/3 372/13/3 371/13/3
f 344/13/3 354/13/3 373/13/3 369/13/3
f 343/14/3 344/13/3 369/13/3 368/14/3
f 480/10/4 505/10/4 411/10/4 386/10/4
f 492/11/5 474/11/5 409/11/5 407/11/5
f 495/10/4 466/10/4 395/10/4 413/17/4
f 484/11/5 458/11/5 379/11/5 393/11/5
f 493/13/2 464/13/2 391/13/2 410/13/2
f 494/13/1 470/13/1 401/13/1 412/13/1
f 477/11/5 495/10/5 413/17/5 380/11/5
f 486/13/1 472/13/1 406/13/1 398/13/1
f 491/13/1 494/13/1 412/13/1 405/13/1
f 372/13/3 370/13/3 446/13/3 510/13/3
f 475/13/1 469/13/1 399/13/1 376/13/1
f 489/3/2 473/3/2 408/3/2 403/3/2
f 474/11/5 465/11/5 394/11/5 409/11/5
f 473/3/2 459/3/2 381/3/2 408/3/2
f 481/11/5 492/11/5 407/11/5 388/11/5
f 490/3/2 457/3/2 377/3/2 404/3/2
f 472/13/1 491/13/1 405/13/1 406/13/1
f 487/13/4 455/13/4 374/13/4 400/13/4
f 479/2/2 490/3/2 404/3/2 384/2/2
f 482/13/4 468/13/4 397/13/4 390/13/4
f 464/13/2 483/13/2 392/13/2 391/13/2
f 463/13/4 482/13/4 390/13/4 389/13/4
f 462/11/5 481/11/5 388/11/5 387/11/5
f 461/10/4 480/10/4 386/10/4 385/10/4
f 460/2/1 479/2/1 384/2/1 383/2/1
f 459/11/5 478/11/5 382/11/5 381/11/5
f 458/11/5 477/11/5 380/11/5 379/11/5
f 457/3/2 476/3/2 378/3/2 377/3/2
f 456/13/1 475/13/1 376/13/1 375/13/1
f 483/13/2 456/13/2 375/13/2 392/13/2
f 455/13/4 463/13/4 389/13/4 374/13/4
f 465/11/5 484/11/5 393/11/5 394/11/5
f 478/11/5 462/11/5 387/11/5 382/11/5
f 466/10/4 461/10/4 385/10/4 395/10/4
f 468/13/4 460/14/4 383/14/4 397/13/4
f 469/13/1 486/13/1 398/13/1 399/13/1
f 470/13/1 487/13/1 400/13/1 401/13/1
f 476/3/2 489/3/2 403/3/2 378/3/2
f 386/10/4 411/10/4 454/10/4 419/10/4
f 407/11/5 409/11/5 453/11/5 431/11/5
f 413/17/4 395/10/4 445/10/4 433/10/4
f 393/11/5 379/11/5 437/11/5 423/11/5
f 410/13/2 391/13/2 443/13/2 498/13/2
f 412/13/1 401/13/1 449/13/1 432/13/1
f 380/11/5 413/17/5 433/10/5 416/11/5
f 398/13/1 406/13/1 451/13/1 425/13/1
f 405/13/1 412/13/1 432/13/1 430/13/1
f 376/13/1 399/13/1 448/13/1 414/13/1
f 403/3/2 408/3/2 452/3/2 428/3/2
f 409/11/5 394/11/5 444/11/5 453/11/5
f 408/3/2 381/3/2 438/3/2 452/3/2
f 388/11/5 407/11/5 431/11/5 420/11/5
f 404/3/2 377/3/2 436/3/2 429/3/2
f 406/13/1 405/13/1 430/13/1 451/13/1
f 400/13/4 374/13/4 434/13/4 426/13/4
f 384/2/2 404/3/2 429/3/2 418/2/2
f 390/13/4 397/13/4 447/13/4 421/13/4
f 391/13/2 392/13/2 422/13/2 443/13/2
f 389/13/4 390/13/4 421/13/4 442/13/4
f 387/11/5 388/11/5 420/11/5 441/11/5
f 385/10/4 386/10/4 419/10/4 440/10/4
f 383/2/1 384/2/1 418/2/1 439/2/1
f 381/11/5 382/11/5 417/11/5 438/11/5
f 379/11/5 380/11/5 416/11/5 437/11/5
f 377/3/2 378/3/2 415/3/2 436/3/2
f 375/13/1 376/13/1 414/13/1 435/13/1
f 392/13/2 375/13/2 435/13/2 422/13/2
f 374/13/4 389/13/4 442/13/4 434/13/4
f 394/11/5 393/11/5 423/11/5 444/11/5
f 382/11/5 387/11/5 441/11/5 417/11/5
f 395/10/4 385/10/4 440/10/4 445/10/4
f 397/13/4 383/14/4 439/14/4 447/13/4
f 399/13/1 398/13/1 425/13/1 448/13/1
f 401/13/1 400/13/1 426/13/1 449/13/1
f 378/3/2 403/3/2 428/3/2 415/3/2
f 152/3/2 175/3/2 489/3/2 476/3/2
f 317/13/1 53/13/1 487/13/1 470/13/1
f 228/13/1 204/13/1 486/13/1 469/13/1
f 52/13/4 51/14/4 460/14/4 468/13/4
f 37/10/4 171/10/4 461/10/4 466/10/4
f 54/11/5 300/11/5 462/11/5 478/11/5
f 211/11/5 235/11/5 484/11/5 465/11/5
f 173/13/4 150/13/4 463/13/4 455/13/4
f 170/13/2 38/13/2 456/13/2 483/13/2
f 38/13/1 324/13/1 475/13/1 456/13/1
f 190/3/2 152/3/2 476/3/2 457/3/2
f 331/11/5 40/11/5 477/11/5 458/11/5
f 68/11/5 54/11/5 478/11/5 459/11/5
f 51/2/1 65/2/1 479/2/1 460/2/1
f 171/10/4 148/10/4 480/10/4 461/10/4
f 300/11/5 276/11/5 481/11/5 462/11/5
f 150/13/4 188/13/4 482/13/4 463/13/4
f 147/13/2 170/13/2 483/13/2 464/13/2
f 188/13/4 52/13/4 468/13/4 482/13/4
f 65/2/2 66/3/2 490/3/2 479/2/2
f 53/13/4 173/13/4 455/13/4 487/13/4
f 33/1/1 35/2/1 471/2/1 485/1/1
f 131/13/1 263/13/1 491/13/1 472/13/1
f 66/3/2 190/3/2 457/3/2 490/3/2
f 276/11/5 252/11/5 492/11/5 481/11/5
f 67/3/2 68/3/2 459/3/2 473/3/2
f 132/11/5 211/11/5 465/11/5 474/11/5
f 175/3/2 67/3/2 473/3/2 489/3/2
f 324/13/1 228/13/1 469/13/1 475/13/1
f 263/13/1 293/13/1 494/13/1 491/13/1
f 204/13/1 131/13/1 472/13/1 486/13/1
f 40/11/5 39/10/5 495/10/5 477/11/5
f 293/13/1 317/13/1 470/13/1 494/13/1
f 185/13/2 147/13/2 464/13/2 493/13/2
f 235/11/5 331/11/5 458/11/5 484/11/5
f 39/10/4 37/10/4 466/10/4 495/10/4
f 252/11/5 132/11/5 474/11/5 492/11/5
f 148/10/4 186/10/4 505/10/4 480/10/4
f 496/18/2 497/13/2 498/13/2 499/13/2
f 500/10/4 501/19/4 502/10/4 454/10/4
f 503/20/4 504/10/4 505/10/4 506/10/4
f 507/13/2 508/21/2 509/13/2 493/13/2
f 507/13/9 504/10/9 503/20/9 508/21/9
f 500/10/7 497/13/7 496/18/7 501/19/7
f 499/13/2 498/13/2 354/13/2 344/13/2
f 450/14/3 424/1/3 501/19/3 496/18/3
f 500/10/1 396/10/1 504/10/1 507/13/1 402/13/1 497/13/1
f 450/14/2 496/18/2 499/13/2 344/13/2 343/14/2
f 402/13/2 410/13/2 498/13/2 497/13/2
f 411/10/4 396/10/4 500/10/4 454/10/4
f 186/10/4 34/10/4 506/10/4 505/10/4
f 34/10/4 33/1/4 485/1/4 503/20/4 506/10/4
f 505/10/4 504/10/4 396/10/4 411/10/4
f 508/21/6 503/20/6 485/1/6 471/2/6
f 36/13/2 185/13/2 493/13/2 509/13/2
f 35/14/2 36/13/2 509/13/2 508/21/2 471/14/2
f 507/13/2 493/13/2 410/13/2 402/13/2
f 3/1/5 14/1/5 16/2/5 7/2/5
f 635/3/2 514/3/2 515/4/2 630/4/2
f 8/5/5 4/7/5 3/1/5 7/2/5
f 630/9/3 515/9/3 513/8/3 631/8/3
f 515/9/3 521/9/3 519/8/3 513/8/3
f 631/8/4 513/8/4 512/10/4 636/10/4
f 668/10/4 655/10/4 25/10/4 94/10/4
f 567/11/1 527/11/1 526/10/1 566/10/1
f 651/10/4 653/10/4 13/10/4 1/10/4
f 635/3/2 637/3/2 517/3/2 514/3/2
f 519/8/1 521/12/1 520/11/1 518/10/1
f 520/11/1 523/11/1 522/10/1 518/10/1
f 513/8/4 519/8/4 518/10/4 512/10/4
f 764/13/6 659/13/6 51/13/6 313/13/6
f 758/11/1 570/11/1 539/11/1 752/11/1
f 512/10/4 518/10/4 522/10/4 516/10/4
f 526/10/4 530/10/4 528/10/4 524/10/4
f 766/3/5 534/3/5 532/3/5 765/3/5
f 655/10/4 657/10/4 33/10/4 25/10/4
f 765/3/5 532/3/5 533/4/5 750/4/5
f 648/3/2 639/3/2 525/3/2 569/3/2
f 88/1/5 26/1/5 28/2/5 89/2/5
f 566/10/4 526/10/4 524/10/4 568/10/4
f 812/13/3 936/13/3 861/13/3 810/13/3
f 880/13/5 803/13/5 791/13/5 860/13/5
f 527/11/1 531/11/1 530/10/1 526/10/1
f 762/3/3 643/3/3 538/3/3 751/3/3
f 26/1/5 34/1/5 36/2/5 28/2/5
f 299/2/5 52/2/5 48/2/5 312/2/5
f 879/13/5 800/13/5 799/13/5 859/13/5
f 535/11/1 545/11/1 547/11/1 537/11/1
f 573/3/2 574/3/2 556/3/2 548/3/2
f 536/12/1 546/12/1 545/11/1 535/11/1
f 539/11/1 549/11/1 551/11/1 541/11/1
f 755/3/5 562/3/5 534/3/5 766/3/5
f 752/11/1 539/11/1 541/11/1 753/11/1
f 769/11/1 535/11/1 537/11/1 767/11/1
f 750/9/3 533/9/3 536/9/3 754/9/3
f 754/12/1 536/12/1 535/11/1 769/11/1
f 544/3/2 547/3/2 545/3/2 542/3/2
f 542/3/2 545/3/2 546/4/2 543/4/2
f 573/3/2 548/3/2 549/3/2 572/3/2
f 645/3/2 646/3/2 550/3/2 548/3/2
f 548/3/2 550/3/2 551/3/2 549/3/2
f 533/9/3 543/9/3 546/9/3 536/9/3
f 810/13/3 861/13/3 935/13/3 811/13/3
f 533/9/3 552/9/3 554/9/3 543/9/3
f 570/11/1 572/11/1 549/11/1 539/11/1
f 52/2/5 66/2/5 62/2/5 48/2/5
f 643/3/3 645/3/3 548/3/3 538/3/3
f 552/9/3 565/9/3 587/9/3 554/9/3
f 574/3/2 579/3/2 575/3/2 556/3/2
f 537/11/1 547/11/1 563/11/1 561/11/1
f 544/3/2 564/3/2 563/3/2 547/3/2
f 757/3/5 571/3/5 562/3/5 755/3/5
f 522/10/4 558/10/4 559/10/4 516/10/4
f 14/1/5 76/1/5 78/2/5 16/2/5
f 637/3/2 647/3/2 560/3/2 517/3/2
f 767/11/1 537/11/1 561/11/1 756/11/1
f 523/11/1 557/11/1 558/10/1 522/10/1
f 653/10/4 667/10/4 81/10/4 13/10/4
f 751/3/5 538/3/5 571/3/5 757/3/5
f 561/11/1 563/11/1 572/11/1 570/11/1
f 564/3/2 573/3/2 572/3/2 563/3/2
f 558/10/4 566/10/4 568/10/4 559/10/4
f 76/1/5 88/1/5 89/2/5 78/2/5
f 647/3/2 648/3/2 569/3/2 560/3/2
f 756/11/1 561/11/1 570/11/1 758/11/1
f 557/11/1 567/11/1 566/10/1 558/10/1
f 667/10/4 668/10/4 94/10/4 81/10/4
f 578/3/5 579/3/5 577/3/5 576/3/5
f 580/3/4 583/3/4 582/3/4 581/3/4
f 584/3/2 574/3/2 586/3/2 585/3/2
f 580/3/11 581/3/11 584/3/11 585/3/11
f 562/3/4 583/3/4 580/3/4 553/3/4 534/3/4
f 581/3/3 576/3/3 577/3/3 584/3/3
f 582/3/4 578/3/4 576/3/4 581/3/4
f 580/3/5 585/3/5 555/3/5 553/3/5
f 571/3/4 582/3/4 583/3/4 562/3/4
f 544/3/2 555/3/2 585/3/2 586/3/2 564/3/2
f 584/3/2 577/3/2 579/3/2 574/3/2
f 564/3/2 586/3/2 574/3/2 573/3/2
f 588/3/6 589/3/6 591/3/6 590/3/6
f 595/15/12 594/3/12 590/3/12 591/3/12
f 593/15/13 592/3/13 594/3/13 595/15/13
f 589/3/14 588/3/14 592/3/14 593/15/14
f 589/3/4 593/15/4 565/4/4 552/4/4
f 534/3/4 553/3/4 589/3/4 532/3/4
f 553/3/5 555/3/5 591/3/5 589/3/5
f 532/3/4 589/3/4 552/4/4 533/4/4
f 590/3/6 594/3/6 592/3/6 588/3/6
f 543/4/2 554/4/2 591/3/2 542/3/2
f 542/3/2 591/3/2 555/3/2 544/3/2
f 554/4/2 587/4/2 595/15/2 591/3/2
f 593/15/5 595/15/5 587/4/5 565/4/5
f 681/11/1 607/11/1 609/11/1 683/11/1
f 676/3/5 597/3/5 608/3/5 682/3/5
f 672/11/1 601/11/1 607/11/1 681/11/1
f 682/3/5 608/3/5 606/3/5 680/3/5
f 679/12/1 605/12/1 604/11/1 674/11/1
f 675/9/3 596/9/3 605/9/3 679/9/3
f 674/11/1 604/11/1 601/11/1 672/11/1
f 677/11/1 600/11/1 603/11/1 678/11/1
f 680/3/5 606/3/5 599/3/5 671/3/5
f 210/2/5 130/2/5 122/2/5 199/2/5
f 687/3/3 649/3/3 597/3/3 676/3/3
f 670/3/5 598/3/5 596/4/5 675/4/5
f 671/3/5 599/3/5 598/3/5 670/3/5
f 683/11/1 609/11/1 600/11/1 677/11/1
f 689/13/6 669/13/6 124/13/6 200/13/6
f 686/13/6 634/13/6 629/13/6 684/13/6
f 688/3/3 664/3/3 628/3/3 685/3/3
f 632/10/4 633/16/4 627/10/4 625/10/4
f 662/3/2 663/3/2 626/3/2 624/3/2
f 638/10/4 632/10/4 625/10/4 615/10/4
f 652/3/2 662/3/2 624/3/2 614/3/2
f 658/3/3 660/3/3 622/3/3 620/3/3
f 660/3/2 661/3/2 623/3/2 622/3/2
f 763/3/3 658/3/3 620/3/3 759/3/3
f 867/13/4 796/13/4 794/13/4 874/13/4
f 663/3/2 654/3/2 616/3/2 626/3/2
f 640/10/4 642/10/4 619/10/4 617/10/4
f 761/13/6 644/13/6 621/13/6 760/13/6
f 650/3/2 652/3/2 614/3/2 611/3/2
f 636/10/4 638/10/4 615/10/4 613/10/4
f 633/16/4 640/10/4 617/10/4 627/10/4
f 666/8/4 612/8/4 613/10/4 651/10/4
f 665/9/3 610/9/3 612/8/3 666/8/3
f 650/3/2 611/3/2 610/4/2 665/4/2
f 568/10/4 524/10/4 640/10/4 633/16/4
f 512/10/4 516/10/4 638/10/4 636/10/4
f 768/13/6 540/13/6 644/13/6 761/13/6
f 524/10/4 528/10/4 642/10/4 640/10/4
f 856/13/2 795/13/2 790/13/2 868/13/2
f 516/10/4 559/10/4 632/10/4 638/10/4
f 559/10/4 568/10/4 633/16/4 632/10/4
f 673/13/6 602/13/6 634/13/6 686/13/6
f 685/3/3 628/3/3 649/3/3 687/3/3
f 624/3/2 626/3/2 648/3/2 647/3/2
f 614/3/2 624/3/2 647/3/2 637/3/2
f 620/3/3 622/3/3 645/3/3 643/3/3
f 622/3/2 623/3/2 646/3/2 645/3/2
f 759/3/3 620/3/3 643/3/3 762/3/3
f 868/13/5 790/13/5 804/13/5 849/13/5
f 626/3/2 616/3/2 639/3/2 648/3/2
f 611/3/2 614/3/2 637/3/2 635/3/2
f 612/8/4 631/8/4 636/10/4 613/10/4
f 610/9/3 630/9/3 631/8/3 612/8/3
f 611/3/2 635/3/2 630/4/2 610/4/2
f 5/3/2 650/3/2 665/4/2 6/4/2
f 6/9/3 665/9/3 666/8/3 2/8/3
f 2/8/4 666/8/4 651/10/4 1/10/4
f 5/3/2 15/3/2 652/3/2 650/3/2
f 92/3/2 27/3/2 654/3/2 663/3/2
f 297/3/3 47/3/3 658/3/3 763/3/3
f 61/3/2 65/3/2 661/3/2 660/3/2
f 47/3/3 61/3/3 660/3/3 658/3/3
f 15/3/2 79/3/2 662/3/2 652/3/2
f 79/3/2 92/3/2 663/3/2 662/3/2
f 208/3/3 125/3/3 664/3/3 688/3/3
f 684/13/6 629/13/6 669/13/6 689/13/6
f 625/10/4 627/10/4 668/10/4 667/10/4
f 615/10/4 625/10/4 667/10/4 653/10/4
f 617/10/4 619/10/4 657/10/4 655/10/4
f 760/13/6 621/13/6 659/13/6 764/13/6
f 613/10/4 615/10/4 653/10/4 651/10/4
f 627/10/4 617/10/4 655/10/4 668/10/4
f 704/13/6 684/13/6 689/13/6 709/13/6
f 232/3/3 208/3/3 688/3/3 708/3/3
f 705/3/3 685/3/3 687/3/3 707/3/3
f 693/13/6 673/13/6 686/13/6 706/13/6
f 708/3/3 688/3/3 685/3/3 705/3/3
f 706/13/6 686/13/6 684/13/6 704/13/6
f 709/13/6 689/13/6 200/13/6 224/13/6
f 703/11/1 683/11/1 677/11/1 697/11/1
f 691/3/5 671/3/5 670/3/5 690/3/5
f 690/3/5 670/3/5 675/4/5 695/4/5
f 707/3/3 687/3/3 676/3/3 696/3/3
f 234/2/5 210/2/5 199/2/5 223/2/5
f 700/3/5 680/3/5 671/3/5 691/3/5
f 697/11/1 677/11/1 678/11/1 698/11/1
f 694/11/1 674/11/1 672/11/1 692/11/1
f 695/9/3 675/9/3 679/9/3 699/9/3
f 699/12/1 679/12/1 674/11/1 694/11/1
f 702/3/5 682/3/5 680/3/5 700/3/5
f 692/11/1 672/11/1 681/11/1 701/11/1
f 696/3/5 676/3/5 682/3/5 702/3/5
f 701/11/1 681/11/1 683/11/1 703/11/1
f 781/11/1 701/11/1 703/11/1 783/11/1
f 776/3/5 696/3/5 702/3/5 782/3/5
f 772/11/1 692/11/1 701/11/1 781/11/1
f 782/3/5 702/3/5 700/3/5 780/3/5
f 779/12/1 699/12/1 694/11/1 774/11/1
f 775/9/3 695/9/3 699/9/3 779/9/3
f 774/11/1 694/11/1 692/11/1 772/11/1
f 777/11/1 697/11/1 698/11/1 778/11/1
f 780/3/5 700/3/5 691/3/5 771/3/5
f 330/2/5 234/2/5 223/2/5 319/2/5
f 787/3/3 707/3/3 696/3/3 776/3/3
f 770/3/5 690/3/5 695/4/5 775/4/5
f 771/3/5 691/3/5 690/3/5 770/3/5
f 783/11/1 703/11/1 697/11/1 777/11/1
f 789/13/6 709/13/6 224/13/6 320/13/6
f 786/13/6 706/13/6 704/13/6 784/13/6
f 788/3/3 708/3/3 705/3/3 785/3/3
f 773/13/6 693/13/6 706/13/6 786/13/6
f 785/3/3 705/3/3 707/3/3 787/3/3
f 328/3/3 232/3/3 708/3/3 788/3/3
f 784/13/6 704/13/6 709/13/6 789/13/6
f 629/13/6 725/13/6 729/13/6 669/13/6
f 125/3/3 249/3/3 728/3/3 664/3/3
f 628/3/3 724/3/3 727/3/3 649/3/3
f 602/13/6 722/13/6 726/13/6 634/13/6
f 634/13/6 726/13/6 725/13/6 629/13/6
f 664/3/3 728/3/3 724/3/3 628/3/3
f 607/11/1 716/11/1 718/11/1 609/11/1
f 597/3/5 711/3/5 717/3/5 608/3/5
f 601/11/1 721/11/1 716/11/1 607/11/1
f 608/3/5 717/3/5 715/3/5 606/3/5
f 605/12/1 714/12/1 723/11/1 604/11/1
f 596/9/3 710/9/3 714/9/3 605/9/3
f 604/11/1 723/11/1 721/11/1 601/11/1
f 600/11/1 712/11/1 713/11/1 603/11/1
f 606/3/5 715/3/5 720/3/5 599/3/5
f 130/2/5 251/2/5 258/2/5 122/2/5
f 649/3/3 727/3/3 711/3/3 597/3/3
f 598/3/5 719/3/5 710/4/5 596/4/5
f 599/3/5 720/3/5 719/3/5 598/3/5
f 609/11/1 718/11/1 712/11/1 600/11/1
f 669/13/6 729/13/6 259/13/6 124/13/6
f 725/13/6 740/13/6 744/13/6 729/13/6
f 249/3/3 273/3/3 743/3/3 728/3/3
f 724/3/3 739/3/3 742/3/3 727/3/3
f 722/13/6 748/13/6 741/13/6 726/13/6
f 726/13/6 741/13/6 740/13/6 725/13/6
f 728/3/3 743/3/3 739/3/3 724/3/3
f 716/11/1 736/11/1 738/11/1 718/11/1
f 711/3/5 731/3/5 737/3/5 717/3/5
f 721/11/1 747/11/1 736/11/1 716/11/1
f 717/3/5 737/3/5 735/3/5 715/3/5
f 714/12/1 734/12/1 749/11/1 723/11/1
f 710/9/3 730/9/3 734/9/3 714/9/3
f 723/11/1 749/11/1 747/11/1 721/11/1
f 712/11/1 732/11/1 733/11/1 713/11/1
f 715/3/5 735/3/5 746/3/5 720/3/5
f 251/2/5 275/2/5 288/2/5 258/2/5
f 727/3/3 742/3/3 731/3/3 711/3/3
f 719/3/5 745/3/5 730/4/5 710/4/5
f 720/3/5 746/3/5 745/3/5 719/3/5
f 718/11/1 738/11/1 732/11/1 712/11/1
f 729/13/6 744/13/6 289/13/6 259/13/6
f 740/13/6 760/13/6 764/13/6 744/13/6
f 273/3/3 297/3/3 763/3/3 743/3/3
f 739/3/3 759/3/3 762/3/3 742/3/3
f 748/13/6 768/13/6 761/13/6 741/13/6
f 741/13/6 761/13/6 760/13/6 740/13/6
f 743/3/3 763/3/3 759/3/3 739/3/3
f 736/11/1 756/11/1 758/11/1 738/11/1
f 731/3/5 751/3/5 757/3/5 737/3/5
f 747/11/1 767/11/1 756/11/1 736/11/1
f 737/3/5 757/3/5 755/3/5 735/3/5
f 734/12/1 754/12/1 769/11/1 749/11/1
f 730/9/3 750/9/3 754/9/3 734/9/3
f 874/13/4 794/13/4 798/13/4 855/13/4
f 749/11/1 769/11/1 767/11/1 747/11/1
f 732/11/1 752/11/1 753/11/1 733/11/1
f 735/3/5 755/3/5 766/3/5 746/3/5
f 275/2/5 299/2/5 312/2/5 288/2/5
f 742/3/3 762/3/3 751/3/3 731/3/3
f 745/3/5 765/3/5 750/4/5 730/4/5
f 746/3/5 766/3/5 765/3/5 745/3/5
f 738/11/1 758/11/1 752/11/1 732/11/1
f 744/13/6 764/13/6 313/13/6 289/13/6
f 618/13/6 784/13/6 789/13/6 656/13/6
f 27/3/3 328/3/3 788/3/3 654/3/3
f 616/3/3 785/3/3 787/3/3 639/3/3
f 529/13/6 773/13/6 786/13/6 641/13/6
f 654/3/3 788/3/3 785/3/3 616/3/3
f 641/13/6 786/13/6 784/13/6 618/13/6
f 656/13/6 789/13/6 320/13/6 35/13/6
f 567/11/1 783/11/1 777/11/1 527/11/1
f 517/3/5 771/3/5 770/3/5 514/3/5
f 514/3/5 770/3/5 775/4/5 515/4/5
f 639/3/3 787/3/3 776/3/3 525/3/3
f 36/2/5 330/2/5 319/2/5 28/2/5
f 560/3/5 780/3/5 771/3/5 517/3/5
f 527/11/1 777/11/1 778/11/1 531/11/1
f 520/11/1 774/11/1 772/11/1 523/11/1
f 875/13/2 793/13/2 795/13/2 856/13/2
f 515/9/3 775/9/3 779/9/3 521/9/3
f 521/12/1 779/12/1 774/11/1 520/11/1
f 569/3/5 782/3/5 780/3/5 560/3/5
f 523/11/1 772/11/1 781/11/1 557/11/1
f 525/3/5 776/3/5 782/3/5 569/3/5
f 557/11/1 781/11/1 783/11/1 567/11/1
f 795/13/3 811/13/3 809/13/3 790/13/3
f 855/13/4 798/13/4 346/13/4 439/13/4
f 860/13/4 791/13/4 796/13/4 867/13/4
f 882/13/5 792/13/5 801/13/5 863/13/5
f 849/13/5 804/13/5 800/13/5 879/13/5
f 863/13/5 801/13/5 802/13/5 865/13/5
f 859/13/5 799/13/5 792/13/5 882/13/5
f 865/13/5 802/13/5 803/13/5 880/13/5
f 924/13/2 797/13/2 793/13/2 875/13/2
f 797/13/3 812/13/3 810/13/3 793/13/3
f 794/13/3 806/13/3 808/13/3 798/13/3
f 791/13/3 805/13/3 807/13/3 796/13/3
f 798/13/3 808/13/3 362/13/3 346/13/3
f 796/13/3 807/13/3 806/13/3 794/13/3
f 368/13/3 488/13/3 936/13/3 812/13/3
f 793/13/3 810/13/3 811/13/3 795/13/3
f 343/13/3 368/13/3 812/13/3 797/13/3
f 908/10/4 823/10/4 846/10/4 903/10/4
f 918/11/1 842/11/1 844/11/1 902/11/1
f 921/10/4 848/17/4 832/10/4 896/10/4
f 912/11/1 830/11/1 818/11/1 889/11/1
f 919/13/2 845/13/2 828/13/2 894/13/2
f 920/13/5 847/13/5 837/13/5 898/13/5
f 906/11/1 819/11/1 848/17/1 921/10/1
f 914/13/5 834/13/5 841/13/5 900/13/5
f 917/13/5 840/13/5 847/13/5 920/13/5
f 811/13/3 935/13/3 878/13/3 809/13/3
f 904/13/5 815/13/5 835/13/5 897/13/5
f 916/3/2 839/3/2 843/3/2 901/3/2
f 902/11/1 844/11/1 831/11/1 895/11/1
f 901/3/2 843/3/2 820/3/2 890/3/2
f 909/11/1 825/11/1 842/11/1 918/11/1
f 479/3/2 384/3/2 816/3/2 888/3/2
f 900/13/5 841/13/5 840/13/5 917/13/5
f 915/13/4 836/13/4 813/13/4 886/13/4
f 910/13/4 827/13/4 383/13/4 460/13/4
f 894/13/2 828/13/2 829/13/2 911/13/2
f 893/13/4 826/13/4 827/13/4 910/13/4
f 892/11/1 824/11/1 825/11/1 909/11/1
f 891/10/4 822/10/4 823/10/4 908/10/4
f 468/2/5 397/2/5 404/2/5 490/2/5
f 890/11/1 820/11/1 821/11/1 907/11/1
f 889/11/1 818/11/1 819/11/1 906/11/1
f 888/3/2 816/3/2 817/3/2 905/3/2
f 887/13/5 814/13/5 815/13/5 904/13/5
f 911/13/2 829/13/2 814/13/2 887/13/2
f 886/13/4 813/13/4 826/13/4 893/13/4
f 895/11/1 831/11/1 830/11/1 912/11/1
f 907/11/1 821/11/1 824/11/1 892/11/1
f 896/10/4 832/10/4 822/10/4 891/10/4
f 897/13/5 835/13/5 834/13/5 914/13/5
f 898/13/5 837/13/5 836/13/5 915/13/5
f 905/3/2 817/3/2 839/3/2 916/3/2
f 823/10/4 853/10/4 885/10/4 846/10/4
f 842/11/1 864/11/1 884/11/1 844/11/1
f 848/17/4 866/10/4 877/10/4 832/10/4
f 830/11/1 857/11/1 870/11/1 818/11/1
f 845/13/2 924/13/2 875/13/2 828/13/2
f 847/13/5 865/13/5 880/13/5 837/13/5
f 819/11/1 851/11/1 866/10/1 848/17/1
f 834/13/5 859/13/5 882/13/5 841/13/5
f 840/13/5 863/13/5 865/13/5 847/13/5
f 815/13/5 849/13/5 879/13/5 835/13/5
f 839/3/2 862/3/2 883/3/2 843/3/2
f 844/11/1 884/11/1 876/11/1 831/11/1
f 843/3/2 883/3/2 871/3/2 820/3/2
f 825/11/1 854/11/1 864/11/1 842/11/1
f 384/3/2 418/3/2 869/3/2 816/3/2
f 841/13/5 882/13/5 863/13/5 840/13/5
f 836/13/4 860/13/4 867/13/4 813/13/4
f 827/13/4 855/13/4 439/13/4 383/13/4
f 828/13/2 875/13/2 856/13/2 829/13/2
f 826/13/4 874/13/4 855/13/4 827/13/4
f 824/11/1 873/11/1 854/11/1 825/11/1
f 822/10/4 872/10/4 853/10/4 823/10/4
f 397/2/5 447/2/5 429/2/5 404/2/5
f 820/11/1 871/11/1 852/11/1 821/11/1
f 818/11/1 870/11/1 851/11/1 819/11/1
f 816/3/2 869/3/2 850/3/2 817/3/2
f 814/13/5 868/13/5 849/13/5 815/13/5
f 829/13/2 856/13/2 868/13/2 814/13/2
f 813/13/4 867/13/4 874/13/4 826/13/4
f 831/11/1 876/11/1 857/11/1 830/11/1
f 821/11/1 852/11/1 873/11/1 824/11/1
f 832/10/4 877/10/4 872/10/4 822/10/4
f 835/13/5 879/13/5 859/13/5 834/13/5
f 837/13/5 880/13/5 860/13/5 836/13/5
f 817/3/2 850/3/2 862/3/2 839/3/2
f 623/3/2 905/3/2 916/3/2 646/3/2
f 768/13/5 898/13/5 915/13/5 540/13/5
f 693/13/5 897/13/5 914/13/5 673/13/5
f 528/10/4 896/10/4 891/10/4 642/10/4
f 541/11/1 907/11/1 892/11/1 753/11/1
f 678/11/1 895/11/1 912/11/1 698/11/1
f 644/13/4 886/13/4 893/13/4 621/13/4
f 641/13/2 911/13/2 887/13/2 529/13/2
f 529/13/5 887/13/5 904/13/5 773/13/5
f 661/3/2 888/3/2 905/3/2 623/3/2
f 778/11/1 889/11/1 906/11/1 531/11/1
f 551/11/1 890/11/1 907/11/1 541/11/1
f 52/2/5 468/2/5 490/2/5 66/2/5
f 642/10/4 891/10/4 908/10/4 619/10/4
f 753/11/1 892/11/1 909/11/1 733/11/1
f 621/13/4 893/13/4 910/13/4 659/13/4
f 618/13/2 894/13/2 911/13/2 641/13/2
f 659/13/4 910/13/4 460/13/4 51/13/4
f 540/13/4 915/13/4 886/13/4 644/13/4
f 34/1/5 913/1/5 899/2/5 36/2/5
f 602/13/5 900/13/5 917/13/5 722/13/5
f 65/3/2 479/3/2 888/3/2 661/3/2
f 733/11/1 909/11/1 918/11/1 713/11/1
f 550/3/2 901/3/2 890/3/2 551/3/2
f 603/11/1 902/11/1 895/11/1 678/11/1
f 646/3/2 916/3/2 901/3/2 550/3/2
f 773/13/5 904/13/5 897/13/5 693/13/5
f 722/13/5 917/13/5 920/13/5 748/13/5
f 673/13/5 914/13/5 900/13/5 602/13/5
f 531/11/1 906/11/1 921/10/1 530/10/1
f 748/13/5 920/13/5 898/13/5 768/13/5
f 656/13/2 919/13/2 894/13/2 618/13/2
f 698/11/1 912/11/1 889/11/1 778/11/1
f 530/10/4 921/10/4 896/10/4 528/10/4
f 713/11/1 918/11/1 902/11/1 603/11/1
f 619/10/4 908/10/4 903/10/4 657/10/4
f 922/18/2 925/13/2 924/13/2 923/13/2
f 926/10/4 885/10/4 928/10/4 927/19/4
f 929/20/4 931/10/4 903/10/4 930/10/4
f 932/13/2 919/13/2 934/13/2 933/21/2
f 932/13/13 933/21/13 929/20/13 930/10/13
f 926/10/11 927/19/11 922/18/11 923/13/11
f 925/13/2 343/13/2 797/13/2 924/13/2
f 881/14/3 922/18/3 927/19/3 858/1/3
f 926/10/5 923/13/5 838/13/5 932/13/5 930/10/5 833/10/5
f 881/14/2 344/14/2 343/13/2 925/13/2 922/18/2
f 838/13/2 923/13/2 924/13/2 845/13/2
f 846/10/4 885/10/4 926/10/4 833/10/4
f 657/10/4 903/10/4 931/10/4 33/10/4
f 33/10/4 931/10/4 929/20/4 913/1/4 34/1/4
f 903/10/4 846/10/4 833/10/4 930/10/4
f 933/21/6 899/2/6 913/1/6 929/20/6
f 35/13/2 934/13/2 919/13/2 656/13/2
f 36/14/2 899/14/2 933/21/2 934/13/2 35/13/2
f 932/13/2 838/13/2 845/13/2 919/13/2
o Cube.001
v -30.925436 35.529591 0.009960
v -30.925436 22.066933 -13.251400
v 5.201689 35.529591 0.009960
v 5.201689 22.066933 -13.251400
v -30.925436 25.376480 -9.444870
v 5.201689 25.376480 -9.444870
v -30.925436 28.834053 -6.684090
v -30.925436 28.775066 -5.793369
v 5.201689 28.834053 -6.684090
v 5.201689 28.775066 -5.793369
v -30.925436 35.529591 -3.210163
v -30.925436 33.606262 -4.123837
v -30.925436 33.503017 -3.902489
v -30.925436 33.346954 -3.091988
v 5.201689 33.606262 -4.123837
v 5.201689 35.529591 -3.210163
v 5.201689 33.346954 -3.091988
v 5.201689 33.503017 -3.902489
v -28.375601 23.487347 0.009960
v -27.898842 23.010590 0.009960
v -30.448677 19.701038 -13.251400
v -30.925436 20.177799 -13.251400
v -28.375601 23.487347 -5.392799
v -27.898842 23.010590 -5.392799
v -30.925436 23.487347 -8.094181
v -30.448677 23.010590 -8.094181
v -30.925436 23.487347 -9.444870
v -30.448677 23.010590 -9.444870
v 4.086202 23.224205 0.009960
v 5.201689 24.339691 0.009960
v 5.201689 20.816525 -13.251400
v 4.086202 19.701038 -13.251400
v 4.086202 21.002033 -5.392799
v 5.201689 22.117519 -5.392799
v 4.086202 21.002033 -8.094181
v 5.201689 22.117519 -8.094181
v 5.201689 22.117519 -9.444870
v 4.086202 21.002033 -9.444870
v -30.925436 26.131207 -8.094181
v -30.925436 27.105267 -9.214886
v 5.201689 27.105267 -9.214886
v -31.865627 26.490170 -5.392799
v -31.865627 27.581490 0.009960
v -30.925436 26.240875 -9.329880
v 5.201689 26.240875 -9.329880
v -30.925436 35.529591 -0.009960
v -30.925436 22.066933 13.251400
v 5.201689 35.529591 -0.009960
v 5.201689 22.066933 13.251400
v -30.925436 25.376480 9.444870
v 5.201689 25.376480 9.444870
v -30.925436 28.834053 6.684090
v -30.925436 28.775066 5.793369
v 5.201689 28.834053 6.684090
v 5.201689 28.775066 5.793369
v -30.925436 35.529591 3.210163
v -30.925436 33.606262 4.123837
v -30.925436 33.503017 3.902489
v -30.925436 33.346954 3.091988
v 5.201689 33.606262 4.123837
v 5.201689 35.529591 3.210163
v 5.201689 33.346954 3.091988
v 5.201689 33.503017 3.902489
v -28.375601 23.487347 -0.009960
v -27.898842 23.010590 -0.009960
v -30.448677 19.701038 13.251400
v -30.925436 20.177799 13.251400
v -28.375601 23.487347 5.392799
v -27.898842 23.010590 5.392799
v -30.925436 23.487347 8.094181
v -30.448677 23.010590 8.094181
v -30.925436 23.487347 9.444870
v -30.448677 23.010590 9.444870
v 4.086202 23.224205 -0.009960
v 5.201689 24.339691 -0.009960
v 5.201689 20.816525 13.251400
v 4.086202 19.701038 13.251400
v 4.086202 21.002033 5.392799
v 5.201689 22.117519 5.392799
v 4.086202 21.002033 8.094181
v 5.201689 22.117519 8.094181
v 5.201689 22.117519 9.444870
v 4.086202 21.002033 9.444870
v -30.925436 26.131207 8.094181
v -30.925436 27.105267 9.214886
v 5.201689 27.105267 9.214886
v -31.865627 26.490170 5.392799
v -31.865627 27.581490 -0.009960
v -30.925436 26.240875 9.329880
v 5.201689 26.240875 9.329880
vn -0.0000 0.7547 -0.6561
vn -0.0000 0.8257 -0.5641
vn -1.0000 -0.0000 -0.0000
vn 1.0000 -0.0000 -0.0000
vn -0.0000 0.4291 -0.9033
vn -0.0000 1.0000 -0.0000
vn -0.0000 0.4728 -0.8812
vn -0.7071 -0.7071 -0.0000
vn -0.5881 -0.5881 0.5551
vn -0.6024 -0.6024 0.5237
vn -0.9619 -0.2734 0.0067
vn -0.9892 -0.1387 -0.0474
vn 0.6873 -0.6873 0.2349
vn 0.6790 -0.6790 0.2793
vn 0.7071 -0.7071 -0.0000
vn -0.0000 -0.0000 1.0000
vn -0.0275 -0.9791 0.2014
vn -0.0000 -0.0000 -1.0000
vn -0.0249 -0.8551 0.5179
vn -0.0603 -0.9978 0.0284
vn -0.0581 -0.9983 -0.0000
vn -0.0000 0.1319 -0.9913
vn -0.0000 0.7547 0.6561
vn -0.0000 0.8257 0.5641
vn -0.0000 0.4291 0.9033
vn -0.0000 0.4728 0.8812
vn -0.5881 -0.5881 -0.5551
vn -0.6024 -0.6024 -0.5237
vn -0.9619 -0.2734 -0.0067
vn -0.9892 -0.1387 0.0474
vn 0.6873 -0.6873 -0.2349
vn 0.6790 -0.6790 -0.2793
vn -0.0275 -0.9791 -0.2014
vn -0.0249 -0.8551 -0.5179
vn -0.0603 -0.9978 -0.0284
vn -0.0000 0.1319 0.9913
vt 0.625000 0.500000
vt 0.875000 0.500000
vt 0.875000 0.531250
vt 0.625000 0.531250
vt 0.625000 0.536571
vt 0.875000 0.536571
vt 0.875000 0.541892
vt 0.625000 0.541892
vt 0.625000 0.074502
vt 0.596194 0.135457
vt 0.584530 0.137501
vt 0.581414 0.125000
vt 0.586592 0.625000
vt 0.625000 0.675498
vt 0.581414 0.625000
vt 0.584530 0.615624
vt 0.875000 0.650249
vt 0.625000 0.609647
vt 0.625000 0.590184
vt 0.875000 0.601127
vt 0.558146 0.197804
vt 0.490115 0.187500
vt 0.875000 0.750000
vt 0.625000 0.750000
vt 0.584530 0.595501
vt 0.490115 0.562500
vt 0.128299 0.625000
vt 0.128299 0.750000
vt 0.125000 0.750000
vt 0.125000 0.625000
vt 0.128299 0.562500
vt 0.125000 0.562500
vt 0.128299 0.531250
vt 0.125000 0.531250
vt 0.128299 0.500000
vt 0.125000 0.500000
vt 0.384521 0.000000
vt 0.504760 0.000000
vt 0.625000 0.000000
vt 0.482967 0.125000
vt 0.384521 0.125000
vt 0.425378 0.218750
vt 0.625000 0.218750
vt 0.625000 0.250000
vt 0.425378 0.250000
vt 0.437318 0.187500
vt 0.384521 0.187500
vt 0.591573 0.208277
vt 0.608287 0.213513
vt 0.367281 0.531250
vt 0.369854 0.497427
vt 0.492872 0.500000
vt 0.492872 0.531250
vt 0.369854 0.752573
vt 0.367281 0.625000
vt 0.397276 0.625000
vt 0.397276 0.750000
vt 0.367281 0.562500
vt 0.397276 0.562500
vt 0.625000 1.000000
vt 0.504760 1.000000
vt 0.384521 1.000000
vt 0.375000 0.996701
vt 0.375000 0.253299
vt 0.625000 0.533910
vt 0.875000 0.533911
s 0
usemtl Material.001
f 940/22/15 938/23/15 941/24/15 942/25/15
f 977/26/16 976/27/16 943/28/16 945/29/16
f 947/30/17 948/31/17 949/32/17 950/33/17
f 951/34/18 952/35/18 953/36/18 954/37/18
f 947/38/19 952/39/19 951/40/19 948/41/19
f 949/32/17 948/31/17 943/42/17 944/43/17
f 952/35/20 947/38/20 937/44/20 939/45/20
f 948/41/21 951/40/21 945/29/21 943/28/21
f 945/29/18 951/40/18 954/46/18 946/47/18
f 960/48/22 956/49/22 955/50/22 959/51/22
f 962/52/23 960/48/23 959/51/23 961/53/23
f 964/54/22 962/52/22 961/53/22 963/55/22
f 957/56/24 964/54/24 963/55/24 958/57/24
f 955/58/25 979/59/25 937/60/25 947/30/25 950/33/25 978/61/25 959/62/25
f 963/63/17 941/64/17 938/65/17 958/66/17
f 959/62/26 978/61/26 950/33/26 949/32/26 944/43/26 975/67/26 961/68/26
f 961/68/17 975/67/17 944/43/17 943/42/17 976/69/17 980/70/17 941/64/17 963/63/17
f 974/71/27 968/72/27 967/73/27 973/74/27
f 965/75/28 969/76/28 970/77/28 966/78/28
f 969/76/29 971/79/29 972/80/29 970/77/29
f 971/79/29 974/71/29 973/74/29 972/80/29
f 965/75/30 966/78/30 939/45/30 937/81/30 979/82/30 955/83/30 956/84/30
f 970/77/18 953/36/18 952/35/18 939/45/18 966/78/18
f 960/48/31 969/76/31 965/75/31 956/49/31
f 957/85/32 958/66/32 938/65/32 940/22/32 967/73/32 968/72/32
f 967/73/18 940/22/18 942/25/18 973/74/18
f 957/56/33 968/72/33 974/71/33 964/54/33
f 972/80/18 946/47/18 954/37/18 953/36/18 970/77/18
f 962/52/34 971/79/34 969/76/34 960/48/34
f 973/74/18 942/25/18 981/86/18 977/26/18 945/29/18 946/47/18 972/80/18
f 964/54/35 974/71/35 971/79/35 962/52/35
f 981/86/36 980/87/36 976/27/36 977/26/36
f 942/25/36 941/24/36 980/87/36 981/86/36
f 985/22/37 987/25/37 986/24/37 983/23/37
f 1022/26/38 990/29/38 988/28/38 1021/27/38
f 992/30/17 995/33/17 994/32/17 993/31/17
f 996/34/18 999/37/18 998/36/18 997/35/18
f 992/38/39 993/41/39 996/40/39 997/39/39
f 994/32/17 989/43/17 988/42/17 993/31/17
f 997/35/20 984/45/20 982/44/20 992/38/20
f 993/41/40 988/28/40 990/29/40 996/40/40
f 990/29/18 991/47/18 999/46/18 996/40/18
f 1005/48/22 1004/51/22 1000/50/22 1001/49/22
f 1007/52/41 1006/53/41 1004/51/41 1005/48/41
f 1009/54/22 1008/55/22 1006/53/22 1007/52/22
f 1002/56/42 1003/57/42 1008/55/42 1009/54/42
f 1000/58/43 1004/62/43 1023/61/43 995/33/43 992/30/43 982/60/43 1024/59/43
f 1008/63/17 1003/66/17 983/65/17 986/64/17
f 1004/62/44 1006/68/44 1020/67/44 989/43/44 994/32/44 995/33/44 1023/61/44
f 1006/68/17 1008/63/17 986/64/17 1025/70/17 1021/69/17 988/42/17 989/43/17 1020/67/17
f 1019/71/45 1018/74/45 1012/73/45 1013/72/45
f 1010/75/46 1011/78/46 1015/77/46 1014/76/46
f 1014/76/29 1015/77/29 1017/80/29 1016/79/29
f 1016/79/29 1017/80/29 1018/74/29 1019/71/29
f 1010/75/32 1001/84/32 1000/83/32 1024/82/32 982/81/32 984/45/32 1011/78/32
f 1015/77/18 1011/78/18 984/45/18 997/35/18 998/36/18
f 1005/48/47 1001/49/47 1010/75/47 1014/76/47
f 1002/85/30 1013/72/30 1012/73/30 985/22/30 983/65/30 1003/66/30
f 1012/73/18 1018/74/18 987/25/18 985/22/18
f 1002/56/48 1009/54/48 1019/71/48 1013/72/48
f 1017/80/18 1015/77/18 998/36/18 999/37/18 991/47/18
f 1007/52/49 1005/48/49 1014/76/49 1016/79/49
f 1018/74/18 1017/80/18 991/47/18 990/29/18 1022/26/18 1026/86/18 987/25/18
f 1009/54/35 1007/52/35 1016/79/35 1019/71/35
f 1026/86/50 1022/26/50 1021/27/50 1025/87/50
f 987/25/50 1026/86/50 1025/87/50 986/24/50
