# Blender 5.0.1
# www.blender.org
mtllib rock.mtl
o Cube
v -1.101128 -0.023961 -0.964276
v 0.969796 -0.028733 -0.933495
v -0.832600 0.441932 0.826189
v -0.889289 0.456829 -0.900632
v 0.772532 0.412784 -0.753679
v 0.801491 0.422620 0.926459
v -1.172816 -0.475933 -1.116127
v 0.995641 -0.481971 -1.000000
v 1.092427 -0.491655 1.045193
v -1.165020 -0.476453 1.053354
v 0.075200 0.111451 1.097367
v 0.057975 0.393751 1.065269
v -0.849903 -0.194335 1.745426
v 0.559403 -0.006544 -1.054426
v 0.510148 0.483965 -0.999347
v 0.559403 -0.481970 -1.054426
v 0.459486 0.059575 1.163964
v 0.501450 0.535033 1.121850
v -0.500000 0.500000 1.000000
v 0.872385 -0.126579 1.303088
v 1.000000 -0.478361 1.336923
v -0.999955 -0.482302 1.372194
v 0.000000 0.000000 1.220419
v 0.500000 0.000000 1.220419
v 0.837099 -0.193251 1.705826
v 0.872385 -0.508202 1.815105
v -0.859594 -0.495339 1.798950
v 0.000000 -0.487297 2.024842
v 0.493675 -0.125622 1.817468
v 0.500000 -0.487297 2.024842
v -0.500000 -0.487297 2.024842
v 0.849385 0.298062 1.218925
v 0.230572 0.173239 1.191513
v 0.150615 0.276916 1.218925
v 0.515835 0.108355 1.146462
v 0.500000 0.252275 1.191400
v -1.000000 0.000000 0.000000
v 1.000000 0.500000 0.000000
v -1.000000 0.500000 0.000000
v -1.365471 0.000000 0.500000
v 1.000000 0.500000 0.500000
v -1.000000 0.000000 0.500000
v -1.000000 0.500000 0.500000
v -1.000000 0.000000 -0.500000
v -1.000000 0.500000 -0.500000
v -1.365471 0.000000 0.000000
v 1.000000 0.000000 -0.500000
v 1.000000 0.500000 -0.500000
v 1.182209 -0.315010 -0.800270
v 1.463313 -0.487297 -1.000000
v 1.365031 -0.527884 0.893936
v 1.463313 -0.487297 0.000000
v 1.463313 -0.487297 0.500000
v 1.308908 -0.201319 -0.541782
v 1.463313 -0.487297 -0.500000
v -0.890436 -0.089319 -1.341979
v -0.873253 -0.475929 -1.341979
v 0.000000 -0.487297 -1.458107
v 0.439307 -0.502666 -1.442034
v -0.500000 -0.487297 -1.458107
v 0.000000 -0.554398 -1.818868
v 0.361427 -0.626078 -1.747109
v -0.412749 -0.576765 -1.800759
v -1.411582 -0.193104 0.834363
v -1.498670 -0.130854 -0.865735
v -1.681736 -0.487297 -1.000000
v -1.472404 -0.508127 0.846471
v -1.544436 -0.098141 0.000000
v -1.681736 -0.487297 0.000000
v -1.544436 -0.098141 0.500000
v -1.681736 -0.487297 0.500000
v -1.544436 -0.098141 -0.500000
v -1.681736 -0.487297 -0.500000
v -1.365471 0.000000 -0.500000
v -0.861033 0.389281 -1.227437
v -0.853728 0.248144 -1.344168
v -1.140829 0.500000 0.000000
v -1.365471 0.275357 0.000000
v -1.140829 0.500000 0.500000
v -1.365471 0.275357 0.500000
v -1.365471 0.275357 -0.500000
v -1.140829 0.500000 -0.500000
v -0.779606 0.912665 0.759573
v -0.806896 0.771332 0.820319
v -0.842501 0.936557 -0.792575
v -0.865104 0.787118 -0.849173
v 0.876085 0.757518 0.896807
v 0.698408 0.876164 -0.698408
v 0.781706 0.758620 -0.774580
v 0.171751 1.000000 0.828249
v -0.171751 1.000000 0.828249
v 0.000000 0.828249 1.000000
v 0.582404 0.957226 -0.832048
v 0.517803 0.831288 -0.931562
v 0.328249 1.000000 -0.828249
v -0.500000 0.828249 1.000000
v -0.328249 1.000000 0.828249
v -0.671751 1.000000 0.828249
v -0.825078 0.952335 0.110314
v -0.825078 0.952335 -0.110314
v -0.926841 0.824094 0.000000
v 0.828249 1.000000 -0.171751
v 0.828249 1.000000 0.171751
v 1.000000 0.828249 0.000000
v 0.171751 1.000000 -0.171751
v -0.171751 1.000000 -0.171751
v -0.171751 1.000000 0.171751
v 0.171751 1.000000 0.171751
v 0.328249 1.000000 -0.171751
v 0.671751 1.000000 -0.171751
v -0.671751 1.000000 -0.171751
v -0.671751 1.000000 0.171751
v -0.328249 1.000000 0.171751
v -0.171751 1.000000 0.328249
v -0.171751 1.000000 0.671751
v -0.671751 1.000000 0.671751
v -0.328249 1.000000 0.671751
v -0.328249 1.000000 0.328249
v -0.671751 1.000000 0.328249
v -0.825078 0.952335 0.389686
v -0.918251 0.820443 0.485464
v -0.825216 0.950786 0.601160
v -0.922119 0.820443 -0.483609
v -0.827496 0.952335 -0.387367
v -0.848586 0.950786 -0.581843
v 0.828249 1.000000 -0.328249
v 0.931562 0.831288 -0.500000
v 0.832048 0.957226 -0.582404
v -0.171751 1.000000 -0.328249
v 0.171751 1.000000 -0.328249
v 0.671751 1.000000 -0.328249
v 0.671751 1.000000 -0.671751
v 0.328249 1.000000 -0.671751
v 0.328249 1.000000 -0.328249
v -0.671751 1.000000 -0.328249
v 0.764596 1.000000 0.764596
v 0.873259 0.954990 0.873259
v 0.391903 1.000000 0.764596
v 0.258873 1.000000 0.828249
v 0.451219 0.954990 0.873259
v 0.504127 0.754417 1.073833
v 0.500000 0.906209 0.922040
v 0.608097 1.000000 0.764596
v 0.548781 0.954990 0.873259
v 0.704700 0.954990 0.873259
v 0.735404 1.000000 0.764596
v 0.391903 1.000000 0.235404
v 0.264596 1.000000 0.108097
v 0.608097 1.000000 0.235404
v 0.735404 1.000000 0.108097
v 1.073833 0.754417 0.504127
v 0.922040 0.906209 0.500000
v 0.828249 1.000000 0.258873
v 0.764596 1.000000 0.391903
v 0.873259 0.954990 0.451219
v 0.873259 0.954990 0.704700
v 0.873259 0.954990 0.548781
v 0.764596 1.000000 0.608097
v 0.764596 1.000000 0.735404
v 0.235404 1.000000 0.608097
v 0.108097 1.000000 0.735404
v 0.235404 1.000000 0.391903
v 0.108097 1.000000 0.264596
v 0.264596 1.000000 0.608097
v 0.259093 1.000000 0.735404
v 0.391903 1.000000 0.735404
v 0.391903 1.000000 0.608097
v 0.608097 1.000000 0.735404
v 0.735404 1.000000 0.735404
v 0.735404 1.000000 0.608097
v 0.608097 1.000000 0.608097
v 0.735404 1.000000 0.391903
v 0.735404 1.000000 0.259093
v 0.608097 1.000000 0.264596
v 0.608097 1.000000 0.391903
v 0.264596 1.000000 0.391903
v 0.391903 1.000000 0.391903
v 0.391903 1.000000 0.264596
v 0.264596 1.000000 0.264596
v -0.085721 0.585721 -1.000000
v 0.088971 0.500000 -1.000000
v -0.085721 0.500000 -1.085721
v -0.414279 0.585721 -1.000000
v -0.414279 0.500000 -1.085721
v -0.588971 0.500000 -1.000000
v -0.085721 0.500000 -1.075115
v 0.088846 0.469693 -1.221450
v -0.414279 0.500000 -1.075115
v -0.588846 0.469693 -1.221450
v -0.216123 0.939386 -0.888863
v -0.257472 1.000000 -0.742528
v -0.086030 1.000000 -0.742528
v -0.006150 0.939386 -0.888863
v 0.086030 1.000000 -0.742528
v 0.261277 1.000000 -0.828249
v 0.006150 0.939386 -0.888863
v -0.165600 0.888863 -0.939386
v 0.000000 0.933236 -0.895014
v 0.089356 0.828249 -1.000000
v -0.085721 0.742528 -1.000000
v -0.413970 1.000000 -0.742528
v -0.242528 1.000000 -0.742528
v -0.283877 0.939386 -0.888863
v -0.493850 0.939386 -0.888863
v -0.334400 0.888863 -0.939386
v -0.414279 0.742528 -1.000000
v -0.589356 0.828249 -1.000000
v -0.500000 0.933236 -0.895014
v -0.586030 1.000000 -0.742528
v -0.506150 0.939386 -0.888863
v -0.761277 1.000000 -0.828249
v 0.086030 1.000000 -0.757472
v 0.261131 1.000000 -0.586030
v -0.086030 1.000000 -0.757472
v -0.257472 1.000000 -0.757472
v -0.171751 1.000000 -0.586030
v -0.413970 1.000000 -0.757472
v -0.328249 1.000000 -0.586030
v -0.242528 1.000000 -0.757472
v -0.586030 1.000000 -0.757472
v -0.761131 1.000000 -0.586030
v -0.837252 0.000000 1.072515
v -0.987808 -0.019684 0.954698
v -0.543312 0.000000 1.043312
v -0.456688 0.000000 1.000000
v -0.837192 -0.007797 1.161787
v -0.887669 -0.110930 1.309908
v -0.543312 0.000000 1.177107
v -0.543312 -0.003568 1.263584
v -0.456688 0.000000 1.220419
v 0.000000 -0.054945 1.885085
v 0.000000 -0.100766 1.937769
v 0.043312 -0.058513 1.928250
v -0.456688 -0.054945 1.885085
v -0.543000 -0.082999 1.933177
v 1.190472 -0.025868 0.779413
v 1.191292 -0.018875 0.192221
v 0.990608 0.097037 -0.192221
v 1.191292 -0.018875 0.692221
v 1.191292 -0.018875 0.307779
v 1.000000 0.192221 0.500000
v 1.324978 -0.205103 0.849287
v 1.224949 -0.023637 0.774861
v 1.232284 -0.022920 0.192221
v 1.450050 -0.139744 -0.192221
v 1.232284 -0.022920 0.307779
v 1.226469 -0.028957 0.692108
v 1.440737 -0.234198 0.500000
v -0.067784 0.067784 -1.458107
v 0.067784 0.067784 -1.458107
v 0.000000 -0.067784 -1.458107
v 0.385225 0.056948 -1.458107
v 0.446035 -0.068917 -1.411429
v -0.432216 0.067784 -1.458107
v -0.567784 -0.067784 -1.458107
v 0.018206 0.257433 -1.409613
v 0.067784 0.134945 -1.458107
v -0.067784 0.134945 -1.458107
v 0.380107 0.134249 -1.453784
v -0.432216 0.134945 -1.458107
v -0.567233 0.242554 -1.418274
v -1.150258 -0.983007 0.859749
v -0.876741 -1.000000 0.876741
v -0.859749 -0.983007 1.038593
v -1.132016 -0.871297 1.042683
v -0.929804 -1.000000 -0.929804
v -1.070196 -1.000000 -0.929804
v -1.138253 -0.868520 -1.092902
v -0.929804 -1.000000 -1.070196
v 0.886072 -1.000000 0.886072
v 1.092606 -0.985995 0.872069
v 1.073942 -0.881584 1.035177
v 0.872069 -0.985995 1.044150
v 1.070196 -1.000000 -0.929804
v 0.929804 -1.000000 -0.929804
v 0.996513 -0.901060 -0.986657
v 0.070196 -1.000000 -0.929804
v -0.070196 -1.000000 -0.929804
v -0.070196 -1.000000 -1.070196
v 0.070196 -1.000000 -1.070196
v -0.070196 -1.000000 1.070196
v -0.070196 -1.000000 0.929804
v 0.070196 -1.000000 0.929804
v 0.070196 -1.000000 1.070196
v 0.570196 -1.000000 1.070196
v 0.429804 -1.000000 1.070196
v 0.429804 -1.000000 0.929804
v 0.570196 -1.000000 0.929804
v 0.429804 -1.000000 -0.929804
v 0.429804 -1.000000 -1.070196
v 0.547522 -0.901050 -1.043540
v 0.570196 -1.000000 -0.929804
v 0.852824 -0.981327 1.796693
v 0.886251 -0.855528 1.850363
v -0.570196 -1.000000 -0.929804
v -0.570196 -1.000000 -1.070196
v -0.429804 -1.000000 -1.070196
v -0.429804 -1.000000 -0.929804
v -0.836398 -0.977343 1.762989
v -0.861979 -0.839680 1.813133
v -0.429804 -1.000000 1.070196
v -0.570196 -1.000000 1.070196
v -0.570196 -1.000000 0.929804
v -0.429804 -1.000000 0.929804
v -0.859749 -0.983007 1.181826
v -0.859749 -0.983007 1.400375
v -0.972814 -0.871298 1.333510
v 0.872069 -0.985995 1.176269
v 0.977594 -0.881585 1.313622
v 0.872069 -0.985995 1.381073
v 0.070196 -1.000000 1.150223
v 0.070196 -1.000000 1.290615
v -0.070196 -1.000000 1.290615
v -0.070196 -1.000000 1.150223
v 0.570196 -1.000000 1.150223
v 0.570196 -1.000000 1.290615
v 0.429804 -1.000000 1.290615
v 0.429804 -1.000000 1.150223
v -0.570196 -1.000000 1.150223
v -0.429804 -1.000000 1.150223
v -0.429804 -1.000000 1.290615
v -0.570196 -1.000000 1.290615
v 0.070196 -1.000000 1.954647
v 0.000000 -0.929799 2.024842
v -0.070196 -1.000000 1.954647
v 0.429804 -1.000000 1.954647
v 0.570196 -1.000000 1.954647
v 0.500000 -0.929799 2.024842
v -0.570196 -1.000000 1.954647
v -0.429804 -1.000000 1.954647
v -0.500000 -0.929799 2.024842
v 0.728344 0.089353 1.178148
v 0.870492 0.157258 1.136600
v -1.070196 -1.000000 -0.070196
v -0.929804 -1.000000 -0.070196
v -0.929804 -1.000000 0.070196
v -1.070196 -1.000000 0.070196
v 1.070196 -1.000000 0.070196
v 0.929804 -1.000000 0.070196
v 0.929804 -1.000000 -0.070196
v 1.070196 -1.000000 -0.070196
v -0.070196 -1.000000 -0.070196
v 0.070196 -1.000000 -0.070196
v 0.070196 -1.000000 0.070196
v -0.070196 -1.000000 0.070196
v 0.570196 -1.000000 -0.070196
v 0.570196 -1.000000 0.070196
v 0.429804 -1.000000 0.070196
v 0.429804 -1.000000 -0.070196
v -0.429804 -1.000000 -0.070196
v -0.429804 -1.000000 0.070196
v -0.570196 -1.000000 0.070196
v -0.570196 -1.000000 -0.070196
v -0.929804 -1.000000 0.570196
v -1.070196 -1.000000 0.570196
v -1.070196 -1.000000 0.429804
v -0.929804 -1.000000 0.429804
v -0.070196 -1.000000 0.570196
v -0.070196 -1.000000 0.429804
v 0.070196 -1.000000 0.429804
v 0.070196 -1.000000 0.570196
v 0.570196 -1.000000 0.570196
v 0.429804 -1.000000 0.570196
v 0.429804 -1.000000 0.429804
v 0.570196 -1.000000 0.429804
v -0.429804 -1.000000 0.570196
v -0.570196 -1.000000 0.570196
v -0.570196 -1.000000 0.429804
v -0.429804 -1.000000 0.429804
v 1.070196 -1.000000 0.429804
v 1.070196 -1.000000 0.570196
v 0.929804 -1.000000 0.570196
v 0.929804 -1.000000 0.429804
v 1.070196 -1.000000 -0.570196
v 1.070196 -1.000000 -0.429804
v 0.929804 -1.000000 -0.429804
v 0.929804 -1.000000 -0.570196
v -1.070196 -1.000000 -0.429804
v -1.070196 -1.000000 -0.570196
v -0.929804 -1.000000 -0.570196
v -0.929804 -1.000000 -0.429804
v 0.070196 -1.000000 -0.429804
v -0.070196 -1.000000 -0.429804
v -0.070196 -1.000000 -0.570196
v 0.070196 -1.000000 -0.570196
v 0.429804 -1.000000 -0.429804
v 0.429804 -1.000000 -0.570196
v 0.570196 -1.000000 -0.570196
v 0.570196 -1.000000 -0.429804
v -0.570196 -1.000000 -0.429804
v -0.570196 -1.000000 -0.570196
v -0.429804 -1.000000 -0.570196
v -0.429804 -1.000000 -0.429804
v 1.325895 -0.981326 0.852824
v 1.356883 -0.855525 0.886251
v 1.393117 -1.000000 -0.929804
v 1.463313 -0.929773 -1.000000
v 1.393117 -1.000000 -0.070196
v 1.463313 -0.929786 0.000000
v 1.393117 -1.000000 0.070196
v 1.393117 -1.000000 0.570196
v 1.393117 -1.000000 0.429804
v 1.463313 -0.929791 0.500000
v 1.393117 -1.000000 -0.570196
v 1.463313 -0.929781 -0.500000
v 1.393117 -1.000000 -0.429804
v -0.929804 -1.000000 -1.387911
v -0.855459 -0.835398 -1.324185
v -0.070196 -1.000000 -1.387911
v -0.070196 -1.000000 -1.528302
v 0.070196 -1.000000 -1.528302
v 0.070196 -1.000000 -1.387911
v 0.429804 -1.000000 -1.387911
v 0.429804 -1.000000 -1.528302
v 0.485308 -0.901175 -1.452898
v -0.429804 -1.000000 -1.387911
v -0.570196 -1.000000 -1.387911
v -0.500000 -0.929732 -1.458107
v -0.429804 -1.000000 -1.528302
v -0.070196 -1.000000 -1.802997
v 0.000000 -0.930655 -1.864739
v 0.070196 -1.000000 -1.802997
v 0.429804 -1.000000 -1.802997
v 0.485808 -0.931156 -1.861411
v -0.429804 -1.000000 -1.802997
v -0.485808 -0.931156 -1.861411
v -1.459480 -0.977341 0.836398
v -1.499725 -0.839678 0.861979
v -1.611541 -1.000000 -0.929804
v -1.681736 -0.929773 -1.000000
v -1.611541 -1.000000 0.070196
v -1.681736 -0.929786 0.000000
v -1.611541 -1.000000 -0.070196
v -1.611541 -1.000000 0.429804
v -1.611541 -1.000000 0.570196
v -1.681736 -0.929791 0.500000
v -1.611541 -1.000000 -0.570196
v -1.611541 -1.000000 -0.429804
v -1.681736 -0.929781 -0.500000
v 0.488896 0.441594 -1.126762
v 0.429900 0.494833 -1.171171
v 0.975339 0.181351 1.117945
v 0.807083 0.045133 1.111740
v 0.981329 -0.016436 1.077513
v 1.016102 -0.150848 1.022264
v 1.139581 -0.091037 0.981200
v 1.044816 -0.003377 0.953559
v 1.000000 0.028020 0.941351
v 0.429807 0.255241 -1.406500
v 0.487823 0.176776 -1.384302
v 0.467695 0.197714 -1.430817
v 0.100036 1.052311 -0.100036
v 0.074097 1.092926 -0.074097
v -0.122168 1.060027 -0.194341
v -0.224740 1.096171 -0.205267
v -0.215003 1.105907 -0.094756
v -0.104493 1.096171 -0.085020
v -0.205267 1.096171 0.085020
v -0.144758 1.060027 0.156173
v -0.104493 1.096171 0.085020
v 0.074097 1.092926 0.074097
v 0.100036 1.052311 0.100036
v -0.585020 1.096171 -0.205267
v -0.656173 1.060027 -0.144758
v -0.585020 1.096171 -0.104493
v -0.574097 1.092926 0.074097
v -0.600036 1.052311 0.100036
v -0.395507 1.096171 0.085020
v -0.355242 1.060027 0.156173
v -0.294733 1.096171 0.085020
v -0.405243 1.105907 -0.215003
v -0.405243 1.105907 -0.094756
v -0.284997 1.105907 -0.094756
v -0.284997 1.105907 -0.215003
v -0.187328 1.060027 -0.342869
v -0.224740 1.096171 -0.380041
v -0.224740 1.096171 -0.294733
v -0.408051 1.105907 -0.389777
v -0.405243 1.105907 -0.284997
v -0.284997 1.105907 -0.284997
v -0.284997 1.105907 -0.389777
v -0.601532 1.096171 -0.380041
v -0.671320 1.060027 -0.342869
v -0.587828 1.096171 -0.294733
v -0.224416 1.092926 -0.508998
v -0.209724 1.052311 -0.529782
v -0.407690 1.096171 -0.514766
v -0.294733 1.096171 -0.514766
v -0.368144 1.060027 -0.570452
v -0.618131 1.092926 -0.508998
v -0.653218 1.052311 -0.529782
vn -0.0094 0.7249 0.6888
vn 0.2041 0.0756 -0.9760
vn 0.4864 0.3323 -0.8081
vn -0.9767 0.2127 -0.0273
vn -0.2176 0.9747 -0.0520
vn -0.7442 0.1655 -0.6471
vn 0.9401 0.2734 0.2038
vn 0.2642 0.9450 0.1928
vn 0.4156 0.4064 0.8137
vn 0.0746 -0.2530 0.9646
vn 0.2509 0.6589 0.7092
vn -0.1010 0.4675 0.8782
vn -0.1032 -0.4256 0.8990
vn -0.7151 -0.1718 0.6776
vn -0.1774 0.9841 -0.0000
vn 0.6801 0.6722 -0.2926
vn 0.3712 0.5119 -0.7747
vn 0.8894 0.2584 -0.3771
vn -0.2602 0.3940 -0.8815
vn -0.0000 -1.0000 -0.0000
vn 0.6687 0.7107 -0.2182
vn 0.1346 0.9484 -0.2871
vn -0.0283 0.9750 -0.2205
vn -0.9127 0.4036 -0.0635
vn -0.9430 0.3327 -0.0000
vn -0.8484 0.2467 0.4684
vn -0.9001 0.2720 -0.3403
vn -0.7071 0.7071 -0.0000
vn -1.0000 -0.0000 -0.0000
vn -0.0000 1.0000 -0.0000
vn -0.0000 -0.0000 1.0000
vn -0.0000 -0.0000 -1.0000
vn -0.0000 0.7071 0.7071
vn 0.0872 0.5897 -0.8029
vn -0.7833 0.6216 -0.0000
vn 0.7071 0.7071 -0.0000
vn -0.8155 0.5788 0.0037
vn -0.8383 0.5382 0.0866
vn 0.8083 0.5825 -0.0859
vn -0.9436 0.3051 -0.1285
vn 0.6475 0.4780 -0.5935
vn -0.5653 0.3076 0.7654
vn -0.8005 0.5992 0.0119
vn 0.7755 0.6265 -0.0779
vn -0.2969 0.9549 -0.0000
vn -0.8838 0.3230 0.3384
vn -0.3012 0.9536 0.0026
vn -0.7982 0.6023 -0.0053
vn 0.6265 0.4542 -0.6335
vn 0.0696 0.9858 -0.1527
vn 0.1527 0.9858 -0.0696
vn -0.8997 0.1615 0.4056
vn -0.4873 0.0268 0.8728
vn -0.5283 0.8304 0.1770
vn -0.9582 0.1740 -0.2271
vn 0.6765 0.2912 -0.6765
vn 0.6138 0.0384 -0.7885
vn 0.8051 0.0522 -0.5909
vn -0.0533 0.0811 0.9953
vn -0.2947 0.9556 0.0016
vn -0.9722 0.2339 0.0093
vn -0.9736 0.2283 -0.0055
vn 0.9924 0.1030 -0.0676
vn 0.1477 0.9397 0.3086
vn -0.0000 0.9239 0.3827
vn 0.3086 0.9397 0.1477
vn 0.3827 0.9239 -0.0000
vn 0.8948 0.3178 0.3135
vn 0.2889 0.3567 0.8884
vn -0.1456 0.1569 0.9768
vn 0.4907 0.0535 0.8697
vn 0.8881 -0.2059 0.4110
vn 0.9888 -0.1247 -0.0819
vn 0.3278 0.6680 -0.6680
vn -0.3278 0.6680 -0.6680
vn -0.0000 0.9239 -0.3827
vn -0.1503 0.9397 -0.3072
vn -0.0827 0.5089 -0.8568
vn 0.0827 0.5089 -0.8568
vn 0.1503 0.9397 -0.3072
vn -0.0000 0.7071 -0.7071
vn -0.0000 0.9792 -0.2028
vn -0.0611 0.9880 -0.1420
vn 0.0611 0.9880 -0.1420
vn -0.0000 0.3827 -0.9239
vn 0.0822 0.0985 -0.9917
vn -0.4074 0.0858 -0.9092
vn -0.2358 0.9545 -0.1826
vn 0.1027 0.6283 -0.7711
vn -0.5111 0.3274 -0.7947
vn -0.5605 0.8275 -0.0333
vn -0.3862 0.9179 0.0912
vn -0.0206 0.9989 0.0412
vn -0.5093 0.6493 0.5648
vn -0.0215 0.9934 -0.1128
vn -0.4664 0.8353 0.2913
vn -0.1459 0.9120 0.3834
vn -0.1280 0.9868 0.0994
vn 0.0115 0.8017 0.5976
vn -0.4545 0.2623 0.8512
vn -0.0124 0.9993 0.0349
vn -0.2869 0.9391 0.1892
vn -0.8450 0.3704 0.3858
vn -0.2561 0.1573 0.9538
vn -0.9534 0.1857 0.2378
vn -0.1347 0.9508 0.2790
vn -0.1477 0.0291 0.9886
vn -0.9524 0.2107 0.2203
vn -0.3436 0.9273 0.1485
vn -0.0000 0.9966 0.0824
vn 0.0819 0.9875 0.1345
vn 0.1275 0.3453 0.9298
vn -0.0005 0.2204 0.9754
vn -0.5404 0.1451 0.8288
vn 0.7410 0.6715 -0.0000
vn 0.7017 0.7121 0.0218
vn 0.1824 0.9832 0.0091
vn 0.6648 0.7410 -0.0950
vn 0.7894 0.5907 0.1672
vn 0.6342 0.7670 0.0970
vn 0.4336 0.9011 0.0086
vn 0.1127 0.9936 0.0113
vn 0.4612 0.8370 -0.2944
vn 0.9998 -0.0132 0.0132
vn 0.9999 -0.0113 -0.0070
vn 0.0982 0.9952 -0.0000
vn 0.9529 0.1251 0.2764
vn 0.9659 0.1912 -0.1743
vn 0.9979 0.0636 0.0128
vn -0.0000 0.3681 -0.9298
vn 0.0573 -0.1770 -0.9825
vn 0.0029 0.3589 -0.9334
vn -0.1554 0.1039 -0.9824
vn 0.0713 0.0352 -0.9968
vn 0.0074 0.0302 -0.9995
vn 0.9541 0.0030 -0.2995
vn -0.2990 0.0725 -0.9515
vn -0.3160 -0.0333 -0.9482
vn -0.0026 0.6592 -0.7520
vn -0.1766 0.6300 -0.7562
vn -0.2221 -0.9058 0.3608
vn -0.3165 -0.8943 -0.3165
vn 0.2786 -0.8916 0.3570
vn -0.0000 -0.4982 -0.8671
vn 0.3658 -0.8558 -0.3658
vn -0.7028 -0.7114 -0.0000
vn 0.7033 -0.7109 -0.0000
vn -0.0000 -0.7071 0.7071
vn 0.7072 -0.7070 -0.0000
vn 0.8719 -0.4897 -0.0000
vn -0.4085 -0.8162 -0.4085
vn -0.0000 -0.6650 -0.7469
vn -0.7072 -0.7070 -0.0000
vn 0.6443 0.0880 0.7597
vn 0.8130 0.5748 -0.0930
vn -0.0421 -0.9988 0.0266
vn 0.0281 -0.9984 0.0482
vn 0.5222 -0.8440 0.1225
vn 0.7446 -0.6645 -0.0636
vn -0.8355 -0.3161 -0.4494
vn 0.0528 -0.6587 -0.7505
vn -0.0367 -0.9976 0.0582
vn -0.4447 -0.8807 0.1631
vn 0.0463 -0.9989 -0.0000
vn 0.8534 -0.5082 0.1155
vn -0.0586 -0.9983 -0.0000
vn 0.4505 -0.4150 0.7904
vn -0.5515 -0.3261 0.7678
vn -0.8674 -0.4716 0.1591
vn -0.0353 -0.6006 -0.7988
vn 0.0413 -0.9989 0.0241
vn 0.2736 -0.6329 0.7242
vn -0.0127 -0.7601 -0.6497
vn 0.8731 -0.3978 0.2819
vn -0.1733 0.0796 -0.9816
vn 0.0026 -0.6560 -0.7548
vn -0.0026 -0.6560 -0.7548
vn 0.8312 -0.5553 0.0250
vn -0.7412 -0.6712 -0.0141
vn -0.8095 -0.3252 0.4889
vn -0.2551 -0.6334 0.7306
vn 0.3521 -0.3880 0.8518
vn 0.7664 0.4481 -0.4604
vn -0.0086 -0.9973 0.0723
vn -0.4979 0.0019 0.8672
vn -0.8791 -0.0968 0.4667
vn -0.6122 -0.0855 -0.7861
vn -0.1924 -0.0352 -0.9807
vn 0.4745 -0.0393 0.8794
vn 0.9471 -0.0621 0.3150
vn 0.0103 -0.9983 0.0566
vn -0.0148 -0.0155 -0.9998
vn 0.1247 -0.0303 -0.9917
vn 0.9738 0.0406 -0.2238
vn 0.9775 -0.0078 0.2109
vn 0.4486 0.0477 0.8924
vn 0.0564 -0.9984 0.0053
vn -0.9626 -0.0414 0.2676
vn -0.5171 0.0170 0.8558
vn -0.0722 -0.9974 0.0071
vn 0.7741 0.5043 0.3827
vn 0.0174 -0.2578 0.9660
vn 0.0047 -0.4645 0.8855
vn 0.9670 -0.0128 0.2543
vn 1.0000 -0.0000 -0.0000
vn -0.3281 -0.0282 -0.9442
vn 0.9527 0.2590 -0.1590
vn -0.9841 0.1014 -0.1462
vn 0.1063 0.2459 -0.9634
vn -0.0273 0.1469 -0.9888
vn -0.8763 0.0405 0.4801
vn 0.9790 0.0477 -0.1984
vn 0.0476 0.9965 -0.0689
vn 0.0311 0.6809 -0.7317
vn 0.9343 0.3066 0.1819
vn 0.5325 0.8040 0.2645
vn 0.5979 0.6735 0.4346
vn 0.4973 0.1204 0.8591
vn 0.8952 0.2541 0.3661
vn 0.1941 0.7565 0.6246
vn 0.5919 -0.0779 -0.8022
vn 0.0080 0.3667 -0.9303
vn 0.2259 0.9476 -0.2259
vn -0.0000 0.8916 0.4529
vn -0.4529 0.8916 -0.0000
vn 0.6948 0.7192 -0.0000
vn -0.4296 0.9004 0.0690
vn -0.0000 0.8388 -0.5444
vn 0.8428 0.5382 -0.0000
vn 0.1499 0.8638 -0.4810
vn 0.0448 0.9986 0.0265
vn 0.1192 0.7702 0.6265
vn -0.0541 0.9985 -0.0000
vn -0.6265 0.7702 0.1192
vn -0.1192 0.7702 0.6265
vn -0.0000 0.9985 0.0541
vn -0.0517 0.9987 0.0045
vn 0.4307 0.8948 -0.1179
vn -0.4216 0.9064 0.0263
vn 0.0778 0.9959 -0.0453
vn 0.1595 0.9872 -0.0000
vn -0.0819 0.7010 -0.7084
vn 0.1846 0.6191 -0.7633
vn 0.8325 0.5486 -0.0772
vn -0.0000 0.9970 -0.0777
vn -0.5935 0.8043 -0.0307
vn 0.5893 0.8079 -0.0000
vn 0.0182 0.9998 -0.0000
vn 0.1547 0.4213 -0.8936
vn 0.9254 -0.3234 -0.1977
vn -0.0000 0.2512 0.9679
vn 0.0818 0.6316 0.7709
vn -0.9909 0.1278 0.0423
vn -0.7709 0.6316 0.0818
vn -0.0537 0.9986 0.0009
vn -0.0384 0.9985 0.0384
vn -0.0818 0.6316 0.7709
vn 0.1052 0.9929 -0.0547
vn 0.8937 0.4456 -0.0527
vn -0.0340 0.9982 -0.0489
vn -0.7351 0.6696 0.1062
vn 0.1175 0.5915 -0.7977
vn -0.0528 0.5604 -0.8265
vt 0.500000 0.812500
vt 0.500000 0.875000
vt 0.439088 0.437500
vt 0.500000 0.437500
vt 0.500000 0.500000
vt 0.439088 0.500000
vt 0.562500 0.437500
vt 0.562500 0.500000
vt 0.500000 0.187500
vt 0.562500 0.187500
vt 0.562500 0.250000
vt 0.500000 0.250000
vt 0.439088 0.250000
vt 0.439088 0.750000
vt 0.500000 0.750000
vt 0.439088 0.812500
vt 0.562500 0.812500
vt 0.562500 0.875000
vt 0.562500 0.750000
vt 0.500000 0.062500
vt 0.500000 0.125000
vt 0.500000 0.562500
vt 0.562500 0.562500
vt 0.439088 0.562500
vt 0.439088 0.375000
vt 0.439088 0.312500
vt 0.439088 0.187500
vt 0.439088 0.062500
vt 0.439088 0.125000
vt 0.439088 0.000000
vt 0.500000 0.000000
vt 0.525341 0.250000
vt 0.562500 0.062500
vt 0.562500 0.125000
vt 0.534420 0.125000
vt 0.534420 0.062500
vt 0.534420 0.187500
vt 0.733898 0.728531
vt 0.771469 0.728531
vt 0.750000 0.750000
vt 0.671398 0.521469
vt 0.687500 0.500000
vt 0.708969 0.521469
vt 0.812500 0.750000
vt 0.796398 0.728531
vt 0.833969 0.728531
vt 0.853531 0.646469
vt 0.853531 0.608898
vt 0.875000 0.625000
vt 0.646469 0.603531
vt 0.646469 0.646469
vt 0.603531 0.625000
vt 0.833969 0.708969
vt 0.791031 0.708969
vt 0.791031 0.666031
vt 0.833969 0.666031
vt 0.853531 0.671398
vt 0.875000 0.687500
vt 0.853531 0.708969
vt 0.875000 0.562500
vt 0.853531 0.583969
vt 0.853531 0.546398
vt 0.646469 0.583969
vt 0.603531 0.562500
vt 0.646469 0.541031
vt 0.666031 0.583969
vt 0.666031 0.541031
vt 0.708969 0.541031
vt 0.708969 0.583969
vt 0.853531 0.521469
vt 0.875000 0.500000
vt 0.646469 0.521469
vt 0.608898 0.500000
vt 0.853531 0.728531
vt 0.875000 0.750000
vt 0.771469 0.583969
vt 0.771469 0.603531
vt 0.728531 0.603531
vt 0.728531 0.583969
vt 0.708969 0.603531
vt 0.666031 0.603531
vt 0.833969 0.646469
vt 0.833969 0.603531
vt 0.791031 0.646469
vt 0.771469 0.708969
vt 0.771469 0.666031
vt 0.562500 0.000000
vt 0.603531 0.000000
vt 0.603531 0.062500
vt 0.562500 0.937500
vt 0.603531 0.937500
vt 0.603531 1.000000
vt 0.562500 1.000000
vt 0.603531 0.187500
vt 0.603531 0.250000
vt 0.603531 0.437500
vt 0.603531 0.875000
vt 0.833969 0.583969
vt 0.603531 0.125000
vt 0.562500 0.625000
vt 0.771469 0.646469
vt 0.701581 0.720574
vt 0.720020 0.728531
vt 0.694816 0.734157
vt 0.676603 0.720574
vt 0.684145 0.734157
vt 0.663299 0.734157
vt 0.659975 0.720574
vt 0.646469 0.657359
vt 0.654426 0.673988
vt 0.635216 0.681402
vt 0.635729 0.713087
vt 0.635216 0.693598
vt 0.654426 0.701012
vt 0.655324 0.716926
vt 0.716926 0.701012
vt 0.718585 0.716926
vt 0.701438 0.716926
vt 0.701012 0.701012
vt 0.675745 0.716926
vt 0.659359 0.716926
vt 0.658074 0.701012
vt 0.673988 0.701012
vt 0.658074 0.673988
vt 0.658074 0.657387
vt 0.673988 0.658074
vt 0.673988 0.673988
vt 0.716926 0.673988
vt 0.701012 0.673988
vt 0.701012 0.658074
vt 0.716926 0.658074
vt 0.684028 0.759229
vt 0.688718 0.740255
vt 0.701012 0.654426
vt 0.673988 0.654426
vt 0.658074 0.638512
vt 0.716926 0.638512
vt 0.588550 0.688016
vt 0.623021 0.687500
vt 0.720574 0.701012
vt 0.720575 0.673988
vt 0.736488 0.658074
vt 0.738152 0.716925
vt 0.655710 0.720574
vt 0.636623 0.734157
vt 0.608898 0.750000
vt 0.594315 0.811984
vt 0.728531 0.646469
vt 0.562500 0.687500
vt 0.573215 0.364285
vt 0.562500 0.386121
vt 0.562500 0.364285
vt 0.573215 0.323215
vt 0.562500 0.323215
vt 0.562500 0.301379
vt 0.778188 0.513892
vt 0.783511 0.532184
vt 0.761369 0.532184
vt 0.752409 0.513892
vt 0.741059 0.532184
vt 0.719637 0.521469
vt 0.751064 0.513892
vt 0.603531 0.354300
vt 0.603531 0.375000
vt 0.603531 0.382446
vt 0.592816 0.364285
vt 0.803559 0.532184
vt 0.781417 0.532184
vt 0.787785 0.513892
vt 0.813564 0.513892
vt 0.603531 0.333200
vt 0.592816 0.323215
vt 0.603531 0.305054
vt 0.603531 0.312500
vt 0.823869 0.532184
vt 0.814909 0.513892
vt 0.845160 0.521469
vt 0.761478 0.530316
vt 0.783797 0.530316
vt 0.771469 0.551746
vt 0.803962 0.530316
vt 0.791031 0.551746
vt 0.781643 0.530316
vt 0.559091 0.386106
vt 0.559090 0.301394
vt 0.771154 0.507577
vt 0.751640 0.513123
vt 0.738830 0.500000
vt 0.793240 0.507577
vt 0.814140 0.513123
vt 0.823670 0.500000
vt 0.741462 0.530316
vt 0.716762 0.551746
vt 0.823978 0.530316
vt 0.845141 0.554014
vt 0.500000 0.942914
vt 0.500000 0.943069
vt 0.500000 0.932086
vt 0.495498 0.875000
vt 0.500000 0.869586
vt 0.500000 0.932086
vt 0.500000 1.000000
vt 0.500000 0.994586
vt 0.500000 0.942914
vt 0.500000 0.994586
vt 0.500000 1.000488
vt 0.497949 0.943515
vt 0.497222 0.000000
vt 0.439088 0.875000
vt 0.439088 0.937500
vt 0.439088 1.000000
vt 0.500000 0.712919
vt 0.500000 0.663472
vt 0.524028 0.687500
vt 0.500000 0.663472
vt 0.500000 0.713170
vt 0.473693 0.687500
vt 0.507278 0.600972
vt 0.500000 0.649028
vt 0.500000 0.724199
vt 0.472827 0.750000
vt 0.491836 0.600972
vt 0.500000 0.724440
vt 0.439088 0.687500
vt 0.439088 0.625000
vt 0.508473 0.366527
vt 0.508473 0.383473
vt 0.491527 0.375000
vt 0.532257 0.377276
vt 0.516868 0.383473
vt 0.516868 0.366527
vt 0.508473 0.320973
vt 0.491527 0.304027
vt 0.508473 0.429027
vt 0.491527 0.437500
vt 0.516868 0.320973
vt 0.530514 0.304094
vt 0.516868 0.429027
vt 0.125000 0.741226
vt 0.131581 0.741226
vt 0.131581 0.750000
vt 0.125000 0.750000
vt 0.131581 0.508774
vt 0.125000 0.508774
vt 0.125000 0.500000
vt 0.131581 0.500000
vt 0.366226 0.741226
vt 0.375000 0.741226
vt 0.383775 0.750000
vt 0.366226 0.750000
vt 0.375000 0.508774
vt 0.366226 0.508774
vt 0.380268 0.500000
vt 0.258774 0.508774
vt 0.241226 0.508774
vt 0.241226 0.500000
vt 0.258774 0.500000
vt 0.241226 0.750000
vt 0.241226 0.741226
vt 0.258774 0.741226
vt 0.258774 0.750000
vt 0.321274 0.750000
vt 0.303726 0.750000
vt 0.303726 0.741226
vt 0.321274 0.741226
vt 0.303726 0.508774
vt 0.303726 0.500000
vt 0.312500 0.500000
vt 0.319081 0.508774
vt 0.178726 0.508774
vt 0.178726 0.500000
vt 0.196274 0.500000
vt 0.196274 0.508774
vt 0.196274 0.750000
vt 0.178726 0.750000
vt 0.178726 0.741226
vt 0.196274 0.741226
vt 0.133774 0.750000
vt 0.366226 0.750000
vt 0.383775 0.750000
vt 0.258774 0.750000
vt 0.258774 0.750000
vt 0.241226 0.750000
vt 0.321274 0.750000
vt 0.196274 0.750000
vt 0.256581 0.750000
vt 0.250000 0.750000
vt 0.319081 0.750000
vt 0.312500 0.750000
vt 0.194081 0.750000
vt 0.187500 0.750000
vt 0.125000 0.616225
vt 0.133774 0.616226
vt 0.133774 0.633774
vt 0.125000 0.633774
vt 0.375000 0.633774
vt 0.366226 0.633774
vt 0.366226 0.616226
vt 0.375000 0.616226
vt 0.241226 0.616226
vt 0.258774 0.616226
vt 0.258774 0.633774
vt 0.241226 0.633774
vt 0.321274 0.616226
vt 0.321274 0.633774
vt 0.303726 0.633774
vt 0.303726 0.616226
vt 0.196274 0.616226
vt 0.196274 0.633774
vt 0.178726 0.633774
vt 0.178726 0.616226
vt 0.133774 0.696274
vt 0.125000 0.696274
vt 0.125000 0.678726
vt 0.133774 0.678726
vt 0.241226 0.696274
vt 0.241226 0.678726
vt 0.258774 0.678726
vt 0.258774 0.696274
vt 0.321274 0.696274
vt 0.303726 0.696274
vt 0.303726 0.678726
vt 0.321274 0.678726
vt 0.196274 0.696274
vt 0.178726 0.696274
vt 0.178726 0.678726
vt 0.196274 0.678726
vt 0.375000 0.678726
vt 0.375000 0.696274
vt 0.366226 0.696274
vt 0.366226 0.678726
vt 0.375000 0.553726
vt 0.375000 0.571274
vt 0.366226 0.571275
vt 0.366226 0.553726
vt 0.125000 0.571274
vt 0.125000 0.553726
vt 0.133774 0.553726
vt 0.133774 0.571274
vt 0.258774 0.571274
vt 0.241226 0.571275
vt 0.241226 0.553726
vt 0.258774 0.553726
vt 0.303726 0.571275
vt 0.303726 0.553726
vt 0.321274 0.553726
vt 0.321274 0.571274
vt 0.178726 0.571275
vt 0.178726 0.553726
vt 0.196274 0.553726
vt 0.196274 0.571274
vt 0.375000 0.616226
vt 0.383777 0.625000
vt 0.375000 0.696274
vt 0.375000 0.678726
vt 0.383776 0.687500
vt 0.375000 0.553726
vt 0.383777 0.562500
vt 0.375000 0.571274
vt 0.241226 0.500000
vt 0.258774 0.500000
vt 0.303726 0.500000
vt 0.194081 0.500000
vt 0.187500 0.500000
vt 0.241226 0.500000
vt 0.250000 0.500000
vt 0.256581 0.500000
vt 0.125000 0.633774
vt 0.125000 0.625000
vt 0.125000 0.618419
vt 0.125000 0.680919
vt 0.125000 0.687500
vt 0.125000 0.555919
vt 0.125000 0.571274
vt 0.125000 0.562500
vt 0.509116 0.750192
vt 0.500273 0.756780
vt 0.500217 0.750150
vt 0.491567 0.750191
vt 0.496488 0.750192
vt 0.500247 0.744157
vt 0.503398 0.742086
vt 0.531916 0.428726
vt 0.518478 0.437565
vt 0.524714 0.433462
vt 0.133774 0.500000
vt 0.366226 0.750000
vt 0.381581 0.750000
vt 0.133774 0.750000
vt 0.375000 0.508774
vt 0.383778 0.500000
vt 0.375000 0.741225
vt 0.383776 0.750000
vt 0.303726 0.500000
vt 0.311613 0.500000
vt 0.196274 0.500000
vt 0.188387 0.500000
vt 0.125000 0.741226
vt 0.500000 0.758774
vt 0.508775 0.750000
vt 0.561919 0.428737
vt 0.383775 0.000000
vt 0.383776 0.000000
vt 0.383775 0.000000
vt 0.383780 0.250000
vt 0.383781 0.250000
vt 0.383778 0.250000
vt 0.383781 0.437500
vt 0.383783 0.437500
vt 0.383775 0.812500
vt 0.383775 0.000000
vt 0.383775 0.937500
vt 0.383775 1.000000
vt 0.383775 0.875000
vt 0.383783 0.312500
vt 0.385425 0.437500
vt 0.385425 0.312500
vt 0.384973 0.375000
vt 0.383776 0.062500
vt 0.383777 0.187500
vt 0.383777 0.125000
vt 0.778214 0.596786
vt 0.778214 0.610276
vt 0.764724 0.610276
vt 0.778214 0.639724
vt 0.764724 0.639724
vt 0.827224 0.596786
vt 0.833969 0.603531
vt 0.827224 0.610276
vt 0.797776 0.639724
vt 0.791031 0.646469
vt 0.784286 0.639724
vt 0.797776 0.596786
vt 0.797776 0.610276
vt 0.784286 0.610276
vt 0.784286 0.596786
vt 0.778214 0.577224
vt 0.778214 0.590714
vt 0.797776 0.577310
vt 0.797776 0.590714
vt 0.784286 0.590714
vt 0.784286 0.577224
vt 0.829169 0.577572
vt 0.833969 0.583969
vt 0.827224 0.590714
vt 0.797776 0.558695
vt 0.784286 0.558491
vt 0.728531 0.646469
vt 0.735276 0.610276
vt 0.735276 0.639724
vt 0.827224 0.639724
vt 0.835664 0.560039
vt 0.778214 0.558491
s 0
f 17/1/1 11/2/1 23/2/1 24/1/1
f 16/3/2 14/4/2 2/5/2 8/6/2
f 14/4/3 15/7/3 5/8/3 2/5/3
f 44/9/4 45/10/4 4/11/4 1/12/4
f 44/9/5 1/12/5 65/12/5 72/9/5
f 7/13/6 1/12/6 56/12/6 57/13/6
f 21/14/7 20/15/7 25/15/7 26/14/7
f 20/15/8 24/1/8 29/1/8 25/15/8
f 26/14/9 25/15/9 29/1/9 30/16/9
f 35/1/10 36/17/10 34/18/10 33/2/10
f 6/19/11 18/17/11 36/17/11 32/19/11
f 18/17/12 12/18/12 34/18/12 36/17/12
f 11/2/13 17/1/13 35/1/13 33/2/13
f 12/18/14 11/2/14 33/2/14 34/18/14
f 42/20/15 37/21/15 68/21/15 70/20/15
f 37/21/15 44/9/15 72/9/15 68/21/15
f 2/5/16 47/22/16 54/22/16 49/5/16
f 8/6/17 2/5/17 49/5/17 50/6/17
f 2/5/18 5/8/18 48/23/18 47/22/18
f 1/12/19 7/13/19 66/13/19 65/12/19
f 44/9/20 37/21/20 46/21/20 74/9/20
f 50/6/21 49/5/21 54/22/21 55/24/21
f 58/25/22 59/3/22 62/3/22 61/25/22
f 60/26/23 58/25/23 61/25/23 63/26/23
f 73/27/24 72/9/24 65/12/24 66/13/24
f 71/28/25 70/20/25 68/21/25 69/29/25
f 67/30/26 64/31/26 70/20/26 71/28/26
f 69/29/25 68/21/25 72/9/25 73/27/25
f 37/21/20 42/20/20 40/20/20 46/21/20
f 1/12/27 4/11/27 75/11/27 76/32/27 56/12/27
f 79/33/28 77/34/28 78/35/28 80/36/28
f 77/34/28 82/10/28 81/37/28 78/35/28
f 40/20/29 80/36/29 78/35/29 46/21/29
f 46/21/29 78/35/29 81/37/29 74/9/29
f 39/34/30 45/10/30 82/10/30 77/34/30
f 43/33/30 39/34/30 77/34/30 79/33/30
f 42/20/31 43/33/31 79/33/31 80/36/31 40/20/31
f 45/10/32 44/9/32 74/9/32 81/37/32 82/10/32
f 90/38/33 91/39/33 92/40/33
f 93/41/34 94/42/34 95/43/34
f 96/44/33 97/45/33 98/46/33
f 99/47/35 100/48/35 101/49/35
f 102/50/36 103/51/36 104/52/36
f 116/53/30 117/54/30 118/55/30 119/56/30
f 120/57/37 121/58/37 122/59/37
f 123/60/38 124/61/38 125/62/38
f 126/63/39 127/64/39 128/65/39
f 131/66/30 132/67/30 133/68/30 134/69/30
f 125/62/40 85/70/40 86/71/40 123/60/40
f 93/41/41 88/72/41 89/73/41 94/42/41
f 98/46/42 83/74/42 84/75/42 96/44/42
f 91/39/33 97/45/33 96/44/33 92/40/33
f 116/53/30 98/46/30 97/45/30 117/54/30
f 120/57/43 99/47/43 101/49/43 121/58/43
f 126/63/44 102/50/44 104/52/44 127/64/44
f 129/76/30 106/77/30 105/78/30 130/79/30
f 134/69/30 109/80/30 110/81/30 131/66/30
f 99/47/45 112/82/45 111/83/45 100/48/45
f 112/82/30 119/56/30 118/55/30 113/84/30
f 83/74/46 122/59/46 121/58/46 84/75/46
f 117/54/30 115/85/30 114/86/30 118/55/30
f 122/59/47 116/53/47 119/56/47 120/57/47
f 100/48/48 124/61/48 123/60/48 101/49/48
f 88/72/49 128/65/49 127/64/49 89/73/49
f 95/43/50 133/68/50 132/67/50 93/41/50
f 131/66/51 126/63/51 128/65/51 132/67/51
f 3/87/52 84/88/52 121/89/52 43/33/52
f 19/90/53 96/91/53 84/92/53 3/93/53
f 116/53/54 122/59/54 83/74/54 98/46/54
f 45/10/55 123/94/55 86/95/55 4/11/55
f 88/72/56 93/41/56 132/67/56 128/65/56
f 15/7/57 94/96/57 89/73/57 5/8/57
f 5/8/58 89/73/58 127/64/58 48/23/58
f 12/18/59 92/97/59 96/91/59 19/90/59
f 115/85/30 117/54/30 97/45/30 91/39/30
f 112/82/45 99/47/45 120/57/45 119/56/45
f 135/98/60 124/61/60 100/48/60 111/83/60
f 43/33/61 121/89/61 101/99/61 39/34/61
f 39/34/62 101/99/62 123/94/62 45/10/62
f 48/23/63 127/64/63 104/52/63 38/100/63
f 126/63/30 131/66/30 110/81/30 102/50/30
f 134/69/30 130/79/30 105/78/30 109/80/30
f 107/101/30 113/84/30 118/55/30 114/86/30
f 138/102/64 139/103/64 140/104/64
f 143/105/65 144/106/65 145/107/65 146/108/65
f 153/109/66 154/110/66 155/111/66
f 156/112/67 157/113/67 158/114/67 159/115/67
f 164/116/30 165/117/30 166/118/30 167/119/30
f 168/120/30 169/121/30 170/122/30 171/123/30
f 172/124/30 173/125/30 174/126/30 175/127/30
f 176/128/30 177/129/30 178/130/30 179/131/30
f 143/105/65 138/102/65 140/104/65 144/106/65
f 139/103/33 141/132/33 142/133/33 140/104/33
f 141/132/33 145/107/33 144/106/33 142/133/33
f 147/134/30 149/135/30 150/136/30 148/137/30
f 156/112/36 151/138/36 152/139/36 157/113/36
f 151/138/36 153/109/36 155/111/36 152/139/36
f 154/110/67 158/114/67 157/113/67 155/111/67
f 160/140/30 162/141/30 163/142/30 161/143/30
f 176/128/30 164/116/30 167/119/30 177/129/30
f 166/118/30 168/120/30 171/123/30 167/119/30
f 170/122/30 172/124/30 175/127/30 171/123/30
f 174/126/30 178/130/30 177/129/30 175/127/30
f 159/115/67 136/144/67 137/145/67 156/112/67
f 136/144/65 146/108/65 145/107/65 137/145/65
f 165/117/30 139/103/30 138/102/30 166/118/30
f 146/108/30 169/121/30 168/120/30 143/105/30
f 148/137/30 179/131/30 178/130/30 147/134/30
f 173/125/30 150/136/30 149/135/30 174/126/30
f 169/121/30 159/115/30 158/114/30 170/122/30
f 153/109/30 173/125/30 172/124/30 154/110/30
f 161/143/30 165/117/30 164/116/30 160/140/30
f 179/131/30 163/142/30 162/141/30 176/128/30
f 159/115/30 169/121/30 146/108/30 136/144/30
f 156/112/68 137/145/68 87/146/68 151/138/68
f 137/145/69 145/107/69 141/132/69 87/146/69
f 166/118/30 138/102/30 143/105/30 168/120/30
f 140/104/33 142/133/33 144/106/33
f 139/103/33 90/38/33 92/40/33 141/132/33
f 165/117/30 161/143/30 90/38/30 139/103/30
f 18/17/70 141/147/70 92/97/70 12/18/70
f 6/19/71 87/146/71 141/147/71 18/17/71
f 108/148/30 148/137/30 109/80/30 105/78/30
f 109/80/30 148/137/30 150/136/30 110/81/30
f 148/137/30 108/148/30 163/142/30 179/131/30
f 147/134/30 178/130/30 174/126/30 149/135/30
f 150/136/30 103/51/30 102/50/30 110/81/30
f 103/51/30 150/136/30 173/125/30 153/109/30
f 152/139/36 155/111/36 157/113/36
f 41/149/72 151/138/72 87/146/72 6/19/72
f 103/51/36 153/109/36 151/138/36 104/52/36
f 38/100/73 104/52/73 151/138/73 41/149/73
f 170/122/30 158/114/30 154/110/30 172/124/30
f 115/85/30 91/39/30 90/38/30 161/143/30
f 161/143/30 163/142/30 114/86/30 115/85/30
f 160/140/30 164/116/30 176/128/30 162/141/30
f 107/101/30 114/86/30 163/142/30 108/148/30
f 167/119/30 171/123/30 175/127/30 177/129/30
f 180/150/74 181/151/74 182/152/74
f 183/153/75 184/154/75 185/155/75
f 190/156/76 191/157/76 192/158/76 193/159/76
f 194/160/77 195/161/77 196/162/77
f 197/163/78 198/164/78 199/165/78 200/166/78
f 201/167/76 202/168/76 203/169/76 204/170/76
f 205/171/79 206/172/79 207/173/79 208/174/79
f 209/175/80 210/176/80 211/177/80
f 214/178/30 215/179/30 216/180/30
f 217/181/30 218/182/30 219/183/30
f 183/153/81 180/150/81 182/152/81 184/154/81
f 188/154/82 186/152/82 187/184/82 189/185/82
f 184/154/83 188/154/83 189/185/83 185/155/83
f 186/152/84 182/152/84 181/151/84 187/184/84
f 197/186/81 190/156/81 193/159/81 198/187/81
f 192/158/76 194/160/76 196/162/76 193/159/76
f 195/161/81 199/188/81 198/187/81 196/162/81
f 209/175/76 201/167/76 204/170/76 210/176/76
f 203/169/81 205/189/81 208/190/81 204/170/81
f 207/191/81 211/177/81 210/176/81 208/190/81
f 212/192/30 214/178/30 216/180/30 213/193/30
f 217/181/30 220/194/30 221/195/30 218/182/30
f 202/168/76 191/157/76 190/156/76 203/169/76
f 200/166/85 206/172/85 205/171/85 197/163/85
f 191/157/20 215/179/20 214/178/20 192/158/20
f 213/193/30 195/161/30 194/160/30 212/192/30
f 211/177/30 221/195/30 220/194/30 209/175/30
f 219/183/20 202/168/20 201/167/20 217/181/20
f 215/179/30 219/183/30 218/182/30 216/180/30
f 206/172/32 183/153/32 185/155/32 207/173/32
f 199/165/32 181/151/32 180/150/32 200/166/32
f 183/153/32 206/172/32 200/166/32 180/150/32
f 184/154/20 182/152/20 186/152/20 188/154/20
f 181/151/86 199/165/86 94/96/86 15/7/86
f 4/11/87 86/95/87 207/173/87 185/155/87
f 4/11/88 185/155/88 189/185/88 75/11/88
f 203/169/81 190/156/81 197/186/81 205/189/81
f 193/159/81 196/162/81 198/187/81
f 191/157/30 202/168/30 219/183/30 215/179/30
f 192/158/20 214/178/20 212/192/20 194/160/20
f 195/161/89 95/43/89 94/42/89 199/188/89
f 95/43/30 195/161/30 213/193/30 133/68/30
f 209/175/20 220/194/20 217/181/20 201/167/20
f 204/170/81 208/190/81 210/176/81
f 85/70/90 211/177/90 207/191/90 86/71/90
f 211/177/91 85/70/91 125/62/91 221/195/91
f 130/79/30 134/69/30 133/68/30 213/193/30
f 129/76/30 130/79/30 213/193/30 216/180/30
f 124/61/92 135/98/92 221/195/92 125/62/92
f 228/196/93 229/197/93 230/198/93
f 231/2/94 232/199/94 233/200/94
f 225/201/95 223/202/95 222/203/95 224/204/95
f 230/198/30 225/201/30 224/204/30 228/196/30
f 226/205/96 222/203/96 223/202/96 227/206/96
f 228/196/97 226/205/97 227/206/97 229/197/97
f 234/201/98 230/198/98 229/197/98 235/207/98
f 231/2/99 234/201/99 235/207/99 232/199/99
f 10/30/100 223/31/100 64/31/100 67/30/100
f 224/204/101 222/203/101 226/205/101 228/196/101
f 223/31/102 42/20/102 70/20/102 64/31/102
f 223/31/103 10/30/103 22/30/103 227/208/103
f 225/201/104 19/90/104 3/93/104 223/202/104
f 223/31/105 3/87/105 43/33/105 42/20/105
f 11/2/106 225/201/106 230/198/106 23/2/106
f 11/2/107 12/18/107 19/90/107 225/201/107
f 227/208/108 22/30/108 27/30/108 13/31/108
f 229/197/109 227/206/109 13/202/109 235/207/109
f 23/2/110 230/198/110 234/201/110 231/2/110
f 24/1/111 23/2/111 231/2/111 233/200/111 29/1/111
f 30/16/112 29/1/112 233/200/112 232/199/112 28/209/112
f 28/209/113 232/199/113 235/207/113 31/210/113
f 31/210/114 235/207/114 13/202/114 27/211/114
f 239/212/115 240/213/115 241/214/115
f 246/215/116 247/216/116 248/217/116
f 239/212/117 247/216/117 246/215/117 240/213/117
f 238/218/118 241/214/118 240/213/118 237/219/118
f 247/216/119 243/220/119 242/221/119 248/217/119
f 244/219/120 246/215/120 248/217/120 245/222/120
f 245/222/121 238/218/121 237/219/121 244/219/121
f 239/212/122 236/223/122 243/220/122 247/216/122
f 47/22/123 238/218/123 245/222/123 54/22/123
f 47/22/124 48/23/124 38/100/124 238/218/124
f 238/218/125 38/100/125 41/149/125 241/214/125
f 237/219/126 240/213/126 246/215/126 244/219/126
f 53/224/127 248/217/127 242/221/127 51/14/127
f 55/24/128 54/22/128 245/222/128 52/225/128
f 52/225/129 245/222/129 248/217/129 53/224/129
f 249/226/32 250/227/32 251/228/32
f 256/229/130 257/230/130 258/231/130
f 254/232/32 249/226/32 251/228/32 255/233/32
f 250/227/131 252/234/131 253/235/131 251/228/131
f 258/231/132 260/236/132 261/237/132 256/229/132
f 260/236/133 254/232/133 255/233/133 261/237/133
f 257/230/32 250/227/32 249/226/32 258/231/32
f 254/232/32 260/236/32 258/231/32 249/226/32
f 60/26/32 255/233/32 251/228/32 58/25/32
f 58/25/134 251/228/134 253/235/134 59/3/134
f 250/227/135 257/230/135 259/238/135 252/234/135
f 14/4/136 16/3/136 59/3/136 253/235/136
f 56/12/137 76/32/137 261/237/137 255/233/137
f 57/13/138 56/12/138 255/233/138 60/26/138
f 189/185/139 187/184/139 256/229/139 261/237/139
f 75/11/140 189/185/140 261/237/140 76/32/140
f 262/239/141 263/240/141 264/241/141 265/242/141
f 266/243/142 267/244/142 268/245/142 269/246/142
f 270/247/143 271/248/143 272/249/143 273/250/143
f 274/251/144 275/252/144 276/253/144
f 277/254/20 278/255/20 279/256/20 280/257/20
f 281/258/20 282/259/20 283/260/20 284/261/20
f 285/262/20 286/263/20 287/264/20 288/265/20
f 289/266/145 290/267/145 291/268/145 292/269/145
f 295/270/20 296/271/20 297/272/20 298/273/20
f 301/274/20 302/275/20 303/276/20 304/277/20
f 305/278/146 306/278/146 307/242/146
f 308/279/147 309/280/147 310/250/147
f 311/281/20 312/282/20 313/283/20 314/258/20
f 315/284/20 316/284/20 317/263/20 318/263/20
f 319/275/20 320/285/20 321/285/20 322/275/20
f 323/286/148 324/287/148 325/258/148
f 326/263/148 327/288/148 328/289/148
f 329/275/148 330/290/148 331/291/148
f 334/292/20 335/293/20 336/294/20 337/295/20
f 338/296/20 339/297/20 340/298/20 341/299/20
f 342/300/20 343/301/20 344/302/20 345/303/20
f 346/304/20 347/305/20 348/306/20 349/307/20
f 350/308/20 351/309/20 352/310/20 353/311/20
f 354/312/20 355/313/20 356/314/20 357/315/20
f 358/316/20 359/317/20 360/318/20 361/319/20
f 362/320/20 363/321/20 364/322/20 365/323/20
f 366/324/20 367/325/20 368/326/20 369/327/20
f 370/328/20 371/329/20 372/330/20 373/331/20
f 374/332/20 375/333/20 376/334/20 377/335/20
f 378/336/20 379/337/20 380/338/20 381/339/20
f 382/340/20 383/341/20 384/342/20 385/343/20
f 386/344/20 387/345/20 388/346/20 389/347/20
f 390/348/20 391/349/20 392/350/20 393/351/20
f 398/352/149 399/353/149 400/296/149
f 401/354/149 402/355/149 403/356/149
f 404/357/149 405/358/149 406/359/149
f 409/256/20 410/360/20 411/361/20 412/257/20
f 413/362/150 414/362/150 415/268/150
f 416/363/151 417/271/151 418/364/151 419/363/151
f 420/365/152 421/366/152 422/367/152
f 431/368/153 432/369/153 433/370/153
f 434/371/153 435/313/153 436/372/153
f 437/373/153 438/374/153 439/375/153
f 442/376/154 443/377/154 444/378/154 445/379/154 446/380/154 447/381/154 448/382/154
f 449/383/155 450/384/155 451/385/155
f 354/312/156 263/240/156 262/239/156 355/313/156
f 295/270/20 266/243/20 269/246/20 296/271/20
f 377/335/20 275/252/20 274/251/20 374/332/20
f 288/265/157 270/247/157 273/250/157 285/262/157
f 289/266/20 277/254/20 280/257/20 290/267/20
f 304/277/20 282/259/20 281/258/20 301/274/20
f 412/257/20 280/257/20 279/256/20 409/256/20
f 308/279/158 273/250/158 272/249/158 309/280/158
f 416/363/20 297/272/20 296/271/20 417/271/20
f 361/319/20 283/260/20 282/259/20 358/316/20
f 283/260/20 287/264/20 286/263/20 284/261/20
f 290/267/159 413/362/159 415/268/159 291/268/159
f 407/386/160 269/246/160 268/245/160 408/245/160
f 275/252/161 292/269/161 291/268/161 276/253/161
f 284/261/20 311/281/20 314/258/20 281/258/20
f 362/320/20 288/265/20 287/264/20 363/321/20
f 278/255/20 298/273/20 297/272/20 279/256/20
f 263/240/162 303/276/162 302/275/162 264/241/162
f 366/324/20 304/277/20 303/276/20 367/325/20
f 307/242/163 265/242/163 264/241/163 305/278/163
f 301/274/20 320/285/20 319/275/20 302/275/20
f 315/284/164 308/279/164 310/250/164 316/284/164
f 326/263/20 317/263/20 316/284/20 327/288/20
f 320/285/20 314/258/20 313/283/20 321/285/20
f 329/275/20 322/275/20 321/285/20 330/290/20
f 312/282/20 323/286/20 325/258/20 313/283/20
f 293/387/165 310/250/165 309/280/165 294/388/165
f 311/281/20 318/263/20 317/263/20 312/282/20
f 305/278/166 319/275/166 322/275/166 306/278/166
f 285/262/20 315/284/20 318/263/20 286/263/20
f 327/288/167 293/387/167 294/388/167 328/289/167
f 330/290/148 325/258/148 324/287/148 331/291/148
f 323/286/148 326/263/148 328/289/148 324/287/148
f 299/389/168 329/275/168 331/291/168 300/242/168
f 306/278/169 299/389/169 300/242/169 307/242/169
f 381/339/20 335/293/20 334/292/20 378/336/20
f 373/331/20 339/297/20 338/296/20 370/328/20
f 382/340/20 343/301/20 342/300/20 383/341/20
f 389/347/20 346/304/20 349/307/20 386/344/20
f 393/351/20 350/308/20 353/311/20 390/348/20
f 352/310/20 336/294/20 335/293/20 353/311/20
f 348/306/20 344/302/20 343/301/20 349/307/20
f 345/303/20 351/309/20 350/308/20 342/300/20
f 396/390/170 274/251/170 276/253/170 397/391/170
f 433/370/20 334/292/20 337/295/20 431/368/20
f 355/313/20 435/313/20 434/371/20 356/314/20
f 339/297/20 347/305/20 346/304/20 340/298/20
f 336/294/20 357/315/20 356/314/20 337/295/20
f 344/302/20 360/318/20 359/317/20 345/303/20
f 347/305/20 365/323/20 364/322/20 348/306/20
f 351/309/20 369/327/20 368/326/20 352/310/20
f 270/247/171 372/330/171 371/329/171 271/248/171
f 367/325/20 354/312/20 357/315/20 368/326/20
f 363/321/20 361/319/20 360/318/20 364/322/20
f 358/316/20 366/324/20 369/327/20 359/317/20
f 271/248/172 394/392/172 395/393/172 272/249/172
f 372/330/20 362/320/20 365/323/20 373/331/20
f 340/298/20 376/334/20 375/333/20 341/299/20
f 266/243/20 380/338/20 379/337/20 267/244/20
f 277/254/20 385/343/20 384/342/20 278/255/20
f 292/269/20 388/346/20 387/345/20 289/266/20
f 298/273/20 392/350/20 391/349/20 295/270/20
f 376/334/20 389/347/20 388/346/20 377/335/20
f 401/354/20 371/329/20 370/328/20 402/355/20
f 341/299/20 398/352/20 400/296/20 338/296/20
f 383/341/20 393/351/20 392/350/20 384/342/20
f 386/344/20 382/340/20 385/343/20 387/345/20
f 390/348/20 381/339/20 380/338/20 391/349/20
f 430/245/173 268/245/173 267/244/173 429/244/173
f 378/336/20 438/374/20 437/373/20 379/337/20
f 404/357/149 396/390/149 397/391/149 405/358/149
f 402/355/149 400/296/149 399/353/149 403/356/149
f 394/392/174 401/354/174 403/356/174 395/393/174
f 398/352/149 406/359/149 405/358/149 399/353/149
f 374/332/20 404/357/20 406/359/20 375/333/20
f 417/271/175 407/386/175 408/245/175 418/364/175
f 413/362/20 412/257/20 411/361/20 414/362/20
f 410/360/20 420/365/20 422/367/20 411/361/20
f 409/256/20 416/363/20 419/363/20 410/360/20
f 423/394/176 422/367/176 421/366/176 424/395/176
f 420/365/177 425/396/177 426/397/177 421/366/177
f 424/395/178 415/268/178 414/362/178 423/394/178
f 425/396/179 419/363/179 418/364/179 426/397/179
f 435/313/180 427/398/180 428/242/180 436/372/180
f 438/374/153 433/370/153 432/369/153 439/375/153
f 431/368/153 434/371/153 436/372/153 432/369/153
f 429/244/153 437/373/153 439/375/153 430/245/153
f 265/242/181 428/242/181 427/398/181 262/239/181
f 332/399/182 443/377/182 442/376/182 333/400/182
f 449/383/183 441/401/183 440/7/183 450/384/183
f 355/313/184 262/239/184 427/398/184 435/313/184
f 354/312/20 367/325/20 303/276/20 263/240/20
f 265/402/185 10/30/185 67/30/185 428/403/185
f 264/241/166 302/275/166 319/275/166 305/278/166
f 10/30/186 265/402/186 307/404/186 22/30/186
f 268/405/187 7/13/187 57/13/187 408/406/187
f 266/243/20 295/270/20 391/349/20 380/338/20
f 296/271/20 269/246/20 407/386/20 417/271/20
f 267/244/20 379/337/20 437/373/20 429/244/20
f 7/13/188 268/405/188 430/407/188 66/13/188
f 9/14/189 272/249/189 395/393/189 51/14/189
f 272/249/190 9/14/190 21/14/190 309/280/190
f 362/320/20 372/330/20 270/247/20 288/265/20
f 285/262/164 273/250/164 308/279/164 315/284/164
f 271/248/191 371/329/191 401/354/191 394/392/191
f 276/253/192 8/6/192 50/6/192 397/391/192
f 292/269/20 275/252/20 377/335/20 388/346/20
f 291/408/193 16/3/193 8/6/193 276/253/193
f 374/332/20 274/251/20 396/390/20 404/357/20
f 290/267/20 280/257/20 412/257/20 413/362/20
f 279/256/20 297/272/20 416/363/20 409/256/20
f 298/273/20 278/255/20 384/342/20 392/350/20
f 277/254/20 289/266/20 387/345/20 385/343/20
f 301/274/20 281/258/20 314/258/20 320/285/20
f 366/324/20 358/316/20 282/259/20 304/277/20
f 361/319/20 363/321/20 287/264/20 283/260/20
f 284/261/20 286/263/20 318/263/20 311/281/20
f 16/3/194 291/408/194 415/409/194 59/3/194
f 309/280/195 21/14/195 26/14/195 294/388/195
f 294/388/196 26/14/196 30/16/196 328/410/196
f 316/284/197 310/250/197 293/387/197 327/288/197
f 22/30/198 307/404/198 300/411/198 27/30/198
f 331/412/199 31/210/199 27/211/199 300/413/199
f 306/278/200 322/275/200 329/275/200 299/389/200
f 321/285/20 313/283/20 325/258/20 330/290/20
f 312/282/20 317/263/20 326/263/20 323/286/20
f 324/414/31 28/209/31 31/210/31 331/412/31
f 328/410/31 30/16/31 28/209/31 324/414/31
f 442/376/201 6/19/201 32/19/201 333/400/201
f 332/399/202 333/400/202 32/19/202 36/17/202 35/1/202
f 17/1/203 443/377/203 332/399/203 35/1/203
f 378/336/20 334/292/20 433/370/20 438/374/20
f 337/295/20 356/314/20 434/371/20 431/368/20
f 381/339/20 390/348/20 353/311/20 335/293/20
f 336/294/20 352/310/20 368/326/20 357/315/20
f 370/328/20 338/296/20 400/296/20 402/355/20
f 347/305/20 339/297/20 373/331/20 365/323/20
f 389/347/20 376/334/20 340/298/20 346/304/20
f 341/299/20 375/333/20 406/359/20 398/352/20
f 393/351/20 383/341/20 342/300/20 350/308/20
f 351/309/20 345/303/20 359/317/20 369/327/20
f 382/340/20 386/344/20 349/307/20 343/301/20
f 344/302/20 348/306/20 364/322/20 360/318/20
f 403/356/204 53/224/204 51/14/204 395/393/204
f 397/391/205 50/6/205 55/24/205 405/358/205
f 399/353/205 52/225/205 53/224/205 403/356/205
f 405/358/205 55/24/205 52/225/205 399/353/205
f 408/406/206 57/13/206 60/26/206 418/415/206
f 414/362/20 411/361/20 422/367/20 423/394/20
f 410/360/20 419/363/20 425/396/20 420/365/20
f 59/3/207 415/409/207 424/416/207 62/3/207
f 418/415/208 60/26/208 63/26/208 426/417/208
f 421/418/209 61/25/209 62/3/209 424/416/209
f 426/417/210 63/26/210 61/25/210 421/418/210
f 428/403/211 67/30/211 71/28/211 436/419/211
f 439/420/29 73/27/29 66/13/29 430/407/29
f 432/421/29 69/29/29 73/27/29 439/420/29
f 436/419/29 71/28/29 69/29/29 432/421/29
f 15/7/212 14/4/212 253/235/212 450/384/212 440/7/212
f 181/151/213 15/7/213 440/7/213 441/401/213 187/184/213
f 187/184/214 441/401/214 449/383/214 256/229/214
f 241/214/215 41/149/215 6/19/215 442/376/215 448/382/215
f 241/214/216 448/382/216 447/381/216 236/223/216 239/212/216
f 243/220/217 236/223/217 447/381/217 446/380/217 242/221/217
f 446/380/218 445/379/218 9/14/218 51/14/218 242/221/218
f 9/14/219 445/379/219 444/378/219 20/15/219 21/14/219
f 444/378/220 443/377/220 17/1/220 24/1/220 20/15/220
f 451/385/221 450/384/221 253/235/221 252/234/221 259/238/221
f 259/238/222 257/230/222 256/229/222 449/383/222 451/385/222
f 454/77/223 455/422/223 456/423/223 457/424/223
f 458/425/224 459/101/224 460/426/224
f 463/427/225 464/428/225 465/429/225
f 468/430/224 469/431/224 470/432/224
f 471/433/30 472/434/30 473/435/30 474/436/30
f 475/76/226 476/437/226 477/438/226
f 478/439/30 479/440/30 480/441/30 481/442/30
f 482/443/227 483/444/227 484/445/227
f 487/446/228 488/447/228 489/182/228
f 462/448/229 452/78/229 453/449/229 461/450/229
f 452/78/230 454/77/230 457/424/230 453/449/230
f 456/423/231 458/425/231 460/426/231 457/424/231
f 459/101/232 462/448/232 461/450/232 460/426/232
f 471/433/233 463/427/233 465/429/233 472/434/233
f 464/428/234 467/82/234 466/451/234 465/429/234
f 467/82/235 469/431/235 468/430/235 466/451/235
f 470/432/236 473/435/236 472/434/236 468/430/236
f 484/445/237 479/440/237 478/439/237 482/443/237
f 477/438/238 455/422/238 454/77/238 475/76/238
f 483/444/239 464/428/239 463/427/239 484/445/239
f 474/436/30 480/441/30 479/440/30 471/433/30
f 469/431/224 459/101/224 458/425/224 470/432/224
f 455/422/240 474/436/240 473/435/240 456/423/240
f 480/441/241 477/438/241 476/437/241 481/442/241
f 490/452/242 487/446/242 489/182/242 491/195/242
f 488/447/243 485/453/243 486/180/243 489/182/243
f 485/453/244 476/437/244 475/76/244 486/180/244
f 487/446/245 478/439/245 481/442/245 488/447/245
f 491/195/246 483/444/246 482/443/246 490/452/246
f 108/148/247 105/78/247 452/78/247 462/448/247
f 453/449/248 457/424/248 460/426/248 461/450/248
f 105/78/249 106/77/249 454/77/249 452/78/249
f 477/438/241 480/441/241 474/436/241 455/422/241
f 470/432/236 458/425/236 456/423/236 473/435/236
f 106/77/250 129/76/250 475/76/250 454/77/250
f 113/84/251 107/101/251 459/101/251 469/431/251
f 107/101/252 108/148/252 462/448/252 459/101/252
f 135/98/253 111/83/253 464/428/253 483/444/253
f 111/83/254 112/82/254 467/82/254 464/428/254
f 484/445/255 463/427/255 471/433/255 479/440/255
f 465/429/256 466/451/256 468/430/256 472/434/256
f 112/82/257 113/84/257 469/431/257 467/82/257
f 481/442/258 476/437/258 485/453/258 488/447/258
f 129/76/259 216/180/259 486/180/259 475/76/259
f 478/439/260 487/446/260 490/452/260 482/443/260
f 221/195/261 135/98/261 483/444/261 491/195/261
f 216/180/262 218/182/262 489/182/262 486/180/262
f 218/182/263 221/195/263 491/195/263 489/182/263
