# Blender 5.0.1
# www.blender.org
mtllib Forestopenninghouse.mtl.mtl
o Cube
v 1.000000 1.000000 -1.000000
v 1.000000 -1.000000 -1.000000
v 1.000000 1.000000 1.000000
v 1.000000 -1.000000 1.000000
v -1.000000 1.000000 -1.000000
v -1.000000 -1.000000 -1.000000
v -1.000000 1.000000 1.000000
v -1.000000 -1.000000 1.000000
v 1.000000 1.000000 7.723441
v 1.000000 -1.000000 7.723441
v -1.000000 1.000000 7.723441
v -1.000000 -1.000000 7.723441
v 1.000000 6.033567 -1.000000
v 1.000000 6.033567 1.000000
v -1.000000 6.033567 -1.000000
v -1.000000 6.033567 1.000000
v 1.000000 6.033567 7.723441
v -1.000000 6.033567 7.723441
v 1.000000 1.000000 10.174012
v 1.000000 -1.000000 10.174012
v -1.000000 1.000000 10.174012
v -1.000000 -1.000000 10.174012
v 1.000000 6.033567 10.174012
v -1.000000 6.033567 10.174012
v 1.000000 12.885340 -1.000000
v 1.000000 12.885340 1.000000
v -1.000000 12.885340 -1.000000
v -1.000000 12.885340 1.000000
v 1.000000 12.885340 7.723441
v -1.000000 12.885340 7.723441
v 1.000000 12.885340 10.174012
v -1.000000 12.885340 10.174012
v 1.000000 14.480124 -1.000000
v 1.000000 14.480124 1.000000
v -1.000000 14.480124 -1.000000
v -1.000000 14.480124 1.000000
v 1.000000 14.480124 7.723441
v -1.000000 14.480124 7.723441
v 1.000000 14.480124 10.174012
v -1.000000 14.480124 10.174012
v -23.695528 1.000000 7.723441
v -23.695528 -1.000000 7.723441
v -23.695528 6.033567 7.723441
v -23.695528 1.000000 10.174012
v -23.695528 -1.000000 10.174012
v -23.695528 6.033567 10.174012
v -23.695528 12.885340 -1.000000
v -23.695528 12.885340 1.000000
v -23.695528 12.885340 7.723441
v -23.695528 12.885340 10.174012
v -23.695528 14.480124 -1.000000
v -23.695528 14.480124 1.000000
v -23.695528 14.480124 7.723441
v -23.695528 14.480124 10.174012
v -25.852095 1.000000 7.723441
v -25.852095 -1.000000 7.723441
v -25.852095 6.033567 7.723441
v -25.852095 1.000000 10.174012
v -25.852095 -1.000000 10.174012
v -25.852095 6.033567 10.174012
v -25.852095 12.885340 -1.000000
v -25.852095 12.885340 1.000000
v -25.852095 12.885340 7.723441
v -25.852095 12.885340 10.174012
v -25.852095 14.480124 -1.000000
v -25.852095 14.480124 1.000000
v -25.852095 14.480124 7.723441
v -25.852095 14.480124 10.174012
v -23.695528 -1.000000 4.114103
v -23.695528 6.033567 4.114103
v -23.695528 12.885340 4.114103
v -25.852095 -1.000000 4.114103
v -25.852095 6.033567 4.114103
v -25.852095 12.885340 4.114103
v -1.000000 9.459454 10.174012
v 1.000000 9.459454 10.174012
v 1.000000 9.459454 1.000000
v 1.000000 9.459454 7.723441
v -1.000000 9.459454 1.000000
v -1.000000 9.459454 -1.000000
v -1.000000 9.459454 7.723441
v 1.000000 9.459454 -1.000000
v -23.695528 9.459454 10.174012
v -23.695528 9.459454 7.723441
v -25.852095 9.459454 10.174012
v -25.852095 9.459454 7.723441
v -23.695528 -1.000000 3.246155
v 1.000000 11.172397 10.174012
v 1.000000 11.172397 1.000000
v -1.000000 11.172397 1.000000
v -1.000000 11.172397 10.174012
v 1.000000 11.172397 7.723441
v -1.000000 11.172397 -1.000000
v -1.000000 11.172397 7.723441
v 1.000000 11.172397 -1.000000
v -23.695528 11.172397 10.174012
v -23.695528 11.172397 7.723441
v -25.852095 11.172397 10.174012
v -25.852095 11.172397 7.723441
v -23.695528 12.885340 -0.036466
v -25.852095 12.885340 -0.036466
v -23.695528 9.459454 -0.036466
v -25.852095 9.459454 -0.036466
v -23.695528 11.172397 -0.036466
v -25.852095 11.172397 -0.036466
v -23.695528 6.143744 4.114103
v -23.695528 9.459454 0.798393
v -23.695528 11.172371 4.114103
v -23.695528 9.459454 7.429813
v -25.852095 9.459454 0.798393
v -25.852095 6.143744 4.114103
v -25.852095 9.459454 7.429813
v -25.852095 11.172371 4.114103
v -25.852095 -1.000000 3.246155
v -24.079592 1.000000 3.730039
v -23.695528 1.000000 4.114103
v -25.468031 1.000000 3.730039
v -25.852095 1.000000 4.114103
v -24.079592 1.000000 3.630219
v -23.695528 0.615937 3.246155
v -25.468031 1.000000 3.630219
v -25.852095 0.615937 3.246155
v -12.349369 -1.000000 7.723441
v -12.349369 12.885340 1.000000
v -12.349369 12.885340 7.723441
v -12.349369 14.480124 -1.000000
v -12.349369 12.885340 -1.000000
v -12.349369 1.000000 7.723441
v -12.349369 6.033567 7.723441
v -12.349369 12.885340 10.174012
v -12.349369 6.033567 10.174012
v -12.349369 14.480124 1.000000
v -12.349369 14.480124 7.723441
v -12.349369 14.480124 10.174012
v -12.349369 1.000000 10.174012
v -12.349369 -1.000000 10.174012
v -12.349369 9.459454 7.723441
v -12.349369 9.459454 10.174012
v -12.349369 11.172397 7.723441
v -12.349369 11.172397 10.174012
v -1.000000 -1.000000 4.361721
v -1.000000 1.000000 4.361721
v 1.000000 -1.000000 4.361721
v 1.000000 1.000000 4.361721
v -1.000000 6.033567 4.361721
v 1.000000 6.033567 4.361721
v -1.000000 12.885340 4.361721
v 1.000000 12.885340 4.361721
v -1.000000 14.480124 4.361721
v 1.000000 14.480124 4.361721
v -23.695528 12.885340 4.361721
v -23.695528 14.480124 4.361721
v -25.852095 12.885340 4.361721
v -25.852095 14.480124 4.361721
v -1.000000 9.459454 4.361721
v 1.000000 9.459454 4.361721
v -1.000000 11.172397 4.361721
v 1.000000 11.172397 4.361721
v -12.349369 12.885340 4.361721
v -12.349369 14.480124 4.361721
v -1.000000 -1.000000 6.042581
v 1.000000 -1.000000 6.042581
v 1.000000 9.459454 6.042581
v 1.000000 11.172397 6.042581
v -12.349369 14.480124 6.042581
v -1.000000 1.000000 6.042581
v 1.000000 1.000000 6.042581
v -1.000000 6.033567 6.042581
v 1.000000 6.033567 6.042581
v -1.000000 12.885340 6.042581
v 1.000000 12.885340 6.042581
v -1.000000 14.480124 6.042581
v 1.000000 14.480124 6.042581
v -23.695528 12.885340 6.042581
v -23.695528 14.480124 6.042581
v -25.852095 12.885340 6.042581
v -25.852095 14.480124 6.042581
v -1.000000 9.459454 6.042581
v -1.000000 11.172397 6.042581
v -12.349369 12.885340 6.042581
v -1.000000 1.000000 2.680860
v 1.000000 1.000000 2.680860
v -1.000000 6.033567 2.680860
v 1.000000 6.033567 2.680860
v -1.000000 12.885340 2.680860
v 1.000000 12.885340 2.680860
v -1.000000 14.480124 2.680860
v 1.000000 14.480124 2.680860
v -23.695528 12.885340 2.680860
v -23.695528 14.480124 2.680860
v -25.852095 12.885340 2.680860
v -25.852095 14.480124 2.680860
v -1.000000 9.459454 2.680860
v -1.000000 11.172397 2.680860
v -12.349369 12.885340 2.680860
v -1.000000 -1.000000 2.680860
v 1.000000 -1.000000 2.680860
v 1.000000 9.459454 2.680860
v 1.000000 11.172397 2.680860
v -12.349369 14.480124 2.680860
v -6.674685 12.885340 1.000000
v -6.674685 14.480124 -1.000000
v -6.674685 1.000000 7.723441
v -6.674685 6.033567 7.723441
v -6.674685 6.033567 10.174012
v -6.674685 14.480124 7.723441
v -6.674685 1.000000 10.174012
v -6.674685 -1.000000 7.723441
v -6.674685 12.885340 7.723441
v -6.674685 12.885340 -1.000000
v -6.674685 12.885340 10.174012
v -6.674685 14.480124 1.000000
v -6.674685 14.480124 10.174012
v -6.674685 -1.000000 10.174012
v -6.674685 9.459454 7.723441
v -6.674685 9.459454 10.174012
v -6.674685 11.172397 7.723441
v -6.674685 11.172397 10.174012
v -6.674685 14.480124 4.361721
v -6.674685 12.885340 4.361721
v -6.674685 14.480124 6.042581
v -6.674685 12.885340 6.042581
v -6.674685 12.885340 2.680860
v -6.674685 14.480124 2.680860
v -3.837342 12.885340 1.000000
v -3.837342 14.480124 -1.000000
v -3.837342 1.000000 7.723441
v -3.837342 6.033567 7.723441
v -3.837342 6.033567 10.174012
v -3.837342 14.480124 7.723441
v -3.837342 1.000000 10.174012
v -3.837342 -1.000000 7.723441
v -3.837342 12.885340 7.723441
v -3.837342 12.885340 -1.000000
v -3.837342 12.885340 10.174012
v -3.837342 14.480124 1.000000
v -3.837342 14.480124 10.174012
v -3.837342 -1.000000 10.174012
v -3.837342 9.459454 7.723441
v -3.837342 9.459454 10.174012
v -3.837342 11.172397 7.723441
v -3.837342 11.172397 10.174012
v -3.837342 14.480124 4.361721
v -3.837342 12.885340 4.361721
v -3.837342 14.480124 6.042581
v -3.837342 12.885340 6.042581
v -3.837342 12.885340 2.680860
v -3.837342 14.480124 2.680860
v -18.022449 -1.000000 7.723441
v -18.022449 12.885340 7.723441
v -18.022449 12.885340 -1.000000
v -18.022449 12.885340 10.174012
v -18.022449 14.480124 1.000000
v -18.022449 14.480124 10.174012
v -18.022449 -1.000000 10.174012
v -18.022449 9.459454 7.723441
v -18.022449 9.459454 10.174012
v -18.022449 11.172397 7.723441
v -18.022449 11.172397 10.174012
v -18.022449 12.885340 1.000000
v -18.022449 14.480124 -1.000000
v -18.022449 1.000000 7.723441
v -18.022449 6.033567 7.723441
v -18.022449 6.033567 10.174012
v -18.022449 14.480124 7.723441
v -18.022449 1.000000 10.174012
v -18.022449 12.885340 4.361721
v -18.022449 14.480124 4.361721
v -18.022449 14.480124 6.042581
v -18.022449 12.885340 6.042581
v -18.022449 12.885340 2.680860
v -18.022449 14.480124 2.680860
v -20.858990 -1.000000 7.723441
v -20.858990 12.885340 7.723441
v -20.858990 12.885340 -1.000000
v -20.858990 12.885340 10.174012
v -20.858990 14.480124 1.000000
v -20.858990 14.480124 10.174012
v -20.858990 -1.000000 10.174012
v -20.858990 9.459454 7.723441
v -20.858990 9.459454 10.174012
v -20.858990 11.172397 7.723441
v -20.858990 11.172397 10.174012
v -20.858990 12.885340 4.361721
v -20.858990 14.480124 4.361721
v -20.858990 14.480124 6.042581
v -20.858990 12.885340 6.042581
v -20.858990 12.885340 2.680860
v -20.858990 14.480124 2.680860
v -20.858990 12.885340 1.000000
v -20.858990 14.480124 -1.000000
v -20.858990 1.000000 7.723441
v -20.858990 6.033567 7.723441
v -20.858990 6.033567 10.174012
v -20.858990 14.480124 7.723441
v -20.858990 1.000000 10.174012
v -22.277260 -1.000000 7.723441
v -22.277260 12.885340 7.723441
v -22.277260 12.885340 -1.000000
v -22.277260 12.885340 10.174012
v -22.277260 14.480124 1.000000
v -22.277260 14.480124 10.174012
v -22.277260 -1.000000 10.174012
v -22.277260 9.459454 7.723441
v -22.277260 9.459454 10.174012
v -22.277260 11.172397 7.723441
v -22.277260 11.172397 10.174012
v -22.277260 12.885340 4.361721
v -22.277260 14.480124 4.361721
v -22.277260 14.480124 6.042581
v -22.277260 12.885340 6.042581
v -22.277260 12.885340 2.680860
v -22.277260 14.480124 2.680860
v -22.277260 12.885340 1.000000
v -22.277260 14.480124 -1.000000
v -22.277260 1.000000 7.723441
v -22.277260 6.033567 7.723441
v -22.277260 6.033567 10.174012
v -22.277260 14.480124 7.723441
v -22.277260 1.000000 10.174012
v -2.418671 12.885340 1.000000
v -2.418671 14.480124 -1.000000
v -2.418671 1.000000 7.723441
v -2.418671 6.033567 7.723441
v -2.418671 6.033567 10.174012
v -2.418671 14.480124 7.723441
v -2.418671 1.000000 10.174012
v -2.418671 -1.000000 7.723441
v -2.418671 12.885340 7.723441
v -2.418671 12.885340 -1.000000
v -2.418671 12.885340 10.174012
v -2.418671 14.480124 1.000000
v -2.418671 14.480124 10.174012
v -2.418671 -1.000000 10.174012
v -2.418671 9.459454 7.723441
v -2.418671 9.459454 10.174012
v -2.418671 11.172397 7.723441
v -2.418671 11.172397 10.174012
v -2.418671 14.480124 4.361721
v -2.418671 12.885340 4.361721
v -2.418671 14.480124 6.042581
v -2.418671 12.885340 6.042581
v -2.418671 12.885340 2.680860
v -2.418671 14.480124 2.680860
v 1.000000 25.707209 -1.000000
v 1.000000 25.707209 1.000000
v -1.000000 25.707209 -1.000000
v -1.000000 25.707209 1.000000
v 1.000000 25.707209 7.723441
v -1.000000 25.707209 7.723441
v 5.876173 25.707209 10.174012
v -1.000000 25.707209 10.174012
v -23.695528 25.707209 -1.000000
v -23.695528 25.707209 1.000000
v -23.695528 25.707209 7.723441
v -23.695528 25.707209 10.174012
v -25.852095 25.707209 -1.000000
v -25.852095 25.707209 1.000000
v -25.852095 25.707209 7.723441
v -29.487511 25.707209 10.174012
v -12.349369 25.707209 7.723441
v -12.349369 25.707209 10.174012
v -1.000000 25.707209 4.361721
v 1.000000 25.707209 4.361721
v -23.695528 25.707209 4.361721
v -25.852095 25.707209 4.361721
v -1.000000 25.707209 6.042581
v 1.000000 25.707209 6.042581
v -23.695528 25.707209 6.042581
v -25.852095 25.707209 6.042581
v -1.000000 25.707209 2.680860
v 1.000000 25.707209 2.680860
v -23.695528 25.707209 2.680860
v -25.852095 25.707209 2.680860
v -6.674685 25.707209 7.723441
v -6.674685 25.707209 10.174012
v -3.837342 25.707209 7.723441
v -3.837342 25.707209 10.174012
v -18.022449 25.707209 10.174012
v -18.022449 25.707209 7.723441
v -20.858990 25.707209 10.174012
v -20.858990 25.707209 7.723441
v -22.277260 25.707209 10.174012
v -22.277260 25.707209 7.723441
v -2.418671 25.707209 7.723441
v -2.418671 25.707209 10.174012
v 1.000000 28.437559 -1.000000
v 1.000000 28.437559 1.000000
v -1.000000 28.437559 -1.000000
v -1.000000 28.437559 1.000000
v 5.876173 28.437559 7.723441
v -1.000000 28.437559 7.723441
v 5.876173 28.437559 10.174012
v -1.000000 28.437559 10.174012
v -23.695528 28.437559 -1.000000
v -23.695528 28.437559 1.000000
v -23.695528 28.437559 7.723441
v -23.695528 28.437559 10.174012
v -25.852095 28.437559 -1.000000
v -25.852095 28.437559 1.000000
v -29.487511 28.437559 7.723441
v -29.487511 28.437559 10.174012
v -12.349369 28.437559 7.723441
v -12.349369 28.437559 10.174012
v -1.000000 28.437559 4.361721
v 1.000000 28.437559 4.361721
v -23.695528 28.437559 4.361721
v -25.852095 28.437559 4.361721
v -1.000000 28.437559 6.042581
v 1.000000 28.437559 6.042581
v -23.695528 28.437559 6.042581
v -25.852095 28.437559 6.042581
v -1.000000 28.437559 2.680860
v 1.000000 28.437559 2.680860
v -23.695528 28.437559 2.680860
v -25.852095 28.437559 2.680860
v -6.674685 28.437559 7.723441
v -6.674685 28.437559 10.174012
v -3.837342 28.437559 7.723441
v -3.837342 28.437559 10.174012
v -18.022449 28.437559 10.174012
v -18.022449 28.437559 7.723441
v -20.858990 28.437559 10.174012
v -20.858990 28.437559 7.723441
v -22.277260 28.437559 10.174012
v -22.277260 28.437559 7.723441
v -2.418671 28.437559 7.723441
v -2.418671 28.437559 10.174012
v -12.363581 25.707209 -1.000000
v -12.363581 25.707209 1.000000
v -12.363581 25.707209 7.723441
v -14.520147 25.707209 -1.000000
v -12.363581 25.707209 4.361721
v -12.363581 25.707209 6.042581
v -12.363581 25.707209 2.680860
v -12.363581 28.437559 -1.000000
v -12.363581 28.437559 1.000000
v -12.363581 28.437559 7.723441
v -12.363581 28.437559 4.361721
v -12.363581 28.437559 6.042581
v -12.363581 28.437559 2.680860
v -7.427353 25.707209 -1.000000
v -7.427353 25.707209 1.000000
v -7.427353 25.707209 7.723441
v -7.427353 25.707209 4.361721
v -7.427353 25.707209 6.042581
v -7.427353 25.707209 2.680860
v -7.427353 28.437559 -1.000000
v -7.427353 28.437559 1.000000
v -7.427353 28.437559 7.723441
v -7.427353 28.437559 4.361721
v -7.427353 28.437559 6.042581
v -7.427353 28.437559 2.680860
v -23.695528 20.121181 6.042581
v -1.000000 20.121181 7.723441
v -2.418671 20.121181 7.723441
v -25.852095 20.121181 2.680860
v -25.852095 20.121181 4.361721
v -2.418671 20.121181 10.174012
v -1.000000 20.121181 10.174012
v -25.852095 20.121181 10.174012
v -23.695528 20.121181 10.174012
v -23.695528 20.121181 -1.000000
v -25.852095 20.121181 -1.000000
v 1.000000 20.121181 6.042581
v 1.000000 20.121181 4.361721
v -22.277260 20.121181 10.174012
v -20.858990 20.121181 10.174012
v -23.695528 20.121181 4.361721
v -23.695528 20.121181 2.680860
v -1.000000 20.121181 4.361721
v -1.000000 20.121181 6.042581
v -3.837342 20.121181 10.174012
v -6.674685 20.121181 10.174012
v 1.000000 20.121181 7.723441
v 1.000000 20.121181 2.345101
v -23.695528 20.121181 1.000000
v -6.674685 20.121181 7.723441
v -3.837342 20.121181 7.723441
v -23.695528 20.121181 7.723441
v -22.277260 20.121181 7.723441
v -1.000000 20.121181 2.345101
v -25.852095 20.121181 6.042581
v -25.852095 20.121181 1.000000
v -18.022449 20.121181 7.723441
v -12.349369 20.121181 7.723441
v -18.022449 20.121181 10.174012
v -25.852095 20.121181 7.723441
v -12.349369 20.121181 10.174012
v -1.000000 20.121181 2.680860
v 1.000000 20.121181 2.680860
v -20.858990 20.121181 7.723441
v 1.000000 20.121181 10.174012
v -2.418671 22.914196 7.723441
v -25.852095 22.914196 4.361721
v -1.000000 22.914196 10.174012
v -23.695528 22.914196 10.174012
v -25.852095 22.914196 -1.000000
v 1.000000 22.914196 4.361721
v -20.858990 22.914196 10.174012
v -23.695528 22.914196 2.680860
v -1.000000 22.914196 6.042581
v -3.837342 22.914196 10.174012
v 1.000000 22.914196 -1.000000
v -6.674685 22.914196 7.723441
v -23.695528 22.914196 7.723441
v -12.943628 25.707209 4.361721
v -25.852095 22.914196 6.042581
v -25.852095 22.914196 1.000000
v -18.022449 22.914196 7.723441
v -18.022449 22.914196 10.174012
v -20.858990 22.914196 7.723441
v 1.000000 22.914196 10.174012
v -23.695528 22.914196 6.042581
v -1.000000 22.914196 7.723441
v -25.852095 22.914196 2.680860
v -2.418671 22.914196 10.174012
v -25.852095 22.914196 10.174012
v -23.695528 22.914196 -1.000000
v 1.000000 22.914196 6.042581
v -22.277260 22.914196 10.174012
v -23.695528 22.914196 4.361721
v -1.000000 22.914196 4.361721
v -6.674685 22.914196 10.174012
v 1.000000 22.914196 7.723441
v -12.943628 25.707209 7.723441
v -23.695528 22.914196 1.000000
v -3.837342 22.914196 7.723441
v -22.277260 22.914196 7.723441
v -1.000000 22.914196 -1.000000
v -12.349369 22.914196 7.723441
v -25.852095 22.914196 7.723441
v -12.349369 22.914196 10.174012
v 1.000000 22.914196 2.680835
v -23.695528 17.300653 6.042581
v -1.000000 17.300653 7.723441
v -25.852095 17.300653 2.680860
v -2.418671 17.300653 10.174012
v -25.852095 17.300653 10.174012
v -23.695528 17.300653 -1.000000
v 1.000000 17.300653 6.042581
v -22.277260 17.300653 10.174012
v -23.695528 17.300653 4.361721
v -1.000000 17.300653 4.361721
v -6.674685 17.300653 10.174012
v 1.000000 17.300653 7.723441
v -12.943628 25.707209 1.000000
v -23.695528 17.300653 1.000000
v -3.837342 17.300653 7.723441
v -22.277260 17.300653 7.723441
v -1.000000 17.300653 -1.000000
v -12.349369 17.300653 7.723441
v -25.852095 17.300653 7.723441
v -12.349369 17.300653 10.174012
v -2.418671 17.300653 7.723441
v -25.852095 17.300653 4.361721
v -1.000000 17.300653 10.174012
v -23.695528 17.300653 10.174012
v -25.852095 17.300653 -1.000000
v 1.000000 17.300653 4.361721
v -20.858990 17.300653 10.174012
v -23.695528 17.300653 2.680860
v -1.000000 17.300653 6.042581
v -3.837342 17.300653 10.174012
v 1.000000 17.300653 -1.000000
v -6.674685 17.300653 7.723441
v -23.695528 17.300653 7.723441
v -12.943628 25.707209 -1.000000
v -25.852095 17.300653 6.042581
v -25.852095 17.300653 1.000000
v -18.022449 17.300653 7.723441
v -18.022449 17.300653 10.174012
v -1.000000 17.300653 2.680835
v -20.858990 17.300653 7.723441
v 1.000000 17.300653 10.174012
v -1.000000 22.914196 1.808270
v -1.000000 22.377365 2.345101
v -1.000000 22.914196 2.680835
v -1.000000 23.397860 2.112171
v 1.000000 22.377365 2.345101
v 1.000000 22.914196 1.808270
v 1.000000 23.397860 2.112171
v 1.000000 17.300653 1.808270
v 1.000000 17.837484 2.345101
v 1.000000 17.300653 2.680835
v 1.000000 16.816103 2.114020
v -1.000000 17.837484 2.345101
v -1.000000 17.300653 1.808270
v -1.000000 16.816103 2.114020
v -12.943628 25.707209 6.042581
v -12.943628 25.707209 2.680860
v -12.943628 28.437559 -1.000000
v -12.943628 28.437559 1.000000
v -12.943628 28.437559 7.723441
v -12.943628 28.437559 4.361721
v -12.943628 28.437559 6.042581
v -12.943628 28.437559 2.680860
v 6.110815 36.143536 -3.261236
v 6.110815 36.143536 3.462205
v 6.110815 36.143536 5.912776
v -0.765358 36.143536 5.912776
v -23.460886 36.143536 5.912776
v -29.252869 36.143536 -3.261236
v -29.252869 36.143536 3.462205
v -29.252869 36.143536 5.912776
v -12.114727 36.143536 5.912776
v 6.110815 36.143536 0.100484
v -29.252869 36.143536 0.100484
v 6.110815 36.143536 1.781344
v -29.252869 36.143536 1.781344
v 6.110815 36.143536 -1.580376
v -29.252869 36.143536 -1.580376
v -6.440043 36.143536 5.912776
v -3.602700 36.143536 5.912776
v -17.787807 36.143536 5.912776
v -20.624348 36.143536 5.912776
v -22.042618 36.143536 5.912776
v -2.184030 36.143536 5.912776
v 1.000000 18.804516 14.167240
v -0.967426 18.804516 14.167240
v -23.695528 18.804516 14.167240
v -29.487511 18.804516 14.167240
v -12.349369 18.804516 14.167240
v -6.674685 18.804516 14.167240
v -3.837342 18.804516 14.167240
v -18.022449 18.804516 14.167240
v -20.858990 18.804516 14.167240
v -22.277260 18.804516 14.167240
v -2.418671 18.804516 14.167240
v 5.876173 21.534866 14.167240
v -1.000000 21.534866 14.167240
v -23.695528 21.534866 14.167240
v -29.487511 21.534866 14.167240
v -12.349369 21.534866 14.167240
v -6.674685 21.534866 14.167240
v -3.837342 21.534866 14.167240
v -18.022449 21.534866 14.167240
v -20.858990 21.534866 14.167240
v -22.277260 21.534866 14.167240
v -2.418671 21.534866 14.167240
v -22.159939 32.290546 8.043394
v -20.741669 32.290546 8.043394
v -29.370190 32.290546 5.592823
v -29.370190 32.290546 8.043394
v 1.117321 32.290546 2.231102
v 1.117321 32.290546 3.911962
v -25.734774 32.290546 3.911962
v -12.232048 32.290546 8.043394
v -17.905128 32.290546 8.043394
v -25.734774 32.290546 2.231102
v 1.117321 32.290546 0.550242
v 1.117321 32.290546 -1.130618
v -6.557364 32.290546 8.043394
v -3.720021 32.290546 8.043394
v 5.993494 32.290546 8.043394
v -0.882679 32.290546 8.043394
v -2.301350 32.290546 8.043394
v -23.578207 32.290546 8.043394
v 1.117321 32.290546 -3.130618
v -25.734774 32.290546 -3.130618
v -25.734774 32.290546 -1.130618
v 5.993494 32.290546 5.592823
v -25.734774 32.290546 0.550242
v -22.101278 34.217041 6.978085
v -29.311531 34.217041 4.527514
v 6.052154 34.217041 1.165793
v -12.173388 34.217041 6.978085
v -29.311531 34.217041 1.165793
v 6.052154 34.217041 -0.515067
v -6.498703 34.217041 6.978085
v 6.052154 34.217041 6.978085
v -2.242690 34.217041 6.978085
v -23.519547 34.217041 6.978085
v -29.311531 34.217041 -4.195927
v 6.052154 34.217041 4.527514
v -20.683008 34.217041 6.978085
v -29.311531 34.217041 6.978085
v 6.052154 34.217041 2.846653
v -29.311531 34.217041 2.846653
v -17.846468 34.217041 6.978085
v 6.052154 34.217041 -2.195927
v -3.661361 34.217041 6.978085
v -0.824018 34.217041 6.978085
v 6.052154 34.217041 -4.195927
v -29.311531 34.217041 -2.195927
v -29.311531 34.217041 -0.515067
v -20.712337 33.253792 7.510739
v -29.340862 33.253792 7.510739
v 1.146651 33.253792 3.379308
v -25.705444 33.253792 3.379308
v -17.875797 33.253792 7.510739
v 1.146651 33.253792 -1.663273
v -3.690691 33.253792 7.510739
v -0.853349 33.253792 7.510739
v -25.705444 33.253792 -1.663273
v -25.705444 33.253792 0.017587
v -22.130608 33.253792 7.510739
v -29.340862 33.253792 5.060168
v 1.146651 33.253792 1.698448
v -12.202718 33.253792 7.510739
v -25.705444 33.253792 1.698448
v 1.146651 33.253792 0.017587
v -6.528033 33.253792 7.510739
v 6.022824 33.253792 7.510739
v -2.272020 33.253792 7.510739
v -23.548878 33.253792 7.510739
v 6.022824 33.253792 5.060168
v 1.000000 1.000000 -7.723441
v 1.000000 -1.000000 -7.723441
v -1.000000 1.000000 -7.723441
v -1.000000 -1.000000 -7.723441
v 1.000000 6.033567 -7.723441
v -1.000000 6.033567 -7.723441
v 1.000000 1.000000 -10.174012
v 1.000000 -1.000000 -10.174012
v -1.000000 1.000000 -10.174012
v -1.000000 -1.000000 -10.174012
v 1.000000 6.033567 -10.174012
v -1.000000 6.033567 -10.174012
v 1.000000 12.885340 -7.723441
v -1.000000 12.885340 -7.723441
v 1.000000 12.885340 -10.174012
v -1.000000 12.885340 -10.174012
v 1.000000 14.480124 -7.723441
v -1.000000 14.480124 -7.723441
v 1.000000 14.480124 -10.174012
v -1.000000 14.480124 -10.174012
v -23.695528 1.000000 -7.723441
v -23.695528 -1.000000 -7.723441
v -23.695528 6.033567 -7.723441
v -23.695528 1.000000 -10.174012
v -23.695528 -1.000000 -10.174012
v -23.695528 6.033567 -10.174012
v -23.695528 12.885340 -7.723441
v -23.695528 12.885340 -10.174012
v -23.695528 14.480124 -7.723441
v -23.695528 14.480124 -10.174012
v -25.852095 1.000000 -7.723441
v -25.852095 -1.000000 -7.723441
v -25.852095 6.033567 -7.723441
v -25.852095 1.000000 -10.174012
v -25.852095 -1.000000 -10.174012
v -25.852095 6.033567 -10.174012
v -25.852095 12.885340 -7.723441
v -25.852095 12.885340 -10.174012
v -25.852095 14.480124 -7.723441
v -25.852095 14.480124 -10.174012
v -23.695528 -1.000000 -4.114103
v -23.695528 6.033567 -4.114103
v -23.695528 12.885340 -4.114103
v -25.852095 -1.000000 -4.114103
v -25.852095 6.033567 -4.114103
v -25.852095 12.885340 -4.114103
v -1.000000 9.459454 -10.174012
v 1.000000 9.459454 -10.174012
v 1.000000 9.459454 -7.723441
v -1.000000 9.459454 -7.723441
v -23.695528 9.459454 -10.174012
v -23.695528 9.459454 -7.723441
v -25.852095 9.459454 -10.174012
v -25.852095 9.459454 -7.723441
v -23.695528 -1.000000 -3.246155
v 1.000000 11.172397 -10.174012
v -1.000000 11.172397 -10.174012
v 1.000000 11.172397 -7.723441
v -1.000000 11.172397 -7.723441
v -23.695528 11.172397 -10.174012
v -23.695528 11.172397 -7.723441
v -25.852095 11.172397 -10.174012
v -25.852095 11.172397 -7.723441
v -25.852095 11.172371 -4.114103
v -23.695528 12.885340 0.036466
v -25.852095 12.885340 0.036466
v -23.695528 9.459454 0.036466
v -25.852095 9.459454 0.036466
v -23.695528 11.172397 0.036466
v -25.852095 11.172397 0.036466
v -23.695528 6.143744 -4.114103
v -23.695528 9.459454 -0.798393
v -23.695528 11.172371 -4.114103
v -23.695528 9.459454 -7.429813
v -25.852095 9.459454 -0.798393
v -25.852095 6.143744 -4.114103
v -25.852095 9.459454 -7.429813
v -25.852095 -1.000000 -3.246155
v -24.079592 1.000000 -3.730039
v -23.695528 1.000000 -4.114103
v -25.468031 1.000000 -3.730039
v -25.852095 1.000000 -4.114103
v -24.079592 1.000000 -3.630219
v -23.695528 0.615937 -3.246155
v -25.468031 1.000000 -3.630219
v -25.852095 0.615937 -3.246155
v -12.349369 -1.000000 -7.723441
v -12.349369 12.885340 -7.723441
v -12.349369 1.000000 -7.723441
v -12.349369 6.033567 -7.723441
v -12.349369 12.885340 -10.174012
v -12.349369 6.033567 -10.174012
v -12.349369 14.480124 -7.723441
v -12.349369 14.480124 -10.174012
v -12.349369 1.000000 -10.174012
v -12.349369 -1.000000 -10.174012
v -12.349369 9.459454 -7.723441
v -12.349369 9.459454 -10.174012
v -12.349369 11.172397 -7.723441
v -12.349369 11.172397 -10.174012
v -1.000000 -1.000000 -4.361721
v -1.000000 1.000000 -4.361721
v 1.000000 -1.000000 -4.361721
v 1.000000 1.000000 -4.361721
v -1.000000 6.033567 -4.361721
v 1.000000 6.033567 -4.361721
v -1.000000 12.885340 -4.361721
v 1.000000 12.885340 -4.361721
v -1.000000 14.480124 -4.361721
v 1.000000 14.480124 -4.361721
v -23.695528 12.885340 -4.361721
v -23.695528 14.480124 -4.361721
v -25.852095 12.885340 -4.361721
v -25.852095 14.480124 -4.361721
v -1.000000 9.459454 -4.361721
v 1.000000 9.459454 -4.361721
v -1.000000 11.172397 -4.361721
v 1.000000 11.172397 -4.361721
v -12.349369 12.885340 -4.361721
v -12.349369 14.480124 -4.361721
v -1.000000 -1.000000 -6.042581
v 1.000000 -1.000000 -6.042581
v 1.000000 9.459454 -6.042581
v 1.000000 11.172397 -6.042581
v -12.349369 14.480124 -6.042581
v -1.000000 1.000000 -6.042581
v 1.000000 1.000000 -6.042581
v -1.000000 6.033567 -6.042581
v 1.000000 6.033567 -6.042581
v -1.000000 12.885340 -6.042581
v 1.000000 12.885340 -6.042581
v -1.000000 14.480124 -6.042581
v 1.000000 14.480124 -6.042581
v -23.695528 12.885340 -6.042581
v -23.695528 14.480124 -6.042581
v -25.852095 12.885340 -6.042581
v -25.852095 14.480124 -6.042581
v -1.000000 9.459454 -6.042581
v -1.000000 11.172397 -6.042581
v -12.349369 12.885340 -6.042581
v -1.000000 1.000000 -2.680860
v 1.000000 1.000000 -2.680860
v -1.000000 6.033567 -2.680860
v 1.000000 6.033567 -2.680860
v -1.000000 12.885340 -2.680860
v 1.000000 12.885340 -2.680860
v -1.000000 14.480124 -2.680860
v 1.000000 14.480124 -2.680860
v -23.695528 12.885340 -2.680860
v -23.695528 14.480124 -2.680860
v -25.852095 12.885340 -2.680860
v -25.852095 14.480124 -2.680860
v -1.000000 9.459454 -2.680860
v -1.000000 11.172397 -2.680860
v -12.349369 12.885340 -2.680860
v -1.000000 -1.000000 -2.680860
v 1.000000 -1.000000 -2.680860
v 1.000000 9.459454 -2.680860
v 1.000000 11.172397 -2.680860
v -12.349369 14.480124 -2.680860
v -6.674685 1.000000 -7.723441
v -6.674685 6.033567 -7.723441
v -6.674685 6.033567 -10.174012
v -6.674685 14.480124 -7.723441
v -6.674685 1.000000 -10.174012
v -6.674685 -1.000000 -7.723441
v -6.674685 12.885340 -7.723441
v -6.674685 12.885340 -10.174012
v -6.674685 14.480124 -10.174012
v -6.674685 -1.000000 -10.174012
v -6.674685 9.459454 -7.723441
v -6.674685 9.459454 -10.174012
v -6.674685 11.172397 -7.723441
v -6.674685 11.172397 -10.174012
v -6.674685 14.480124 -4.361721
v -6.674685 12.885340 -4.361721
v -6.674685 14.480124 -6.042581
v -6.674685 12.885340 -6.042581
v -6.674685 12.885340 -2.680860
v -6.674685 14.480124 -2.680860
v -3.837342 1.000000 -7.723441
v -3.837342 6.033567 -7.723441
v -3.837342 6.033567 -10.174012
v -3.837342 14.480124 -7.723441
v -3.837342 1.000000 -10.174012
v -3.837342 -1.000000 -7.723441
v -3.837342 12.885340 -7.723441
v -3.837342 12.885340 -10.174012
v -3.837342 14.480124 -10.174012
v -3.837342 -1.000000 -10.174012
v -3.837342 9.459454 -7.723441
v -3.837342 9.459454 -10.174012
v -3.837342 11.172397 -7.723441
v -3.837342 11.172397 -10.174012
v -3.837342 14.480124 -4.361721
v -3.837342 12.885340 -4.361721
v -3.837342 14.480124 -6.042581
v -3.837342 12.885340 -6.042581
v -3.837342 12.885340 -2.680860
v -3.837342 14.480124 -2.680860
v -18.022449 -1.000000 -7.723441
v -18.022449 12.885340 -7.723441
v -18.022449 12.885340 -10.174012
v -18.022449 14.480124 -10.174012
v -18.022449 -1.000000 -10.174012
v -18.022449 9.459454 -7.723441
v -18.022449 9.459454 -10.174012
v -18.022449 11.172397 -7.723441
v -18.022449 11.172397 -10.174012
v -18.022449 1.000000 -7.723441
v -18.022449 6.033567 -7.723441
v -18.022449 6.033567 -10.174012
v -18.022449 14.480124 -7.723441
v -18.022449 1.000000 -10.174012
v -18.022449 12.885340 -4.361721
v -18.022449 14.480124 -4.361721
v -18.022449 14.480124 -6.042581
v -18.022449 12.885340 -6.042581
v -18.022449 12.885340 -2.680860
v -18.022449 14.480124 -2.680860
v -20.858990 -1.000000 -7.723441
v -20.858990 12.885340 -7.723441
v -20.858990 12.885340 -10.174012
v -20.858990 14.480124 -10.174012
v -20.858990 -1.000000 -10.174012
v -20.858990 9.459454 -7.723441
v -20.858990 9.459454 -10.174012
v -20.858990 11.172397 -7.723441
v -20.858990 11.172397 -10.174012
v -20.858990 12.885340 -4.361721
v -20.858990 14.480124 -4.361721
v -20.858990 14.480124 -6.042581
v -20.858990 12.885340 -6.042581
v -20.858990 12.885340 -2.680860
v -20.858990 14.480124 -2.680860
v -20.858990 1.000000 -7.723441
v -20.858990 6.033567 -7.723441
v -20.858990 6.033567 -10.174012
v -20.858990 14.480124 -7.723441
v -20.858990 1.000000 -10.174012
v -22.277260 -1.000000 -7.723441
v -22.277260 12.885340 -7.723441
v -22.277260 12.885340 -10.174012
v -22.277260 14.480124 -10.174012
v -22.277260 -1.000000 -10.174012
v -22.277260 9.459454 -7.723441
v -22.277260 9.459454 -10.174012
v -22.277260 11.172397 -7.723441
v -22.277260 11.172397 -10.174012
v -22.277260 12.885340 -4.361721
v -22.277260 14.480124 -4.361721
v -22.277260 14.480124 -6.042581
v -22.277260 12.885340 -6.042581
v -22.277260 12.885340 -2.680860
v -22.277260 14.480124 -2.680860
v -22.277260 1.000000 -7.723441
v -22.277260 6.033567 -7.723441
v -22.277260 6.033567 -10.174012
v -22.277260 14.480124 -7.723441
v -22.277260 1.000000 -10.174012
v -2.418671 1.000000 -7.723441
v -2.418671 6.033567 -7.723441
v -2.418671 6.033567 -10.174012
v -2.418671 14.480124 -7.723441
v -2.418671 1.000000 -10.174012
v -2.418671 -1.000000 -7.723441
v -2.418671 12.885340 -7.723441
v -2.418671 12.885340 -10.174012
v -2.418671 14.480124 -10.174012
v -2.418671 -1.000000 -10.174012
v -2.418671 9.459454 -7.723441
v -2.418671 9.459454 -10.174012
v -2.418671 11.172397 -7.723441
v -2.418671 11.172397 -10.174012
v -2.418671 14.480124 -4.361721
v -2.418671 12.885340 -4.361721
v -2.418671 14.480124 -6.042581
v -2.418671 12.885340 -6.042581
v -2.418671 12.885340 -2.680860
v -2.418671 14.480124 -2.680860
v 1.000000 25.707209 -7.723441
v -1.000000 25.707209 -7.723441
v 5.876173 25.707209 -10.174012
v -1.000000 25.707209 -10.174012
v -23.695528 25.707209 -7.723441
v -23.695528 25.707209 -10.174012
v -25.852095 25.707209 -7.723441
v -29.487511 25.707209 -10.174012
v -12.349369 25.707209 -7.723441
v -12.349369 25.707209 -10.174012
v -1.000000 25.707209 -4.361721
v 1.000000 25.707209 -4.361721
v -23.695528 25.707209 -4.361721
v -25.852095 25.707209 -4.361721
v -1.000000 25.707209 -6.042581
v 1.000000 25.707209 -6.042581
v -23.695528 25.707209 -6.042581
v -25.852095 25.707209 -6.042581
v -1.000000 25.707209 -2.680860
v 1.000000 25.707209 -2.680860
v -23.695528 25.707209 -2.680860
v -25.852095 25.707209 -2.680860
v -6.674685 25.707209 -7.723441
v -6.674685 25.707209 -10.174012
v -3.837342 25.707209 -7.723441
v -3.837342 25.707209 -10.174012
v -18.022449 25.707209 -10.174012
v -18.022449 25.707209 -7.723441
v -20.858990 25.707209 -10.174012
v -20.858990 25.707209 -7.723441
v -22.277260 25.707209 -10.174012
v -22.277260 25.707209 -7.723441
v -2.418671 25.707209 -7.723441
v -2.418671 25.707209 -10.174012
v 5.876173 28.437559 -7.723441
v -1.000000 28.437559 -7.723441
v 5.876173 28.437559 -10.174012
v -1.000000 28.437559 -10.174012
v -23.695528 28.437559 -7.723441
v -23.695528 28.437559 -10.174012
v -29.487511 28.437559 -7.723441
v -29.487511 28.437559 -10.174012
v -12.349369 28.437559 -7.723441
v -12.349369 28.437559 -10.174012
v -1.000000 28.437559 -4.361721
v 1.000000 28.437559 -4.361721
v -23.695528 28.437559 -4.361721
v -25.852095 28.437559 -4.361721
v -1.000000 28.437559 -6.042581
v 1.000000 28.437559 -6.042581
v -23.695528 28.437559 -6.042581
v -25.852095 28.437559 -6.042581
v -1.000000 28.437559 -2.680860
v 1.000000 28.437559 -2.680860
v -23.695528 28.437559 -2.680860
v -25.852095 28.437559 -2.680860
v -6.674685 28.437559 -7.723441
v -6.674685 28.437559 -10.174012
v -3.837342 28.437559 -7.723441
v -3.837342 28.437559 -10.174012
v -18.022449 28.437559 -10.174012
v -18.022449 28.437559 -7.723441
v -20.858990 28.437559 -10.174012
v -20.858990 28.437559 -7.723441
v -22.277260 28.437559 -10.174012
v -22.277260 28.437559 -7.723441
v -2.418671 28.437559 -7.723441
v -2.418671 28.437559 -10.174012
v -12.363581 25.707209 -7.723441
v -14.520147 25.707209 1.000000
v -12.363581 25.707209 -4.361721
v -12.363581 25.707209 -6.042581
v -12.363581 25.707209 -2.680860
v -12.363581 28.437559 -7.723441
v -12.363581 28.437559 -4.361721
v -12.363581 28.437559 -6.042581
v -12.363581 28.437559 -2.680860
v -7.427353 25.707209 -7.723441
v -7.427353 25.707209 -4.361721
v -7.427353 25.707209 -6.042581
v -7.427353 25.707209 -2.680860
v -7.427353 28.437559 -7.723441
v -7.427353 28.437559 -4.361721
v -7.427353 28.437559 -6.042581
v -7.427353 28.437559 -2.680860
v -23.695528 20.121181 -6.042581
v -1.000000 20.121181 -7.723441
v -2.418671 20.121181 -7.723441
v -25.852095 20.121181 -2.680860
v -25.852095 20.121181 -4.361721
v -2.418671 20.121181 -10.174012
v -1.000000 20.121181 -10.174012
v -25.852095 20.121181 -10.174012
v -23.695528 20.121181 -10.174012
v 1.000000 20.121181 -6.042581
v 1.000000 20.121181 -4.361721
v -22.277260 20.121181 -10.174012
v -20.858990 20.121181 -10.174012
v -23.695528 20.121181 -4.361721
v -23.695528 20.121181 -2.680860
v -1.000000 20.121181 -4.361721
v -1.000000 20.121181 -6.042581
v -3.837342 20.121181 -10.174012
v -6.674685 20.121181 -10.174012
v 1.000000 20.121181 -7.723441
v 1.000000 20.121181 -2.345101
v -6.674685 20.121181 -7.723441
v -3.837342 20.121181 -7.723441
v -23.695528 20.121181 -7.723441
v -22.277260 20.121181 -7.723441
v -1.000000 20.121181 -2.345101
v -25.852095 20.121181 -6.042581
v -18.022449 20.121181 -7.723441
v -12.349369 20.121181 -7.723441
v -18.022449 20.121181 -10.174012
v -25.852095 20.121181 -7.723441
v -12.349369 20.121181 -10.174012
v -1.000000 20.121181 -2.680860
v 1.000000 20.121181 -2.680860
v -20.858990 20.121181 -7.723441
v 1.000000 20.121181 -10.174012
v -2.418671 22.914196 -7.723441
v -25.852095 22.914196 -4.361721
v -1.000000 22.914196 -10.174012
v -23.695528 22.914196 -10.174012
v 1.000000 22.914196 -4.361721
v -20.858990 22.914196 -10.174012
v -23.695528 22.914196 -2.680860
v -1.000000 22.914196 -6.042581
v -3.837342 22.914196 -10.174012
v 1.000000 22.914196 1.000000
v -6.674685 22.914196 -7.723441
v -23.695528 22.914196 -7.723441
v -12.943628 25.707209 -4.361721
v -25.852095 22.914196 -6.042581
v -18.022449 22.914196 -7.723441
v -18.022449 22.914196 -10.174012
v -20.858990 22.914196 -7.723441
v 1.000000 22.914196 -10.174012
v -23.695528 22.914196 -6.042581
v -1.000000 22.914196 -7.723441
v -25.852095 22.914196 -2.680860
v -2.418671 22.914196 -10.174012
v -25.852095 22.914196 -10.174012
v 1.000000 22.914196 -6.042581
v -22.277260 22.914196 -10.174012
v -23.695528 22.914196 -4.361721
v -1.000000 22.914196 -4.361721
v -6.674685 22.914196 -10.174012
v 1.000000 22.914196 -7.723441
v -12.943628 25.707209 -7.723441
v -3.837342 22.914196 -7.723441
v -22.277260 22.914196 -7.723441
v -1.000000 22.914196 1.000000
v -12.349369 22.914196 -7.723441
v -25.852095 22.914196 -7.723441
v -12.349369 22.914196 -10.174012
v 1.000000 22.914196 -2.680835
v -23.695528 17.300653 -6.042581
v -1.000000 17.300653 -7.723441
v -25.852095 17.300653 -2.680860
v -2.418671 17.300653 -10.174012
v -25.852095 17.300653 -10.174012
v 1.000000 17.300653 -6.042581
v -22.277260 17.300653 -10.174012
v -23.695528 17.300653 -4.361721
v -1.000000 17.300653 -4.361721
v -6.674685 17.300653 -10.174012
v 1.000000 17.300653 -7.723441
v -3.837342 17.300653 -7.723441
v -22.277260 17.300653 -7.723441
v -1.000000 17.300653 1.000000
v -12.349369 17.300653 -7.723441
v -25.852095 17.300653 -7.723441
v -12.349369 17.300653 -10.174012
v 1.000000 17.300653 -2.680835
v -2.418671 17.300653 -7.723441
v -25.852095 17.300653 -4.361721
v -1.000000 17.300653 -10.174012
v -23.695528 17.300653 -10.174012
v 1.000000 17.300653 -4.361721
v -20.858990 17.300653 -10.174012
v -23.695528 17.300653 -2.680860
v -1.000000 17.300653 -6.042581
v -3.837342 17.300653 -10.174012
v 1.000000 17.300653 1.000000
v -6.674685 17.300653 -7.723441
v -23.695528 17.300653 -7.723441
v -25.852095 17.300653 -6.042581
v -18.022449 17.300653 -7.723441
v -18.022449 17.300653 -10.174012
v -1.000000 17.300653 -2.680835
v -20.858990 17.300653 -7.723441
v 1.000000 17.300653 -10.174012
v -1.000000 22.914196 -1.808270
v -1.000000 22.377365 -2.345101
v -1.000000 22.914196 -2.680835
v -1.000000 23.397860 -2.112171
v 1.000000 22.377365 -2.345101
v 1.000000 22.914196 -1.808270
v 1.000000 23.397860 -2.112171
v 1.000000 17.300653 -1.808270
v 1.000000 17.837484 -2.345101
v 1.000000 16.816103 -2.114020
v -1.000000 17.837484 -2.345101
v -1.000000 17.300653 -1.808270
v -1.000000 16.816103 -2.114020
v -12.943628 25.707209 -6.042581
v -12.943628 25.707209 -2.680860
v -12.943628 28.437559 -7.723441
v -12.943628 28.437559 -4.361721
v -12.943628 28.437559 -6.042581
v -12.943628 28.437559 -2.680860
v 6.110815 36.143536 3.261236
v 6.110815 36.143536 -3.462205
v 6.110815 36.143536 -5.912776
v -0.765358 36.143536 -5.912776
v -23.460886 36.143536 -5.912776
v -29.252869 36.143536 3.261236
v -29.252869 36.143536 -3.462205
v -29.252869 36.143536 -5.912776
v -12.114727 36.143536 -5.912776
v 6.110815 36.143536 -0.100484
v -29.252869 36.143536 -0.100484
v 6.110815 36.143536 -1.781344
v -29.252869 36.143536 -1.781344
v 6.110815 36.143536 1.580376
v -29.252869 36.143536 1.580376
v -6.440043 36.143536 -5.912776
v -3.602700 36.143536 -5.912776
v -17.787807 36.143536 -5.912776
v -20.624348 36.143536 -5.912776
v -22.042618 36.143536 -5.912776
v -2.184030 36.143536 -5.912776
v 1.000000 18.804516 -14.167240
v -0.967426 18.804516 -14.167240
v -23.695528 18.804516 -14.167240
v -29.487511 18.804516 -14.167240
v -12.349369 18.804516 -14.167240
v -6.674685 18.804516 -14.167240
v -3.837342 18.804516 -14.167240
v -18.022449 18.804516 -14.167240
v -20.858990 18.804516 -14.167240
v -22.277260 18.804516 -14.167240
v -2.418671 18.804516 -14.167240
v 5.876173 21.534866 -14.167240
v -1.000000 21.534866 -14.167240
v -23.695528 21.534866 -14.167240
v -29.487511 21.534866 -14.167240
v -12.349369 21.534866 -14.167240
v -6.674685 21.534866 -14.167240
v -3.837342 21.534866 -14.167240
v -18.022449 21.534866 -14.167240
v -20.858990 21.534866 -14.167240
v -22.277260 21.534866 -14.167240
v -2.418671 21.534866 -14.167240
v -22.159939 32.290546 -8.043394
v -20.741669 32.290546 -8.043394
v -29.370190 32.290546 -5.592823
v -29.370190 32.290546 -8.043394
v 1.117321 32.290546 -2.231102
v 1.117321 32.290546 -3.911962
v -25.734774 32.290546 -3.911962
v -12.232048 32.290546 -8.043394
v -17.905128 32.290546 -8.043394
v -25.734774 32.290546 -2.231102
v 1.117321 32.290546 -0.550242
v 1.117321 32.290546 1.130618
v -6.557364 32.290546 -8.043394
v -3.720021 32.290546 -8.043394
v 5.993494 32.290546 -8.043394
v -0.882679 32.290546 -8.043394
v -2.301350 32.290546 -8.043394
v -23.578207 32.290546 -8.043394
v 1.117321 32.290546 3.130618
v -25.734774 32.290546 3.130618
v -25.734774 32.290546 1.130618
v 5.993494 32.290546 -5.592823
v -25.734774 32.290546 -0.550242
v -22.101278 34.217041 -6.978085
v -29.311531 34.217041 -4.527514
v 6.052154 34.217041 -1.165793
v -12.173388 34.217041 -6.978085
v -29.311531 34.217041 -1.165793
v 6.052154 34.217041 0.515067
v -6.498703 34.217041 -6.978085
v 6.052154 34.217041 -6.978085
v -2.242690 34.217041 -6.978085
v -23.519547 34.217041 -6.978085
v -29.311531 34.217041 4.195927
v 6.052154 34.217041 -4.527514
v -20.683008 34.217041 -6.978085
v -29.311531 34.217041 -6.978085
v 6.052154 34.217041 -2.846653
v -29.311531 34.217041 -2.846653
v -17.846468 34.217041 -6.978085
v 6.052154 34.217041 2.195927
v -3.661361 34.217041 -6.978085
v -0.824018 34.217041 -6.978085
v 6.052154 34.217041 4.195927
v -29.311531 34.217041 2.195927
v -29.311531 34.217041 0.515067
v -20.712337 33.253792 -7.510739
v -29.340862 33.253792 -7.510739
v 1.146651 33.253792 -3.379308
v -25.705444 33.253792 -3.379308
v -17.875797 33.253792 -7.510739
v 1.146651 33.253792 1.663273
v -3.690691 33.253792 -7.510739
v -0.853349 33.253792 -7.510739
v -25.705444 33.253792 1.663273
v -25.705444 33.253792 -0.017587
v -22.130608 33.253792 -7.510739
v -29.340862 33.253792 -5.060168
v 1.146651 33.253792 -1.698448
v -12.202718 33.253792 -7.510739
v -25.705444 33.253792 -1.698448
v 1.146651 33.253792 -0.017587
v -6.528033 33.253792 -7.510739
v 6.022824 33.253792 -7.510739
v -2.272020 33.253792 -7.510739
v -23.548878 33.253792 -7.510739
v 6.022824 33.253792 -5.060168
vn -0.0000 -0.0000 -1.0000
vn -1.0000 -0.0000 -0.0000
vn -0.0000 -1.0000 -0.0000
vn 1.0000 -0.0000 -0.0000
vn -0.0000 -0.0000 1.0000
vn -0.0000 1.0000 -0.0000
vn -0.0000 -0.7071 -0.7071
vn -0.4215 0.8429 -0.3345
vn -0.0000 0.7071 -0.7071
vn 0.4215 0.8429 -0.3345
vn -0.0000 -0.5007 -0.8656
vn 0.5647 -0.4993 -0.6571
vn 0.5063 -0.4521 -0.7344
vn 0.5753 -0.5137 -0.6364
vn -0.6769 -0.4465 -0.5852
vn -0.7095 -0.4686 -0.5263
vn -0.7083 -0.4715 -0.5254
vn -0.6815 -0.4537 -0.5742
vn -0.0000 0.5007 0.8656
vn -0.7118 -0.4632 -0.5280
vn 0.6028 -0.5262 -0.5998
vn 0.6065 -0.5398 -0.5838
vn -0.6187 -0.4119 -0.6690
vn 0.6024 -0.5379 -0.5898
vn -0.0000 -0.4839 -0.8751
vn 0.9995 -0.0304 -0.0000
vn -0.9995 0.0304 -0.0000
vn -0.0000 0.4839 0.8751
vn 0.6122 -0.5467 -0.5712
vn -0.2876 0.4702 0.8344
vn -0.3770 -0.4394 -0.8154
vn -0.2581 -0.9661 -0.0000
vn -0.2634 0.8858 0.3820
vn 0.2581 0.9661 -0.0000
vn 0.1927 -0.9813 -0.0000
vn -0.1927 0.9813 -0.0000
vn -0.3493 -0.8575 -0.3778
vn -0.0000 -0.7071 0.7071
vn -0.4215 0.8429 0.3345
vn -0.0000 0.7071 0.7071
vn 0.4215 0.8429 0.3345
vn -0.0000 -0.5007 0.8656
vn 0.5647 -0.4993 0.6571
vn 0.5753 -0.5137 0.6364
vn 0.5063 -0.4521 0.7344
vn -0.6769 -0.4465 0.5852
vn -0.6815 -0.4537 0.5742
vn -0.7083 -0.4715 0.5254
vn -0.7095 -0.4686 0.5263
vn -0.0000 0.5007 -0.8656
vn -0.7118 -0.4632 0.5280
vn 0.6028 -0.5262 0.5998
vn 0.6065 -0.5398 0.5838
vn -0.6187 -0.4119 0.6690
vn 0.6024 -0.5379 0.5898
vn -0.0000 -0.4839 0.8751
vn -0.0000 0.4839 -0.8751
vn 0.6122 -0.5467 0.5712
vn -0.2876 0.4702 -0.8344
vn -0.3770 -0.4394 0.8154
vn -0.2634 0.8858 -0.3820
vn -0.3493 -0.8575 0.3778
vt 0.625000 0.500000
vt 0.625000 0.250000
vt 0.625000 0.000000
vt 0.375000 0.000000
vt 0.375000 0.250000
vt 0.125000 0.500000
vt 0.375000 0.500000
vt 0.375000 0.750000
vt 0.125000 0.750000
vt 0.625000 0.750000
vt 0.625000 1.000000
vt 0.375000 1.000000
vt 0.875000 0.750000
vt 0.875000 0.500000
vt 0.576992 0.000000
vt 0.625000 0.750000
vt 0.875000 0.750000
vt 0.625000 0.750000
vt 0.875000 0.709879
vt 0.625000 0.719910
vt 0.625000 0.709879
vt 0.854940 0.699849
vt 0.625000 1.000000
vt 0.625000 0.750000
vt 0.875000 0.750000
vt 0.875000 0.750000
vt 0.625000 1.000000
vt 0.625000 0.750000
vt 0.875000 0.750000
vt 0.625000 0.750000
vt 0.625000 1.000000
vt 0.625000 0.750000
vt 0.625000 0.750000
vt 0.625000 0.000000
vt 0.625000 0.000000
s 1
usemtl Material
f 1/1/1 5/2/1 15/2/1 13/1/1
f 166/3/2 161/4/2 12/4/2 11/3/2
f 8/4/2 7/3/2 5/2/2 6/5/2
f 6/6/3 2/7/3 4/8/3 8/9/3
f 2/7/4 1/1/4 3/10/4 4/8/4
f 6/5/1 5/2/1 1/1/1 2/7/1
f 93/2/2 90/3/2 28/3/2 27/2/2
f 161/9/3 162/8/3 10/8/3 12/9/3
f 12/9/3 10/8/3 20/8/3 22/9/3
f 162/8/4 167/10/4 9/10/4 10/8/4
f 199/10/4 89/10/4 26/10/4 186/10/4
f 91/11/5 88/10/5 31/10/5 32/11/5
f 182/10/4 3/10/4 14/10/4 184/10/4
f 166/3/2 11/3/2 18/3/2 168/3/2
f 5/2/2 7/3/2 16/3/2 15/2/2
f 3/10/4 1/1/4 13/1/4 14/10/4
f 20/8/5 19/10/5 21/11/5 22/12/5
f 21/11/5 19/10/5 23/10/5 24/11/5
f 10/8/4 9/10/4 19/10/4 20/8/4
f 313/13/6 301/13/6 52/13/6 190/13/6
f 307/11/5 300/11/5 50/11/5 96/11/5
f 9/10/4 17/10/4 23/10/4 19/10/4
f 31/10/4 29/10/4 37/10/4 39/10/4
f 317/3/1 316/3/1 41/3/1 43/3/1
f 186/10/4 26/10/4 34/10/4 188/10/4
f 316/3/1 297/4/1 42/4/1 41/3/1
f 179/3/2 94/3/2 30/3/2 170/3/2
f 95/1/1 93/2/1 27/2/1 25/1/1
f 89/10/4 95/1/4 25/1/4 26/10/4
f 88/10/4 92/10/4 29/10/4 31/10/4
f 495/3/2 508/3/2 370/3/2 366/3/2
f 447/13/3 445/13/3 507/13/3 591/13/3
f 529/13/1 506/13/1 355/13/1 384/13/1
f 32/11/5 31/10/5 39/10/5 40/11/5
f 311/3/3 298/3/3 49/3/3 174/3/3
f 25/1/1 27/2/1 35/2/1 33/1/1
f 26/10/4 25/1/4 33/1/4 34/10/4
f 315/2/1 299/2/1 47/2/1 51/2/1
f 528/13/1 505/13/1 375/13/1 377/13/1
f 44/11/5 46/11/5 60/11/5 58/11/5
f 99/3/2 63/3/2 74/3/2 113/3/2
f 45/12/5 44/11/5 58/11/5 59/12/5
f 50/11/5 54/11/5 68/11/5 64/11/5
f 304/3/1 317/3/1 43/3/1 84/3/1
f 300/11/5 302/11/5 54/11/5 50/11/5
f 320/11/5 318/11/5 46/11/5 44/11/5
f 527/13/4 519/14/4 353/14/4 354/13/4
f 299/2/3 314/3/3 48/3/3 47/2/3
f 297/9/3 303/9/3 45/9/3 42/9/3
f 301/13/6 315/14/6 51/14/6 52/13/6
f 303/12/5 320/11/5 44/11/5 45/12/5
f 57/3/2 55/3/2 58/3/2 60/3/2
f 55/3/2 56/4/2 59/4/2 58/3/2
f 61/2/2 62/3/2 66/3/2 65/2/2
f 99/3/2 98/3/2 64/3/2 63/3/2
f 176/3/2 63/3/2 67/3/2 177/3/2
f 63/3/2 64/3/2 68/3/2 67/3/2
f 42/9/3 45/9/3 59/9/3 56/9/3
f 445/13/3 446/13/3 590/13/3 507/13/3
f 525/10/4 520/10/4 368/10/4 349/10/4
f 42/9/3 56/9/3 72/9/3 69/9/3
f 47/2/3 48/3/3 62/3/3 61/2/3
f 96/11/5 50/11/5 64/11/5 98/11/5
f 51/2/1 47/2/1 61/2/1 65/2/1
f 174/3/3 49/3/3 63/3/3 176/3/3
f 63/3/6 49/3/6 71/3/6 74/3/6
f 69/9/3 72/9/3 114/9/3 87/9/3
f 113/3/2 74/3/2 101/3/2 105/3/2
f 46/11/5 83/11/5 85/11/5 60/11/5
f 57/3/2 60/3/2 85/3/2 86/3/2
f 306/3/1 304/3/1 84/3/1 97/3/1
f 23/10/4 17/10/4 78/10/4 76/10/4
f 14/10/4 13/1/4 82/1/4 77/10/4
f 13/1/1 15/2/1 80/2/1 82/1/1
f 168/3/2 18/3/2 81/3/2 178/3/2
f 318/11/5 305/11/5 83/11/5 46/11/5
f 24/11/5 23/10/5 76/10/5 75/11/5
f 184/10/4 14/10/4 77/10/4 198/10/4
f 15/2/2 16/3/2 79/3/2 80/2/2
f 298/3/1 306/3/1 97/3/1 49/3/1
f 49/3/4 97/3/4 108/3/4 71/3/4
f 83/11/5 96/11/5 98/11/5 85/11/5
f 86/3/2 85/3/2 98/3/2 99/3/2
f 76/10/4 78/10/4 92/10/4 88/10/4
f 77/10/4 82/1/4 95/1/4 89/10/4
f 82/1/1 80/2/1 93/2/1 95/1/1
f 178/3/2 81/3/2 94/3/2 179/3/2
f 305/11/5 307/11/5 96/11/5 83/11/5
f 75/11/5 76/10/5 88/10/5 91/11/5
f 198/10/4 77/10/4 89/10/4 199/10/4
f 80/2/2 79/3/2 90/3/2 93/2/2
f 104/3/1 102/3/1 103/3/1 105/3/1
f 100/3/1 104/3/1 105/3/1 101/3/1
f 71/3/4 108/3/4 104/3/4 100/3/4
f 74/3/6 71/3/6 100/3/6 101/3/6
f 106/3/4 107/3/4 108/3/4 109/3/4
f 110/3/2 111/3/2 112/3/2 113/3/2
f 106/3/7 111/3/7 110/3/7 107/3/7
f 84/3/4 43/3/4 70/3/4 106/3/4 109/3/4
f 107/3/3 110/3/3 103/3/3 102/3/3
f 108/3/4 107/3/4 102/3/4 104/3/4
f 106/3/1 70/3/1 73/3/1 111/3/1
f 97/3/4 84/3/4 109/3/4 108/3/4
f 57/3/2 86/3/2 112/3/2 111/3/2 73/3/2
f 110/3/2 113/3/2 105/3/2 103/3/2
f 86/3/2 99/3/2 113/3/2 112/3/2
f 115/3/6 117/3/6 118/3/6 116/3/6
f 122/15/8 118/3/8 117/3/8 121/3/8
f 120/15/9 122/15/9 121/3/9 119/3/9
f 116/3/10 120/15/10 119/3/10 115/3/10
f 116/3/4 69/4/4 87/4/4 120/15/4
f 43/3/4 41/3/4 116/3/4 70/3/4
f 70/3/1 116/3/1 118/3/1 73/3/1
f 41/3/4 42/4/4 69/4/4 116/3/4
f 117/3/6 115/3/6 119/3/6 121/3/6
f 56/4/2 55/3/2 118/3/2 72/4/2
f 55/3/2 57/3/2 73/3/2 118/3/2
f 72/4/2 118/3/2 122/15/2 114/4/2
f 120/15/1 87/4/1 114/4/1 122/15/1
f 216/11/5 218/11/5 140/11/5 138/11/5
f 209/3/1 217/3/1 139/3/1 125/3/1
f 205/11/5 216/11/5 138/11/5 131/11/5
f 217/3/1 215/3/1 137/3/1 139/3/1
f 214/12/5 207/11/5 135/11/5 136/12/5
f 212/13/6 202/14/6 126/14/6 132/13/6
f 208/9/3 214/9/3 136/9/3 123/9/3
f 210/2/3 201/3/3 124/3/3 127/2/3
f 497/11/5 521/11/5 383/11/5 356/11/5
f 207/11/5 205/11/5 131/11/5 135/11/5
f 211/11/5 213/11/5 134/11/5 130/11/5
f 215/3/1 204/3/1 129/3/1 137/3/1
f 202/2/1 210/2/1 127/2/1 126/2/1
f 222/3/3 209/3/3 125/3/3 180/3/3
f 203/3/1 208/4/1 123/4/1 128/3/1
f 204/3/1 203/3/1 128/3/1 129/3/1
f 218/11/5 211/11/5 130/11/5 140/11/5
f 224/13/6 212/13/6 132/13/6 200/13/6
f 221/13/6 219/13/6 160/13/6 165/13/6
f 223/3/3 220/3/3 159/3/3 195/3/3
f 163/10/4 156/10/4 158/10/4 164/16/4
f 193/3/2 155/3/2 157/3/2 194/3/2
f 169/10/4 146/10/4 156/10/4 163/10/4
f 183/3/2 145/3/2 155/3/2 193/3/2
f 189/3/3 151/3/3 153/3/3 191/3/3
f 524/11/5 503/11/5 378/11/5 376/11/5
f 191/3/2 153/3/2 154/3/2 192/3/2
f 312/3/3 308/3/3 151/3/3 189/3/3
f 514/13/4 522/13/4 365/13/4 369/13/4
f 194/3/2 157/3/2 147/3/2 185/3/2
f 171/10/4 148/10/4 150/10/4 173/10/4
f 310/13/6 309/13/6 152/13/6 175/13/6
f 181/3/2 142/3/2 145/3/2 183/3/2
f 167/10/4 144/10/4 146/10/4 169/10/4
f 164/16/4 158/10/4 148/10/4 171/10/4
f 197/8/4 182/10/4 144/10/4 143/8/4
f 196/9/3 197/8/3 143/8/3 141/9/3
f 181/3/2 196/4/2 141/4/2 142/3/2
f 92/10/4 164/16/4 171/10/4 29/10/4
f 9/10/4 167/10/4 169/10/4 17/10/4
f 319/13/6 310/13/6 175/13/6 53/13/6
f 29/10/4 171/10/4 173/10/4 37/10/4
f 502/13/2 515/13/2 350/13/2 367/13/2
f 17/10/4 169/10/4 163/10/4 78/10/4
f 78/10/4 163/10/4 164/16/4 92/10/4
f 206/13/6 221/13/6 165/13/6 133/13/6
f 220/3/3 222/3/3 180/3/3 159/3/3
f 155/3/2 178/3/2 179/3/2 157/3/2
f 145/3/2 168/3/2 178/3/2 155/3/2
f 151/3/3 174/3/3 176/3/3 153/3/3
f 153/3/2 176/3/2 177/3/2 154/3/2
f 308/3/3 311/3/3 174/3/3 151/3/3
f 515/13/1 494/13/1 385/13/1 350/13/1
f 157/3/2 179/3/2 170/3/2 147/3/2
f 142/3/2 166/3/2 168/3/2 145/3/2
f 143/8/4 144/10/4 167/10/4 162/8/4
f 141/9/3 143/8/3 162/8/3 161/9/3
f 142/3/2 141/4/2 161/4/2 166/3/2
f 7/3/2 8/4/2 196/4/2 181/3/2
f 8/9/3 4/8/3 197/8/3 196/9/3
f 4/8/4 3/10/4 182/10/4 197/8/4
f 7/3/2 181/3/2 183/3/2 16/3/2
f 90/3/2 194/3/2 185/3/2 28/3/2
f 516/3/2 495/3/2 366/3/2 374/3/2
f 314/3/3 312/3/3 189/3/3 48/3/3
f 62/3/2 191/3/2 192/3/2 66/3/2
f 48/3/3 189/3/3 191/3/3 62/3/3
f 16/3/2 183/3/2 193/3/2 79/3/2
f 79/3/2 193/3/2 194/3/2 90/3/2
f 201/3/3 223/3/3 195/3/3 124/3/3
f 219/13/6 224/13/6 200/13/6 160/13/6
f 156/10/4 198/10/4 199/10/4 158/10/4
f 146/10/4 184/10/4 198/10/4 156/10/4
f 517/11/5 496/11/5 352/11/5 386/11/5
f 148/10/4 186/10/4 188/10/4 150/10/4
f 309/13/6 313/13/6 190/13/6 152/13/6
f 144/10/4 182/10/4 184/10/4 146/10/4
f 158/10/4 199/10/4 186/10/4 148/10/4
f 243/13/6 248/13/6 224/13/6 219/13/6
f 225/3/3 247/3/3 223/3/3 201/3/3
f 244/3/3 246/3/3 222/3/3 220/3/3
f 230/13/6 245/13/6 221/13/6 206/13/6
f 247/3/3 244/3/3 220/3/3 223/3/3
f 245/13/6 243/13/6 219/13/6 221/13/6
f 248/13/6 236/13/6 212/13/6 224/13/6
f 242/11/5 235/11/5 211/11/5 218/11/5
f 228/3/1 227/3/1 203/3/1 204/3/1
f 227/3/1 232/4/1 208/4/1 203/3/1
f 246/3/3 233/3/3 209/3/3 222/3/3
f 226/2/1 234/2/1 210/2/1 202/2/1
f 239/3/1 228/3/1 204/3/1 215/3/1
f 235/11/5 237/11/5 213/11/5 211/11/5
f 231/11/5 229/11/5 205/11/5 207/11/5
f 518/11/5 497/11/5 356/11/5 360/11/5
f 234/2/3 225/3/3 201/3/3 210/2/3
f 232/9/3 238/9/3 214/9/3 208/9/3
f 236/13/6 226/14/6 202/14/6 212/13/6
f 238/12/5 231/11/5 207/11/5 214/12/5
f 241/3/1 239/3/1 215/3/1 217/3/1
f 229/11/5 240/11/5 216/11/5 205/11/5
f 233/3/1 241/3/1 217/3/1 209/3/1
f 240/11/5 242/11/5 218/11/5 216/11/5
f 336/11/5 338/11/5 242/11/5 240/11/5
f 329/3/1 337/3/1 241/3/1 233/3/1
f 325/11/5 336/11/5 240/11/5 229/11/5
f 337/3/1 335/3/1 239/3/1 241/3/1
f 334/12/5 327/11/5 231/11/5 238/12/5
f 332/13/6 322/14/6 226/14/6 236/13/6
f 328/9/3 334/9/3 238/9/3 232/9/3
f 330/2/3 321/3/3 225/3/3 234/2/3
f 519/2/1 498/2/1 357/2/1 353/2/1
f 327/11/5 325/11/5 229/11/5 231/11/5
f 331/11/5 333/11/5 237/11/5 235/11/5
f 335/3/1 324/3/1 228/3/1 239/3/1
f 322/2/1 330/2/1 234/2/1 226/2/1
f 342/3/3 329/3/3 233/3/3 246/3/3
f 323/3/1 328/4/1 232/4/1 227/3/1
f 324/3/1 323/3/1 227/3/1 228/3/1
f 338/11/5 331/11/5 235/11/5 242/11/5
f 344/13/6 332/13/6 236/13/6 248/13/6
f 341/13/6 339/13/6 243/13/6 245/13/6
f 343/3/3 340/3/3 244/3/3 247/3/3
f 326/13/6 341/13/6 245/13/6 230/13/6
f 340/3/3 342/3/3 246/3/3 244/3/3
f 321/3/3 343/3/3 247/3/3 225/3/3
f 339/13/6 344/13/6 248/13/6 243/13/6
f 160/13/6 200/13/6 272/13/6 268/13/6
f 124/3/3 195/3/3 271/3/3 260/3/3
f 159/3/3 180/3/3 270/3/3 267/3/3
f 133/13/6 165/13/6 269/13/6 265/13/6
f 165/13/6 160/13/6 268/13/6 269/13/6
f 195/3/3 159/3/3 267/3/3 271/3/3
f 138/11/5 140/11/5 259/11/5 257/11/5
f 125/3/1 139/3/1 258/3/1 250/3/1
f 131/11/5 138/11/5 257/11/5 264/11/5
f 139/3/1 137/3/1 256/3/1 258/3/1
f 136/12/5 135/11/5 266/11/5 255/12/5
f 132/13/6 126/14/6 261/14/6 253/13/6
f 123/9/3 136/9/3 255/9/3 249/9/3
f 127/2/3 124/3/3 260/3/3 251/2/3
f 520/10/4 499/10/4 364/10/4 368/10/4
f 135/11/5 131/11/5 264/11/5 266/11/5
f 130/11/5 134/11/5 254/11/5 252/11/5
f 137/3/1 129/3/1 263/3/1 256/3/1
f 126/2/1 127/2/1 251/2/1 261/2/1
f 180/3/3 125/3/3 250/3/3 270/3/3
f 128/3/1 123/4/1 249/4/1 262/3/1
f 129/3/1 128/3/1 262/3/1 263/3/1
f 140/11/5 130/11/5 252/11/5 259/11/5
f 200/13/6 132/13/6 253/13/6 272/13/6
f 268/13/6 272/13/6 289/13/6 285/13/6
f 260/3/3 271/3/3 288/3/3 290/3/3
f 267/3/3 270/3/3 287/3/3 284/3/3
f 265/13/6 269/13/6 286/13/6 295/13/6
f 269/13/6 268/13/6 285/13/6 286/13/6
f 271/3/3 267/3/3 284/3/3 288/3/3
f 257/11/5 259/11/5 283/11/5 281/11/5
f 250/3/1 258/3/1 282/3/1 274/3/1
f 264/11/5 257/11/5 281/11/5 294/11/5
f 258/3/1 256/3/1 280/3/1 282/3/1
f 255/12/5 266/11/5 296/11/5 279/12/5
f 253/13/6 261/14/6 291/14/6 277/13/6
f 249/9/3 255/9/3 279/9/3 273/9/3
f 251/2/3 260/3/3 290/3/3 275/2/3
f 521/11/5 500/11/5 381/11/5 383/11/5
f 266/11/5 264/11/5 294/11/5 296/11/5
f 252/11/5 254/11/5 278/11/5 276/11/5
f 256/3/1 263/3/1 293/3/1 280/3/1
f 261/2/1 251/2/1 275/2/1 291/2/1
f 270/3/3 250/3/3 274/3/3 287/3/3
f 262/3/1 249/4/1 273/4/1 292/3/1
f 263/3/1 262/3/1 292/3/1 293/3/1
f 259/11/5 252/11/5 276/11/5 283/11/5
f 272/13/6 253/13/6 277/13/6 289/13/6
f 285/13/6 289/13/6 313/13/6 309/13/6
f 290/3/3 288/3/3 312/3/3 314/3/3
f 284/3/3 287/3/3 311/3/3 308/3/3
f 295/13/6 286/13/6 310/13/6 319/13/6
f 286/13/6 285/13/6 309/13/6 310/13/6
f 288/3/3 284/3/3 308/3/3 312/3/3
f 281/11/5 283/11/5 307/11/5 305/11/5
f 274/3/1 282/3/1 306/3/1 298/3/1
f 294/11/5 281/11/5 305/11/5 318/11/5
f 282/3/1 280/3/1 304/3/1 306/3/1
f 279/12/5 296/11/5 320/11/5 303/12/5
f 277/13/6 291/14/6 315/14/6 301/13/6
f 273/9/3 279/9/3 303/9/3 297/9/3
f 275/2/3 290/3/3 314/3/3 299/2/3
f 522/13/4 501/13/4 373/13/4 365/13/4
f 296/11/5 294/11/5 318/11/5 320/11/5
f 276/11/5 278/11/5 302/11/5 300/11/5
f 280/3/1 293/3/1 317/3/1 304/3/1
f 291/2/1 275/2/1 299/2/1 315/2/1
f 287/3/3 274/3/3 298/3/3 311/3/3
f 292/3/1 273/4/1 297/4/1 316/3/1
f 293/3/1 292/3/1 316/3/1 317/3/1
f 283/11/5 276/11/5 300/11/5 307/11/5
f 289/13/6 277/13/6 301/13/6 313/13/6
f 149/13/6 187/13/6 344/13/6 339/13/6
f 28/3/3 185/3/3 343/3/3 321/3/3
f 147/3/3 170/3/3 342/3/3 340/3/3
f 38/13/6 172/13/6 341/13/6 326/13/6
f 185/3/3 147/3/3 340/3/3 343/3/3
f 172/13/6 149/13/6 339/13/6 341/13/6
f 187/13/6 36/13/6 332/13/6 344/13/6
f 91/11/5 32/11/5 331/11/5 338/11/5
f 18/3/1 11/3/1 323/3/1 324/3/1
f 11/3/1 12/4/1 328/4/1 323/3/1
f 170/3/3 30/3/3 329/3/3 342/3/3
f 35/2/1 27/2/1 330/2/1 322/2/1
f 81/3/1 18/3/1 324/3/1 335/3/1
f 32/11/5 40/11/5 333/11/5 331/11/5
f 21/11/5 24/11/5 325/11/5 327/11/5
f 523/13/2 502/13/2 367/13/2 363/13/2
f 27/2/3 28/3/3 321/3/3 330/2/3
f 12/9/3 22/9/3 334/9/3 328/9/3
f 36/13/6 35/14/6 322/14/6 332/13/6
f 22/12/5 21/11/5 327/11/5 334/12/5
f 94/3/1 81/3/1 335/3/1 337/3/1
f 24/11/5 75/11/5 336/11/5 325/11/5
f 30/3/1 94/3/1 337/3/1 329/3/1
f 75/11/5 91/11/5 338/11/5 336/11/5
f 372/10/4 346/10/4 388/10/4 414/10/4
f 377/13/1 375/13/1 417/13/1 419/13/1
f 353/2/1 357/2/1 399/2/1 395/2/1
f 386/11/11 352/11/11 620/11/11 629/11/11
f 349/10/12 368/10/13 410/10/13 391/10/14
f 367/13/3 350/13/3 444/13/3 446/13/3
f 359/3/15 360/3/16 402/3/17 401/3/18
f 385/13/1 377/13/1 419/13/1 427/13/1
f 409/13/6 405/13/6 451/13/6 452/13/6
f 404/17/19 421/13/19 637/13/19 634/17/19
f 358/3/2 374/3/2 416/3/2 400/3/2
f 345/1/1 347/2/1 389/2/1 387/1/1
f 375/13/1 361/13/1 403/13/1 417/13/1
f 357/2/2 358/3/2 400/3/2 399/2/2
f 384/13/1 355/13/1 397/13/1 426/13/1
f 350/13/5 392/13/5 450/13/5 444/13/5
f 376/11/11 378/11/11 625/11/11 624/11/11
f 352/11/11 351/10/11 619/10/11 620/11/11
f 366/3/2 370/3/2 412/3/2 408/3/2
f 346/10/4 345/1/4 387/1/4 388/10/4
f 501/13/4 527/13/4 354/13/4 373/13/4
f 498/2/2 509/3/2 358/3/2 357/2/2
f 506/13/4 514/13/4 369/13/4 355/13/4
f 504/1/1 530/2/1 347/2/1 345/1/1
f 531/13/1 510/13/1 380/13/1 361/13/1
f 509/3/2 516/3/2 374/3/2 358/3/2
f 500/11/5 511/11/5 379/11/5 381/11/5
f 532/3/20 518/3/20 360/3/16 359/3/15
f 533/11/5 524/11/5 376/11/5 362/11/5
f 507/13/2 590/13/2 596/13/2 595/13/2
f 508/3/2 532/3/2 359/3/2 370/3/2
f 494/13/1 528/13/1 377/13/1 385/13/1
f 590/13/2 526/13/2 594/13/2 596/13/2
f 510/13/1 512/13/1 382/13/1 380/13/1
f 505/13/1 531/13/1 361/13/1 375/13/1
f 496/11/5 513/10/5 351/10/5 352/11/5
f 512/13/1 529/13/1 384/13/1 382/13/1
f 578/13/2 523/13/2 363/13/2 371/13/2
f 503/11/5 517/11/5 386/11/5 378/11/5
f 513/10/21 525/10/21 349/10/12 351/10/22
f 511/11/5 533/11/5 362/11/5 379/11/5
f 499/10/4 534/10/4 372/10/4 364/10/4
f 391/10/6 392/13/6 394/13/6 393/10/6
f 387/1/6 389/14/6 390/13/6 388/10/6
f 410/10/6 409/13/6 392/13/6 391/10/6
f 396/13/6 395/14/6 399/14/6 400/13/6
f 425/13/6 426/13/6 397/13/6 398/13/6
f 415/13/6 396/13/6 400/13/6 416/13/6
f 398/13/6 397/13/6 401/13/6 402/13/6
f 418/13/6 417/13/6 403/13/6 404/17/6
f 411/13/6 407/13/6 408/13/6 412/13/6
f 414/10/6 413/13/6 405/13/6 406/10/6
f 397/13/6 411/13/6 412/13/6 401/13/6
f 406/10/6 405/13/6 409/13/6 410/10/6
f 388/10/6 390/13/6 413/13/6 414/10/6
f 407/13/6 415/13/6 416/13/6 408/13/6
f 420/13/6 419/13/6 417/13/6 418/13/6
f 428/13/6 427/13/6 419/13/6 420/13/6
f 404/17/6 403/13/6 422/13/6 421/13/6
f 421/13/6 422/13/6 424/13/6 423/13/6
f 423/13/6 424/13/6 426/13/6 425/13/6
f 394/13/6 392/13/6 427/13/6 428/13/6
f 407/13/6 411/13/6 440/13/6 439/13/6
f 423/13/19 425/13/19 639/13/19 638/13/19
f 398/13/19 402/13/19 633/13/19 632/13/19
f 370/3/23 359/3/15 401/3/18 412/3/23
f 361/13/1 380/13/1 422/13/1 403/13/1
f 428/13/19 420/13/19 636/13/19 640/13/19
f 351/10/22 349/10/12 391/10/14 393/10/24
f 379/11/11 362/11/11 623/11/11 626/11/11
f 380/13/1 382/13/1 424/13/1 422/13/1
f 418/13/19 404/17/19 634/17/19 635/13/19
f 371/13/3 363/13/3 445/13/3 447/13/3
f 396/13/6 415/13/6 441/13/6 437/13/6
f 364/10/4 372/10/4 414/10/4 406/10/4
f 392/13/6 409/13/6 452/13/6 450/13/6
f 383/11/11 381/11/11 627/11/11 628/11/11
f 353/2/1 395/2/1 436/2/1 429/2/1
f 395/14/6 396/13/6 437/13/6 436/14/6
f 368/10/4 364/10/4 406/10/4 410/10/4
f 382/13/1 384/13/1 426/13/1 424/13/1
f 374/3/2 366/3/2 408/3/2 416/3/2
f 411/13/6 397/13/6 438/13/6 440/13/6
f 350/13/1 385/13/1 427/13/1 392/13/1
f 431/13/4 434/13/4 440/13/4 438/13/4
f 430/13/4 429/14/4 436/14/4 437/13/4
f 435/13/4 430/13/4 437/13/4 441/13/4
f 433/13/4 435/13/4 441/13/4 439/13/4
f 434/13/4 433/13/4 439/13/4 440/13/4
f 365/13/3 373/13/3 435/13/3 433/13/3
f 355/13/3 369/13/3 434/13/3 431/13/3
f 354/13/3 353/14/3 429/14/3 430/13/3
f 357/2/6 353/2/6 429/2/6 432/2/6
f 373/13/3 354/13/3 430/13/3 435/13/3
f 415/13/6 407/13/6 439/13/6 441/13/6
f 369/13/3 365/13/3 433/13/3 434/13/3
f 397/13/5 355/13/5 431/13/5 438/13/5
f 443/13/3 447/13/3 591/13/3 547/13/3
f 451/13/6 453/13/6 597/13/6 595/13/6
f 448/2/1 442/2/1 568/2/1 592/2/1
f 449/13/6 448/14/6 592/14/6 593/13/6
f 442/14/3 443/13/3 547/13/3 568/14/3
f 413/13/6 390/13/6 449/13/6 453/13/6
f 390/13/6 389/14/6 448/14/6 449/13/6
f 363/13/3 367/13/3 446/13/3 445/13/3
f 348/13/3 371/13/3 447/13/3 443/13/3
f 405/13/6 413/13/6 453/13/6 451/13/6
f 389/2/1 347/2/1 442/2/1 448/2/1
f 347/14/3 348/13/3 443/13/3 442/14/3
f 560/10/4 585/10/4 491/10/4 466/10/4
f 572/11/5 554/11/5 489/11/5 487/11/5
f 575/10/4 546/10/4 475/10/4 493/18/4
f 564/11/5 538/11/5 459/11/5 473/11/5
f 573/13/2 544/13/2 471/13/2 490/13/2
f 574/13/1 550/13/1 481/13/1 492/13/1
f 557/11/5 575/10/5 493/18/5 460/11/5
f 566/13/1 552/13/1 486/13/1 478/13/1
f 571/13/1 574/13/1 492/13/1 485/13/1
f 446/13/3 444/13/3 526/13/3 590/13/3
f 555/13/1 549/13/1 479/13/1 456/13/1
f 569/3/2 553/3/2 488/3/2 483/3/2
f 591/13/2 507/13/2 595/13/2 597/13/2
f 554/11/5 545/11/5 474/11/5 489/11/5
f 553/3/2 539/3/2 461/3/2 488/3/2
f 561/11/5 572/11/5 487/11/5 468/11/5
f 570/3/2 537/3/2 457/3/2 484/3/2
f 552/13/1 571/13/1 485/13/1 486/13/1
f 567/13/4 535/13/4 454/13/4 480/13/4
f 559/2/2 570/3/2 484/3/2 464/2/2
f 562/13/4 548/13/4 477/13/4 470/13/4
f 544/13/2 563/13/2 472/13/2 471/13/2
f 543/13/4 562/13/4 470/13/4 469/13/4
f 542/11/5 561/11/5 468/11/5 467/11/5
f 541/10/4 560/10/4 466/10/4 465/10/4
f 540/2/1 559/2/1 464/2/1 463/2/1
f 539/11/5 558/11/5 462/11/5 461/11/5
f 538/11/5 557/11/5 460/11/5 459/11/5
f 537/3/2 556/3/2 458/3/2 457/3/2
f 536/13/1 555/13/1 456/13/1 455/13/1
f 563/13/2 536/13/2 455/13/2 472/13/2
f 535/13/4 543/13/4 469/13/4 454/13/4
f 545/11/5 564/11/5 473/11/5 474/11/5
f 558/11/5 542/11/5 467/11/5 462/11/5
f 546/10/4 541/10/4 465/10/4 475/10/4
f 548/13/4 540/14/4 463/14/4 477/13/4
f 549/13/1 566/13/1 478/13/1 479/13/1
f 550/13/1 567/13/1 480/13/1 481/13/1
f 556/3/2 569/3/2 483/3/2 458/3/2
f 466/10/4 491/10/4 534/10/4 499/10/4
f 487/11/5 489/11/5 533/11/5 511/11/5
f 493/18/4 475/10/4 525/10/4 513/10/4
f 473/11/5 459/11/5 517/11/5 503/11/5
f 490/13/2 471/13/2 523/13/2 578/13/2
f 492/13/1 481/13/1 529/13/1 512/13/1
f 460/11/5 493/18/5 513/10/5 496/11/5
f 478/13/1 486/13/1 531/13/1 505/13/1
f 485/13/1 492/13/1 512/13/1 510/13/1
f 444/13/5 450/13/5 594/13/5 526/13/5
f 456/13/1 479/13/1 528/13/1 494/13/1
f 483/3/2 488/3/2 532/3/2 508/3/2
f 547/13/2 591/13/2 597/13/2 593/13/2
f 489/11/5 474/11/5 524/11/5 533/11/5
f 488/3/2 461/3/2 518/3/2 532/3/2
f 468/11/5 487/11/5 511/11/5 500/11/5
f 484/3/2 457/3/2 516/3/2 509/3/2
f 486/13/1 485/13/1 510/13/1 531/13/1
f 480/13/4 454/13/4 514/13/4 506/13/4
f 464/2/2 484/3/2 509/3/2 498/2/2
f 470/13/4 477/13/4 527/13/4 501/13/4
f 471/13/2 472/13/2 502/13/2 523/13/2
f 469/13/4 470/13/4 501/13/4 522/13/4
f 467/11/5 468/11/5 500/11/5 521/11/5
f 465/10/4 466/10/4 499/10/4 520/10/4
f 463/2/1 464/2/1 498/2/1 519/2/1
f 461/11/5 462/11/5 497/11/5 518/11/5
f 459/11/5 460/11/5 496/11/5 517/11/5
f 457/3/2 458/3/2 495/3/2 516/3/2
f 455/13/1 456/13/1 494/13/1 515/13/1
f 472/13/2 455/13/2 515/13/2 502/13/2
f 454/13/4 469/13/4 522/13/4 514/13/4
f 474/11/5 473/11/5 503/11/5 524/11/5
f 462/11/5 467/11/5 521/11/5 497/11/5
f 475/10/4 465/10/4 520/10/4 525/10/4
f 477/13/4 463/14/4 519/14/4 527/13/4
f 479/13/1 478/13/1 505/13/1 528/13/1
f 481/13/1 480/13/1 506/13/1 529/13/1
f 458/3/2 483/3/2 508/3/2 495/3/2
f 154/3/2 177/3/2 569/3/2 556/3/2
f 319/13/1 53/13/1 567/13/1 550/13/1
f 230/13/1 206/13/1 566/13/1 549/13/1
f 52/13/4 51/14/4 540/14/4 548/13/4
f 452/13/6 451/13/6 595/13/6 596/13/6
f 37/10/4 173/10/4 541/10/4 546/10/4
f 54/11/5 302/11/5 542/11/5 558/11/5
f 213/11/5 237/11/5 564/11/5 545/11/5
f 175/13/4 152/13/4 543/13/4 535/13/4
f 172/13/2 38/13/2 536/13/2 563/13/2
f 38/13/1 326/13/1 555/13/1 536/13/1
f 192/3/2 154/3/2 556/3/2 537/3/2
f 333/11/5 40/11/5 557/11/5 538/11/5
f 68/11/5 54/11/5 558/11/5 539/11/5
f 51/2/1 65/2/1 559/2/1 540/2/1
f 173/10/4 150/10/4 560/10/4 541/10/4
f 302/11/5 278/11/5 561/11/5 542/11/5
f 152/13/4 190/13/4 562/13/4 543/13/4
f 149/13/2 172/13/2 563/13/2 544/13/2
f 190/13/4 52/13/4 548/13/4 562/13/4
f 65/2/2 66/3/2 570/3/2 559/2/2
f 53/13/4 175/13/4 535/13/4 567/13/4
f 33/1/1 35/2/1 551/2/1 565/1/1
f 133/13/1 265/13/1 571/13/1 552/13/1
f 66/3/2 192/3/2 537/3/2 570/3/2
f 278/11/5 254/11/5 572/11/5 561/11/5
f 67/3/2 68/3/2 539/3/2 553/3/2
f 134/11/5 213/11/5 545/11/5 554/11/5
f 177/3/2 67/3/2 553/3/2 569/3/2
f 326/13/1 230/13/1 549/13/1 555/13/1
f 450/13/6 452/13/6 596/13/6 594/13/6
f 265/13/1 295/13/1 574/13/1 571/13/1
f 206/13/1 133/13/1 552/13/1 566/13/1
f 40/11/5 39/10/5 575/10/5 557/11/5
f 295/13/1 319/13/1 550/13/1 574/13/1
f 187/13/2 149/13/2 544/13/2 573/13/2
f 237/11/5 333/11/5 538/11/5 564/11/5
f 39/10/4 37/10/4 546/10/4 575/10/4
f 254/11/5 134/11/5 554/11/5 572/11/5
f 150/10/4 188/10/4 585/10/4 560/10/4
f 453/13/6 449/13/6 593/13/6 597/13/6
f 568/14/2 547/13/2 593/13/2 592/14/2
f 576/19/2 577/13/2 578/13/2 579/13/2
f 580/10/4 581/20/4 582/10/4 534/10/4
f 583/21/4 584/10/4 585/10/4 586/10/4
f 587/13/2 588/22/2 589/13/2 573/13/2
f 587/13/9 584/10/9 583/21/9 588/22/9
f 580/10/7 577/13/7 576/19/7 581/20/7
f 579/13/2 578/13/2 371/13/2 348/13/2
f 530/14/3 504/1/3 581/20/3 576/19/3
f 580/10/1 476/10/1 584/10/1 587/13/1 482/13/1 577/13/1
f 530/14/2 576/19/2 579/13/2 348/13/2 347/14/2
f 482/13/2 490/13/2 578/13/2 577/13/2
f 534/10/4 582/10/4 346/10/4 372/10/4
f 491/10/4 476/10/4 580/10/4 534/10/4
f 582/10/4 581/20/4 504/1/4 345/1/4 346/10/4
f 188/10/4 34/10/4 586/10/4 585/10/4
f 34/10/4 33/1/4 565/1/4 583/21/4 586/10/4
f 585/10/4 584/10/4 476/10/4 491/10/4
f 588/22/6 583/21/6 565/1/6 551/2/6
f 36/13/2 187/13/2 573/13/2 589/13/2
f 35/14/2 36/13/2 589/13/2 588/22/2 551/14/2
f 587/13/2 573/13/2 490/13/2 482/13/2
f 676/11/25 664/23/25 617/11/25 616/11/25
f 677/3/26 665/3/26 604/3/26 605/3/26
f 678/24/26 666/24/26 607/10/26 609/10/26
f 679/25/27 665/25/27 604/13/27 610/13/27
f 680/13/28 667/26/28 606/17/28 615/13/28
f 679/3/26 668/3/26 608/3/26 610/3/26
f 681/18/27 669/18/27 611/10/27 598/10/27
f 682/11/25 670/27/25 613/11/25 614/11/25
f 683/13/28 671/28/28 600/10/28 601/13/28
f 683/11/25 672/23/25 618/11/25 601/11/25
f 676/13/28 680/13/28 615/13/28 616/13/28
f 664/23/25 673/11/25 602/11/25 617/11/25
f 667/26/28 670/13/28 613/13/28 606/17/28
f 666/24/26 669/18/26 611/10/26 607/10/26
f 671/28/26 675/24/26 599/10/26 600/10/26
f 686/3/26 685/3/26 603/3/26 612/3/26
f 678/24/27 675/24/27 599/10/27 609/10/27
f 682/13/28 672/29/28 618/13/28 614/13/28
f 677/13/28 673/13/28 602/13/28 605/13/28
f 686/25/27 668/25/27 608/13/27 612/13/27
f 629/11/5 620/11/5 631/11/5 640/11/5
f 624/11/5 625/11/5 636/11/5 635/11/5
f 621/11/5 628/11/5 639/11/5 632/11/5
f 628/11/5 627/11/5 638/11/5 639/11/5
f 625/11/5 629/11/5 640/11/5 636/11/5
f 620/11/5 619/10/5 630/10/5 631/11/5
f 626/11/5 623/11/5 634/11/5 637/11/5
f 623/11/5 624/11/5 635/11/5 634/11/5
f 622/11/5 621/11/5 632/11/5 633/11/5
f 627/11/5 626/11/5 637/11/5 638/11/5
f 402/3/2 360/3/2 622/3/2 633/3/2
f 356/11/11 383/11/11 628/11/11 621/11/11
f 381/11/11 379/11/11 626/11/11 627/11/11
f 362/11/11 376/11/11 624/11/11 623/11/11
f 420/13/19 418/13/19 635/13/19 636/13/19
f 393/10/19 394/13/19 631/13/19 630/10/19
f 394/13/19 428/13/19 640/13/19 631/13/19
f 351/10/22 393/10/24 630/10/29 619/10/29
f 360/11/11 356/11/11 621/11/11 622/11/11
f 378/11/11 386/11/11 629/11/11 625/11/11
f 421/13/19 423/13/19 638/13/19 637/13/19
f 425/13/19 398/13/19 632/13/19 639/13/19
f 416/13/27 408/13/27 650/25/27 663/13/27
f 402/13/28 398/13/28 658/13/28 644/13/28
f 420/13/28 428/13/28 657/13/28 654/13/28
f 410/10/30 391/10/30 662/30/30 646/10/30
f 416/3/26 400/3/26 661/3/26 663/3/26
f 393/10/26 391/10/26 662/30/26 655/30/26
f 400/3/26 399/2/26 660/2/26 661/3/26
f 387/1/27 388/10/27 652/10/27 659/1/27
f 406/10/26 414/10/26 651/10/26 645/30/26
f 404/17/28 418/13/28 653/13/28 648/17/28
f 425/11/25 398/11/25 658/11/25 641/11/25
f 423/13/28 421/13/28 649/13/28 642/13/28
f 394/11/25 428/11/25 657/31/25 656/11/25
f 394/13/28 393/10/28 655/30/28 656/13/28
f 420/11/25 418/11/25 653/31/25 654/11/25
f 388/10/27 414/10/27 651/10/27 652/10/27
f 412/3/26 408/3/26 650/3/26 647/3/26
f 421/13/28 404/17/28 648/17/28 649/13/28
f 412/13/31 401/13/31 643/25/31 647/13/31
f 410/10/26 406/10/26 645/30/26 646/10/26
f 402/3/26 401/3/26 643/3/26 644/3/26
f 423/11/25 425/11/25 641/11/25 642/11/25
f 696/13/32 701/25/32 668/25/32 686/25/32
f 688/13/28 706/13/28 673/13/28 677/13/28
f 693/13/28 705/29/28 672/29/28 682/13/28
f 689/32/33 707/33/33 675/24/33 678/24/33
f 696/34/34 695/35/34 685/3/34 686/3/34
f 704/28/26 707/33/26 675/24/26 671/28/26
f 699/24/35 702/32/35 669/18/35 666/24/35
f 700/26/28 703/13/28 670/13/28 667/26/28
f 697/11/25 706/11/25 673/11/25 664/23/25
f 687/17/28 691/13/28 680/13/28 676/13/28
f 694/11/25 705/23/25 672/23/25 683/11/25
f 694/13/28 704/28/28 671/28/28 683/13/28
f 693/11/25 703/27/25 670/27/25 682/11/25
f 692/10/36 702/32/36 669/18/36 681/18/36
f 690/34/34 701/3/34 668/3/34 679/3/34
f 691/13/28 700/26/28 667/26/28 680/13/28
f 690/13/37 698/25/37 665/25/37 679/25/37
f 689/32/35 699/24/35 666/24/35 678/24/35
f 688/3/26 698/3/26 665/3/26 677/3/26
f 687/11/25 697/11/25 664/23/25 676/11/25
f 642/11/25 641/11/25 697/11/25 687/11/25
f 644/3/26 643/3/26 698/3/26 688/3/26
f 646/10/26 645/30/26 699/24/26 689/32/26
f 647/13/31 643/25/31 698/25/31 690/13/31
f 649/13/28 648/17/28 700/26/28 691/13/28
f 647/3/26 650/3/26 701/3/26 690/34/26
f 652/10/27 651/10/27 702/32/27 692/10/27
f 654/11/25 653/31/25 703/27/25 693/11/25
f 656/13/28 655/30/28 704/28/28 694/13/28
f 656/11/25 657/31/25 705/23/25 694/11/25
f 642/13/28 649/13/28 691/13/28 687/17/28
f 641/11/25 658/11/25 706/11/25 697/11/25
f 648/17/28 653/13/28 703/13/28 700/26/28
f 645/30/26 651/10/26 702/32/26 699/24/26
f 655/30/26 662/30/26 707/33/26 704/28/26
f 663/3/26 661/3/26 695/35/26 696/34/26
f 646/10/30 662/30/30 707/33/30 689/32/30
f 654/13/28 657/13/28 705/29/28 693/13/28
f 644/13/28 658/13/28 706/13/28 688/13/28
f 663/13/27 650/25/27 701/25/27 696/13/27
f 3/1/5 14/1/5 16/2/5 7/2/5
f 833/3/2 710/3/2 711/4/2 828/4/2
f 8/5/5 4/7/5 3/1/5 7/2/5
f 828/9/3 711/9/3 709/8/3 829/8/3
f 711/9/3 717/9/3 715/8/3 709/8/3
f 829/8/4 709/8/4 708/10/4 834/10/4
f 866/10/4 853/10/4 25/10/4 95/10/4
f 764/11/1 723/11/1 722/10/1 763/10/1
f 849/10/4 851/10/4 13/10/4 1/10/4
f 833/3/2 835/3/2 713/3/2 710/3/2
f 715/8/1 717/12/1 716/11/1 714/10/1
f 716/11/1 719/11/1 718/10/1 714/10/1
f 709/8/4 715/8/4 714/10/4 708/10/4
f 962/13/6 857/13/6 51/13/6 315/13/6
f 956/11/1 767/11/1 735/11/1 950/11/1
f 708/10/4 714/10/4 718/10/4 712/10/4
f 722/10/4 726/10/4 724/10/4 720/10/4
f 964/3/5 730/3/5 728/3/5 963/3/5
f 853/10/4 855/10/4 33/10/4 25/10/4
f 963/3/5 728/3/5 729/4/5 948/4/5
f 846/3/2 837/3/2 721/3/2 766/3/2
f 89/1/5 26/1/5 28/2/5 90/2/5
f 763/10/4 722/10/4 720/10/4 765/10/4
f 1110/3/2 1001/3/2 1005/3/2 1122/3/2
f 1068/13/3 1196/13/3 1121/13/3 1066/13/3
f 1140/13/5 1019/13/5 992/13/5 1120/13/5
f 723/11/1 727/11/1 726/10/1 722/10/1
f 960/3/3 841/3/3 734/3/3 949/3/3
f 26/1/5 34/1/5 36/2/5 28/2/5
f 301/2/5 52/2/5 48/2/5 314/2/5
f 1139/13/5 1012/13/5 1010/13/5 1119/13/5
f 731/11/1 741/11/1 743/11/1 733/11/1
f 770/3/2 771/3/2 753/3/2 744/3/2
f 732/12/1 742/12/1 741/11/1 731/11/1
f 735/11/1 745/11/1 747/11/1 737/11/1
f 953/3/5 759/3/5 730/3/5 964/3/5
f 950/11/1 735/11/1 737/11/1 951/11/1
f 967/11/1 731/11/1 733/11/1 965/11/1
f 948/9/3 729/9/3 732/9/3 952/9/3
f 952/12/1 732/12/1 731/11/1 967/11/1
f 740/3/2 743/3/2 741/3/2 738/3/2
f 738/3/2 741/3/2 742/4/2 739/4/2
f 770/3/2 744/3/2 745/3/2 769/3/2
f 843/3/2 844/3/2 746/3/2 744/3/2
f 744/3/2 746/3/2 747/3/2 745/3/2
f 729/9/3 739/9/3 742/9/3 732/9/3
f 1066/13/3 1121/13/3 1195/13/3 1067/13/3
f 1137/10/4 988/10/4 1003/10/4 1132/10/4
f 729/9/3 748/9/3 751/9/3 739/9/3
f 767/11/1 769/11/1 745/11/1 735/11/1
f 52/2/5 66/2/5 62/2/5 48/2/5
f 841/3/3 843/3/3 744/3/3 734/3/3
f 744/3/6 753/3/6 750/3/6 734/3/6
f 748/9/3 762/9/3 785/9/3 751/9/3
f 771/3/2 777/3/2 773/3/2 753/3/2
f 733/11/1 743/11/1 760/11/1 758/11/1
f 740/3/2 761/3/2 760/3/2 743/3/2
f 955/3/5 768/3/5 759/3/5 953/3/5
f 718/10/4 755/10/4 756/10/4 712/10/4
f 14/1/5 77/1/5 79/2/5 16/2/5
f 835/3/2 845/3/2 757/3/2 713/3/2
f 965/11/1 733/11/1 758/11/1 954/11/1
f 719/11/1 754/11/1 755/10/1 718/10/1
f 851/10/4 865/10/4 82/10/4 13/10/4
f 949/3/5 734/3/5 768/3/5 955/3/5
f 734/3/4 750/3/4 780/3/4 768/3/4
f 758/11/1 760/11/1 769/11/1 767/11/1
f 761/3/2 770/3/2 769/3/2 760/3/2
f 755/10/4 763/10/4 765/10/4 756/10/4
f 77/1/5 89/1/5 90/2/5 79/2/5
f 845/3/2 846/3/2 766/3/2 757/3/2
f 954/11/1 758/11/1 767/11/1 956/11/1
f 754/11/1 764/11/1 763/10/1 755/10/1
f 865/10/4 866/10/4 95/10/4 82/10/4
f 776/3/5 777/3/5 775/3/5 774/3/5
f 772/3/5 773/3/5 777/3/5 776/3/5
f 750/3/4 772/3/4 776/3/4 780/3/4
f 753/3/6 773/3/6 772/3/6 750/3/6
f 778/3/4 781/3/4 780/3/4 779/3/4
f 782/3/2 771/3/2 784/3/2 783/3/2
f 778/3/38 779/3/38 782/3/38 783/3/38
f 759/3/4 781/3/4 778/3/4 749/3/4 730/3/4
f 779/3/3 774/3/3 775/3/3 782/3/3
f 780/3/4 776/3/4 774/3/4 779/3/4
f 778/3/5 783/3/5 752/3/5 749/3/5
f 768/3/4 780/3/4 781/3/4 759/3/4
f 740/3/2 752/3/2 783/3/2 784/3/2 761/3/2
f 782/3/2 775/3/2 777/3/2 771/3/2
f 761/3/2 784/3/2 771/3/2 770/3/2
f 786/3/6 787/3/6 789/3/6 788/3/6
f 793/15/39 792/3/39 788/3/39 789/3/39
f 791/15/40 790/3/40 792/3/40 793/15/40
f 787/3/41 786/3/41 790/3/41 791/15/41
f 787/3/4 791/15/4 762/4/4 748/4/4
f 730/3/4 749/3/4 787/3/4 728/3/4
f 749/3/5 752/3/5 789/3/5 787/3/5
f 728/3/4 787/3/4 748/4/4 729/4/4
f 788/3/6 792/3/6 790/3/6 786/3/6
f 739/4/2 751/4/2 789/3/2 738/3/2
f 738/3/2 789/3/2 752/3/2 740/3/2
f 751/4/2 785/4/2 793/15/2 789/3/2
f 791/15/5 793/15/5 785/4/5 762/4/5
f 879/11/1 805/11/1 807/11/1 881/11/1
f 874/3/5 795/3/5 806/3/5 880/3/5
f 870/11/1 799/11/1 805/11/1 879/11/1
f 880/3/5 806/3/5 804/3/5 878/3/5
f 877/12/1 803/12/1 802/11/1 872/11/1
f 873/9/3 794/9/3 803/9/3 877/9/3
f 1112/11/1 993/11/1 1018/11/1 1133/11/1
f 872/11/1 802/11/1 799/11/1 870/11/1
f 875/11/1 798/11/1 801/11/1 876/11/1
f 878/3/5 804/3/5 797/3/5 869/3/5
f 212/2/5 132/2/5 124/2/5 201/2/5
f 885/3/3 847/3/3 795/3/3 874/3/3
f 868/3/5 796/3/5 794/4/5 873/4/5
f 869/3/5 797/3/5 796/3/5 868/3/5
f 881/11/1 807/11/1 798/11/1 875/11/1
f 887/13/6 867/13/6 126/13/6 202/13/6
f 884/13/6 832/13/6 827/13/6 882/13/6
f 886/3/3 862/3/3 826/3/3 883/3/3
f 830/10/4 831/16/4 825/10/4 823/10/4
f 860/3/2 861/3/2 824/3/2 822/3/2
f 836/10/4 830/10/4 823/10/4 813/10/4
f 850/3/2 860/3/2 822/3/2 812/3/2
f 856/3/3 858/3/3 820/3/3 818/3/3
f 1136/11/1 1011/11/1 1013/11/1 1117/11/1
f 858/3/2 859/3/2 821/3/2 820/3/2
f 961/3/3 856/3/3 818/3/3 957/3/3
f 1127/13/4 1004/13/4 1000/13/4 1134/13/4
f 861/3/2 852/3/2 814/3/2 824/3/2
f 838/10/4 840/10/4 817/10/4 815/10/4
f 959/13/6 842/13/6 819/13/6 958/13/6
f 848/3/2 850/3/2 812/3/2 809/3/2
f 834/10/4 836/10/4 813/10/4 811/10/4
f 831/16/4 838/10/4 815/10/4 825/10/4
f 864/8/4 810/8/4 811/10/4 849/10/4
f 863/9/3 808/9/3 810/8/3 864/8/3
f 848/3/2 809/3/2 808/4/2 863/4/2
f 765/10/4 720/10/4 838/10/4 831/16/4
f 708/10/4 712/10/4 836/10/4 834/10/4
f 966/13/6 736/13/6 842/13/6 959/13/6
f 720/10/4 724/10/4 840/10/4 838/10/4
f 1116/13/2 1002/13/2 989/13/2 1128/13/2
f 712/10/4 756/10/4 830/10/4 836/10/4
f 756/10/4 765/10/4 831/16/4 830/10/4
f 871/13/6 800/13/6 832/13/6 884/13/6
f 883/3/3 826/3/3 847/3/3 885/3/3
f 822/3/2 824/3/2 846/3/2 845/3/2
f 812/3/2 822/3/2 845/3/2 835/3/2
f 818/3/3 820/3/3 843/3/3 841/3/3
f 820/3/2 821/3/2 844/3/2 843/3/2
f 957/3/3 818/3/3 841/3/3 960/3/3
f 1128/13/5 989/13/5 1020/13/5 1109/13/5
f 824/3/2 814/3/2 837/3/2 846/3/2
f 809/3/2 812/3/2 835/3/2 833/3/2
f 810/8/4 829/8/4 834/10/4 811/10/4
f 808/9/3 828/9/3 829/8/3 810/8/3
f 809/3/2 833/3/2 828/4/2 808/4/2
f 5/3/2 848/3/2 863/4/2 6/4/2
f 6/9/3 863/9/3 864/8/3 2/8/3
f 2/8/4 864/8/4 849/10/4 1/10/4
f 5/3/2 15/3/2 850/3/2 848/3/2
f 93/3/2 27/3/2 852/3/2 861/3/2
f 1129/3/2 1009/3/2 1001/3/2 1110/3/2
f 299/3/3 47/3/3 856/3/3 961/3/3
f 61/3/2 65/3/2 859/3/2 858/3/2
f 47/3/3 61/3/3 858/3/3 856/3/3
f 15/3/2 80/3/2 860/3/2 850/3/2
f 80/3/2 93/3/2 861/3/2 860/3/2
f 210/3/3 127/3/3 862/3/3 886/3/3
f 882/13/6 827/13/6 867/13/6 887/13/6
f 823/10/4 825/10/4 866/10/4 865/10/4
f 813/10/4 823/10/4 865/10/4 851/10/4
f 1130/11/1 1021/11/1 991/11/1 1111/11/1
f 815/10/4 817/10/4 855/10/4 853/10/4
f 958/13/6 819/13/6 857/13/6 962/13/6
f 811/10/4 813/10/4 851/10/4 849/10/4
f 825/10/4 815/10/4 853/10/4 866/10/4
f 902/13/6 882/13/6 887/13/6 907/13/6
f 234/3/3 210/3/3 886/3/3 906/3/3
f 903/3/3 883/3/3 885/3/3 905/3/3
f 891/13/6 871/13/6 884/13/6 904/13/6
f 906/3/3 886/3/3 883/3/3 903/3/3
f 904/13/6 884/13/6 882/13/6 902/13/6
f 907/13/6 887/13/6 202/13/6 226/13/6
f 901/11/1 881/11/1 875/11/1 895/11/1
f 889/3/5 869/3/5 868/3/5 888/3/5
f 888/3/5 868/3/5 873/4/5 893/4/5
f 905/3/3 885/3/3 874/3/3 894/3/3
f 236/2/5 212/2/5 201/2/5 225/2/5
f 898/3/5 878/3/5 869/3/5 889/3/5
f 895/11/1 875/11/1 876/11/1 896/11/1
f 892/11/1 872/11/1 870/11/1 890/11/1
f 1131/11/1 995/11/1 993/11/1 1112/11/1
f 893/9/3 873/9/3 877/9/3 897/9/3
f 897/12/1 877/12/1 872/11/1 892/11/1
f 900/3/5 880/3/5 878/3/5 898/3/5
f 890/11/1 870/11/1 879/11/1 899/11/1
f 894/3/5 874/3/5 880/3/5 900/3/5
f 899/11/1 879/11/1 881/11/1 901/11/1
f 979/11/1 899/11/1 901/11/1 981/11/1
f 974/3/5 894/3/5 900/3/5 980/3/5
f 970/11/1 890/11/1 899/11/1 979/11/1
f 980/3/5 900/3/5 898/3/5 978/3/5
f 977/12/1 897/12/1 892/11/1 972/11/1
f 973/9/3 893/9/3 897/9/3 977/9/3
f 527/2/5 354/2/5 358/2/5 509/2/5
f 972/11/1 892/11/1 890/11/1 970/11/1
f 975/11/1 895/11/1 896/11/1 976/11/1
f 978/3/5 898/3/5 889/3/5 969/3/5
f 332/2/5 236/2/5 225/2/5 321/2/5
f 985/3/3 905/3/3 894/3/3 974/3/3
f 968/3/5 888/3/5 893/4/5 973/4/5
f 969/3/5 889/3/5 888/3/5 968/3/5
f 981/11/1 901/11/1 895/11/1 975/11/1
f 987/13/6 907/13/6 226/13/6 322/13/6
f 984/13/6 904/13/6 902/13/6 982/13/6
f 986/3/3 906/3/3 903/3/3 983/3/3
f 971/13/6 891/13/6 904/13/6 984/13/6
f 983/3/3 903/3/3 905/3/3 985/3/3
f 330/3/3 234/3/3 906/3/3 986/3/3
f 982/13/6 902/13/6 907/13/6 987/13/6
f 827/13/6 923/13/6 927/13/6 867/13/6
f 127/3/3 251/3/3 926/3/3 862/3/3
f 826/3/3 922/3/3 925/3/3 847/3/3
f 800/13/6 920/13/6 924/13/6 832/13/6
f 832/13/6 924/13/6 923/13/6 827/13/6
f 862/3/3 926/3/3 922/3/3 826/3/3
f 805/11/1 914/11/1 916/11/1 807/11/1
f 795/3/5 909/3/5 915/3/5 806/3/5
f 799/11/1 919/11/1 914/11/1 805/11/1
f 806/3/5 915/3/5 913/3/5 804/3/5
f 803/12/1 912/12/1 921/11/1 802/11/1
f 794/9/3 908/9/3 912/9/3 803/9/3
f 1132/10/4 1003/10/4 999/10/4 1113/10/4
f 802/11/1 921/11/1 919/11/1 799/11/1
f 798/11/1 910/11/1 911/11/1 801/11/1
f 804/3/5 913/3/5 918/3/5 797/3/5
f 132/2/5 253/2/5 260/2/5 124/2/5
f 847/3/3 925/3/3 909/3/3 795/3/3
f 796/3/5 917/3/5 908/4/5 794/4/5
f 797/3/5 918/3/5 917/3/5 796/3/5
f 807/11/1 916/11/1 910/11/1 798/11/1
f 867/13/6 927/13/6 261/13/6 126/13/6
f 923/13/6 938/13/6 942/13/6 927/13/6
f 251/3/3 275/3/3 941/3/3 926/3/3
f 922/3/3 937/3/3 940/3/3 925/3/3
f 920/13/6 946/13/6 939/13/6 924/13/6
f 924/13/6 939/13/6 938/13/6 923/13/6
f 926/3/3 941/3/3 937/3/3 922/3/3
f 914/11/1 934/11/1 936/11/1 916/11/1
f 909/3/5 929/3/5 935/3/5 915/3/5
f 919/11/1 945/11/1 934/11/1 914/11/1
f 915/3/5 935/3/5 933/3/5 913/3/5
f 912/12/1 932/12/1 947/11/1 921/11/1
f 908/9/3 928/9/3 932/9/3 912/9/3
f 1133/11/1 1018/11/1 1016/11/1 1114/11/1
f 921/11/1 947/11/1 945/11/1 919/11/1
f 910/11/1 930/11/1 931/11/1 911/11/1
f 913/3/5 933/3/5 944/3/5 918/3/5
f 253/2/5 277/2/5 290/2/5 260/2/5
f 925/3/3 940/3/3 929/3/3 909/3/3
f 917/3/5 943/3/5 928/4/5 908/4/5
f 918/3/5 944/3/5 943/3/5 917/3/5
f 916/11/1 936/11/1 930/11/1 910/11/1
f 927/13/6 942/13/6 291/13/6 261/13/6
f 938/13/6 958/13/6 962/13/6 942/13/6
f 275/3/3 299/3/3 961/3/3 941/3/3
f 937/3/3 957/3/3 960/3/3 940/3/3
f 946/13/6 966/13/6 959/13/6 939/13/6
f 939/13/6 959/13/6 958/13/6 938/13/6
f 941/3/3 961/3/3 957/3/3 937/3/3
f 934/11/1 954/11/1 956/11/1 936/11/1
f 929/3/5 949/3/5 955/3/5 935/3/5
f 945/11/1 965/11/1 954/11/1 934/11/1
f 935/3/5 955/3/5 953/3/5 933/3/5
f 932/12/1 952/12/1 967/11/1 947/11/1
f 928/9/3 948/9/3 952/9/3 932/9/3
f 1134/13/4 1000/13/4 1008/13/4 1115/13/4
f 947/11/1 967/11/1 965/11/1 945/11/1
f 930/11/1 950/11/1 951/11/1 931/11/1
f 933/3/5 953/3/5 964/3/5 944/3/5
f 277/2/5 301/2/5 314/2/5 290/2/5
f 940/3/3 960/3/3 949/3/3 929/3/3
f 943/3/5 963/3/5 948/4/5 928/4/5
f 944/3/5 964/3/5 963/3/5 943/3/5
f 936/11/1 956/11/1 950/11/1 930/11/1
f 942/13/6 962/13/6 315/13/6 291/13/6
f 816/13/6 982/13/6 987/13/6 854/13/6
f 27/3/3 330/3/3 986/3/3 852/3/3
f 814/3/3 983/3/3 985/3/3 837/3/3
f 725/13/6 971/13/6 984/13/6 839/13/6
f 852/3/3 986/3/3 983/3/3 814/3/3
f 839/13/6 984/13/6 982/13/6 816/13/6
f 854/13/6 987/13/6 322/13/6 35/13/6
f 764/11/1 981/11/1 975/11/1 723/11/1
f 713/3/5 969/3/5 968/3/5 710/3/5
f 710/3/5 968/3/5 973/4/5 711/4/5
f 837/3/3 985/3/3 974/3/3 721/3/3
f 36/2/5 332/2/5 321/2/5 28/2/5
f 757/3/5 978/3/5 969/3/5 713/3/5
f 723/11/1 975/11/1 976/11/1 727/11/1
f 716/11/1 972/11/1 970/11/1 719/11/1
f 1135/13/2 998/13/2 1002/13/2 1116/13/2
f 711/9/3 973/9/3 977/9/3 717/9/3
f 717/12/1 977/12/1 972/11/1 716/11/1
f 766/3/5 980/3/5 978/3/5 757/3/5
f 719/11/1 970/11/1 979/11/1 754/11/1
f 721/3/5 974/3/5 980/3/5 766/3/5
f 754/11/1 979/11/1 981/11/1 764/11/1
f 1007/10/4 1041/10/4 387/10/4 345/10/4
f 1012/13/5 1046/13/5 1044/13/5 1010/13/5
f 354/2/5 396/2/5 400/2/5 358/2/5
f 1021/11/42 1232/11/42 1223/11/42 991/11/42
f 988/10/43 1022/10/44 1037/10/45 1003/10/45
f 1002/13/3 1067/13/3 1065/13/3 989/13/3
f 994/3/46 1028/3/47 1029/3/48 995/3/49
f 1020/13/5 1054/13/5 1046/13/5 1012/13/5
f 1036/13/6 1071/13/6 1070/13/6 1032/13/6
f 1031/17/50 1237/17/50 1240/13/50 1048/13/50
f 357/3/2 399/3/2 1043/3/2 1009/3/2
f 346/1/5 388/1/5 390/2/5 348/2/5
f 1010/13/5 1044/13/5 1030/13/5 996/13/5
f 1019/13/5 1053/13/5 1026/13/5 992/13/5
f 989/13/1 1065/13/1 1069/13/1 1023/13/1
f 1011/11/42 1227/11/42 1228/11/42 1013/11/42
f 991/11/42 1223/11/42 1222/10/42 990/10/42
f 1001/3/2 1035/3/2 1039/3/2 1005/3/2
f 1115/13/4 1008/13/4 353/13/4 519/13/4
f 1120/13/4 992/13/4 1004/13/4 1127/13/4
f 1118/1/5 346/1/5 348/2/5 1141/2/5
f 1142/13/5 996/13/5 1015/13/5 1123/13/5
f 498/3/2 357/3/2 1009/3/2 1129/3/2
f 1114/11/1 1016/11/1 1014/11/1 1124/11/1
f 1143/3/51 994/3/46 995/3/49 1131/3/51
f 1144/11/1 997/11/1 1011/11/1 1136/11/1
f 1121/13/2 1198/13/2 1199/13/2 1195/13/2
f 1122/3/2 1005/3/2 994/3/2 1143/3/2
f 1109/13/5 1020/13/5 1012/13/5 1139/13/5
f 1195/13/2 1199/13/2 1197/13/2 1138/13/2
f 1123/13/5 1015/13/5 1017/13/5 1125/13/5
f 1119/13/5 1010/13/5 996/13/5 1142/13/5
f 1111/11/1 991/11/1 990/10/1 1126/10/1
f 1125/13/5 1017/13/5 1019/13/5 1140/13/5
f 1184/13/2 1006/13/2 998/13/2 1135/13/2
f 1117/11/1 1013/11/1 1021/11/1 1130/11/1
f 1126/10/52 990/10/53 988/10/43 1137/10/52
f 1124/11/1 1014/11/1 997/11/1 1144/11/1
f 1113/10/4 999/10/4 1007/10/4 1145/10/4
f 1022/10/6 1024/10/6 1025/13/6 1023/13/6
f 1037/10/6 1022/10/6 1023/13/6 1036/13/6
f 1052/13/6 1027/13/6 1026/13/6 1053/13/6
f 1042/13/6 1043/13/6 399/13/6 395/13/6
f 1027/13/6 1029/13/6 1028/13/6 1026/13/6
f 1045/13/6 1031/17/6 1030/13/6 1044/13/6
f 1038/13/6 1039/13/6 1035/13/6 1034/13/6
f 1041/10/6 1033/10/6 1032/13/6 1040/13/6
f 1026/13/6 1028/13/6 1039/13/6 1038/13/6
f 1033/10/6 1037/10/6 1036/13/6 1032/13/6
f 387/10/6 1041/10/6 1040/13/6 389/13/6
f 1034/13/6 1035/13/6 1043/13/6 1042/13/6
f 1047/13/6 1045/13/6 1044/13/6 1046/13/6
f 1055/13/6 1047/13/6 1046/13/6 1054/13/6
f 1031/17/6 1048/13/6 1049/13/6 1030/13/6
f 1048/13/6 1050/13/6 1051/13/6 1049/13/6
f 1050/13/6 1052/13/6 1053/13/6 1051/13/6
f 1025/13/6 1055/13/6 1054/13/6 1023/13/6
f 1034/13/6 1062/13/6 1063/13/6 1038/13/6
f 1050/13/50 1241/13/50 1242/13/50 1052/13/50
f 1027/13/50 1235/13/50 1236/13/50 1029/13/50
f 1005/3/54 1039/3/54 1028/3/47 994/3/46
f 996/13/5 1030/13/5 1049/13/5 1015/13/5
f 1055/13/50 1243/13/50 1239/13/50 1047/13/50
f 990/10/53 1024/10/55 1022/10/44 988/10/43
f 1014/11/42 1229/11/42 1226/11/42 997/11/42
f 1015/13/5 1049/13/5 1051/13/5 1017/13/5
f 1045/13/50 1238/13/50 1237/17/50 1031/17/50
f 1006/13/3 1068/13/3 1066/13/3 998/13/3
f 395/13/6 436/13/6 1064/13/6 1042/13/6
f 999/10/4 1033/10/4 1041/10/4 1007/10/4
f 1023/13/6 1069/13/6 1071/13/6 1036/13/6
f 1018/11/42 1231/11/42 1230/11/42 1016/11/42
f 354/2/5 430/2/5 437/2/5 396/2/5
f 1003/10/4 1037/10/4 1033/10/4 999/10/4
f 1017/13/5 1051/13/5 1053/13/5 1019/13/5
f 1009/3/2 1043/3/2 1035/3/2 1001/3/2
f 1038/13/6 1063/13/6 1061/13/6 1026/13/6
f 989/13/5 1023/13/5 1054/13/5 1020/13/5
f 1056/13/4 1061/13/4 1063/13/4 1059/13/4
f 1060/13/4 1064/13/4 436/13/4 429/13/4
f 1058/13/4 1062/13/4 1064/13/4 1060/13/4
f 1059/13/4 1063/13/4 1062/13/4 1058/13/4
f 1000/13/3 1058/13/3 1060/13/3 1008/13/3
f 992/13/3 1056/13/3 1059/13/3 1004/13/3
f 358/2/6 1057/2/6 430/2/6 354/2/6
f 1008/13/3 1060/13/3 429/13/3 353/13/3
f 1042/13/6 1064/13/6 1062/13/6 1034/13/6
f 1004/13/3 1059/13/3 1058/13/3 1000/13/3
f 1026/13/1 1061/13/1 1056/13/1 992/13/1
f 442/13/3 568/13/3 1196/13/3 1068/13/3
f 1070/13/6 1198/13/6 1200/13/6 1072/13/6
f 449/2/5 593/2/5 547/2/5 443/2/5
f 1040/13/6 1072/13/6 448/13/6 389/13/6
f 998/13/3 1066/13/3 1067/13/3 1002/13/3
f 347/13/3 442/13/3 1068/13/3 1006/13/3
f 1032/13/6 1070/13/6 1072/13/6 1040/13/6
f 390/2/5 449/2/5 443/2/5 348/2/5
f 1168/10/4 1083/10/4 1106/10/4 1163/10/4
f 1178/11/1 1102/11/1 1104/11/1 1162/11/1
f 1181/10/4 1108/18/4 1092/10/4 1156/10/4
f 1172/11/1 1090/11/1 1078/11/1 1149/11/1
f 1179/13/2 1105/13/2 1088/13/2 1154/13/2
f 1180/13/5 1107/13/5 1097/13/5 1158/13/5
f 1166/11/1 1079/11/1 1108/18/1 1181/10/1
f 1174/13/5 1094/13/5 1101/13/5 1160/13/5
f 1177/13/5 1100/13/5 1107/13/5 1180/13/5
f 1067/13/3 1195/13/3 1138/13/3 1065/13/3
f 1164/13/5 1075/13/5 1095/13/5 1157/13/5
f 1176/3/2 1099/3/2 1103/3/2 1161/3/2
f 1196/13/2 1200/13/2 1198/13/2 1121/13/2
f 1162/11/1 1104/11/1 1091/11/1 1155/11/1
f 1161/3/2 1103/3/2 1080/3/2 1150/3/2
f 1169/11/1 1085/11/1 1102/11/1 1178/11/1
f 559/3/2 464/3/2 1076/3/2 1148/3/2
f 1160/13/5 1101/13/5 1100/13/5 1177/13/5
f 1175/13/4 1096/13/4 1073/13/4 1146/13/4
f 1170/13/4 1087/13/4 463/13/4 540/13/4
f 1154/13/2 1088/13/2 1089/13/2 1171/13/2
f 1153/13/4 1086/13/4 1087/13/4 1170/13/4
f 1152/11/1 1084/11/1 1085/11/1 1169/11/1
f 1151/10/4 1082/10/4 1083/10/4 1168/10/4
f 548/2/5 477/2/5 484/2/5 570/2/5
f 1150/11/1 1080/11/1 1081/11/1 1167/11/1
f 1149/11/1 1078/11/1 1079/11/1 1166/11/1
f 1148/3/2 1076/3/2 1077/3/2 1165/3/2
f 1147/13/5 1074/13/5 1075/13/5 1164/13/5
f 1171/13/2 1089/13/2 1074/13/2 1147/13/2
f 1146/13/4 1073/13/4 1086/13/4 1153/13/4
f 1155/11/1 1091/11/1 1090/11/1 1172/11/1
f 1167/11/1 1081/11/1 1084/11/1 1152/11/1
f 1156/10/4 1092/10/4 1082/10/4 1151/10/4
f 1157/13/5 1095/13/5 1094/13/5 1174/13/5
f 1158/13/5 1097/13/5 1096/13/5 1175/13/5
f 1165/3/2 1077/3/2 1099/3/2 1176/3/2
f 1083/10/4 1113/10/4 1145/10/4 1106/10/4
f 1102/11/1 1124/11/1 1144/11/1 1104/11/1
f 1108/18/4 1126/10/4 1137/10/4 1092/10/4
f 1090/11/1 1117/11/1 1130/11/1 1078/11/1
f 1105/13/2 1184/13/2 1135/13/2 1088/13/2
f 1107/13/5 1125/13/5 1140/13/5 1097/13/5
f 1079/11/1 1111/11/1 1126/10/1 1108/18/1
f 1094/13/5 1119/13/5 1142/13/5 1101/13/5
f 1100/13/5 1123/13/5 1125/13/5 1107/13/5
f 1065/13/1 1138/13/1 1197/13/1 1069/13/1
f 1075/13/5 1109/13/5 1139/13/5 1095/13/5
f 1099/3/2 1122/3/2 1143/3/2 1103/3/2
f 568/13/2 592/13/2 1200/13/2 1196/13/2
f 1104/11/1 1144/11/1 1136/11/1 1091/11/1
f 1103/3/2 1143/3/2 1131/3/2 1080/3/2
f 1085/11/1 1114/11/1 1124/11/1 1102/11/1
f 464/3/2 498/3/2 1129/3/2 1076/3/2
f 1101/13/5 1142/13/5 1123/13/5 1100/13/5
f 1096/13/4 1120/13/4 1127/13/4 1073/13/4
f 1087/13/4 1115/13/4 519/13/4 463/13/4
f 1088/13/2 1135/13/2 1116/13/2 1089/13/2
f 1086/13/4 1134/13/4 1115/13/4 1087/13/4
f 1084/11/1 1133/11/1 1114/11/1 1085/11/1
f 1082/10/4 1132/10/4 1113/10/4 1083/10/4
f 477/2/5 527/2/5 509/2/5 484/2/5
f 1080/11/1 1131/11/1 1112/11/1 1081/11/1
f 1078/11/1 1130/11/1 1111/11/1 1079/11/1
f 1076/3/2 1129/3/2 1110/3/2 1077/3/2
f 1074/13/5 1128/13/5 1109/13/5 1075/13/5
f 1089/13/2 1116/13/2 1128/13/2 1074/13/2
f 1073/13/4 1127/13/4 1134/13/4 1086/13/4
f 1091/11/1 1136/11/1 1117/11/1 1090/11/1
f 1081/11/1 1112/11/1 1133/11/1 1084/11/1
f 1092/10/4 1137/10/4 1132/10/4 1082/10/4
f 1095/13/5 1139/13/5 1119/13/5 1094/13/5
f 1097/13/5 1140/13/5 1120/13/5 1096/13/5
f 1077/3/2 1110/3/2 1122/3/2 1099/3/2
f 821/3/2 1165/3/2 1176/3/2 844/3/2
f 966/13/5 1158/13/5 1175/13/5 736/13/5
f 891/13/5 1157/13/5 1174/13/5 871/13/5
f 1071/13/6 1199/13/6 1198/13/6 1070/13/6
f 724/10/4 1156/10/4 1151/10/4 840/10/4
f 737/11/1 1167/11/1 1152/11/1 951/11/1
f 876/11/1 1155/11/1 1172/11/1 896/11/1
f 842/13/4 1146/13/4 1153/13/4 819/13/4
f 839/13/2 1171/13/2 1147/13/2 725/13/2
f 725/13/5 1147/13/5 1164/13/5 971/13/5
f 859/3/2 1148/3/2 1165/3/2 821/3/2
f 976/11/1 1149/11/1 1166/11/1 727/11/1
f 747/11/1 1150/11/1 1167/11/1 737/11/1
f 52/2/5 548/2/5 570/2/5 66/2/5
f 840/10/4 1151/10/4 1168/10/4 817/10/4
f 951/11/1 1152/11/1 1169/11/1 931/11/1
f 819/13/4 1153/13/4 1170/13/4 857/13/4
f 816/13/2 1154/13/2 1171/13/2 839/13/2
f 857/13/4 1170/13/4 540/13/4 51/13/4
f 736/13/4 1175/13/4 1146/13/4 842/13/4
f 34/1/5 1173/1/5 1159/2/5 36/2/5
f 800/13/5 1160/13/5 1177/13/5 920/13/5
f 65/3/2 559/3/2 1148/3/2 859/3/2
f 931/11/1 1169/11/1 1178/11/1 911/11/1
f 746/3/2 1161/3/2 1150/3/2 747/3/2
f 801/11/1 1162/11/1 1155/11/1 876/11/1
f 844/3/2 1176/3/2 1161/3/2 746/3/2
f 971/13/5 1164/13/5 1157/13/5 891/13/5
f 1069/13/6 1197/13/6 1199/13/6 1071/13/6
f 920/13/5 1177/13/5 1180/13/5 946/13/5
f 871/13/5 1174/13/5 1160/13/5 800/13/5
f 727/11/1 1166/11/1 1181/10/1 726/10/1
f 946/13/5 1180/13/5 1158/13/5 966/13/5
f 854/13/2 1179/13/2 1154/13/2 816/13/2
f 896/11/1 1172/11/1 1149/11/1 976/11/1
f 726/10/4 1181/10/4 1156/10/4 724/10/4
f 911/11/1 1178/11/1 1162/11/1 801/11/1
f 817/10/4 1168/10/4 1163/10/4 855/10/4
f 1072/13/6 1200/13/6 592/13/6 448/13/6
f 1182/19/2 1185/13/2 1184/13/2 1183/13/2
f 1186/10/4 1145/10/4 1188/10/4 1187/20/4
f 1189/21/4 1191/10/4 1163/10/4 1190/10/4
f 1192/13/2 1179/13/2 1194/13/2 1193/22/2
f 1192/13/40 1193/22/40 1189/21/40 1190/10/40
f 1186/10/38 1187/20/38 1182/19/38 1183/13/38
f 1185/13/2 347/13/2 1006/13/2 1184/13/2
f 1141/14/3 1182/19/3 1187/20/3 1118/1/3
f 1186/10/5 1183/13/5 1098/13/5 1192/13/5 1190/10/5 1093/10/5
f 1141/14/2 348/14/2 347/13/2 1185/13/2 1182/19/2
f 1098/13/2 1183/13/2 1184/13/2 1105/13/2
f 1145/10/4 1007/10/4 345/10/4 1188/10/4
f 1106/10/4 1145/10/4 1186/10/4 1093/10/4
f 1188/10/4 345/10/4 346/1/4 1118/1/4 1187/20/4
f 855/10/4 1163/10/4 1191/10/4 33/10/4
f 33/10/4 1191/10/4 1189/21/4 1173/1/4 34/1/4
f 1163/10/4 1106/10/4 1093/10/4 1190/10/4
f 1193/22/6 1159/2/6 1173/1/6 1189/21/6
f 35/13/2 1194/13/2 1179/13/2 854/13/2
f 36/14/2 1159/14/2 1193/22/2 1194/13/2 35/13/2
f 1192/13/2 1098/13/2 1105/13/2 1179/13/2
f 1279/11/56 1219/11/56 1220/11/56 1267/23/56
f 1280/3/26 1208/3/26 1207/3/26 1268/3/26
f 1281/24/26 1212/10/26 1210/10/26 1269/24/26
f 1282/25/27 1213/13/27 1207/13/27 1268/25/27
f 1283/13/57 1218/13/57 1209/17/57 1270/26/57
f 1282/3/26 1213/3/26 1211/3/26 1271/3/26
f 1284/18/27 1201/10/27 1214/10/27 1272/18/27
f 1285/11/56 1217/11/56 1216/11/56 1273/27/56
f 1286/13/57 1204/13/57 1203/10/57 1274/28/57
f 1286/11/56 1204/11/56 1221/11/56 1275/23/56
f 1279/13/57 1219/13/57 1218/13/57 1283/13/57
f 1267/23/56 1220/11/56 1205/11/56 1276/11/56
f 1270/26/57 1209/17/57 1216/13/57 1273/13/57
f 1269/24/26 1210/10/26 1214/10/26 1272/18/26
f 1274/28/26 1203/10/26 1202/10/26 1278/24/26
f 1289/3/26 1215/3/26 1206/3/26 1288/3/26
f 1281/24/27 1212/10/27 1202/10/27 1278/24/27
f 1285/13/57 1217/13/57 1221/13/57 1275/29/57
f 1280/13/57 1208/13/57 1205/13/57 1276/13/57
f 1289/25/27 1215/13/27 1211/13/27 1271/25/27
f 1232/11/1 1243/11/1 1234/11/1 1223/11/1
f 1227/11/1 1238/11/1 1239/11/1 1228/11/1
f 1224/11/1 1235/11/1 1242/11/1 1231/11/1
f 1231/11/1 1242/11/1 1241/11/1 1230/11/1
f 1228/11/1 1239/11/1 1243/11/1 1232/11/1
f 1223/11/1 1234/11/1 1233/10/1 1222/10/1
f 1229/11/1 1240/11/1 1237/11/1 1226/11/1
f 1226/11/1 1237/11/1 1238/11/1 1227/11/1
f 1225/11/1 1236/11/1 1235/11/1 1224/11/1
f 1230/11/1 1241/11/1 1240/11/1 1229/11/1
f 1029/3/2 1236/3/2 1225/3/2 995/3/2
f 993/11/42 1224/11/42 1231/11/42 1018/11/42
f 1016/11/42 1230/11/42 1229/11/42 1014/11/42
f 997/11/42 1226/11/42 1227/11/42 1011/11/42
f 1047/13/50 1239/13/50 1238/13/50 1045/13/50
f 1024/10/50 1233/10/50 1234/13/50 1025/13/50
f 1025/13/50 1234/13/50 1243/13/50 1055/13/50
f 990/10/53 1222/10/58 1233/10/58 1024/10/55
f 995/11/42 1225/11/42 1224/11/42 993/11/42
f 1013/11/42 1228/11/42 1232/11/42 1021/11/42
f 1048/13/50 1240/13/50 1241/13/50 1050/13/50
f 1052/13/50 1242/13/50 1235/13/50 1027/13/50
f 1043/13/27 1266/13/27 1253/25/27 1035/13/27
f 1029/13/57 1247/13/57 1261/13/57 1027/13/57
f 1047/13/57 1257/13/57 1260/13/57 1055/13/57
f 1037/10/59 1249/10/59 1265/30/59 1022/10/59
f 1043/3/26 1266/3/26 1264/3/26 399/3/26
f 1024/10/26 1258/30/26 1265/30/26 1022/10/26
f 399/3/26 1264/3/26 1263/2/26 400/2/26
f 388/1/27 1262/1/27 1255/10/27 387/10/27
f 1033/10/26 1248/30/26 1254/10/26 1041/10/26
f 1031/17/57 1251/17/57 1256/13/57 1045/13/57
f 1052/11/56 1244/11/56 1261/11/56 1027/11/56
f 1050/13/57 1245/13/57 1252/13/57 1048/13/57
f 1025/11/56 1259/11/56 1260/31/56 1055/11/56
f 1025/13/57 1259/13/57 1258/30/57 1024/10/57
f 1047/11/56 1257/11/56 1256/31/56 1045/11/56
f 387/10/27 1255/10/27 1254/10/27 1041/10/27
f 1039/3/26 1250/3/26 1253/3/26 1035/3/26
f 1048/13/57 1252/13/57 1251/17/57 1031/17/57
f 1039/13/60 1250/13/60 1246/25/60 1028/13/60
f 1037/10/26 1249/10/26 1248/30/26 1033/10/26
f 1029/3/26 1247/3/26 1246/3/26 1028/3/26
f 1050/11/56 1245/11/56 1244/11/56 1052/11/56
f 1299/13/32 1289/25/32 1271/25/32 1304/25/32
f 1291/13/57 1280/13/57 1276/13/57 1309/13/57
f 1296/13/57 1285/13/57 1275/29/57 1308/29/57
f 1292/32/61 1281/24/61 1278/24/61 1310/33/61
f 1299/34/34 1289/3/34 1288/3/34 1298/35/34
f 1307/28/26 1274/28/26 1278/24/26 1310/33/26
f 1302/24/35 1269/24/35 1272/18/35 1305/32/35
f 1303/26/57 1270/26/57 1273/13/57 1306/13/57
f 1300/11/56 1267/23/56 1276/11/56 1309/11/56
f 1290/17/57 1279/13/57 1283/13/57 1294/13/57
f 1297/11/56 1286/11/56 1275/23/56 1308/23/56
f 1297/13/57 1286/13/57 1274/28/57 1307/28/57
f 1296/11/56 1285/11/56 1273/27/56 1306/27/56
f 1295/10/36 1284/18/36 1272/18/36 1305/32/36
f 1293/34/34 1282/3/34 1271/3/34 1304/3/34
f 1294/13/57 1283/13/57 1270/26/57 1303/26/57
f 1293/13/62 1282/25/62 1268/25/62 1301/25/62
f 1292/32/35 1281/24/35 1269/24/35 1302/24/35
f 1291/3/26 1280/3/26 1268/3/26 1301/3/26
f 1290/11/56 1279/11/56 1267/23/56 1300/11/56
f 1245/11/56 1290/11/56 1300/11/56 1244/11/56
f 1247/3/26 1291/3/26 1301/3/26 1246/3/26
f 1249/10/26 1292/32/26 1302/24/26 1248/30/26
f 1250/13/60 1293/13/60 1301/25/60 1246/25/60
f 1252/13/57 1294/13/57 1303/26/57 1251/17/57
f 1250/3/26 1293/34/26 1304/3/26 1253/3/26
f 1255/10/27 1295/10/27 1305/32/27 1254/10/27
f 1257/11/56 1296/11/56 1306/27/56 1256/31/56
f 1259/13/57 1297/13/57 1307/28/57 1258/30/57
f 1259/11/56 1297/11/56 1308/23/56 1260/31/56
f 1245/13/57 1290/17/57 1294/13/57 1252/13/57
f 1244/11/56 1300/11/56 1309/11/56 1261/11/56
f 1251/17/57 1303/26/57 1306/13/57 1256/13/57
f 1248/30/26 1302/24/26 1305/32/26 1254/10/26
f 1258/30/26 1307/28/26 1310/33/26 1265/30/26
f 1266/3/26 1299/34/26 1298/35/26 1264/3/26
f 1249/10/59 1292/32/59 1310/33/59 1265/30/59
f 1257/13/57 1296/13/57 1308/29/57 1260/13/57
f 1247/13/57 1291/13/57 1309/13/57 1261/13/57
f 1266/13/27 1299/13/27 1304/25/27 1253/25/27
f 611/10/3 607/10/3 609/10/3 599/10/3 600/10/3 601/13/3 618/11/3 614/13/3 613/11/3 606/17/3 615/13/3 616/13/3 617/11/3 602/11/3 605/13/3 604/3/3 610/13/3 608/3/3 612/13/3 603/3/3 1206/3/3 1215/3/3 1211/13/3 1213/3/3 1207/13/3 1208/3/3 1205/13/3 1220/11/3 1219/11/3 1218/13/3 1209/17/3 1216/13/3 1217/11/3 1221/13/3 1204/11/3 1203/10/3 1202/10/3 1212/10/3 1210/10/3 1214/10/3 1201/10/3 598/10/3
l 674 685
l 681 684
l 1277 1288
l 1284 1287
